<?xml version="1.0" encoding="UTF-8" standalone="no"?>
<!DOCTYPE svg PUBLIC "-//W3C//DTD SVG 1.1//EN" "http://www.w3.org/Graphics/SVG/1.1/DTD/svg11.dtd">
<svg width="100%" height="100%" viewBox="0 0 300 300" version="1.1" xmlns="http://www.w3.org/2000/svg" xmlns:xlink="http://www.w3.org/1999/xlink" xml:space="preserve" xmlns:serif="http://www.serif.com/" style="fill-rule:evenodd;clip-rule:evenodd;stroke-linejoin:round;stroke-miterlimit:2;">
    <g transform="matrix(1,0,0,1,-7865.11,-17574.9)">
        <g id="_0" serif:id="0" transform="matrix(1,0,0,1,360.158,0)">
            <rect x="7504.95" y="17574.9" width="300" height="300" style="fill:none;"/>
            <g transform="matrix(0.742202,0,-0.127104,0.728463,5906.45,15446.3)">
                <g transform="matrix(438.607,0,0,438.607,2729.82,3298.98)">
                    <path d="M0.395,-0.71C0.456,-0.71 0.509,-0.701 0.554,-0.685C0.599,-0.668 0.636,-0.644 0.666,-0.613C0.695,-0.582 0.717,-0.544 0.732,-0.5C0.747,-0.455 0.754,-0.405 0.754,-0.35C0.754,-0.295 0.747,-0.246 0.732,-0.201C0.717,-0.156 0.695,-0.119 0.666,-0.088C0.636,-0.057 0.599,-0.033 0.554,-0.016C0.509,0.002 0.456,0.01 0.395,0.01C0.334,0.01 0.282,0.002 0.237,-0.016C0.192,-0.033 0.154,-0.057 0.125,-0.088C0.095,-0.119 0.073,-0.156 0.058,-0.201C0.043,-0.246 0.036,-0.295 0.036,-0.35C0.036,-0.405 0.043,-0.455 0.058,-0.5C0.073,-0.544 0.095,-0.582 0.125,-0.613C0.154,-0.644 0.192,-0.668 0.237,-0.685C0.282,-0.701 0.334,-0.71 0.395,-0.71ZM0.395,-0.04C0.426,-0.04 0.451,-0.047 0.47,-0.062C0.489,-0.077 0.503,-0.097 0.514,-0.125C0.524,-0.152 0.531,-0.184 0.534,-0.223C0.537,-0.261 0.539,-0.303 0.539,-0.35C0.539,-0.397 0.537,-0.44 0.534,-0.478C0.531,-0.516 0.524,-0.549 0.514,-0.576C0.503,-0.603 0.489,-0.623 0.47,-0.638C0.451,-0.653 0.426,-0.66 0.395,-0.66C0.364,-0.66 0.339,-0.653 0.321,-0.638C0.302,-0.623 0.287,-0.603 0.277,-0.576C0.267,-0.549 0.26,-0.516 0.257,-0.478C0.254,-0.44 0.252,-0.397 0.252,-0.35C0.252,-0.303 0.254,-0.261 0.257,-0.223C0.26,-0.184 0.267,-0.152 0.277,-0.125C0.287,-0.097 0.302,-0.077 0.321,-0.062C0.339,-0.047 0.364,-0.04 0.395,-0.04Z" style="fill-rule:nonzero;stroke:black;stroke-width:0.02px;"/>
                </g>
            </g>
            <g transform="matrix(0.742202,0,-0.127104,0.728463,5893.69,15433.5)">
                <g transform="matrix(438.607,0,0,438.607,2729.82,3298.98)">
                    <path d="M0.395,-0.71C0.456,-0.71 0.509,-0.701 0.554,-0.685C0.599,-0.668 0.636,-0.644 0.666,-0.613C0.695,-0.582 0.717,-0.544 0.732,-0.5C0.747,-0.455 0.754,-0.405 0.754,-0.35C0.754,-0.295 0.747,-0.246 0.732,-0.201C0.717,-0.156 0.695,-0.119 0.666,-0.088C0.636,-0.057 0.599,-0.033 0.554,-0.016C0.509,0.002 0.456,0.01 0.395,0.01C0.334,0.01 0.282,0.002 0.237,-0.016C0.192,-0.033 0.154,-0.057 0.125,-0.088C0.095,-0.119 0.073,-0.156 0.058,-0.201C0.043,-0.246 0.036,-0.295 0.036,-0.35C0.036,-0.405 0.043,-0.455 0.058,-0.5C0.073,-0.544 0.095,-0.582 0.125,-0.613C0.154,-0.644 0.192,-0.668 0.237,-0.685C0.282,-0.701 0.334,-0.71 0.395,-0.71ZM0.395,-0.04C0.426,-0.04 0.451,-0.047 0.47,-0.062C0.489,-0.077 0.503,-0.097 0.514,-0.125C0.524,-0.152 0.531,-0.184 0.534,-0.223C0.537,-0.261 0.539,-0.303 0.539,-0.35C0.539,-0.397 0.537,-0.44 0.534,-0.478C0.531,-0.516 0.524,-0.549 0.514,-0.576C0.503,-0.603 0.489,-0.623 0.47,-0.638C0.451,-0.653 0.426,-0.66 0.395,-0.66C0.364,-0.66 0.339,-0.653 0.321,-0.638C0.302,-0.623 0.287,-0.603 0.277,-0.576C0.267,-0.549 0.26,-0.516 0.257,-0.478C0.254,-0.44 0.252,-0.397 0.252,-0.35C0.252,-0.303 0.254,-0.261 0.257,-0.223C0.26,-0.184 0.267,-0.152 0.277,-0.125C0.287,-0.097 0.302,-0.077 0.321,-0.062C0.339,-0.047 0.364,-0.04 0.395,-0.04Z" style="fill:white;fill-rule:nonzero;"/>
                </g>
                <path d="M2902.37,2983.45C2929.56,2983.45 2953.25,2987.3 2973.42,2994.93C2993.92,3002.67 3010.91,3013.64 3024.43,3027.76C3037.95,3041.89 3048.08,3059.03 3054.76,3079.24C3061.33,3099.09 3064.63,3121.4 3064.63,3146.18C3064.63,3170.58 3061.35,3192.75 3054.8,3212.69C3048.21,3232.77 3038.24,3249.77 3024.9,3263.71C3011.57,3277.64 2994.8,3288.43 2974.59,3296.07C2954.48,3303.67 2930.88,3307.49 2903.78,3307.49C2876.58,3307.49 2852.89,3303.63 2832.72,3296.01C2812.22,3288.27 2795.23,3277.3 2781.71,3263.18C2768.19,3249.05 2758.06,3231.83 2751.38,3211.47C2744.81,3191.47 2741.51,3169.24 2741.51,3144.76C2741.51,3120.06 2744.79,3097.81 2751.34,3078.02C2757.93,3058.09 2767.91,3041.16 2781.24,3027.23C2794.57,3013.3 2811.34,3002.5 2831.56,2994.87C2851.66,2987.27 2875.26,2983.45 2902.37,2983.45ZM2903.07,2987.57C2876.46,2987.57 2853.29,2991.3 2833.55,2998.75C2813.81,3006.21 2797.44,3016.74 2784.43,3030.33C2771.41,3043.93 2761.69,3060.45 2755.26,3079.9C2748.83,3099.34 2745.61,3121.2 2745.61,3145.47C2745.61,3169.45 2748.83,3191.23 2755.26,3210.82C2761.69,3230.41 2771.41,3247.01 2784.43,3260.6C2797.44,3274.2 2813.81,3284.73 2833.55,3292.18C2853.29,3299.64 2876.46,3303.37 2903.07,3303.37C2929.68,3303.37 2952.85,3299.64 2972.59,3292.18C2992.33,3284.73 3008.7,3274.2 3021.71,3260.6C3034.73,3247.01 3044.45,3230.41 3050.88,3210.82C3057.31,3191.23 3060.53,3169.45 3060.53,3145.47C3060.53,3121.2 3057.31,3099.34 3050.88,3079.9C3044.45,3060.45 3034.73,3043.93 3021.71,3030.33C3008.7,3016.74 2992.33,3006.21 2972.59,2998.75C2952.85,2991.3 2929.68,2987.57 2903.07,2987.57ZM2903.07,3281.44C2889.62,3281.44 2878.73,3278.22 2870.39,3271.79C2862.06,3265.35 2855.7,3256.22 2851.32,3244.37C2846.93,3232.53 2844.01,3218.2 2842.54,3201.39C2841.08,3184.58 2840.35,3165.94 2840.35,3145.47C2840.35,3124.71 2841.08,3105.99 2842.54,3089.33C2844.01,3072.66 2846.93,3058.41 2851.32,3046.56C2855.7,3034.72 2862.06,3025.58 2870.39,3019.15C2878.73,3012.72 2889.62,3009.5 2903.07,3009.5C2916.81,3009.5 2927.78,3012.72 2935.97,3019.15C2944.15,3025.58 2950.51,3034.72 2955.05,3046.56C2959.58,3058.41 2962.58,3072.66 2964.04,3089.33C2965.5,3105.99 2966.23,3124.71 2966.23,3145.47C2966.23,3165.94 2965.5,3184.58 2964.04,3201.39C2962.58,3218.2 2959.58,3232.53 2955.05,3244.37C2950.51,3256.22 2944.15,3265.35 2935.97,3271.79C2927.78,3278.22 2916.81,3281.44 2903.07,3281.44ZM2902.37,3277.32C2915.2,3277.32 2925.47,3274.39 2933.11,3268.38C2940.88,3262.28 2946.88,3253.59 2951.18,3242.35C2955.61,3230.78 2958.52,3216.77 2959.95,3200.34C2961.4,3183.63 2962.13,3165.1 2962.13,3144.76C2962.13,3124.13 2961.4,3105.54 2959.95,3088.98C2958.53,3072.78 2955.65,3058.93 2951.24,3047.43C2947.08,3036.56 2941.32,3028.13 2933.8,3022.22C2926.34,3016.36 2916.31,3013.62 2903.78,3013.62C2891.21,3013.62 2881.01,3016.56 2873.23,3022.57C2865.34,3028.66 2859.35,3037.34 2855.2,3048.55C2850.91,3060.13 2848.06,3074.08 2846.63,3090.38C2845.18,3106.94 2844.45,3125.54 2844.45,3146.18C2844.45,3166.51 2845.18,3185.04 2846.63,3201.74C2848.05,3218.1 2850.87,3232.04 2855.14,3243.56C2859.15,3254.39 2864.9,3262.8 2872.52,3268.68C2880.13,3274.56 2890.09,3277.32 2902.37,3277.32Z"/>
            </g>
        </g>
    </g>
</svg>
