<?xml version="1.0" encoding="UTF-8" standalone="no"?>
<!DOCTYPE svg PUBLIC "-//W3C//DTD SVG 1.1//EN" "http://www.w3.org/Graphics/SVG/1.1/DTD/svg11.dtd">
<svg width="100%" height="100%" viewBox="0 0 300 300" version="1.1" xmlns="http://www.w3.org/2000/svg" xmlns:xlink="http://www.w3.org/1999/xlink" xml:space="preserve" xmlns:serif="http://www.serif.com/" style="fill-rule:evenodd;clip-rule:evenodd;stroke-linejoin:round;stroke-miterlimit:2;">
    <g transform="matrix(1,0,0,1,-8218.06,-17574.9)">
        <g id="_1" serif:id="1" transform="matrix(1,0,0,1,713.103,0)">
            <rect x="7504.95" y="17574.9" width="300" height="300" style="fill:none;"/>
            <g transform="matrix(0.742202,0,-0.127104,0.728463,5967.5,15446.3)">
                <g transform="matrix(438.607,0,0,438.607,2729.82,3298.98)">
                    <path d="M0.133,-0.35C0.133,-0.383 0.132,-0.415 0.131,-0.445C0.13,-0.474 0.127,-0.5 0.123,-0.522C0.118,-0.544 0.112,-0.561 0.104,-0.574C0.095,-0.587 0.084,-0.593 0.07,-0.593C0.057,-0.593 0.048,-0.597 0.043,-0.604C0.038,-0.611 0.036,-0.618 0.036,-0.623C0.036,-0.636 0.043,-0.648 0.057,-0.658C0.07,-0.667 0.088,-0.675 0.11,-0.682C0.132,-0.688 0.157,-0.693 0.185,-0.696C0.212,-0.699 0.24,-0.7 0.268,-0.7C0.29,-0.7 0.306,-0.694 0.316,-0.682C0.325,-0.67 0.33,-0.652 0.33,-0.627C0.33,-0.605 0.328,-0.583 0.323,-0.561C0.318,-0.539 0.312,-0.517 0.307,-0.494C0.301,-0.471 0.296,-0.448 0.291,-0.425C0.286,-0.401 0.283,-0.376 0.283,-0.35C0.283,-0.324 0.286,-0.299 0.291,-0.276C0.296,-0.252 0.301,-0.229 0.307,-0.206C0.312,-0.183 0.318,-0.161 0.323,-0.139C0.328,-0.117 0.33,-0.095 0.33,-0.072C0.33,-0.048 0.325,-0.03 0.316,-0.018C0.306,-0.006 0.29,-0 0.268,-0L0.147,-0C0.106,-0 0.085,-0.024 0.085,-0.072C0.085,-0.095 0.088,-0.117 0.093,-0.139C0.097,-0.161 0.103,-0.183 0.109,-0.206C0.115,-0.229 0.121,-0.252 0.126,-0.276C0.131,-0.299 0.133,-0.324 0.133,-0.35Z" style="fill-rule:nonzero;stroke:black;stroke-width:0.02px;"/>
                </g>
            </g>
            <g transform="matrix(0.742202,0,-0.127104,0.728463,5954.74,15433.5)">
                <g transform="matrix(438.607,0,0,438.607,2729.82,3298.98)">
                    <path d="M0.133,-0.35C0.133,-0.383 0.132,-0.415 0.131,-0.445C0.13,-0.474 0.127,-0.5 0.123,-0.522C0.118,-0.544 0.112,-0.561 0.104,-0.574C0.095,-0.587 0.084,-0.593 0.07,-0.593C0.057,-0.593 0.048,-0.597 0.043,-0.604C0.038,-0.611 0.036,-0.618 0.036,-0.623C0.036,-0.636 0.043,-0.648 0.057,-0.658C0.07,-0.667 0.088,-0.675 0.11,-0.682C0.132,-0.688 0.157,-0.693 0.185,-0.696C0.212,-0.699 0.24,-0.7 0.268,-0.7C0.29,-0.7 0.306,-0.694 0.316,-0.682C0.325,-0.67 0.33,-0.652 0.33,-0.627C0.33,-0.605 0.328,-0.583 0.323,-0.561C0.318,-0.539 0.312,-0.517 0.307,-0.494C0.301,-0.471 0.296,-0.448 0.291,-0.425C0.286,-0.401 0.283,-0.376 0.283,-0.35C0.283,-0.324 0.286,-0.299 0.291,-0.276C0.296,-0.252 0.301,-0.229 0.307,-0.206C0.312,-0.183 0.318,-0.161 0.323,-0.139C0.328,-0.117 0.33,-0.095 0.33,-0.072C0.33,-0.048 0.325,-0.03 0.316,-0.018C0.306,-0.006 0.29,-0 0.268,-0L0.147,-0C0.106,-0 0.085,-0.024 0.085,-0.072C0.085,-0.095 0.088,-0.117 0.093,-0.139C0.097,-0.161 0.103,-0.183 0.109,-0.206C0.115,-0.229 0.121,-0.252 0.126,-0.276C0.131,-0.299 0.133,-0.324 0.133,-0.35Z" style="fill:white;fill-rule:nonzero;"/>
                </g>
                <path d="M2784.05,3144.76C2784.05,3130.2 2783.76,3116.45 2783.18,3103.49C2782.61,3090.72 2781.39,3079.61 2779.53,3070.14C2777.77,3061.22 2775.28,3054.18 2771.91,3049.05C2769.25,3045.01 2765.69,3043.01 2761.23,3043.01C2753.29,3043.01 2748.11,3040.19 2745.33,3035.83C2742.68,3031.67 2741.51,3028.05 2741.51,3025.02C2741.51,3018.15 2744.83,3012.08 2751.87,3007.1C2758.13,3002.67 2766.27,2998.99 2776.34,2996.09C2786.17,2993.26 2797.26,2991.17 2809.62,2989.83C2821.89,2988.5 2834.24,2987.84 2846.66,2987.84C2858.08,2987.84 2866.2,2991.39 2871.21,2997.62C2875.98,3003.53 2878.66,3012.53 2878.66,3024.68C2878.66,3034.61 2877.54,3044.54 2875.28,3054.47C2873.08,3064.14 2870.74,3073.97 2868.25,3083.93C2865.77,3093.83 2863.44,3103.95 2861.26,3114.29C2859.12,3124.42 2858.05,3135.05 2858.05,3146.18C2858.05,3157.27 2859.11,3167.87 2861.25,3177.98C2863.43,3188.3 2865.75,3198.41 2868.23,3208.3C2870.72,3218.27 2873.07,3228.1 2875.27,3237.78C2877.53,3247.74 2878.66,3257.85 2878.66,3268.11C2878.66,3279.64 2876.21,3288.23 2871.56,3293.99C2866.76,3299.95 2858.99,3303.1 2848.07,3303.1L2795,3303.1C2784.3,3303.1 2776.35,3299.67 2771,3293.45C2765.87,3287.5 2763,3278.6 2763,3266.69C2763,3256.47 2764.13,3246.39 2766.38,3236.47C2768.58,3226.78 2771.01,3216.94 2773.65,3206.96C2776.26,3197.07 2778.66,3186.97 2780.84,3176.65C2782.98,3166.52 2784.05,3155.89 2784.05,3144.76ZM2788.16,3145.47C2788.16,3156.87 2787.06,3167.76 2784.87,3178.14C2782.67,3188.53 2780.26,3198.69 2777.63,3208.63C2775,3218.57 2772.59,3228.37 2770.39,3238.01C2768.2,3247.66 2767.1,3257.46 2767.1,3267.4C2767.1,3288.45 2776.17,3298.98 2794.3,3298.98L2847.37,3298.98C2857.02,3298.98 2863.96,3296.35 2868.2,3291.09C2872.44,3285.82 2874.56,3277.93 2874.56,3267.4C2874.56,3257.46 2873.47,3247.66 2871.27,3238.01C2869.08,3228.37 2866.74,3218.57 2864.25,3208.63C2861.77,3198.69 2859.43,3188.53 2857.24,3178.14C2855.04,3167.76 2853.95,3156.87 2853.95,3145.47C2853.95,3134.06 2855.04,3123.17 2857.24,3112.79C2859.43,3102.41 2861.77,3092.25 2864.25,3082.31C2866.74,3072.37 2869.08,3062.57 2871.27,3052.92C2873.47,3043.27 2874.56,3033.62 2874.56,3023.97C2874.56,3013.16 2872.44,3005.11 2868.2,2999.85C2863.96,2994.59 2857.02,2991.96 2847.37,2991.96C2835.09,2991.96 2822.88,2992.61 2810.74,2993.93C2798.61,2995.24 2787.72,2997.29 2778.07,3000.07C2768.42,3002.85 2760.6,3006.36 2754.6,3010.6C2748.61,3014.84 2745.61,3019.88 2745.61,3025.73C2745.61,3028.07 2746.63,3030.85 2748.68,3034.06C2750.73,3037.28 2754.68,3038.89 2760.52,3038.89C2766.66,3038.89 2771.56,3041.66 2775.22,3047.22C2778.87,3052.78 2781.65,3060.38 2783.55,3070.03C2785.45,3079.68 2786.69,3091.01 2787.28,3104.02C2787.86,3117.03 2788.16,3130.85 2788.16,3145.47Z"/>
            </g>
        </g>
    </g>
</svg>
