<?xml version="1.0" encoding="UTF-8" standalone="no"?>
<!DOCTYPE svg PUBLIC "-//W3C//DTD SVG 1.1//EN" "http://www.w3.org/Graphics/SVG/1.1/DTD/svg11.dtd">
<svg width="100%" height="100%" viewBox="0 0 300 300" version="1.1" xmlns="http://www.w3.org/2000/svg" xmlns:xlink="http://www.w3.org/1999/xlink" xml:space="preserve" xmlns:serif="http://www.serif.com/" style="fill-rule:evenodd;clip-rule:evenodd;stroke-linejoin:round;stroke-miterlimit:2;">
    <g transform="matrix(1,0,0,1,-8570.93,-17574.9)">
        <g id="_2" serif:id="2" transform="matrix(1,0,0,1,1065.97,0)">
            <rect x="7504.95" y="17574.9" width="300" height="300" style="fill:none;"/>
            <g transform="matrix(0.742202,0,-0.127104,0.728463,5927.4,15446.3)">
                <g transform="matrix(438.607,0,0,438.607,2729.82,3298.98)">
                    <path d="M0.05,-0.034C0.05,-0.074 0.059,-0.111 0.077,-0.146C0.095,-0.181 0.118,-0.213 0.145,-0.244C0.172,-0.275 0.202,-0.304 0.233,-0.331C0.264,-0.358 0.294,-0.385 0.321,-0.412C0.348,-0.438 0.371,-0.464 0.389,-0.49C0.407,-0.515 0.416,-0.541 0.416,-0.568C0.416,-0.575 0.416,-0.584 0.415,-0.595C0.414,-0.605 0.412,-0.615 0.408,-0.625C0.403,-0.634 0.396,-0.643 0.386,-0.65C0.376,-0.657 0.362,-0.66 0.343,-0.66C0.331,-0.66 0.321,-0.659 0.312,-0.657C0.303,-0.655 0.295,-0.651 0.289,-0.644C0.283,-0.637 0.278,-0.627 0.274,-0.614C0.27,-0.601 0.267,-0.582 0.264,-0.559C0.26,-0.524 0.247,-0.498 0.226,-0.482C0.204,-0.466 0.176,-0.458 0.141,-0.458C0.129,-0.458 0.117,-0.46 0.105,-0.464C0.092,-0.467 0.081,-0.473 0.071,-0.482C0.06,-0.49 0.052,-0.5 0.046,-0.513C0.039,-0.526 0.036,-0.541 0.036,-0.559C0.036,-0.588 0.043,-0.613 0.057,-0.632C0.071,-0.651 0.091,-0.667 0.118,-0.679C0.144,-0.69 0.176,-0.698 0.214,-0.703C0.252,-0.708 0.295,-0.71 0.343,-0.71C0.382,-0.71 0.419,-0.707 0.454,-0.7C0.489,-0.693 0.519,-0.683 0.546,-0.669C0.573,-0.655 0.594,-0.637 0.609,-0.616C0.624,-0.594 0.632,-0.568 0.632,-0.538C0.632,-0.505 0.622,-0.476 0.601,-0.45C0.58,-0.424 0.555,-0.4 0.524,-0.379C0.493,-0.358 0.459,-0.338 0.423,-0.32C0.386,-0.301 0.353,-0.284 0.322,-0.267C0.291,-0.249 0.265,-0.233 0.244,-0.216C0.223,-0.199 0.213,-0.182 0.213,-0.163C0.213,-0.158 0.215,-0.154 0.22,-0.153C0.225,-0.152 0.232,-0.151 0.241,-0.151L0.313,-0.151C0.346,-0.151 0.373,-0.154 0.394,-0.161C0.415,-0.168 0.434,-0.175 0.451,-0.184C0.467,-0.192 0.483,-0.199 0.498,-0.206C0.513,-0.213 0.53,-0.216 0.55,-0.216C0.562,-0.216 0.573,-0.213 0.582,-0.208C0.591,-0.202 0.598,-0.194 0.603,-0.185C0.608,-0.176 0.612,-0.165 0.615,-0.153C0.618,-0.141 0.619,-0.129 0.619,-0.117C0.619,-0.075 0.607,-0.045 0.584,-0.027C0.561,-0.009 0.523,-0 0.471,-0L0.083,-0C0.076,-0 0.069,-0.002 0.062,-0.006C0.054,-0.01 0.05,-0.019 0.05,-0.034Z" style="fill-rule:nonzero;stroke:black;stroke-width:0.02px;"/>
                </g>
            </g>
            <g transform="matrix(0.742202,0,-0.127104,0.728463,5914.64,15433.5)">
                <g transform="matrix(438.607,0,0,438.607,2729.82,3298.98)">
                    <path d="M0.05,-0.034C0.05,-0.074 0.059,-0.111 0.077,-0.146C0.095,-0.181 0.118,-0.213 0.145,-0.244C0.172,-0.275 0.202,-0.304 0.233,-0.331C0.264,-0.358 0.294,-0.385 0.321,-0.412C0.348,-0.438 0.371,-0.464 0.389,-0.49C0.407,-0.515 0.416,-0.541 0.416,-0.568C0.416,-0.575 0.416,-0.584 0.415,-0.595C0.414,-0.605 0.412,-0.615 0.408,-0.625C0.403,-0.634 0.396,-0.643 0.386,-0.65C0.376,-0.657 0.362,-0.66 0.343,-0.66C0.331,-0.66 0.321,-0.659 0.312,-0.657C0.303,-0.655 0.295,-0.651 0.289,-0.644C0.283,-0.637 0.278,-0.627 0.274,-0.614C0.27,-0.601 0.267,-0.582 0.264,-0.559C0.26,-0.524 0.247,-0.498 0.226,-0.482C0.204,-0.466 0.176,-0.458 0.141,-0.458C0.129,-0.458 0.117,-0.46 0.105,-0.464C0.092,-0.467 0.081,-0.473 0.071,-0.482C0.06,-0.49 0.052,-0.5 0.046,-0.513C0.039,-0.526 0.036,-0.541 0.036,-0.559C0.036,-0.588 0.043,-0.613 0.057,-0.632C0.071,-0.651 0.091,-0.667 0.118,-0.679C0.144,-0.69 0.176,-0.698 0.214,-0.703C0.252,-0.708 0.295,-0.71 0.343,-0.71C0.382,-0.71 0.419,-0.707 0.454,-0.7C0.489,-0.693 0.519,-0.683 0.546,-0.669C0.573,-0.655 0.594,-0.637 0.609,-0.616C0.624,-0.594 0.632,-0.568 0.632,-0.538C0.632,-0.505 0.622,-0.476 0.601,-0.45C0.58,-0.424 0.555,-0.4 0.524,-0.379C0.493,-0.358 0.459,-0.338 0.423,-0.32C0.386,-0.301 0.353,-0.284 0.322,-0.267C0.291,-0.249 0.265,-0.233 0.244,-0.216C0.223,-0.199 0.213,-0.182 0.213,-0.163C0.213,-0.158 0.215,-0.154 0.22,-0.153C0.225,-0.152 0.232,-0.151 0.241,-0.151L0.313,-0.151C0.346,-0.151 0.373,-0.154 0.394,-0.161C0.415,-0.168 0.434,-0.175 0.451,-0.184C0.467,-0.192 0.483,-0.199 0.498,-0.206C0.513,-0.213 0.53,-0.216 0.55,-0.216C0.562,-0.216 0.573,-0.213 0.582,-0.208C0.591,-0.202 0.598,-0.194 0.603,-0.185C0.608,-0.176 0.612,-0.165 0.615,-0.153C0.618,-0.141 0.619,-0.129 0.619,-0.117C0.619,-0.075 0.607,-0.045 0.584,-0.027C0.561,-0.009 0.523,-0 0.471,-0L0.083,-0C0.076,-0 0.069,-0.002 0.062,-0.006C0.054,-0.01 0.05,-0.019 0.05,-0.034Z" style="fill:white;fill-rule:nonzero;"/>
                </g>
                <path d="M2827.35,3228.07C2829.12,3228.47 2831.61,3228.63 2834.82,3228.63L2866.4,3228.63C2880.28,3228.63 2891.76,3227.24 2900.83,3224.41C2909.98,3221.55 2918.07,3218.33 2925.08,3214.76C2932.3,3211.07 2939.23,3207.76 2945.86,3204.81C2952.86,3201.7 2961.02,3200.12 2970.35,3200.12C2976.54,3200.12 2981.95,3201.66 2986.59,3204.58C2991.27,3207.53 2995,3211.43 2997.78,3216.28C3000.34,3220.77 3002.28,3225.89 3003.56,3231.66C3004.8,3237.23 3005.42,3242.8 3005.42,3248.37C3005.42,3268.1 2999.76,3282.11 2988.8,3290.56C2978.11,3298.81 2960.93,3303.1 2937.11,3303.1L2766.93,3303.1C2763.37,3303.1 2759.53,3302.08 2755.43,3299.94C2750.82,3297.53 2747.65,3292.18 2747.65,3283.36C2747.65,3265.22 2751.72,3248.29 2759.88,3232.57C2767.9,3217.14 2777.99,3202.59 2790.16,3188.93C2802.23,3175.39 2815.19,3162.58 2829.04,3150.5C2842.74,3138.55 2855.57,3126.81 2867.52,3115.3C2879.35,3103.9 2889.16,3092.65 2896.95,3081.55C2904.39,3070.94 2908.18,3060.16 2908.18,3049.14C2908.18,3046 2908.03,3042.21 2907.75,3037.78C2907.49,3033.79 2906.53,3029.93 2904.86,3026.19C2903.32,3022.76 2900.74,3019.84 2897.19,3017.35C2893.42,3014.71 2888.01,3013.62 2880.97,3013.62C2876.02,3013.62 2871.68,3014.02 2867.97,3014.85C2864.71,3015.57 2862,3017.14 2859.83,3019.55C2857.45,3022.19 2855.53,3026.18 2853.95,3031.46C2852.24,3037.15 2850.83,3044.99 2849.69,3054.95C2847.81,3071.54 2841.68,3083.52 2831.51,3091.03C2821.47,3098.45 2808.44,3102.22 2792.37,3102.22C2786.71,3102.22 2780.96,3101.35 2775.14,3099.62C2769.12,3097.83 2763.58,3094.9 2758.53,3090.83C2753.43,3086.71 2749.3,3081.54 2746.17,3075.28C2743.11,3069.17 2741.51,3061.78 2741.51,3053.09C2741.51,3039.39 2744.82,3028.04 2751.36,3019.01C2757.8,3010.11 2767.07,3002.94 2779.19,2997.57C2791.01,2992.33 2805.45,2988.64 2822.51,2986.55C2839.31,2984.49 2858.33,2983.45 2879.56,2983.45C2897.09,2983.45 2913.58,2984.94 2929.03,2987.91C2944.72,2990.93 2958.61,2995.63 2970.68,3001.97C2983.16,3008.52 2992.96,3016.9 3000.14,3027.04C3007.4,3037.3 3011.12,3049.52 3011.12,3063.72C3011.12,3078.85 3006.37,3092.45 2996.8,3104.5C2987.55,3116.13 2976,3126.73 2962.13,3136.27C2948.41,3145.71 2933.52,3154.48 2917.45,3162.59C2901.55,3170.62 2886.82,3178.35 2873.25,3185.79C2859.84,3193.14 2848.67,3200.41 2839.73,3207.62C2831.68,3214.11 2827.4,3220.81 2827.35,3228.07ZM2751.75,3284.07C2751.75,3290.5 2753.43,3294.6 2756.8,3296.35C2760.16,3298.1 2763.3,3298.98 2766.22,3298.98L2936.41,3298.98C2959.21,3298.98 2975.73,3295.03 2985.97,3287.14C2996.2,3279.24 3001.32,3266.09 3001.32,3247.66C3001.32,3242.4 3000.73,3237.14 2999.56,3231.87C2998.39,3226.61 2996.64,3221.93 2994.3,3217.84C2991.96,3213.74 2988.82,3210.45 2984.87,3207.97C2980.92,3205.48 2976.32,3204.24 2971.05,3204.24C2962.28,3204.24 2954.61,3205.7 2948.03,3208.63C2941.45,3211.55 2934.58,3214.84 2927.41,3218.5C2920.25,3222.15 2911.99,3225.44 2902.63,3228.37C2893.28,3231.29 2881.43,3232.75 2867.11,3232.75L2835.53,3232.75C2831.43,3232.75 2828.36,3232.46 2826.31,3231.87C2824.27,3231.29 2823.24,3229.83 2823.24,3227.49C2823.24,3219.3 2827.78,3211.55 2836.84,3204.24C2845.91,3196.93 2857.24,3189.55 2870.83,3182.09C2884.43,3174.64 2899.2,3166.89 2915.13,3158.85C2931.07,3150.81 2945.84,3142.11 2959.43,3132.75C2973.03,3123.39 2984.36,3113.01 2993.42,3101.61C3002.49,3090.2 3007.02,3077.34 3007.02,3063.01C3007.02,3049.85 3003.66,3038.52 2996.93,3029.02C2990.21,3019.51 2981,3011.69 2969.3,3005.55C2957.6,2999.41 2944.15,2994.88 2928.95,2991.96C2913.74,2989.03 2897.51,2987.57 2880.26,2987.57C2859.21,2987.57 2840.35,2988.59 2823.68,2990.64C2807.02,2992.69 2792.91,2996.27 2781.36,3001.39C2769.81,3006.5 2760.96,3013.3 2754.82,3021.78C2748.68,3030.26 2745.61,3040.93 2745.61,3053.8C2745.61,3061.69 2747,3068.42 2749.78,3073.97C2752.55,3079.53 2756.21,3084.14 2760.74,3087.79C2765.28,3091.45 2770.25,3094.08 2775.66,3095.69C2781.07,3097.29 2786.4,3098.1 2791.66,3098.1C2806.87,3098.1 2819.22,3094.59 2828.73,3087.57C2838.23,3080.55 2843.86,3069.3 2845.61,3053.8C2846.78,3043.57 2848.24,3035.52 2850,3029.68C2851.75,3023.83 2853.95,3019.44 2856.58,3016.52C2859.21,3013.59 2862.5,3011.69 2866.45,3010.82C2870.39,3009.94 2875,3009.5 2880.26,3009.5C2888.45,3009.5 2894.74,3011.03 2899.12,3014.11C2903.51,3017.18 2906.65,3020.83 2908.55,3025.07C2910.45,3029.31 2911.55,3033.7 2911.84,3038.23C2912.14,3042.76 2912.28,3046.64 2912.28,3049.85C2912.28,3061.55 2908.33,3073.03 2900.44,3084.28C2892.54,3095.54 2882.6,3106.94 2870.61,3118.49C2858.62,3130.04 2845.76,3141.81 2832.02,3153.8C2818.27,3165.79 2805.41,3178.51 2793.42,3191.96C2781.43,3205.41 2771.49,3219.74 2763.59,3234.94C2755.7,3250.15 2751.75,3266.52 2751.75,3284.07Z"/>
            </g>
        </g>
    </g>
</svg>
