<?xml version="1.0" encoding="UTF-8" standalone="no"?>
<!DOCTYPE svg PUBLIC "-//W3C//DTD SVG 1.1//EN" "http://www.w3.org/Graphics/SVG/1.1/DTD/svg11.dtd">
<svg width="100%" height="100%" viewBox="0 0 300 300" version="1.1" xmlns="http://www.w3.org/2000/svg" xmlns:xlink="http://www.w3.org/1999/xlink" xml:space="preserve" xmlns:serif="http://www.serif.com/" style="fill-rule:evenodd;clip-rule:evenodd;stroke-linejoin:round;stroke-miterlimit:2;">
    <g transform="matrix(1,0,0,1,-8923.8,-17574.9)">
        <g id="_3" serif:id="3" transform="matrix(1,0,0,1,1418.84,0)">
            <rect x="7504.95" y="17574.9" width="300" height="300" style="fill:none;"/>
            <g transform="matrix(0.742202,0,-0.127104,0.728463,5927.24,15446.3)">
                <g transform="matrix(438.607,0,0,438.607,2729.82,3298.98)">
                    <path d="M0.317,-0.375L0.321,-0.375C0.348,-0.375 0.371,-0.386 0.389,-0.408C0.407,-0.43 0.416,-0.467 0.416,-0.52C0.416,-0.539 0.415,-0.557 0.414,-0.574C0.412,-0.591 0.409,-0.606 0.404,-0.619C0.399,-0.632 0.391,-0.642 0.382,-0.649C0.372,-0.656 0.359,-0.66 0.343,-0.66C0.333,-0.66 0.324,-0.659 0.316,-0.657C0.307,-0.655 0.3,-0.651 0.293,-0.644C0.286,-0.637 0.281,-0.627 0.276,-0.614C0.271,-0.601 0.267,-0.582 0.264,-0.559C0.26,-0.524 0.247,-0.498 0.226,-0.482C0.204,-0.466 0.176,-0.458 0.141,-0.458C0.129,-0.458 0.117,-0.46 0.105,-0.464C0.092,-0.467 0.081,-0.473 0.071,-0.482C0.06,-0.49 0.052,-0.5 0.046,-0.513C0.039,-0.526 0.036,-0.541 0.036,-0.559C0.036,-0.588 0.043,-0.613 0.057,-0.632C0.071,-0.651 0.091,-0.667 0.118,-0.679C0.144,-0.69 0.176,-0.698 0.214,-0.703C0.252,-0.708 0.295,-0.71 0.343,-0.71C0.382,-0.71 0.419,-0.707 0.454,-0.7C0.489,-0.693 0.519,-0.683 0.546,-0.668C0.573,-0.653 0.594,-0.633 0.609,-0.61C0.624,-0.586 0.632,-0.557 0.632,-0.523C0.632,-0.491 0.626,-0.465 0.615,-0.446C0.604,-0.426 0.59,-0.41 0.573,-0.399C0.556,-0.388 0.538,-0.38 0.518,-0.375C0.498,-0.37 0.48,-0.366 0.463,-0.364C0.446,-0.361 0.432,-0.359 0.421,-0.358C0.41,-0.357 0.404,-0.354 0.404,-0.35C0.404,-0.346 0.41,-0.343 0.421,-0.342C0.432,-0.341 0.446,-0.339 0.463,-0.337C0.48,-0.334 0.498,-0.331 0.518,-0.326C0.538,-0.321 0.556,-0.314 0.573,-0.303C0.59,-0.292 0.604,-0.278 0.615,-0.26C0.626,-0.241 0.632,-0.217 0.632,-0.187C0.632,-0.15 0.624,-0.12 0.609,-0.095C0.594,-0.07 0.573,-0.049 0.546,-0.034C0.519,-0.019 0.489,-0.008 0.454,-0.001C0.419,0.007 0.382,0.01 0.343,0.01C0.295,0.01 0.252,0.008 0.214,0.003C0.176,-0.002 0.144,-0.01 0.118,-0.022C0.091,-0.033 0.071,-0.049 0.057,-0.068C0.043,-0.087 0.036,-0.112 0.036,-0.141C0.036,-0.159 0.039,-0.174 0.046,-0.187C0.052,-0.2 0.06,-0.21 0.071,-0.219C0.081,-0.227 0.092,-0.233 0.105,-0.237C0.117,-0.24 0.129,-0.242 0.141,-0.242C0.176,-0.242 0.204,-0.234 0.226,-0.218C0.247,-0.202 0.26,-0.176 0.264,-0.141C0.267,-0.118 0.271,-0.1 0.276,-0.087C0.281,-0.073 0.286,-0.063 0.293,-0.056C0.3,-0.049 0.307,-0.045 0.316,-0.043C0.324,-0.041 0.333,-0.04 0.343,-0.04C0.359,-0.04 0.372,-0.044 0.382,-0.051C0.391,-0.058 0.399,-0.069 0.404,-0.082C0.409,-0.095 0.412,-0.11 0.414,-0.127C0.415,-0.143 0.416,-0.161 0.416,-0.18C0.416,-0.206 0.414,-0.228 0.409,-0.247C0.404,-0.266 0.397,-0.281 0.389,-0.292C0.38,-0.303 0.37,-0.312 0.359,-0.317C0.347,-0.322 0.334,-0.325 0.321,-0.325L0.317,-0.325C0.31,-0.325 0.304,-0.328 0.301,-0.333C0.297,-0.338 0.295,-0.344 0.295,-0.35C0.295,-0.356 0.297,-0.362 0.301,-0.367C0.304,-0.372 0.31,-0.375 0.317,-0.375Z" style="fill-rule:nonzero;stroke:black;stroke-width:0.02px;"/>
                </g>
            </g>
            <g transform="matrix(0.742202,0,-0.127104,0.728463,5914.48,15433.5)">
                <g transform="matrix(438.607,0,0,438.607,2729.82,3298.98)">
                    <path d="M0.317,-0.375L0.321,-0.375C0.348,-0.375 0.371,-0.386 0.389,-0.408C0.407,-0.43 0.416,-0.467 0.416,-0.52C0.416,-0.539 0.415,-0.557 0.414,-0.574C0.412,-0.591 0.409,-0.606 0.404,-0.619C0.399,-0.632 0.391,-0.642 0.382,-0.649C0.372,-0.656 0.359,-0.66 0.343,-0.66C0.333,-0.66 0.324,-0.659 0.316,-0.657C0.307,-0.655 0.3,-0.651 0.293,-0.644C0.286,-0.637 0.281,-0.627 0.276,-0.614C0.271,-0.601 0.267,-0.582 0.264,-0.559C0.26,-0.524 0.247,-0.498 0.226,-0.482C0.204,-0.466 0.176,-0.458 0.141,-0.458C0.129,-0.458 0.117,-0.46 0.105,-0.464C0.092,-0.467 0.081,-0.473 0.071,-0.482C0.06,-0.49 0.052,-0.5 0.046,-0.513C0.039,-0.526 0.036,-0.541 0.036,-0.559C0.036,-0.588 0.043,-0.613 0.057,-0.632C0.071,-0.651 0.091,-0.667 0.118,-0.679C0.144,-0.69 0.176,-0.698 0.214,-0.703C0.252,-0.708 0.295,-0.71 0.343,-0.71C0.382,-0.71 0.419,-0.707 0.454,-0.7C0.489,-0.693 0.519,-0.683 0.546,-0.668C0.573,-0.653 0.594,-0.633 0.609,-0.61C0.624,-0.586 0.632,-0.557 0.632,-0.523C0.632,-0.491 0.626,-0.465 0.615,-0.446C0.604,-0.426 0.59,-0.41 0.573,-0.399C0.556,-0.388 0.538,-0.38 0.518,-0.375C0.498,-0.37 0.48,-0.366 0.463,-0.364C0.446,-0.361 0.432,-0.359 0.421,-0.358C0.41,-0.357 0.404,-0.354 0.404,-0.35C0.404,-0.346 0.41,-0.343 0.421,-0.342C0.432,-0.341 0.446,-0.339 0.463,-0.337C0.48,-0.334 0.498,-0.331 0.518,-0.326C0.538,-0.321 0.556,-0.314 0.573,-0.303C0.59,-0.292 0.604,-0.278 0.615,-0.26C0.626,-0.241 0.632,-0.217 0.632,-0.187C0.632,-0.15 0.624,-0.12 0.609,-0.095C0.594,-0.07 0.573,-0.049 0.546,-0.034C0.519,-0.019 0.489,-0.008 0.454,-0.001C0.419,0.007 0.382,0.01 0.343,0.01C0.295,0.01 0.252,0.008 0.214,0.003C0.176,-0.002 0.144,-0.01 0.118,-0.022C0.091,-0.033 0.071,-0.049 0.057,-0.068C0.043,-0.087 0.036,-0.112 0.036,-0.141C0.036,-0.159 0.039,-0.174 0.046,-0.187C0.052,-0.2 0.06,-0.21 0.071,-0.219C0.081,-0.227 0.092,-0.233 0.105,-0.237C0.117,-0.24 0.129,-0.242 0.141,-0.242C0.176,-0.242 0.204,-0.234 0.226,-0.218C0.247,-0.202 0.26,-0.176 0.264,-0.141C0.267,-0.118 0.271,-0.1 0.276,-0.087C0.281,-0.073 0.286,-0.063 0.293,-0.056C0.3,-0.049 0.307,-0.045 0.316,-0.043C0.324,-0.041 0.333,-0.04 0.343,-0.04C0.359,-0.04 0.372,-0.044 0.382,-0.051C0.391,-0.058 0.399,-0.069 0.404,-0.082C0.409,-0.095 0.412,-0.11 0.414,-0.127C0.415,-0.143 0.416,-0.161 0.416,-0.18C0.416,-0.206 0.414,-0.228 0.409,-0.247C0.404,-0.266 0.397,-0.281 0.389,-0.292C0.38,-0.303 0.37,-0.312 0.359,-0.317C0.347,-0.322 0.334,-0.325 0.321,-0.325L0.317,-0.325C0.31,-0.325 0.304,-0.328 0.301,-0.333C0.297,-0.338 0.295,-0.344 0.295,-0.35C0.295,-0.356 0.297,-0.362 0.301,-0.367C0.304,-0.372 0.31,-0.375 0.317,-0.375Z" style="fill:white;fill-rule:nonzero;"/>
                </g>
                <path d="M2919.7,3145.56C2923.54,3146.05 2927.89,3146.63 2932.76,3147.31C2940.19,3148.35 2948.36,3149.91 2957.27,3151.99C2966.59,3154.16 2975.13,3157.75 2982.9,3162.72C2990.85,3167.81 2997.54,3174.71 3002.95,3183.45C3008.3,3192.11 3011.12,3203.51 3011.12,3217.67C3011.12,3234.5 3007.57,3248.63 3000.53,3260.1C2993.53,3271.52 2983.95,3280.73 2971.78,3287.73C2959.78,3294.63 2945.99,3299.66 2930.4,3302.81C2914.96,3305.92 2898.49,3307.49 2880.97,3307.49C2859.73,3307.49 2840.7,3306.45 2823.89,3304.38C2806.71,3302.28 2792.18,3298.55 2780.27,3293.28C2767.8,3287.75 2758.28,3280.34 2751.65,3271.18C2744.98,3261.97 2741.51,3250.4 2741.51,3236.43C2741.51,3227.9 2743.04,3220.64 2746.04,3214.64C2749.03,3208.65 2752.97,3203.7 2757.86,3199.76C2762.73,3195.83 2768.08,3193.01 2773.89,3191.28C2779.66,3189.57 2785.35,3188.72 2790.96,3188.72C2807.3,3188.72 2820.55,3192.65 2830.76,3200.2C2841.26,3207.94 2847.75,3220.26 2849.69,3237.37C2850.81,3246.88 2852.39,3254.5 2854.49,3260.24C2856.37,3265.38 2858.46,3269.25 2860.97,3271.76C2863.19,3273.99 2865.7,3275.45 2868.48,3276.12C2871.84,3276.93 2875.53,3277.32 2879.56,3277.32C2885.69,3277.32 2890.63,3275.98 2894.34,3273.17C2898.12,3270.3 2900.97,3266.3 2902.93,3261.2C2905.02,3255.78 2906.4,3249.51 2907.1,3242.41C2907.82,3235.07 2908.18,3227.38 2908.18,3219.32C2908.18,3208.35 2907.15,3198.93 2905.04,3191.05C2903.03,3183.55 2900.41,3177.51 2897.07,3172.96C2893.97,3168.74 2890.26,3165.63 2885.93,3163.64C2881.38,3161.57 2876.51,3160.55 2871.32,3160.55L2869.57,3160.55C2864.55,3160.55 2860.88,3158.49 2858.37,3154.84C2856.2,3151.68 2855.11,3148.32 2855.11,3144.76C2855.11,3141.43 2856.08,3138.26 2858.12,3135.3C2860.35,3132.05 2863.68,3130.39 2868.15,3130.39L2869.91,3130.39C2880.85,3130.39 2889.89,3125.91 2897.09,3117.11C2904.62,3107.91 2908.18,3092.22 2908.18,3070.2C2908.18,3061.86 2907.82,3054.11 2907.1,3046.92C2906.41,3040.05 2905.06,3033.94 2903,3028.58C2901.18,3023.85 2898.57,3020.12 2895.06,3017.45C2891.53,3014.77 2886.82,3013.62 2880.97,3013.62C2876.9,3013.62 2873.17,3014.02 2869.78,3014.83C2866.7,3015.57 2863.94,3017.21 2861.47,3019.67C2858.81,3022.34 2856.53,3026.36 2854.53,3031.68C2852.42,3037.32 2850.82,3045.08 2849.69,3054.95C2847.81,3071.54 2841.68,3083.52 2831.51,3091.03C2821.47,3098.45 2808.44,3102.22 2792.37,3102.22C2786.71,3102.22 2780.96,3101.35 2775.14,3099.62C2769.12,3097.83 2763.58,3094.9 2758.53,3090.83C2753.43,3086.71 2749.3,3081.54 2746.17,3075.28C2743.11,3069.17 2741.51,3061.78 2741.51,3053.09C2741.51,3039.39 2744.82,3028.04 2751.36,3019.01C2757.8,3010.11 2767.07,3002.94 2779.19,2997.57C2791.01,2992.33 2805.45,2988.64 2822.51,2986.55C2839.31,2984.49 2858.33,2983.45 2879.56,2983.45C2897.09,2983.45 2913.58,2984.94 2929.03,2987.91C2944.77,2990.94 2958.7,2995.88 2970.81,3002.7C2983.28,3009.71 2993.09,3018.78 3000.26,3029.85C3007.43,3040.92 3011.12,3054.39 3011.12,3070.3C3011.12,3085.08 3008.44,3096.99 3003.21,3106.08C2997.98,3115.15 2991.51,3122.28 2983.82,3127.51C2976.19,3132.7 2967.79,3136.44 2958.63,3138.73C2949.72,3140.96 2941.56,3142.59 2934.13,3143.63C2928.67,3144.39 2923.86,3145.04 2919.7,3145.56ZM2868.86,3134.5C2865.64,3134.5 2863.23,3135.67 2861.62,3138.01C2860.01,3140.35 2859.21,3142.84 2859.21,3145.47C2859.21,3148.1 2860.01,3150.59 2861.62,3152.92C2863.23,3155.26 2865.64,3156.43 2868.86,3156.43L2870.61,3156.43C2876.46,3156.43 2881.94,3157.6 2887.06,3159.94C2892.18,3162.28 2896.57,3165.94 2900.22,3170.91C2903.88,3175.88 2906.8,3182.46 2908.99,3190.64C2911.18,3198.83 2912.28,3208.63 2912.28,3220.03C2912.28,3228.22 2911.92,3236.04 2911.18,3243.5C2910.45,3250.95 2908.99,3257.53 2906.8,3263.23C2904.61,3268.94 2901.39,3273.39 2897.15,3276.61C2892.91,3279.83 2887.28,3281.44 2880.26,3281.44C2875.88,3281.44 2871.86,3281 2868.2,3280.12C2864.55,3279.24 2861.26,3277.34 2858.33,3274.42C2855.41,3271.49 2852.85,3267.03 2850.66,3261.04C2848.46,3255.05 2846.78,3247.08 2845.61,3237.14C2843.86,3221.64 2838.23,3210.38 2828.73,3203.36C2819.22,3196.35 2806.87,3192.84 2791.66,3192.84C2786.4,3192.84 2781.07,3193.64 2775.66,3195.25C2770.25,3196.86 2765.28,3199.49 2760.74,3203.14C2756.21,3206.8 2752.55,3211.41 2749.78,3216.96C2747,3222.52 2745.61,3229.24 2745.61,3237.14C2745.61,3250 2748.68,3260.68 2754.82,3269.16C2760.96,3277.64 2769.81,3284.43 2781.36,3289.55C2792.91,3294.67 2807.02,3298.25 2823.68,3300.3C2840.35,3302.34 2859.21,3303.37 2880.26,3303.37C2897.51,3303.37 2913.74,3301.83 2928.95,3298.76C2944.15,3295.69 2957.6,3290.79 2969.3,3284.07C2981,3277.34 2990.21,3268.5 2996.93,3257.53C3003.66,3246.57 3007.02,3233.04 3007.02,3216.96C3007.02,3203.8 3004.53,3193.2 2999.56,3185.16C2994.59,3177.12 2988.45,3170.76 2981.14,3166.08C2973.83,3161.4 2965.79,3158.04 2957.02,3155.99C2948.25,3153.95 2940.21,3152.41 2932.9,3151.39C2925.59,3150.37 2919.45,3149.56 2914.47,3148.98C2909.5,3148.39 2907.02,3147.22 2907.02,3145.47C2907.02,3143.71 2909.5,3142.54 2914.47,3141.96C2919.45,3141.37 2925.59,3140.57 2932.9,3139.55C2940.21,3138.52 2948.25,3136.91 2957.02,3134.72C2965.79,3132.53 2973.83,3128.95 2981.14,3123.98C2988.45,3119.01 2994.59,3112.21 2999.56,3103.58C3004.53,3094.95 3007.02,3083.62 3007.02,3069.59C3007.02,3054.68 3003.66,3042.03 2996.93,3031.65C2990.21,3021.27 2981,3012.79 2969.3,3006.21C2957.6,2999.63 2944.15,2994.88 2928.95,2991.96C2913.74,2989.03 2897.51,2987.57 2880.26,2987.57C2859.21,2987.57 2840.35,2988.59 2823.68,2990.64C2807.02,2992.69 2792.91,2996.27 2781.36,3001.39C2769.81,3006.5 2760.96,3013.3 2754.82,3021.78C2748.68,3030.26 2745.61,3040.93 2745.61,3053.8C2745.61,3061.69 2747,3068.42 2749.78,3073.97C2752.55,3079.53 2756.21,3084.14 2760.74,3087.79C2765.28,3091.45 2770.25,3094.08 2775.66,3095.69C2781.07,3097.29 2786.4,3098.1 2791.66,3098.1C2806.87,3098.1 2819.22,3094.59 2828.73,3087.57C2838.23,3080.55 2843.86,3069.3 2845.61,3053.8C2846.78,3043.57 2848.46,3035.52 2850.66,3029.68C2852.85,3023.83 2855.41,3019.44 2858.33,3016.52C2861.26,3013.59 2864.55,3011.69 2868.2,3010.82C2871.86,3009.94 2875.88,3009.5 2880.26,3009.5C2887.28,3009.5 2892.91,3011.11 2897.15,3014.33C2901.39,3017.54 2904.61,3022 2906.8,3027.7C2908.99,3033.4 2910.45,3039.91 2911.18,3047.22C2911.92,3054.53 2912.28,3062.43 2912.28,3070.91C2912.28,3094.01 2908.33,3110.38 2900.44,3120.03C2892.54,3129.68 2882.6,3134.5 2870.61,3134.5L2868.86,3134.5Z"/>
            </g>
        </g>
    </g>
</svg>
