<?xml version="1.0" encoding="UTF-8" standalone="no"?>
<!DOCTYPE svg PUBLIC "-//W3C//DTD SVG 1.1//EN" "http://www.w3.org/Graphics/SVG/1.1/DTD/svg11.dtd">
<svg width="100%" height="100%" viewBox="0 0 300 300" version="1.1" xmlns="http://www.w3.org/2000/svg" xmlns:xlink="http://www.w3.org/1999/xlink" xml:space="preserve" xmlns:serif="http://www.serif.com/" style="fill-rule:evenodd;clip-rule:evenodd;stroke-linejoin:round;stroke-miterlimit:2;">
    <g transform="matrix(1,0,0,1,-9276.66,-17574.9)">
        <g id="_4" serif:id="4" transform="matrix(1,0,0,1,1771.71,0)">
            <rect x="7504.95" y="17574.9" width="300" height="300" style="fill:none;"/>
            <g transform="matrix(0.742202,0,-0.127104,0.728463,5928.74,15446.3)">
                <g transform="matrix(438.607,0,0,438.607,2729.82,3298.98)">
                    <path d="M0.381,-0.7L0.527,-0.7C0.549,-0.7 0.565,-0.694 0.575,-0.682C0.584,-0.67 0.589,-0.652 0.589,-0.627C0.589,-0.605 0.587,-0.583 0.582,-0.561C0.577,-0.539 0.571,-0.517 0.566,-0.494C0.56,-0.471 0.555,-0.448 0.55,-0.425C0.545,-0.401 0.542,-0.376 0.542,-0.35L0.542,-0.323C0.542,-0.312 0.543,-0.302 0.545,-0.293C0.546,-0.284 0.549,-0.276 0.554,-0.27C0.558,-0.263 0.565,-0.26 0.574,-0.26L0.607,-0.26C0.614,-0.26 0.62,-0.257 0.624,-0.252C0.628,-0.247 0.63,-0.241 0.63,-0.235C0.63,-0.229 0.628,-0.223 0.624,-0.218C0.62,-0.213 0.614,-0.21 0.607,-0.21L0.575,-0.21C0.567,-0.21 0.563,-0.205 0.564,-0.195C0.564,-0.185 0.566,-0.173 0.57,-0.159C0.573,-0.144 0.577,-0.129 0.582,-0.113C0.587,-0.097 0.589,-0.083 0.589,-0.072C0.589,-0.048 0.584,-0.03 0.575,-0.018C0.565,-0.006 0.549,-0 0.527,-0L0.406,-0C0.365,-0 0.344,-0.024 0.344,-0.072C0.344,-0.098 0.346,-0.12 0.35,-0.138C0.354,-0.155 0.357,-0.169 0.36,-0.18C0.363,-0.191 0.363,-0.198 0.362,-0.203C0.36,-0.208 0.353,-0.21 0.341,-0.21L0.064,-0.21C0.049,-0.21 0.041,-0.213 0.039,-0.218C0.036,-0.223 0.035,-0.228 0.035,-0.234C0.035,-0.241 0.042,-0.258 0.057,-0.284C0.071,-0.309 0.089,-0.339 0.112,-0.374C0.135,-0.408 0.16,-0.444 0.187,-0.483C0.214,-0.521 0.241,-0.556 0.266,-0.589C0.291,-0.621 0.315,-0.648 0.336,-0.669C0.357,-0.69 0.372,-0.7 0.381,-0.7ZM0.359,-0.26C0.367,-0.26 0.373,-0.263 0.378,-0.27C0.383,-0.276 0.386,-0.284 0.388,-0.293C0.39,-0.302 0.391,-0.312 0.392,-0.323C0.392,-0.333 0.392,-0.342 0.392,-0.35C0.392,-0.376 0.392,-0.405 0.391,-0.437C0.39,-0.469 0.389,-0.499 0.387,-0.527C0.385,-0.555 0.382,-0.579 0.378,-0.598C0.374,-0.617 0.369,-0.627 0.362,-0.627C0.359,-0.627 0.351,-0.619 0.338,-0.602C0.324,-0.585 0.307,-0.563 0.288,-0.537C0.269,-0.511 0.248,-0.483 0.227,-0.452C0.205,-0.421 0.185,-0.393 0.166,-0.366C0.147,-0.339 0.132,-0.317 0.12,-0.298C0.108,-0.279 0.102,-0.269 0.102,-0.266C0.102,-0.263 0.104,-0.261 0.109,-0.261C0.114,-0.26 0.125,-0.26 0.143,-0.26L0.359,-0.26Z" style="fill-rule:nonzero;stroke:black;stroke-width:0.02px;"/>
                </g>
            </g>
            <g transform="matrix(0.742202,0,-0.127104,0.728463,5915.98,15433.5)">
                <g transform="matrix(438.607,0,0,438.607,2729.82,3298.98)">
                    <path d="M0.381,-0.7L0.527,-0.7C0.549,-0.7 0.565,-0.694 0.575,-0.682C0.584,-0.67 0.589,-0.652 0.589,-0.627C0.589,-0.605 0.587,-0.583 0.582,-0.561C0.577,-0.539 0.571,-0.517 0.566,-0.494C0.56,-0.471 0.555,-0.448 0.55,-0.425C0.545,-0.401 0.542,-0.376 0.542,-0.35L0.542,-0.323C0.542,-0.312 0.543,-0.302 0.545,-0.293C0.546,-0.284 0.549,-0.276 0.554,-0.27C0.558,-0.263 0.565,-0.26 0.574,-0.26L0.607,-0.26C0.614,-0.26 0.62,-0.257 0.624,-0.252C0.628,-0.247 0.63,-0.241 0.63,-0.235C0.63,-0.229 0.628,-0.223 0.624,-0.218C0.62,-0.213 0.614,-0.21 0.607,-0.21L0.575,-0.21C0.567,-0.21 0.563,-0.205 0.564,-0.195C0.564,-0.185 0.566,-0.173 0.57,-0.159C0.573,-0.144 0.577,-0.129 0.582,-0.113C0.587,-0.097 0.589,-0.083 0.589,-0.072C0.589,-0.048 0.584,-0.03 0.575,-0.018C0.565,-0.006 0.549,-0 0.527,-0L0.406,-0C0.365,-0 0.344,-0.024 0.344,-0.072C0.344,-0.098 0.346,-0.12 0.35,-0.138C0.354,-0.155 0.357,-0.169 0.36,-0.18C0.363,-0.191 0.363,-0.198 0.362,-0.203C0.36,-0.208 0.353,-0.21 0.341,-0.21L0.064,-0.21C0.049,-0.21 0.041,-0.213 0.039,-0.218C0.036,-0.223 0.035,-0.228 0.035,-0.234C0.035,-0.241 0.042,-0.258 0.057,-0.284C0.071,-0.309 0.089,-0.339 0.112,-0.374C0.135,-0.408 0.16,-0.444 0.187,-0.483C0.214,-0.521 0.241,-0.556 0.266,-0.589C0.291,-0.621 0.315,-0.648 0.336,-0.669C0.357,-0.69 0.372,-0.7 0.381,-0.7ZM0.359,-0.26C0.367,-0.26 0.373,-0.263 0.378,-0.27C0.383,-0.276 0.386,-0.284 0.388,-0.293C0.39,-0.302 0.391,-0.312 0.392,-0.323C0.392,-0.333 0.392,-0.342 0.392,-0.35C0.392,-0.376 0.392,-0.405 0.391,-0.437C0.39,-0.469 0.389,-0.499 0.387,-0.527C0.385,-0.555 0.382,-0.579 0.378,-0.598C0.374,-0.617 0.369,-0.627 0.362,-0.627C0.359,-0.627 0.351,-0.619 0.338,-0.602C0.324,-0.585 0.307,-0.563 0.288,-0.537C0.269,-0.511 0.248,-0.483 0.227,-0.452C0.205,-0.421 0.185,-0.393 0.166,-0.366C0.147,-0.339 0.132,-0.317 0.12,-0.298C0.108,-0.279 0.102,-0.269 0.102,-0.266C0.102,-0.263 0.104,-0.261 0.109,-0.261C0.114,-0.26 0.125,-0.26 0.143,-0.26L0.359,-0.26Z" style="fill:white;fill-rule:nonzero;"/>
                </g>
                <path d="M2884.72,3211.49C2884.49,3211.41 2884.22,3211.34 2883.99,3211.29C2882.92,3211.08 2881.62,3210.99 2880.09,3210.99L2758.6,3210.99C2753.99,3210.99 2750.55,3210.41 2748.26,3209.46C2747.1,3208.98 2746.14,3208.39 2745.37,3207.75L2744.06,3206.41L2743.04,3204.77C2741.75,3202 2741.07,3198.96 2741.07,3195.64C2741.07,3192.18 2744.19,3184.27 2750.94,3172.18C2757.26,3160.86 2765.41,3147.64 2775.41,3132.5C2785.37,3117.41 2796.35,3101.44 2808.37,3084.6C2820.38,3067.74 2831.96,3052.21 2843.1,3037.99C2854.3,3023.69 2864.55,3011.9 2873.84,3002.62C2879.6,2996.85 2884.42,2992.84 2888.26,2990.53C2891.42,2988.64 2894.12,2987.84 2896.22,2987.84L2960.26,2987.84C2971.68,2987.84 2979.8,2991.39 2984.81,2997.62C2989.58,3003.53 2992.26,3012.53 2992.26,3024.68C2992.26,3034.61 2991.14,3044.54 2988.88,3054.47C2986.68,3064.14 2984.34,3073.97 2981.85,3083.93C2979.37,3093.83 2977.04,3103.95 2974.86,3114.29C2972.72,3124.42 2971.65,3135.05 2971.65,3146.18L2971.65,3158.24C2971.65,3162.51 2971.99,3166.58 2972.68,3170.44C2973.28,3173.78 2974.29,3176.6 2975.85,3178.87C2976.89,3180.39 2978.63,3180.83 2980.88,3180.83L2995.35,3180.83C3000.25,3180.83 3003.97,3182.8 3006.64,3186.36C3009.05,3189.58 3010.25,3193 3010.25,3196.62C3010.25,3199.98 3009.18,3203.19 3006.94,3206.18C3004.54,3209.38 3001.16,3210.99 2996.76,3210.99L2982.72,3210.99C2981.28,3210.99 2981.02,3212.22 2981.08,3214.03C2981.21,3218.16 2982.06,3223.18 2983.57,3229.11C2985.17,3235.35 2986.99,3241.95 2989.02,3248.92C2991.2,3256.41 2992.26,3262.8 2992.26,3268.11C2992.26,3279.64 2989.81,3288.23 2985.16,3293.99C2980.36,3299.95 2972.59,3303.1 2961.67,3303.1L2908.6,3303.1C2897.9,3303.1 2889.95,3299.67 2884.6,3293.45C2879.47,3287.5 2876.6,3278.6 2876.6,3266.69C2876.6,3254.95 2877.52,3245.1 2879.32,3237.13C2881.08,3229.35 2882.55,3223.11 2883.73,3218.41C2884.49,3215.34 2884.95,3213.07 2884.72,3211.49ZM2896.93,2991.96C2892.84,2991.96 2886.18,2996.56 2876.97,3005.77C2867.76,3014.98 2857.6,3026.68 2846.49,3040.86C2835.38,3055.04 2823.83,3070.54 2811.84,3087.35C2799.85,3104.17 2788.89,3120.1 2778.95,3135.16C2769,3150.22 2760.89,3163.38 2754.6,3174.64C2748.32,3185.89 2745.17,3193.13 2745.17,3196.35C2745.17,3198.98 2745.68,3201.39 2746.71,3203.58C2747.73,3205.78 2751.46,3206.87 2757.89,3206.87L2879.39,3206.87C2884.65,3206.87 2887.65,3207.9 2888.38,3209.94C2889.11,3211.99 2888.89,3215.35 2887.72,3220.03C2886.55,3224.71 2885.09,3230.92 2883.33,3238.67C2881.58,3246.42 2880.7,3256 2880.7,3267.4C2880.7,3288.45 2889.77,3298.98 2907.89,3298.98L2960.97,3298.98C2970.62,3298.98 2977.56,3296.35 2981.8,3291.09C2986.04,3285.82 2988.16,3277.93 2988.16,3267.4C2988.16,3262.43 2987.14,3256.44 2985.09,3249.42C2983.04,3242.4 2981.22,3235.75 2979.61,3229.46C2978,3223.18 2977.12,3217.84 2976.98,3213.45C2976.83,3209.07 2978.51,3206.87 2982.02,3206.87L2996.05,3206.87C2999.27,3206.87 3001.76,3205.7 3003.51,3203.36C3005.27,3201.03 3006.14,3198.54 3006.14,3195.91C3006.14,3193.28 3005.27,3190.79 3003.51,3188.45C3001.76,3186.11 2999.27,3184.94 2996.05,3184.94L2981.58,3184.94C2977.49,3184.94 2974.49,3183.55 2972.59,3180.78C2970.69,3178 2969.37,3174.56 2968.64,3170.47C2967.91,3166.38 2967.55,3162.06 2967.55,3157.53L2967.55,3145.47C2967.55,3134.06 2968.64,3123.17 2970.84,3112.79C2973.03,3102.41 2975.37,3092.25 2977.85,3082.31C2980.34,3072.37 2982.68,3062.57 2984.87,3052.92C2987.06,3043.27 2988.16,3033.62 2988.16,3023.97C2988.16,3013.16 2986.04,3005.11 2981.8,2999.85C2977.56,2994.59 2970.62,2991.96 2960.97,2991.96L2896.93,2991.96ZM2887.28,3184.94L2792.54,3184.94C2784.65,3184.94 2779.68,3184.87 2777.63,3184.72C2775.58,3184.58 2774.56,3183.77 2774.56,3182.31C2774.56,3181.14 2777.19,3176.46 2782.45,3168.28C2787.72,3160.09 2794.44,3150.15 2802.63,3138.45C2810.82,3126.75 2819.66,3114.18 2829.16,3100.73C2838.67,3087.28 2847.66,3074.85 2856.14,3063.45C2864.62,3052.05 2871.86,3042.62 2877.85,3035.16C2883.85,3027.7 2887.43,3023.97 2888.6,3023.97C2891.52,3023.97 2893.86,3028.21 2895.61,3036.69C2897.37,3045.17 2898.68,3055.55 2899.56,3067.84C2900.44,3080.12 2901.02,3093.27 2901.32,3107.31C2901.61,3121.35 2901.76,3134.06 2901.76,3145.47C2901.76,3148.98 2901.68,3153 2901.53,3157.53C2901.39,3162.06 2900.88,3166.38 2900,3170.47C2899.12,3174.56 2897.66,3178 2895.61,3180.78C2893.57,3183.55 2890.79,3184.94 2887.28,3184.94ZM2780.14,3180.73C2782.75,3180.8 2786.65,3180.83 2791.84,3180.83L2886.58,3180.83C2888.94,3180.83 2890.79,3179.85 2892.17,3177.98C2893.96,3175.55 2895.21,3172.54 2895.98,3168.96C2896.81,3165.08 2897.3,3160.99 2897.43,3156.69C2897.58,3152.21 2897.65,3148.23 2897.65,3144.76C2897.65,3133.38 2897.51,3120.69 2897.21,3106.68C2896.92,3092.72 2896.34,3079.64 2895.47,3067.42C2894.61,3055.36 2893.32,3045.17 2891.6,3036.84C2890.98,3033.84 2890.3,3031.43 2889.51,3029.63C2889.43,3029.44 2889.33,3029.24 2889.22,3029.04C2887.62,3030.66 2884.56,3033.9 2881.22,3038.06C2875.24,3045.49 2868.03,3054.89 2859.58,3066.26C2851.11,3077.64 2842.14,3090.05 2832.65,3103.48C2823.15,3116.92 2814.3,3129.49 2806.12,3141.18C2797.96,3152.84 2791.26,3162.75 2786.01,3170.91C2783.49,3174.83 2781.44,3178.39 2780.14,3180.73Z"/>
            </g>
        </g>
    </g>
</svg>
