<?xml version="1.0" encoding="UTF-8" standalone="no"?>
<!DOCTYPE svg PUBLIC "-//W3C//DTD SVG 1.1//EN" "http://www.w3.org/Graphics/SVG/1.1/DTD/svg11.dtd">
<svg width="100%" height="100%" viewBox="0 0 300 300" version="1.1" xmlns="http://www.w3.org/2000/svg" xmlns:xlink="http://www.w3.org/1999/xlink" xml:space="preserve" xmlns:serif="http://www.serif.com/" style="fill-rule:evenodd;clip-rule:evenodd;stroke-linejoin:round;stroke-miterlimit:2;">
    <g transform="matrix(1,0,0,1,-9629.53,-17574.9)">
        <g id="_5" serif:id="5" transform="matrix(1,0,0,1,2124.58,0)">
            <rect x="7504.95" y="17574.9" width="300" height="300" style="fill:none;"/>
            <g transform="matrix(0.742202,0,-0.127104,0.728463,5929.98,15446.3)">
                <g transform="matrix(438.607,0,0,438.607,2729.82,3298.98)">
                    <path d="M0.08,-0.661C0.08,-0.674 0.083,-0.683 0.088,-0.69C0.093,-0.697 0.102,-0.7 0.117,-0.7L0.458,-0.7C0.51,-0.701 0.548,-0.692 0.571,-0.674C0.594,-0.655 0.605,-0.625 0.605,-0.583C0.605,-0.571 0.604,-0.559 0.602,-0.547C0.599,-0.535 0.595,-0.525 0.59,-0.516C0.584,-0.506 0.577,-0.499 0.568,-0.494C0.559,-0.488 0.549,-0.485 0.537,-0.485C0.517,-0.485 0.5,-0.488 0.485,-0.495C0.47,-0.502 0.454,-0.509 0.438,-0.518C0.421,-0.526 0.402,-0.533 0.381,-0.54C0.36,-0.547 0.333,-0.55 0.3,-0.55L0.156,-0.55C0.147,-0.55 0.141,-0.549 0.137,-0.547C0.132,-0.544 0.13,-0.539 0.13,-0.532L0.13,-0.464C0.13,-0.456 0.133,-0.451 0.14,-0.45C0.146,-0.448 0.151,-0.447 0.156,-0.447C0.199,-0.447 0.24,-0.447 0.28,-0.447C0.319,-0.446 0.357,-0.444 0.392,-0.44C0.427,-0.436 0.46,-0.43 0.489,-0.421C0.518,-0.412 0.544,-0.399 0.565,-0.383C0.586,-0.366 0.603,-0.345 0.615,-0.319C0.626,-0.293 0.632,-0.261 0.632,-0.224C0.632,-0.187 0.624,-0.155 0.609,-0.126C0.593,-0.096 0.572,-0.072 0.545,-0.052C0.518,-0.032 0.486,-0.017 0.449,-0.006C0.412,0.005 0.373,0.01 0.331,0.01C0.286,0.01 0.246,0.008 0.209,0.003C0.172,-0.002 0.141,-0.01 0.116,-0.022C0.091,-0.033 0.071,-0.049 0.057,-0.068C0.043,-0.087 0.036,-0.112 0.036,-0.141C0.036,-0.159 0.039,-0.174 0.046,-0.187C0.052,-0.2 0.06,-0.21 0.071,-0.219C0.081,-0.227 0.092,-0.233 0.105,-0.237C0.117,-0.24 0.129,-0.242 0.141,-0.242C0.176,-0.242 0.204,-0.234 0.226,-0.218C0.247,-0.202 0.26,-0.176 0.264,-0.141C0.267,-0.118 0.27,-0.1 0.274,-0.087C0.278,-0.074 0.283,-0.064 0.288,-0.057C0.293,-0.049 0.3,-0.045 0.307,-0.044C0.314,-0.042 0.322,-0.041 0.331,-0.041C0.361,-0.041 0.383,-0.057 0.396,-0.088C0.409,-0.119 0.416,-0.163 0.416,-0.219C0.416,-0.264 0.407,-0.298 0.39,-0.323C0.372,-0.347 0.349,-0.365 0.32,-0.377C0.291,-0.388 0.258,-0.395 0.221,-0.397C0.184,-0.399 0.147,-0.4 0.11,-0.4C0.103,-0.4 0.098,-0.401 0.094,-0.404C0.09,-0.407 0.087,-0.41 0.085,-0.414C0.083,-0.417 0.082,-0.421 0.081,-0.426C0.08,-0.43 0.08,-0.434 0.08,-0.437L0.08,-0.661Z" style="fill-rule:nonzero;stroke:black;stroke-width:0.02px;"/>
                </g>
            </g>
            <g transform="matrix(0.742202,0,-0.127104,0.728463,5917.22,15433.5)">
                <g transform="matrix(438.607,0,0,438.607,2729.82,3298.98)">
                    <path d="M0.08,-0.661C0.08,-0.674 0.083,-0.683 0.088,-0.69C0.093,-0.697 0.102,-0.7 0.117,-0.7L0.458,-0.7C0.51,-0.701 0.548,-0.692 0.571,-0.674C0.594,-0.655 0.605,-0.625 0.605,-0.583C0.605,-0.571 0.604,-0.559 0.602,-0.547C0.599,-0.535 0.595,-0.525 0.59,-0.516C0.584,-0.506 0.577,-0.499 0.568,-0.494C0.559,-0.488 0.549,-0.485 0.537,-0.485C0.517,-0.485 0.5,-0.488 0.485,-0.495C0.47,-0.502 0.454,-0.509 0.438,-0.518C0.421,-0.526 0.402,-0.533 0.381,-0.54C0.36,-0.547 0.333,-0.55 0.3,-0.55L0.156,-0.55C0.147,-0.55 0.141,-0.549 0.137,-0.547C0.132,-0.544 0.13,-0.539 0.13,-0.532L0.13,-0.464C0.13,-0.456 0.133,-0.451 0.14,-0.45C0.146,-0.448 0.151,-0.447 0.156,-0.447C0.199,-0.447 0.24,-0.447 0.28,-0.447C0.319,-0.446 0.357,-0.444 0.392,-0.44C0.427,-0.436 0.46,-0.43 0.489,-0.421C0.518,-0.412 0.544,-0.399 0.565,-0.383C0.586,-0.366 0.603,-0.345 0.615,-0.319C0.626,-0.293 0.632,-0.261 0.632,-0.224C0.632,-0.187 0.624,-0.155 0.609,-0.126C0.593,-0.096 0.572,-0.072 0.545,-0.052C0.518,-0.032 0.486,-0.017 0.449,-0.006C0.412,0.005 0.373,0.01 0.331,0.01C0.286,0.01 0.246,0.008 0.209,0.003C0.172,-0.002 0.141,-0.01 0.116,-0.022C0.091,-0.033 0.071,-0.049 0.057,-0.068C0.043,-0.087 0.036,-0.112 0.036,-0.141C0.036,-0.159 0.039,-0.174 0.046,-0.187C0.052,-0.2 0.06,-0.21 0.071,-0.219C0.081,-0.227 0.092,-0.233 0.105,-0.237C0.117,-0.24 0.129,-0.242 0.141,-0.242C0.176,-0.242 0.204,-0.234 0.226,-0.218C0.247,-0.202 0.26,-0.176 0.264,-0.141C0.267,-0.118 0.27,-0.1 0.274,-0.087C0.278,-0.074 0.283,-0.064 0.288,-0.057C0.293,-0.049 0.3,-0.045 0.307,-0.044C0.314,-0.042 0.322,-0.041 0.331,-0.041C0.361,-0.041 0.383,-0.057 0.396,-0.088C0.409,-0.119 0.416,-0.163 0.416,-0.219C0.416,-0.264 0.407,-0.298 0.39,-0.323C0.372,-0.347 0.349,-0.365 0.32,-0.377C0.291,-0.388 0.258,-0.395 0.221,-0.397C0.184,-0.399 0.147,-0.4 0.11,-0.4C0.103,-0.4 0.098,-0.401 0.094,-0.404C0.09,-0.407 0.087,-0.41 0.085,-0.414C0.083,-0.417 0.082,-0.421 0.081,-0.426C0.08,-0.43 0.08,-0.434 0.08,-0.437L0.08,-0.661Z" style="fill:white;fill-rule:nonzero;"/>
                </g>
                <path d="M2791.16,3097.78C2791.23,3097.8 2791.32,3097.84 2791.38,3097.85C2793.74,3098.47 2795.8,3098.81 2797.54,3098.81C2816.26,3098.81 2834.33,3098.88 2851.74,3099.02C2869.29,3099.17 2885.88,3100.13 2901.51,3101.9C2917.3,3103.69 2931.74,3106.6 2944.85,3110.62C2958.32,3114.76 2969.95,3120.6 2979.74,3128.1C2989.78,3135.78 2997.56,3145.72 3003.04,3157.95C3008.38,3169.85 3011.12,3184.35 3011.12,3201.44C3011.12,3218.16 3007.54,3233.13 3000.4,3246.35C2993.31,3259.48 2983.65,3270.58 2971.43,3279.63C2959.29,3288.62 2944.98,3295.53 2928.5,3300.32C2912.09,3305.1 2894.5,3307.49 2875.7,3307.49C2855.92,3307.49 2837.91,3306.45 2821.68,3304.38C2805.07,3302.27 2791.03,3298.53 2779.55,3293.25C2767.55,3287.72 2758.28,3280.33 2751.65,3271.18C2744.98,3261.97 2741.51,3250.4 2741.51,3236.43C2741.51,3227.9 2743.04,3220.64 2746.04,3214.64C2749.03,3208.65 2752.97,3203.7 2757.86,3199.76C2762.73,3195.83 2768.08,3193.01 2773.89,3191.28C2779.66,3189.57 2785.35,3188.72 2790.96,3188.72C2807.3,3188.72 2820.55,3192.65 2830.76,3200.2C2841.26,3207.94 2847.75,3220.26 2849.69,3237.37C2850.82,3246.99 2852.22,3254.63 2853.91,3260.29C2855.46,3265.43 2857.18,3269.38 2859.24,3272.08C2860.78,3274.09 2862.51,3275.42 2864.53,3275.9C2867.32,3276.57 2870.57,3276.88 2874.29,3276.88C2886.08,3276.88 2894.45,3270.55 2899.69,3258.24C2905.39,3244.85 2908.18,3226.16 2908.18,3202.22C2908.18,3183.82 2904.76,3169.58 2897.49,3159.56C2890.31,3149.67 2880.81,3142.38 2869.03,3137.64C2856.72,3132.69 2842.79,3129.81 2827.24,3128.97C2811.23,3128.09 2795.07,3127.66 2778.77,3127.66C2774.78,3127.66 2771.61,3126.69 2769.22,3125.1C2766.7,3123.42 2764.84,3121.39 2763.58,3119.08C2762.44,3117 2761.67,3114.74 2761.29,3112.28C2760.97,3110.14 2760.81,3108.25 2760.81,3106.6L2760.81,3008.35C2760.81,3001.86 2762.2,2996.94 2764.77,2993.52C2767.45,2989.95 2772.57,2987.84 2780.43,2987.84L2929.97,2987.84C2954.14,2987.53 2971.55,2992 2982.24,3000.53C2993.31,3009.35 2999.28,3023.77 2999.28,3043.98C2999.28,3049.49 2998.75,3054.99 2997.68,3060.5C2996.57,3066.21 2994.65,3071.2 2991.96,3075.48C2989.22,3079.83 2985.76,3083.36 2981.58,3086.1C2977.24,3088.93 2972.07,3090.37 2966.06,3090.37C2956.6,3090.37 2948.33,3088.75 2941.24,3085.59C2934.58,3082.64 2927.63,3079.31 2920.39,3075.61C2913.44,3072.07 2905.43,3068.89 2896.36,3066.05C2887.34,3063.23 2875.92,3061.87 2862.11,3061.87L2798.95,3061.87C2795.91,3061.87 2793.6,3062.17 2792.09,3062.99C2791.13,3063.51 2790.94,3064.73 2790.94,3066.35L2790.94,3096.18C2790.94,3096.6 2790.97,3096.98 2791.04,3097.34C2791.06,3097.47 2791.12,3097.66 2791.16,3097.78ZM2764.91,3009.06L2764.91,3107.31C2764.91,3108.77 2765.06,3110.45 2765.35,3112.35C2765.64,3114.25 2766.22,3116.01 2767.1,3117.62C2767.98,3119.22 2769.3,3120.61 2771.05,3121.78C2772.8,3122.95 2775.14,3123.54 2778.07,3123.54C2794.44,3123.54 2810.67,3123.98 2826.75,3124.85C2842.84,3125.73 2857.24,3128.73 2869.96,3133.85C2882.68,3138.96 2892.91,3146.86 2900.66,3157.53C2908.41,3168.2 2912.28,3183.34 2912.28,3202.93C2912.28,3227.49 2909.36,3246.64 2903.51,3260.38C2897.66,3274.13 2888.16,3281 2875,3281C2870.91,3281 2867.32,3280.63 2864.25,3279.9C2861.18,3279.17 2858.48,3277.27 2856.14,3274.2C2853.8,3271.13 2851.75,3266.67 2850,3260.82C2848.24,3254.97 2846.78,3247.08 2845.61,3237.14C2843.86,3221.64 2838.23,3210.38 2828.73,3203.36C2819.22,3196.35 2806.87,3192.84 2791.66,3192.84C2786.4,3192.84 2781.07,3193.64 2775.66,3195.25C2770.25,3196.86 2765.28,3199.49 2760.74,3203.14C2756.21,3206.8 2752.55,3211.41 2749.78,3216.96C2747,3222.52 2745.61,3229.24 2745.61,3237.14C2745.61,3250 2748.68,3260.68 2754.82,3269.16C2760.96,3277.64 2769.59,3284.43 2780.7,3289.55C2791.81,3294.67 2805.41,3298.25 2821.49,3300.3C2837.57,3302.34 2855.41,3303.37 2875,3303.37C2893.42,3303.37 2910.67,3301.03 2926.76,3296.35C2942.84,3291.67 2956.8,3284.95 2968.64,3276.17C2980.49,3267.4 2989.84,3256.66 2996.71,3243.93C3003.59,3231.22 3007.02,3216.82 3007.02,3200.73C3007.02,3184.36 3004.46,3170.47 2999.35,3159.07C2994.23,3147.66 2986.99,3138.38 2977.63,3131.21C2968.28,3124.05 2957.16,3118.49 2944.3,3114.55C2931.43,3110.6 2917.25,3107.75 2901.76,3105.99C2886.26,3104.24 2869.81,3103.29 2852.41,3103.14C2835.01,3103 2816.96,3102.92 2798.24,3102.92C2796.2,3102.92 2793.78,3102.56 2791.01,3101.83C2788.23,3101.1 2786.84,3098.98 2786.84,3095.47L2786.84,3065.64C2786.84,3062.43 2787.79,3060.31 2789.69,3059.28C2791.59,3058.26 2794.44,3057.75 2798.24,3057.75L2861.4,3057.75C2875.73,3057.75 2887.57,3059.21 2896.93,3062.13C2906.29,3065.06 2914.55,3068.35 2921.71,3072C2928.88,3075.66 2935.75,3078.95 2942.33,3081.87C2948.91,3084.79 2956.58,3086.26 2965.35,3086.26C2970.62,3086.26 2975.15,3085.01 2978.95,3082.53C2982.75,3080.04 2985.89,3076.83 2988.38,3072.88C2990.87,3068.93 2992.62,3064.33 2993.64,3059.06C2994.67,3053.8 2995.18,3048.54 2995.18,3043.27C2995.18,3024.85 2990.13,3011.62 2980.05,3003.58C2969.96,2995.54 2953.51,2991.66 2930.7,2991.96L2781.14,2991.96C2774.7,2991.96 2770.39,2993.42 2768.2,2996.34C2766.01,2999.27 2764.91,3003.51 2764.91,3009.06Z"/>
            </g>
        </g>
    </g>
</svg>
