<?xml version="1.0" encoding="UTF-8" standalone="no"?>
<!DOCTYPE svg PUBLIC "-//W3C//DTD SVG 1.1//EN" "http://www.w3.org/Graphics/SVG/1.1/DTD/svg11.dtd">
<svg width="100%" height="100%" viewBox="0 0 300 300" version="1.1" xmlns="http://www.w3.org/2000/svg" xmlns:xlink="http://www.w3.org/1999/xlink" xml:space="preserve" xmlns:serif="http://www.serif.com/" style="fill-rule:evenodd;clip-rule:evenodd;stroke-linejoin:round;stroke-miterlimit:2;">
    <g transform="matrix(1,0,0,1,-9982.4,-17574.9)">
        <g id="_6" serif:id="6" transform="matrix(1,0,0,1,2477.45,0)">
            <rect x="7504.95" y="17574.9" width="300" height="300" style="fill:none;"/>
            <g transform="matrix(0.742202,0,-0.127104,0.728463,5909.02,15446.3)">
                <g transform="matrix(438.607,0,0,438.607,2729.82,3298.98)">
                    <path d="M0.728,-0.21C0.728,-0.172 0.72,-0.139 0.704,-0.112C0.688,-0.084 0.665,-0.061 0.635,-0.043C0.605,-0.025 0.569,-0.012 0.527,-0.003C0.484,0.006 0.437,0.01 0.385,0.01C0.324,0.01 0.272,0.002 0.229,-0.016C0.185,-0.033 0.149,-0.057 0.12,-0.088C0.091,-0.119 0.07,-0.156 0.057,-0.201C0.043,-0.246 0.036,-0.295 0.036,-0.35C0.036,-0.405 0.043,-0.455 0.057,-0.5C0.07,-0.544 0.091,-0.582 0.12,-0.613C0.149,-0.644 0.185,-0.668 0.229,-0.685C0.272,-0.701 0.324,-0.71 0.385,-0.71C0.433,-0.71 0.476,-0.707 0.515,-0.701C0.554,-0.695 0.587,-0.685 0.614,-0.672C0.641,-0.659 0.661,-0.641 0.676,-0.62C0.69,-0.598 0.697,-0.571 0.697,-0.539C0.697,-0.521 0.694,-0.506 0.688,-0.493C0.681,-0.48 0.673,-0.47 0.663,-0.462C0.652,-0.453 0.641,-0.447 0.629,-0.444C0.616,-0.44 0.604,-0.438 0.592,-0.438C0.557,-0.438 0.529,-0.446 0.508,-0.462C0.486,-0.478 0.473,-0.504 0.469,-0.539C0.464,-0.585 0.455,-0.617 0.442,-0.634C0.428,-0.651 0.41,-0.66 0.385,-0.66C0.354,-0.66 0.33,-0.654 0.312,-0.641C0.294,-0.628 0.281,-0.61 0.272,-0.587C0.263,-0.564 0.257,-0.536 0.255,-0.503C0.252,-0.47 0.251,-0.433 0.251,-0.392C0.251,-0.381 0.255,-0.375 0.263,-0.375C0.269,-0.375 0.278,-0.377 0.289,-0.382C0.3,-0.386 0.313,-0.391 0.33,-0.397C0.346,-0.402 0.365,-0.407 0.387,-0.412C0.408,-0.416 0.433,-0.418 0.461,-0.418C0.472,-0.418 0.486,-0.417 0.503,-0.416C0.52,-0.414 0.539,-0.411 0.559,-0.406C0.578,-0.401 0.598,-0.394 0.618,-0.385C0.638,-0.376 0.656,-0.363 0.673,-0.348C0.689,-0.332 0.702,-0.313 0.713,-0.291C0.723,-0.268 0.728,-0.241 0.728,-0.21ZM0.258,-0.188C0.258,-0.141 0.269,-0.104 0.29,-0.079C0.311,-0.053 0.343,-0.04 0.385,-0.04C0.411,-0.04 0.432,-0.045 0.45,-0.055C0.467,-0.065 0.48,-0.078 0.49,-0.095C0.5,-0.112 0.507,-0.131 0.511,-0.154C0.515,-0.176 0.517,-0.199 0.517,-0.223C0.517,-0.253 0.514,-0.277 0.507,-0.296C0.5,-0.314 0.491,-0.328 0.48,-0.338C0.469,-0.347 0.458,-0.354 0.445,-0.357C0.432,-0.36 0.42,-0.362 0.409,-0.362C0.385,-0.362 0.364,-0.357 0.345,-0.347C0.326,-0.336 0.311,-0.323 0.298,-0.307C0.285,-0.29 0.275,-0.272 0.268,-0.251C0.261,-0.23 0.258,-0.209 0.258,-0.188Z" style="fill-rule:nonzero;stroke:black;stroke-width:0.02px;"/>
                </g>
            </g>
            <g transform="matrix(0.742202,0,-0.127104,0.728463,5896.27,15433.5)">
                <g transform="matrix(438.607,0,0,438.607,2729.82,3298.98)">
                    <path d="M0.728,-0.21C0.728,-0.172 0.72,-0.139 0.704,-0.112C0.688,-0.084 0.665,-0.061 0.635,-0.043C0.605,-0.025 0.569,-0.012 0.527,-0.003C0.484,0.006 0.437,0.01 0.385,0.01C0.324,0.01 0.272,0.002 0.229,-0.016C0.185,-0.033 0.149,-0.057 0.12,-0.088C0.091,-0.119 0.07,-0.156 0.057,-0.201C0.043,-0.246 0.036,-0.295 0.036,-0.35C0.036,-0.405 0.043,-0.455 0.057,-0.5C0.07,-0.544 0.091,-0.582 0.12,-0.613C0.149,-0.644 0.185,-0.668 0.229,-0.685C0.272,-0.701 0.324,-0.71 0.385,-0.71C0.433,-0.71 0.476,-0.707 0.515,-0.701C0.554,-0.695 0.587,-0.685 0.614,-0.672C0.641,-0.659 0.661,-0.641 0.676,-0.62C0.69,-0.598 0.697,-0.571 0.697,-0.539C0.697,-0.521 0.694,-0.506 0.688,-0.493C0.681,-0.48 0.673,-0.47 0.663,-0.462C0.652,-0.453 0.641,-0.447 0.629,-0.444C0.616,-0.44 0.604,-0.438 0.592,-0.438C0.557,-0.438 0.529,-0.446 0.508,-0.462C0.486,-0.478 0.473,-0.504 0.469,-0.539C0.464,-0.585 0.455,-0.617 0.442,-0.634C0.428,-0.651 0.41,-0.66 0.385,-0.66C0.354,-0.66 0.33,-0.654 0.312,-0.641C0.294,-0.628 0.281,-0.61 0.272,-0.587C0.263,-0.564 0.257,-0.536 0.255,-0.503C0.252,-0.47 0.251,-0.433 0.251,-0.392C0.251,-0.381 0.255,-0.375 0.263,-0.375C0.269,-0.375 0.278,-0.377 0.289,-0.382C0.3,-0.386 0.313,-0.391 0.33,-0.397C0.346,-0.402 0.365,-0.407 0.387,-0.412C0.408,-0.416 0.433,-0.418 0.461,-0.418C0.472,-0.418 0.486,-0.417 0.503,-0.416C0.52,-0.414 0.539,-0.411 0.559,-0.406C0.578,-0.401 0.598,-0.394 0.618,-0.385C0.638,-0.376 0.656,-0.363 0.673,-0.348C0.689,-0.332 0.702,-0.313 0.713,-0.291C0.723,-0.268 0.728,-0.241 0.728,-0.21ZM0.258,-0.188C0.258,-0.141 0.269,-0.104 0.29,-0.079C0.311,-0.053 0.343,-0.04 0.385,-0.04C0.411,-0.04 0.432,-0.045 0.45,-0.055C0.467,-0.065 0.48,-0.078 0.49,-0.095C0.5,-0.112 0.507,-0.131 0.511,-0.154C0.515,-0.176 0.517,-0.199 0.517,-0.223C0.517,-0.253 0.514,-0.277 0.507,-0.296C0.5,-0.314 0.491,-0.328 0.48,-0.338C0.469,-0.347 0.458,-0.354 0.445,-0.357C0.432,-0.36 0.42,-0.362 0.409,-0.362C0.385,-0.362 0.364,-0.357 0.345,-0.347C0.326,-0.336 0.311,-0.323 0.298,-0.307C0.285,-0.29 0.275,-0.272 0.268,-0.251C0.261,-0.23 0.258,-0.209 0.258,-0.188Z" style="fill:white;fill-rule:nonzero;"/>
                </g>
                <path d="M2844.34,3130.38C2844.39,3130.38 2844.43,3130.39 2844.47,3130.39C2846.8,3130.39 2850.05,3129.46 2854.32,3127.78C2859.18,3125.87 2865.22,3123.66 2872.43,3121.15C2879.73,3118.62 2888.22,3116.38 2897.9,3114.45C2907.62,3112.5 2918.75,3111.53 2931.31,3111.53C2936.09,3111.53 2942.36,3111.89 2950.12,3112.64C2957.93,3113.39 2966.26,3114.89 2975.12,3117.14C2984,3119.4 2992.96,3122.56 3001.99,3126.62C3011.29,3130.81 3019.74,3136.54 3027.34,3143.83C3034.95,3151.13 3041.18,3159.98 3046,3170.39C3050.78,3180.71 3053.23,3193.11 3053.23,3207.58C3053.23,3224.94 3049.55,3239.93 3042.24,3252.58C3034.96,3265.16 3024.51,3275.56 3010.86,3283.75C2997.41,3291.83 2981.2,3297.82 2962.21,3301.71C2943.41,3305.56 2922.48,3307.49 2899.39,3307.49C2872.17,3307.49 2848.76,3303.62 2829.16,3295.99C2809.24,3288.24 2792.76,3277.25 2779.68,3263.11C2766.61,3248.98 2756.92,3231.74 2750.69,3211.38C2744.58,3191.41 2741.51,3169.2 2741.51,3144.76C2741.51,3120.08 2744.57,3097.86 2750.66,3078.09C2756.81,3058.15 2766.34,3041.21 2779.23,3027.27C2792.12,3013.33 2808.38,3002.52 2828.01,2994.88C2847.54,2987.28 2870.86,2983.45 2897.98,2983.45C2919.27,2983.45 2938.48,2984.79 2955.63,2987.45C2973.12,2990.16 2987.96,2994.57 3000.17,3000.6C3012.92,3006.89 3022.64,3015.2 3029.4,3025.42C3036.14,3035.62 3039.63,3048.23 3039.63,3063.28C3039.63,3071.81 3038.1,3079.07 3035.1,3085.07C3032.11,3091.05 3028.16,3096.01 3023.28,3099.94C3018.41,3103.87 3013.06,3106.7 3007.25,3108.43C3001.48,3110.14 2995.79,3110.99 2990.18,3110.99C2973.84,3110.99 2960.59,3107.05 2950.38,3099.51C2939.89,3091.77 2933.39,3079.44 2931.45,3062.34C2929.24,3043.3 2925.72,3030.17 2920.34,3023C2915.54,3016.59 2908.51,3013.62 2899.39,3013.62C2886.8,3013.62 2876.78,3016.14 2869.39,3021.34C2861.99,3026.55 2856.47,3033.96 2852.77,3043.55C2848.93,3053.49 2846.53,3065.5 2845.54,3079.57C2844.52,3093.96 2844.01,3110.02 2844.01,3127.76C2844.01,3128.48 2844.06,3129.13 2844.16,3129.71C2844.2,3129.91 2844.28,3130.18 2844.34,3130.38ZM3049.13,3206.87C3049.13,3193.13 3046.86,3181.36 3042.33,3171.57C3037.8,3161.77 3031.95,3153.44 3024.78,3146.57C3017.62,3139.69 3009.65,3134.28 3000.88,3130.34C2992.11,3126.39 2983.41,3123.32 2974.78,3121.12C2966.16,3118.93 2958.04,3117.47 2950.44,3116.74C2942.84,3116.01 2936.7,3115.64 2932.02,3115.64C2919.74,3115.64 2908.85,3116.59 2899.34,3118.49C2889.84,3120.39 2881.51,3122.59 2874.34,3125.07C2867.18,3127.56 2861.18,3129.75 2856.36,3131.65C2851.53,3133.55 2847.81,3134.5 2845.17,3134.5C2841.67,3134.5 2839.91,3132.02 2839.91,3127.05C2839.91,3109.21 2840.42,3093.06 2841.45,3078.58C2842.47,3064.11 2844.95,3051.75 2848.9,3041.52C2852.85,3031.28 2858.77,3023.39 2866.67,3017.83C2874.56,3012.28 2885.23,3009.5 2898.68,3009.5C2909.5,3009.5 2917.76,3013.3 2923.47,3020.9C2929.17,3028.51 2933.19,3042.39 2935.53,3062.57C2937.28,3078.07 2942.91,3089.33 2952.41,3096.34C2961.92,3103.36 2974.27,3106.87 2989.48,3106.87C2994.74,3106.87 3000.08,3106.07 3005.49,3104.46C3010.89,3102.85 3015.87,3100.22 3020.4,3096.56C3024.93,3092.91 3028.59,3088.3 3031.36,3082.75C3034.14,3077.19 3035.53,3070.47 3035.53,3062.57C3035.53,3048.54 3032.39,3036.77 3026.1,3027.26C3019.81,3017.76 3010.75,3010.09 2998.91,3004.24C2987.06,2998.39 2972.66,2994.15 2955.7,2991.52C2938.74,2988.89 2919.74,2987.57 2898.68,2987.57C2872.08,2987.57 2849.2,2991.3 2830.04,2998.75C2810.89,3006.21 2795.03,3016.74 2782.45,3030.33C2769.88,3043.93 2760.6,3060.45 2754.6,3079.9C2748.61,3099.34 2745.61,3121.2 2745.61,3145.47C2745.61,3169.45 2748.61,3191.23 2754.6,3210.82C2760.6,3230.41 2769.88,3247.01 2782.45,3260.6C2795.03,3274.2 2810.89,3284.73 2830.04,3292.18C2849.2,3299.64 2872.08,3303.37 2898.68,3303.37C2921.49,3303.37 2942.18,3301.47 2960.75,3297.66C2979.32,3293.86 2995.18,3288.01 3008.34,3280.12C3021.49,3272.23 3031.58,3262.21 3038.6,3250.08C3045.62,3237.94 3049.13,3223.54 3049.13,3206.87ZM2842.98,3216.52C2842.98,3207.17 2844.44,3197.95 2847.37,3188.89C2850.29,3179.83 2854.61,3171.71 2860.31,3164.55C2866.01,3157.38 2872.95,3151.54 2881.14,3147C2889.33,3142.47 2898.68,3140.2 2909.21,3140.2C2914.18,3140.2 2919.45,3140.94 2925,3142.4C2930.56,3143.86 2935.67,3146.71 2940.35,3150.95C2945.03,3155.19 2948.91,3161.33 2951.97,3169.37C2955.05,3177.41 2956.58,3188.01 2956.58,3201.17C2956.58,3211.7 2955.7,3221.86 2953.95,3231.65C2952.2,3241.45 2949.12,3250 2944.74,3257.31C2940.35,3264.62 2934.43,3270.47 2926.97,3274.86C2919.52,3279.24 2910.09,3281.44 2898.68,3281.44C2880.26,3281.44 2866.37,3275.81 2857.02,3264.55C2847.66,3253.29 2842.98,3237.28 2842.98,3216.52ZM2847.09,3217.23C2847.09,3236.68 2851.21,3251.71 2859.98,3262.25C2868.49,3272.5 2881.21,3277.32 2897.98,3277.32C2908.65,3277.32 2917.49,3275.32 2924.47,3271.21C2931.46,3267.1 2937.01,3261.62 2941.12,3254.77C2945.31,3247.79 2948.23,3239.62 2949.91,3230.27C2951.62,3220.69 2952.48,3210.76 2952.48,3200.46C2952.48,3187.95 2951.09,3177.88 2948.17,3170.24C2945.44,3163.08 2942.07,3157.56 2937.91,3153.79C2933.86,3150.12 2929.43,3147.64 2924.63,3146.37C2919.45,3145.01 2914.55,3144.32 2909.92,3144.32C2900.04,3144.32 2891.25,3146.44 2883.57,3150.69C2875.75,3155.02 2869.12,3160.6 2863.68,3167.44C2858.22,3174.3 2854.09,3182.06 2851.3,3190.74C2848.49,3199.43 2847.09,3208.26 2847.09,3217.23Z"/>
            </g>
        </g>
    </g>
</svg>
