<?xml version="1.0" encoding="UTF-8" standalone="no"?>
<!DOCTYPE svg PUBLIC "-//W3C//DTD SVG 1.1//EN" "http://www.w3.org/Graphics/SVG/1.1/DTD/svg11.dtd">
<svg width="100%" height="100%" viewBox="0 0 300 300" version="1.1" xmlns="http://www.w3.org/2000/svg" xmlns:xlink="http://www.w3.org/1999/xlink" xml:space="preserve" xmlns:serif="http://www.serif.com/" style="fill-rule:evenodd;clip-rule:evenodd;stroke-linejoin:round;stroke-miterlimit:2;">
    <g transform="matrix(1,0,0,1,-10335.3,-17574.9)">
        <g id="_7" serif:id="7" transform="matrix(1,0,0,1,2830.32,0)">
            <rect x="7504.95" y="17574.9" width="300" height="300" style="fill:none;"/>
            <g transform="matrix(0.742202,0,-0.127104,0.728463,5910.82,15446.3)">
                <g transform="matrix(438.607,0,0,438.607,2729.82,3298.98)">
                    <path d="M0.246,-0C0.225,-0 0.209,-0.006 0.199,-0.017C0.189,-0.028 0.184,-0.043 0.184,-0.062C0.184,-0.087 0.187,-0.112 0.193,-0.137C0.199,-0.162 0.208,-0.187 0.219,-0.213C0.23,-0.239 0.244,-0.266 0.26,-0.295C0.276,-0.324 0.294,-0.354 0.314,-0.387C0.325,-0.404 0.335,-0.423 0.345,-0.442C0.354,-0.461 0.363,-0.481 0.371,-0.5C0.378,-0.519 0.384,-0.537 0.389,-0.555C0.393,-0.573 0.395,-0.589 0.395,-0.604C0.395,-0.615 0.393,-0.624 0.39,-0.63C0.387,-0.636 0.382,-0.641 0.377,-0.644C0.372,-0.647 0.366,-0.648 0.361,-0.649C0.355,-0.65 0.349,-0.65 0.344,-0.65C0.325,-0.65 0.31,-0.646 0.298,-0.638C0.286,-0.629 0.276,-0.619 0.267,-0.607C0.258,-0.595 0.249,-0.582 0.242,-0.567C0.234,-0.552 0.225,-0.539 0.214,-0.527C0.203,-0.515 0.191,-0.505 0.176,-0.497C0.161,-0.488 0.142,-0.484 0.119,-0.484C0.101,-0.484 0.087,-0.487 0.076,-0.493C0.065,-0.499 0.056,-0.507 0.05,-0.517C0.044,-0.527 0.04,-0.539 0.038,-0.553C0.036,-0.566 0.035,-0.581 0.035,-0.596C0.035,-0.632 0.047,-0.658 0.07,-0.675C0.093,-0.692 0.131,-0.7 0.183,-0.7L0.578,-0.7C0.6,-0.7 0.616,-0.694 0.626,-0.683C0.635,-0.672 0.64,-0.656 0.64,-0.637C0.64,-0.612 0.634,-0.588 0.621,-0.565C0.608,-0.541 0.593,-0.517 0.575,-0.494C0.556,-0.47 0.537,-0.446 0.517,-0.423C0.497,-0.399 0.48,-0.375 0.465,-0.35C0.448,-0.321 0.437,-0.293 0.432,-0.265C0.427,-0.237 0.424,-0.211 0.425,-0.186C0.425,-0.161 0.427,-0.137 0.43,-0.115C0.433,-0.093 0.435,-0.074 0.435,-0.057C0.435,-0.039 0.429,-0.025 0.417,-0.015C0.405,-0.005 0.384,-0 0.354,-0L0.246,-0Z" style="fill-rule:nonzero;stroke:black;stroke-width:0.02px;"/>
                </g>
            </g>
            <g transform="matrix(0.742202,0,-0.127104,0.728463,5898.06,15433.5)">
                <g transform="matrix(438.607,0,0,438.607,2729.82,3298.98)">
                    <path d="M0.246,-0C0.225,-0 0.209,-0.006 0.199,-0.017C0.189,-0.028 0.184,-0.043 0.184,-0.062C0.184,-0.087 0.187,-0.112 0.193,-0.137C0.199,-0.162 0.208,-0.187 0.219,-0.213C0.23,-0.239 0.244,-0.266 0.26,-0.295C0.276,-0.324 0.294,-0.354 0.314,-0.387C0.325,-0.404 0.335,-0.423 0.345,-0.442C0.354,-0.461 0.363,-0.481 0.371,-0.5C0.378,-0.519 0.384,-0.537 0.389,-0.555C0.393,-0.573 0.395,-0.589 0.395,-0.604C0.395,-0.615 0.393,-0.624 0.39,-0.63C0.387,-0.636 0.382,-0.641 0.377,-0.644C0.372,-0.647 0.366,-0.648 0.361,-0.649C0.355,-0.65 0.349,-0.65 0.344,-0.65C0.325,-0.65 0.31,-0.646 0.298,-0.638C0.286,-0.629 0.276,-0.619 0.267,-0.607C0.258,-0.595 0.249,-0.582 0.242,-0.567C0.234,-0.552 0.225,-0.539 0.214,-0.527C0.203,-0.515 0.191,-0.505 0.176,-0.497C0.161,-0.488 0.142,-0.484 0.119,-0.484C0.101,-0.484 0.087,-0.487 0.076,-0.493C0.065,-0.499 0.056,-0.507 0.05,-0.517C0.044,-0.527 0.04,-0.539 0.038,-0.553C0.036,-0.566 0.035,-0.581 0.035,-0.596C0.035,-0.632 0.047,-0.658 0.07,-0.675C0.093,-0.692 0.131,-0.7 0.183,-0.7L0.578,-0.7C0.6,-0.7 0.616,-0.694 0.626,-0.683C0.635,-0.672 0.64,-0.656 0.64,-0.637C0.64,-0.612 0.634,-0.588 0.621,-0.565C0.608,-0.541 0.593,-0.517 0.575,-0.494C0.556,-0.47 0.537,-0.446 0.517,-0.423C0.497,-0.399 0.48,-0.375 0.465,-0.35C0.448,-0.321 0.437,-0.293 0.432,-0.265C0.427,-0.237 0.424,-0.211 0.425,-0.186C0.425,-0.161 0.427,-0.137 0.43,-0.115C0.433,-0.093 0.435,-0.074 0.435,-0.057C0.435,-0.039 0.429,-0.025 0.417,-0.015C0.405,-0.005 0.384,-0 0.354,-0L0.246,-0Z" style="fill:white;fill-rule:nonzero;"/>
                </g>
                <path d="M2838.42,3303.1C2827.44,3303.1 2819.45,3299.88 2814.3,3294.22C2809.2,3288.61 2806.42,3280.93 2806.42,3271.08C2806.42,3259.67 2807.77,3248.4 2810.47,3237.29C2813.15,3226.29 2817.01,3214.99 2822.07,3203.39C2827.08,3191.89 2833.12,3179.81 2840.19,3167.14C2847.23,3154.53 2855.15,3141.04 2863.94,3126.67L2863.95,3126.66C2868.58,3119.14 2872.99,3111.18 2877.19,3102.79C2881.39,3094.39 2885.15,3086.07 2888.48,3077.82C2891.78,3069.65 2894.36,3061.7 2896.22,3053.96C2898.04,3046.39 2898.97,3039.52 2898.97,3033.35C2898.97,3029.35 2898.55,3026.28 2897.37,3024.16C2896.41,3022.44 2895.2,3021.11 2893.67,3020.25C2891.89,3019.25 2890.06,3018.64 2888.17,3018.41C2885.85,3018.14 2883.59,3018 2881.41,3018C2874.04,3018 2867.97,3019.6 2863.23,3022.89C2858.24,3026.35 2853.88,3030.58 2850.14,3035.57C2846.29,3040.7 2842.73,3046.4 2839.45,3052.67C2835.97,3059.34 2831.8,3065.4 2826.95,3070.86C2822.04,3076.37 2816.22,3081.05 2809.48,3084.88C2802.59,3088.8 2793.68,3090.81 2782.72,3090.81C2773.93,3090.81 2766.86,3089.22 2761.49,3086.29C2755.8,3083.19 2751.43,3079.04 2748.33,3073.87C2745.4,3068.99 2743.41,3063.22 2742.43,3056.55C2741.52,3050.36 2741.07,3043.8 2741.07,3036.86C2741.07,3019.78 2746.71,3007.34 2757.78,2999.43C2768.45,2991.81 2785.61,2987.84 2809.38,2987.84L2982.63,2987.84C2994,2987.84 3002.09,2991.21 3007.09,2997.06C3011.98,3002.8 3014.63,3010.52 3014.63,3020.3C3014.63,3031.69 3011.74,3042.86 3005.89,3053.79C3000.25,3064.32 2993.36,3074.86 2985.2,3085.39C2977.13,3095.8 2968.7,3106.22 2959.9,3116.63C2951.25,3126.87 2943.75,3137.32 2937.4,3147.99C2930.31,3160.19 2925.61,3172.25 2923.34,3184.17C2921.05,3196.18 2919.97,3207.55 2920.11,3218.27C2920.26,3229.04 2921.04,3239.15 2922.48,3248.62C2923.97,3258.51 2924.72,3267.2 2924.72,3274.69C2924.72,3283.72 2921.67,3290.73 2915.65,3295.75C2909.94,3300.5 2900.05,3303.1 2885.79,3303.1L2838.42,3303.1ZM2837.72,3298.98L2885.09,3298.98C2898.25,3298.98 2907.46,3296.79 2912.72,3292.4C2917.98,3288.01 2920.62,3281.88 2920.62,3273.98C2920.62,3266.67 2919.88,3258.19 2918.42,3248.54C2916.96,3238.89 2916.16,3228.58 2916.01,3217.62C2915.86,3206.65 2916.96,3195.03 2919.3,3182.75C2921.64,3170.47 2926.46,3158.04 2933.77,3145.47C2940.21,3134.65 2947.81,3124.05 2956.58,3113.67C2965.35,3103.29 2973.76,3092.91 2981.8,3082.53C2989.84,3072.15 2996.64,3061.77 3002.2,3051.39C3007.75,3041.01 3010.53,3030.41 3010.53,3019.59C3010.53,3011.11 3008.41,3004.38 3004.17,2999.41C2999.93,2994.44 2992.99,2991.96 2983.34,2991.96L2810.09,2991.96C2787.28,2991.96 2770.76,2995.61 2760.52,3002.92C2750.29,3010.23 2745.17,3021.78 2745.17,3037.57C2745.17,3044.3 2745.61,3050.66 2746.49,3056.65C2747.37,3062.64 2749.12,3067.84 2751.75,3072.22C2754.38,3076.61 2758.11,3080.12 2762.94,3082.75C2767.76,3085.38 2774.12,3086.7 2782.01,3086.7C2792.25,3086.7 2800.58,3084.87 2807.02,3081.21C2813.45,3077.56 2819,3073.1 2823.68,3067.84C2828.36,3062.57 2832.38,3056.72 2835.74,3050.29C2839.11,3043.86 2842.76,3038.01 2846.71,3032.75C2850.66,3027.48 2855.26,3023.02 2860.53,3019.37C2865.79,3015.71 2872.51,3013.89 2880.7,3013.89C2883.04,3013.89 2885.45,3014.03 2887.94,3014.33C2890.42,3014.62 2892.84,3015.42 2895.18,3016.74C2897.51,3018.05 2899.42,3020.03 2900.88,3022.66C2902.34,3025.29 2903.07,3029.09 2903.07,3034.06C2903.07,3040.49 2902.12,3047.66 2900.22,3055.55C2898.32,3063.45 2895.69,3071.56 2892.33,3079.9C2888.96,3088.23 2885.16,3096.64 2880.92,3105.12C2876.68,3113.6 2872.22,3121.64 2867.54,3129.24C2858.77,3143.57 2850.88,3157.02 2843.86,3169.59C2836.84,3182.16 2830.85,3194.15 2825.88,3205.56C2820.91,3216.96 2817.1,3228.07 2814.47,3238.89C2811.84,3249.71 2810.52,3260.68 2810.52,3271.79C2810.52,3280.27 2812.72,3286.92 2817.1,3291.74C2821.49,3296.57 2828.36,3298.98 2837.72,3298.98Z"/>
            </g>
        </g>
    </g>
</svg>
