<?xml version="1.0" encoding="UTF-8" standalone="no"?>
<!DOCTYPE svg PUBLIC "-//W3C//DTD SVG 1.1//EN" "http://www.w3.org/Graphics/SVG/1.1/DTD/svg11.dtd">
<svg width="100%" height="100%" viewBox="0 0 300 300" version="1.1" xmlns="http://www.w3.org/2000/svg" xmlns:xlink="http://www.w3.org/1999/xlink" xml:space="preserve" xmlns:serif="http://www.serif.com/" style="fill-rule:evenodd;clip-rule:evenodd;stroke-linejoin:round;stroke-miterlimit:2;">
    <g transform="matrix(1,0,0,1,-10688.1,-17574.9)">
        <g id="_8" serif:id="8" transform="matrix(1,0,0,1,3183.19,0)">
            <rect x="7504.95" y="17574.9" width="300" height="300" style="fill:none;"/>
            <g transform="matrix(0.742202,0,-0.127104,0.728463,5917.29,15446.3)">
                <g transform="matrix(438.607,0,0,438.607,2729.82,3298.98)">
                    <path d="M0.382,-0.71C0.485,-0.71 0.561,-0.695 0.609,-0.666C0.657,-0.636 0.681,-0.596 0.681,-0.546C0.681,-0.515 0.673,-0.49 0.656,-0.472C0.639,-0.453 0.62,-0.439 0.599,-0.428C0.578,-0.417 0.56,-0.41 0.543,-0.406C0.526,-0.401 0.517,-0.397 0.517,-0.394C0.517,-0.392 0.522,-0.39 0.533,-0.387C0.543,-0.384 0.556,-0.38 0.572,-0.375C0.587,-0.37 0.604,-0.363 0.623,-0.355C0.641,-0.346 0.658,-0.335 0.674,-0.321C0.689,-0.307 0.702,-0.29 0.713,-0.27C0.723,-0.249 0.728,-0.225 0.728,-0.197C0.728,-0.166 0.721,-0.137 0.708,-0.112C0.694,-0.086 0.673,-0.064 0.645,-0.046C0.617,-0.028 0.581,-0.014 0.538,-0.005C0.494,0.005 0.442,0.01 0.382,0.01C0.322,0.01 0.27,0.005 0.227,-0.005C0.183,-0.014 0.147,-0.028 0.119,-0.046C0.091,-0.064 0.07,-0.086 0.057,-0.112C0.043,-0.137 0.036,-0.166 0.036,-0.197C0.036,-0.226 0.041,-0.25 0.052,-0.27C0.062,-0.29 0.075,-0.307 0.091,-0.321C0.106,-0.335 0.123,-0.346 0.142,-0.355C0.16,-0.363 0.177,-0.37 0.193,-0.375C0.208,-0.38 0.221,-0.384 0.232,-0.387C0.242,-0.39 0.247,-0.392 0.247,-0.394C0.247,-0.397 0.239,-0.401 0.222,-0.406C0.205,-0.41 0.186,-0.417 0.165,-0.428C0.144,-0.439 0.126,-0.453 0.109,-0.472C0.092,-0.49 0.083,-0.515 0.083,-0.546C0.083,-0.596 0.107,-0.636 0.155,-0.666C0.203,-0.695 0.279,-0.71 0.382,-0.71ZM0.382,-0.416C0.415,-0.416 0.441,-0.427 0.459,-0.449C0.477,-0.471 0.486,-0.503 0.486,-0.546C0.486,-0.589 0.477,-0.619 0.459,-0.636C0.441,-0.653 0.415,-0.661 0.382,-0.661C0.349,-0.661 0.323,-0.653 0.305,-0.636C0.287,-0.619 0.278,-0.589 0.278,-0.546C0.278,-0.503 0.287,-0.471 0.305,-0.449C0.323,-0.427 0.349,-0.416 0.382,-0.416ZM0.382,-0.04C0.429,-0.04 0.462,-0.053 0.483,-0.078C0.504,-0.103 0.514,-0.143 0.514,-0.197C0.514,-0.251 0.504,-0.293 0.483,-0.322C0.462,-0.351 0.429,-0.366 0.382,-0.366C0.335,-0.366 0.302,-0.351 0.281,-0.322C0.26,-0.293 0.25,-0.251 0.25,-0.197C0.25,-0.143 0.26,-0.103 0.281,-0.078C0.302,-0.053 0.335,-0.04 0.382,-0.04Z" style="fill-rule:nonzero;stroke:black;stroke-width:0.02px;"/>
                </g>
            </g>
            <g transform="matrix(0.742202,0,-0.127104,0.728463,5904.53,15433.5)">
                <g transform="matrix(438.607,0,0,438.607,2729.82,3298.98)">
                    <path d="M0.382,-0.71C0.485,-0.71 0.561,-0.695 0.609,-0.666C0.657,-0.636 0.681,-0.596 0.681,-0.546C0.681,-0.515 0.673,-0.49 0.656,-0.472C0.639,-0.453 0.62,-0.439 0.599,-0.428C0.578,-0.417 0.56,-0.41 0.543,-0.406C0.526,-0.401 0.517,-0.397 0.517,-0.394C0.517,-0.392 0.522,-0.39 0.533,-0.387C0.543,-0.384 0.556,-0.38 0.572,-0.375C0.587,-0.37 0.604,-0.363 0.623,-0.355C0.641,-0.346 0.658,-0.335 0.674,-0.321C0.689,-0.307 0.702,-0.29 0.713,-0.27C0.723,-0.249 0.728,-0.225 0.728,-0.197C0.728,-0.166 0.721,-0.137 0.708,-0.112C0.694,-0.086 0.673,-0.064 0.645,-0.046C0.617,-0.028 0.581,-0.014 0.538,-0.005C0.494,0.005 0.442,0.01 0.382,0.01C0.322,0.01 0.27,0.005 0.227,-0.005C0.183,-0.014 0.147,-0.028 0.119,-0.046C0.091,-0.064 0.07,-0.086 0.057,-0.112C0.043,-0.137 0.036,-0.166 0.036,-0.197C0.036,-0.226 0.041,-0.25 0.052,-0.27C0.062,-0.29 0.075,-0.307 0.091,-0.321C0.106,-0.335 0.123,-0.346 0.142,-0.355C0.16,-0.363 0.177,-0.37 0.193,-0.375C0.208,-0.38 0.221,-0.384 0.232,-0.387C0.242,-0.39 0.247,-0.392 0.247,-0.394C0.247,-0.397 0.239,-0.401 0.222,-0.406C0.205,-0.41 0.186,-0.417 0.165,-0.428C0.144,-0.439 0.126,-0.453 0.109,-0.472C0.092,-0.49 0.083,-0.515 0.083,-0.546C0.083,-0.596 0.107,-0.636 0.155,-0.666C0.203,-0.695 0.279,-0.71 0.382,-0.71ZM0.382,-0.416C0.415,-0.416 0.441,-0.427 0.459,-0.449C0.477,-0.471 0.486,-0.503 0.486,-0.546C0.486,-0.589 0.477,-0.619 0.459,-0.636C0.441,-0.653 0.415,-0.661 0.382,-0.661C0.349,-0.661 0.323,-0.653 0.305,-0.636C0.287,-0.619 0.278,-0.589 0.278,-0.546C0.278,-0.503 0.287,-0.471 0.305,-0.449C0.323,-0.427 0.349,-0.416 0.382,-0.416ZM0.382,-0.04C0.429,-0.04 0.462,-0.053 0.483,-0.078C0.504,-0.103 0.514,-0.143 0.514,-0.197C0.514,-0.251 0.504,-0.293 0.483,-0.322C0.462,-0.351 0.429,-0.366 0.382,-0.366C0.335,-0.366 0.302,-0.351 0.281,-0.322C0.26,-0.293 0.25,-0.251 0.25,-0.197C0.25,-0.143 0.26,-0.103 0.281,-0.078C0.302,-0.053 0.335,-0.04 0.382,-0.04Z" style="fill:white;fill-rule:nonzero;"/>
                </g>
                <path d="M2828.38,3125.59C2827.81,3125.42 2827.22,3125.26 2826.63,3125.11C2818.87,3123.13 2810.28,3119.72 2800.84,3114.86C2791.26,3109.91 2782.52,3103.19 2774.64,3094.69C2766.44,3085.85 2762.12,3073.91 2762.12,3058.79C2762.12,3035.69 2773.07,3017.18 2795.24,3003.48C2816.7,2990.22 2850.47,2983.45 2896.66,2983.45C2943.08,2983.45 2977.06,2990.35 2998.62,3003.68C3021.32,3017.71 3032.62,3036.57 3032.62,3060.21C3032.62,3074.96 3028.55,3086.62 3020.55,3095.25C3012.83,3103.57 3004.27,3110.15 2994.89,3114.99C2985.57,3119.8 2977.06,3123.18 2969.39,3125.13C2968.36,3125.39 2967.36,3125.69 2966.43,3125.99C2970.55,3127.14 2975.47,3128.68 2981.17,3130.62C2988.18,3133.01 2995.78,3136.06 3003.98,3139.79C3012.49,3143.65 3020.37,3148.83 3027.64,3155.33C3034.98,3161.88 3041.08,3169.91 3045.92,3179.44C3050.75,3188.93 3053.23,3200.21 3053.23,3213.28C3053.23,3227.65 3050.1,3240.71 3043.83,3252.48C3037.6,3264.19 3028.11,3274.17 3015.33,3282.39C3002.76,3290.47 2986.69,3296.7 2967.09,3301.04C2947.71,3305.33 2924.7,3307.49 2898.07,3307.49C2871.41,3307.49 2848.37,3305.32 2828.96,3301.02C2809.17,3296.64 2792.94,3290.32 2780.25,3282.16C2767.16,3273.74 2757.45,3263.5 2751.05,3251.5C2744.72,3239.6 2741.51,3226.39 2741.51,3211.87C2741.51,3198.64 2743.93,3187.42 2748.69,3178.19C2753.41,3169.06 2759.35,3161.3 2766.51,3154.91C2773.63,3148.55 2781.35,3143.48 2789.69,3139.69C2797.84,3135.98 2805.4,3132.95 2812.36,3130.58C2818.67,3128.43 2824.01,3126.77 2828.38,3125.59ZM2897.37,2987.57C2852.05,2987.57 2818.86,2994.08 2797.8,3007.09C2776.75,3020.1 2766.22,3037.57 2766.22,3059.5C2766.22,3073.24 2769.95,3084.14 2777.41,3092.18C2784.87,3100.22 2793.13,3106.58 2802.19,3111.26C2811.26,3115.93 2819.52,3119.22 2826.97,3121.12C2834.43,3123.03 2838.16,3124.71 2838.16,3126.17C2838.16,3127.05 2835.89,3128.07 2831.36,3129.24C2826.83,3130.41 2821.12,3132.16 2814.25,3134.5C2807.38,3136.84 2799.93,3139.84 2791.88,3143.49C2783.84,3147.15 2776.39,3152.05 2769.51,3158.19C2762.64,3164.33 2756.94,3171.78 2752.41,3180.56C2747.88,3189.33 2745.61,3200 2745.61,3212.58C2745.61,3226.32 2748.61,3238.82 2754.6,3250.08C2760.6,3261.33 2769.73,3270.91 2782.01,3278.81C2794.3,3286.7 2810.01,3292.77 2829.16,3297.01C2848.32,3301.25 2871.05,3303.37 2897.37,3303.37C2923.68,3303.37 2946.42,3301.25 2965.57,3297.01C2984.72,3292.77 3000.44,3286.7 3012.72,3278.81C3025,3270.91 3034.14,3261.33 3040.14,3250.08C3046.13,3238.82 3049.13,3226.32 3049.13,3212.58C3049.13,3200.29 3046.86,3189.69 3042.33,3180.78C3037.8,3171.86 3032.09,3164.33 3025.22,3158.19C3018.35,3152.05 3010.89,3147.15 3002.85,3143.49C2994.81,3139.84 2987.36,3136.84 2980.49,3134.5C2973.61,3132.16 2967.91,3130.41 2963.38,3129.24C2958.85,3128.07 2956.58,3127.05 2956.58,3126.17C2956.58,3124.71 2960.31,3123.03 2967.76,3121.12C2975.22,3119.22 2983.48,3115.93 2992.55,3111.26C3001.61,3106.58 3009.87,3100.22 3017.33,3092.18C3024.78,3084.14 3028.51,3073.24 3028.51,3059.5C3028.51,3037.57 3017.99,3020.1 2996.93,3007.09C2975.88,2994.08 2942.69,2987.57 2897.37,2987.57ZM2897.37,3281.44C2876.9,3281.44 2862.13,3275.88 2853.07,3264.77C2844.01,3253.66 2839.47,3236.26 2839.47,3212.58C2839.47,3188.89 2844.01,3170.62 2853.07,3157.75C2862.13,3144.88 2876.9,3138.45 2897.37,3138.45C2917.84,3138.45 2932.6,3144.88 2941.67,3157.75C2950.73,3170.62 2955.26,3188.89 2955.26,3212.58C2955.26,3236.26 2950.73,3253.66 2941.67,3264.77C2932.6,3275.88 2917.84,3281.44 2897.37,3281.44ZM2896.66,3277.32C2915.87,3277.32 2929.81,3272.28 2938.32,3261.85C2946.99,3251.22 2951.16,3234.52 2951.16,3211.87C2951.16,3189.35 2947.07,3171.95 2938.45,3159.72C2930.21,3148.02 2916.68,3142.57 2898.07,3142.57C2878.93,3142.57 2865.03,3148.45 2856.55,3160.49C2847.83,3172.87 2843.58,3190.49 2843.58,3213.28C2843.58,3235.61 2847.52,3252.04 2856.06,3262.51C2864.35,3272.67 2877.95,3277.32 2896.66,3277.32ZM2897.37,3116.52C2882.75,3116.52 2871.49,3111.7 2863.6,3102.05C2855.7,3092.4 2851.75,3078.22 2851.75,3059.5C2851.75,3040.49 2855.7,3027.34 2863.6,3020.03C2871.49,3012.72 2882.75,3009.06 2897.37,3009.06C2911.99,3009.06 2923.25,3012.72 2931.14,3020.03C2939.04,3027.34 2942.98,3040.49 2942.98,3059.5C2942.98,3078.22 2939.04,3092.4 2931.14,3102.05C2923.25,3111.7 2911.99,3116.52 2897.37,3116.52ZM2896.66,3112.4C2910.13,3112.4 2920.52,3108.01 2927.79,3099.12C2935.27,3089.99 2938.88,3076.51 2938.88,3058.79C2938.88,3041.51 2935.83,3029.47 2928.66,3022.82C2921.52,3016.21 2911.29,3013.18 2898.07,3013.18C2884.49,3013.18 2873.98,3016.47 2866.65,3023.27C2859.28,3030.09 2855.86,3042.48 2855.86,3060.21C2855.86,3077.6 2859.24,3090.81 2866.58,3099.78C2873.6,3108.36 2883.67,3112.4 2896.66,3112.4Z"/>
            </g>
        </g>
    </g>
</svg>
