<?xml version="1.0" encoding="UTF-8" standalone="no"?>
<!DOCTYPE svg PUBLIC "-//W3C//DTD SVG 1.1//EN" "http://www.w3.org/Graphics/SVG/1.1/DTD/svg11.dtd">
<svg width="100%" height="100%" viewBox="0 0 300 300" version="1.1" xmlns="http://www.w3.org/2000/svg" xmlns:xlink="http://www.w3.org/1999/xlink" xml:space="preserve" xmlns:serif="http://www.serif.com/" style="fill-rule:evenodd;clip-rule:evenodd;stroke-linejoin:round;stroke-miterlimit:2;">
    <g transform="matrix(1,0,0,1,-11041,-17574.9)">
        <g id="_9" serif:id="9" transform="matrix(1,0,0,1,3536.05,0)">
            <rect x="7504.95" y="17574.9" width="300" height="300" style="fill:none;"/>
            <g transform="matrix(0.742202,0,-0.127104,0.728463,5909.98,15446.3)">
                <g transform="matrix(438.607,0,0,438.607,2729.82,3298.98)">
                    <path d="M0.036,-0.49C0.036,-0.528 0.044,-0.561 0.06,-0.589C0.076,-0.616 0.098,-0.639 0.127,-0.657C0.155,-0.675 0.189,-0.688 0.229,-0.697C0.268,-0.706 0.312,-0.71 0.359,-0.71C0.424,-0.71 0.48,-0.701 0.527,-0.685C0.574,-0.668 0.612,-0.644 0.642,-0.613C0.671,-0.582 0.693,-0.544 0.707,-0.5C0.721,-0.455 0.728,-0.405 0.728,-0.35C0.728,-0.295 0.721,-0.246 0.708,-0.201C0.694,-0.156 0.673,-0.119 0.645,-0.088C0.616,-0.057 0.58,-0.033 0.536,-0.016C0.492,0.002 0.44,0.01 0.379,0.01C0.331,0.01 0.288,0.007 0.25,0.001C0.211,-0.005 0.179,-0.015 0.152,-0.029C0.125,-0.042 0.104,-0.06 0.089,-0.082C0.074,-0.103 0.067,-0.13 0.067,-0.161C0.067,-0.179 0.07,-0.194 0.077,-0.207C0.083,-0.22 0.091,-0.23 0.102,-0.239C0.112,-0.247 0.123,-0.253 0.136,-0.257C0.148,-0.26 0.16,-0.262 0.172,-0.262C0.207,-0.262 0.236,-0.254 0.257,-0.239C0.278,-0.223 0.291,-0.197 0.295,-0.161C0.3,-0.116 0.31,-0.084 0.323,-0.067C0.336,-0.049 0.355,-0.04 0.379,-0.04C0.41,-0.04 0.435,-0.046 0.453,-0.059C0.47,-0.072 0.484,-0.09 0.493,-0.113C0.501,-0.136 0.507,-0.165 0.51,-0.198C0.512,-0.231 0.513,-0.267 0.513,-0.308C0.513,-0.319 0.509,-0.325 0.501,-0.325C0.495,-0.325 0.487,-0.323 0.476,-0.319C0.464,-0.314 0.451,-0.309 0.435,-0.304C0.418,-0.298 0.399,-0.293 0.378,-0.289C0.356,-0.284 0.331,-0.282 0.303,-0.282C0.292,-0.282 0.278,-0.283 0.261,-0.285C0.244,-0.286 0.225,-0.29 0.206,-0.295C0.186,-0.3 0.166,-0.307 0.146,-0.316C0.126,-0.325 0.108,-0.337 0.092,-0.353C0.075,-0.368 0.062,-0.387 0.052,-0.41C0.041,-0.432 0.036,-0.459 0.036,-0.49ZM0.506,-0.512C0.506,-0.559 0.495,-0.596 0.474,-0.622C0.453,-0.647 0.421,-0.66 0.379,-0.66C0.353,-0.66 0.332,-0.655 0.315,-0.645C0.298,-0.635 0.284,-0.622 0.274,-0.605C0.264,-0.588 0.257,-0.569 0.253,-0.547C0.249,-0.525 0.247,-0.502 0.247,-0.478C0.247,-0.448 0.251,-0.424 0.258,-0.406C0.265,-0.387 0.273,-0.373 0.284,-0.363C0.295,-0.353 0.306,-0.346 0.319,-0.343C0.332,-0.34 0.344,-0.338 0.355,-0.338C0.379,-0.338 0.4,-0.343 0.419,-0.354C0.438,-0.364 0.454,-0.377 0.467,-0.394C0.48,-0.41 0.489,-0.428 0.496,-0.45C0.503,-0.47 0.506,-0.491 0.506,-0.512Z" style="fill-rule:nonzero;stroke:black;stroke-width:0.02px;"/>
                </g>
            </g>
            <g transform="matrix(0.742202,0,-0.127104,0.728463,5897.22,15433.5)">
                <g transform="matrix(438.607,0,0,438.607,2729.82,3298.98)">
                    <path d="M0.036,-0.49C0.036,-0.528 0.044,-0.561 0.06,-0.589C0.076,-0.616 0.098,-0.639 0.127,-0.657C0.155,-0.675 0.189,-0.688 0.229,-0.697C0.268,-0.706 0.312,-0.71 0.359,-0.71C0.424,-0.71 0.48,-0.701 0.527,-0.685C0.574,-0.668 0.612,-0.644 0.642,-0.613C0.671,-0.582 0.693,-0.544 0.707,-0.5C0.721,-0.455 0.728,-0.405 0.728,-0.35C0.728,-0.295 0.721,-0.246 0.708,-0.201C0.694,-0.156 0.673,-0.119 0.645,-0.088C0.616,-0.057 0.58,-0.033 0.536,-0.016C0.492,0.002 0.44,0.01 0.379,0.01C0.331,0.01 0.288,0.007 0.25,0.001C0.211,-0.005 0.179,-0.015 0.152,-0.029C0.125,-0.042 0.104,-0.06 0.089,-0.082C0.074,-0.103 0.067,-0.13 0.067,-0.161C0.067,-0.179 0.07,-0.194 0.077,-0.207C0.083,-0.22 0.091,-0.23 0.102,-0.239C0.112,-0.247 0.123,-0.253 0.136,-0.257C0.148,-0.26 0.16,-0.262 0.172,-0.262C0.207,-0.262 0.236,-0.254 0.257,-0.239C0.278,-0.223 0.291,-0.197 0.295,-0.161C0.3,-0.116 0.31,-0.084 0.323,-0.067C0.336,-0.049 0.355,-0.04 0.379,-0.04C0.41,-0.04 0.435,-0.046 0.453,-0.059C0.47,-0.072 0.484,-0.09 0.493,-0.113C0.501,-0.136 0.507,-0.165 0.51,-0.198C0.512,-0.231 0.513,-0.267 0.513,-0.308C0.513,-0.319 0.509,-0.325 0.501,-0.325C0.495,-0.325 0.487,-0.323 0.476,-0.319C0.464,-0.314 0.451,-0.309 0.435,-0.304C0.418,-0.298 0.399,-0.293 0.378,-0.289C0.356,-0.284 0.331,-0.282 0.303,-0.282C0.292,-0.282 0.278,-0.283 0.261,-0.285C0.244,-0.286 0.225,-0.29 0.206,-0.295C0.186,-0.3 0.166,-0.307 0.146,-0.316C0.126,-0.325 0.108,-0.337 0.092,-0.353C0.075,-0.368 0.062,-0.387 0.052,-0.41C0.041,-0.432 0.036,-0.459 0.036,-0.49ZM0.506,-0.512C0.506,-0.559 0.495,-0.596 0.474,-0.622C0.453,-0.647 0.421,-0.66 0.379,-0.66C0.353,-0.66 0.332,-0.655 0.315,-0.645C0.298,-0.635 0.284,-0.622 0.274,-0.605C0.264,-0.588 0.257,-0.569 0.253,-0.547C0.249,-0.525 0.247,-0.502 0.247,-0.478C0.247,-0.448 0.251,-0.424 0.258,-0.406C0.265,-0.387 0.273,-0.373 0.284,-0.363C0.295,-0.353 0.306,-0.346 0.319,-0.343C0.332,-0.34 0.344,-0.338 0.355,-0.338C0.379,-0.338 0.4,-0.343 0.419,-0.354C0.438,-0.364 0.454,-0.377 0.467,-0.394C0.48,-0.41 0.489,-0.428 0.496,-0.45C0.503,-0.47 0.506,-0.491 0.506,-0.512Z" style="fill:white;fill-rule:nonzero;"/>
                </g>
                <path d="M2950.4,3160.56C2950.35,3160.55 2950.31,3160.55 2950.27,3160.55C2947.94,3160.55 2944.68,3161.48 2940.42,3163.16C2935.56,3165.07 2929.52,3167.28 2922.3,3169.78C2915.01,3172.32 2906.52,3174.55 2896.84,3176.49C2887.12,3178.43 2875.98,3179.41 2863.42,3179.41C2858.65,3179.41 2852.38,3179.04 2844.61,3178.3C2836.81,3177.55 2828.47,3176.05 2819.62,3173.8C2810.74,3171.54 2801.78,3168.38 2792.75,3164.32C2783.45,3160.13 2775,3154.39 2767.4,3147.11C2759.78,3139.8 2753.55,3130.95 2748.74,3120.54C2743.96,3110.23 2741.51,3097.83 2741.51,3083.36C2741.51,3065.99 2745.19,3051 2752.5,3038.36C2759.77,3025.79 2769.83,3015.41 2782.71,3007.23C2795.44,2999.14 2810.71,2993.13 2828.53,2989.24C2846.18,2985.38 2865.52,2983.45 2886.58,2983.45C2915.81,2983.45 2940.87,2987.3 2961.75,2994.91C2983.01,3002.65 3000.38,3013.63 3013.9,3027.76C3027.44,3041.9 3037.43,3059.07 3043.81,3079.3C3050.08,3099.13 3053.23,3121.42 3053.23,3146.18C3053.23,3170.56 3050.17,3192.7 3044.08,3212.62C3037.93,3232.71 3028.48,3249.72 3015.74,3263.66C3002.99,3277.6 2986.73,3288.41 2966.93,3296.06C2947.26,3303.66 2923.88,3307.49 2896.76,3307.49C2875.47,3307.49 2856.32,3306.15 2839.32,3303.49C2821.97,3300.77 2807.18,3296.28 2794.96,3290.1C2782.26,3283.67 2772.49,3275.31 2765.59,3265.12C2758.67,3254.91 2755.1,3242.43 2755.1,3227.66C2755.1,3219.12 2756.64,3211.87 2759.64,3205.86C2762.63,3199.88 2766.57,3194.93 2771.45,3190.99C2776.33,3187.06 2781.68,3184.24 2787.49,3182.51C2793.26,3180.8 2798.95,3179.95 2804.56,3179.95C2821.2,3179.95 2834.52,3183.82 2844.57,3191.2C2854.9,3198.78 2861.35,3211.17 2863.28,3228.6C2865.49,3247.34 2869.09,3260.4 2874.61,3267.71C2879.53,3274.24 2886.48,3277.32 2895.35,3277.32C2908.2,3277.32 2918.3,3274.81 2925.55,3269.61C2932.81,3264.4 2938.27,3256.98 2941.97,3247.39C2945.81,3237.44 2948.2,3225.43 2949.2,3211.37C2950.22,3196.98 2950.72,3180.92 2950.72,3163.18C2950.72,3162.46 2950.68,3161.81 2950.58,3161.23C2950.54,3161.02 2950.46,3160.76 2950.4,3160.56ZM2745.61,3084.06C2745.61,3097.81 2747.88,3109.58 2752.41,3119.37C2756.94,3129.17 2762.79,3137.5 2769.95,3144.37C2777.12,3151.24 2785.09,3156.65 2793.86,3160.6C2802.63,3164.55 2811.33,3167.62 2819.95,3169.81C2828.58,3172 2836.7,3173.47 2844.3,3174.2C2851.9,3174.93 2858.04,3175.29 2862.72,3175.29C2875,3175.29 2885.89,3174.34 2895.39,3172.44C2904.9,3170.54 2913.23,3168.35 2920.4,3165.86C2927.56,3163.38 2933.55,3161.18 2938.38,3159.28C2943.2,3157.38 2946.93,3156.43 2949.56,3156.43C2953.07,3156.43 2954.83,3158.92 2954.83,3163.89C2954.83,3181.73 2954.32,3197.88 2953.29,3212.36C2952.27,3226.83 2949.78,3239.18 2945.84,3249.42C2941.89,3259.65 2936.04,3267.55 2928.29,3273.1C2920.54,3278.66 2909.8,3281.44 2896.05,3281.44C2885.53,3281.44 2877.34,3277.56 2871.49,3269.81C2865.64,3262.07 2861.55,3248.25 2859.21,3228.37C2857.45,3212.58 2851.9,3201.24 2842.54,3194.37C2833.19,3187.5 2820.76,3184.07 2805.26,3184.07C2800,3184.07 2794.66,3184.87 2789.25,3186.48C2783.84,3188.09 2778.87,3190.72 2774.34,3194.37C2769.81,3198.03 2766.15,3202.63 2763.37,3208.19C2760.6,3213.74 2759.21,3220.47 2759.21,3228.37C2759.21,3242.11 2762.42,3253.73 2768.86,3263.23C2775.29,3272.74 2784.43,3280.49 2796.27,3286.48C2808.11,3292.47 2822.44,3296.79 2839.25,3299.42C2856.07,3302.05 2875,3303.37 2896.05,3303.37C2922.66,3303.37 2945.62,3299.64 2964.91,3292.18C2984.21,3284.73 3000.08,3274.2 3012.5,3260.6C3024.93,3247.01 3034.14,3230.41 3040.14,3210.82C3046.13,3191.23 3049.13,3169.45 3049.13,3145.47C3049.13,3121.2 3046.06,3099.34 3039.92,3079.9C3033.78,3060.45 3024.2,3043.93 3011.19,3030.33C2998.18,3016.74 2981.43,3006.21 2960.97,2998.75C2940.5,2991.3 2915.94,2987.57 2887.28,2987.57C2866.52,2987.57 2847.44,2989.47 2830.04,2993.27C2812.64,2997.07 2797.73,3002.92 2785.3,3010.82C2772.88,3018.71 2763.16,3028.73 2756.14,3040.86C2749.12,3052.99 2745.61,3067.4 2745.61,3084.06ZM2951.76,3074.41C2951.76,3083.48 2950.29,3092.62 2947.37,3101.83C2944.45,3111.04 2940.13,3119.22 2934.43,3126.39C2928.73,3133.55 2921.78,3139.4 2913.6,3143.93C2905.41,3148.47 2896.05,3150.73 2885.53,3150.73C2880.55,3150.73 2875.29,3150 2869.74,3148.54C2864.18,3147.08 2859.06,3144.15 2854.39,3139.77C2849.71,3135.38 2845.83,3129.17 2842.76,3121.12C2839.69,3113.08 2838.16,3102.49 2838.16,3089.33C2838.16,3078.8 2839.03,3068.71 2840.79,3059.06C2842.54,3049.41 2845.61,3040.93 2850,3033.62C2854.39,3026.31 2860.31,3020.47 2867.76,3016.08C2875.22,3011.69 2884.65,3009.5 2896.05,3009.5C2914.47,3009.5 2928.36,3015.13 2937.72,3026.39C2947.08,3037.64 2951.76,3053.65 2951.76,3074.41ZM2947.65,3073.71C2947.65,3054.26 2943.53,3039.23 2934.76,3028.68C2926.24,3018.44 2913.53,3013.62 2896.76,3013.62C2886.09,3013.62 2877.24,3015.62 2870.26,3019.73C2863.28,3023.84 2857.72,3029.32 2853.61,3036.17C2849.43,3043.15 2846.51,3051.24 2844.83,3060.46C2843.12,3069.89 2842.26,3079.75 2842.26,3090.03C2842.26,3102.54 2843.65,3112.62 2846.57,3120.26C2849.32,3127.46 2852.71,3133.06 2856.9,3136.99C2860.93,3140.77 2865.33,3143.3 2870.11,3144.56C2875.29,3145.93 2880.19,3146.61 2884.82,3146.61C2894.7,3146.61 2903.49,3144.5 2911.17,3140.24C2918.98,3135.92 2925.61,3130.34 2931.06,3123.5C2936.51,3116.64 2940.64,3108.81 2943.44,3099.99C2946.24,3091.16 2947.65,3082.4 2947.65,3073.71Z"/>
            </g>
        </g>
    </g>
</svg>
