<?xml version="1.0" encoding="UTF-8" standalone="no"?>
<!DOCTYPE svg PUBLIC "-//W3C//DTD SVG 1.1//EN" "http://www.w3.org/Graphics/SVG/1.1/DTD/svg11.dtd">
<svg width="100%" height="100%" viewBox="0 0 1858 423" version="1.1" xmlns="http://www.w3.org/2000/svg" xmlns:xlink="http://www.w3.org/1999/xlink" xml:space="preserve" xmlns:serif="http://www.serif.com/" style="fill-rule:evenodd;clip-rule:evenodd;stroke-linecap:square;stroke-linejoin:round;stroke-miterlimit:1.5;">
    <g transform="matrix(1,0,0,1,-11404.6,-10269.6)">
        <g id="rope_bottom" transform="matrix(1,0,0,1,7038.11,3873.86)">
            <rect x="4366.45" y="6395.77" width="1857.75" height="422.062" style="fill:none;"/>
            <g transform="matrix(1,0,0,1,-4901.71,-9.47152)">
                <path d="M11017.9,6494.06C10921.3,6671.68 9996.76,6719.55 9356.7,6719.55" style="fill:none;stroke:rgb(255,102,159);stroke-width:49.14px;"/>
            </g>
            <g transform="matrix(1,0,0,1,-4901.71,1.48028)">
                <g transform="matrix(40,-0.0361447,0.0361447,40,9356.66,6719.55)">
                    <path d="M0.159,-0.427L0.159,0.203L0.068,0.203L0.068,-0.528L0.151,-0.528L0.159,-0.427ZM0.515,-0.269L0.515,-0.258C0.515,-0.22 0.511,-0.184 0.501,-0.152C0.492,-0.119 0.479,-0.09 0.462,-0.066C0.444,-0.042 0.423,-0.024 0.397,-0.01C0.372,0.003 0.343,0.01 0.31,0.01C0.277,0.01 0.247,0.004 0.221,-0.007C0.195,-0.018 0.174,-0.034 0.156,-0.055C0.138,-0.076 0.124,-0.102 0.113,-0.131C0.102,-0.161 0.095,-0.194 0.091,-0.231L0.091,-0.286C0.095,-0.325 0.103,-0.36 0.113,-0.391C0.124,-0.422 0.138,-0.448 0.156,-0.47C0.174,-0.492 0.195,-0.509 0.221,-0.521C0.246,-0.532 0.275,-0.538 0.309,-0.538C0.342,-0.538 0.371,-0.532 0.397,-0.519C0.423,-0.506 0.444,-0.488 0.462,-0.464C0.479,-0.44 0.493,-0.412 0.502,-0.379C0.511,-0.346 0.515,-0.309 0.515,-0.269ZM0.424,-0.258L0.424,-0.269C0.424,-0.295 0.422,-0.32 0.416,-0.343C0.41,-0.366 0.402,-0.387 0.39,-0.405C0.379,-0.422 0.364,-0.436 0.346,-0.447C0.328,-0.457 0.307,-0.462 0.282,-0.462C0.259,-0.462 0.24,-0.458 0.223,-0.45C0.206,-0.442 0.192,-0.432 0.18,-0.419C0.168,-0.406 0.159,-0.391 0.152,-0.374C0.144,-0.357 0.139,-0.34 0.135,-0.322L0.135,-0.195C0.142,-0.173 0.151,-0.151 0.163,-0.131C0.174,-0.111 0.19,-0.095 0.209,-0.083C0.229,-0.071 0.254,-0.064 0.283,-0.064C0.308,-0.064 0.329,-0.07 0.346,-0.08C0.364,-0.09 0.379,-0.104 0.39,-0.122C0.402,-0.14 0.41,-0.161 0.416,-0.184C0.422,-0.207 0.424,-0.232 0.424,-0.258Z" style="fill-rule:nonzero;"/>
                </g>
                <g transform="matrix(39.9999,-0.0998605,0.0998605,39.9999,9377.57,6719.54)">
                    <path d="M0.045,-0.258L0.045,-0.27C0.045,-0.308 0.05,-0.343 0.062,-0.376C0.073,-0.408 0.089,-0.437 0.109,-0.461C0.13,-0.485 0.155,-0.504 0.185,-0.518C0.215,-0.531 0.248,-0.538 0.285,-0.538C0.322,-0.538 0.355,-0.531 0.385,-0.518C0.415,-0.504 0.44,-0.485 0.461,-0.461C0.482,-0.437 0.498,-0.408 0.509,-0.376C0.52,-0.343 0.526,-0.308 0.526,-0.27L0.526,-0.258C0.526,-0.22 0.52,-0.185 0.509,-0.152C0.498,-0.12 0.482,-0.091 0.461,-0.067C0.44,-0.043 0.415,-0.024 0.385,-0.01C0.356,0.003 0.323,0.01 0.286,0.01C0.249,0.01 0.215,0.003 0.186,-0.01C0.156,-0.024 0.131,-0.043 0.11,-0.067C0.089,-0.091 0.073,-0.12 0.062,-0.152C0.05,-0.185 0.045,-0.22 0.045,-0.258ZM0.135,-0.27L0.135,-0.258C0.135,-0.232 0.138,-0.207 0.145,-0.184C0.151,-0.161 0.16,-0.14 0.173,-0.122C0.185,-0.104 0.201,-0.09 0.22,-0.08C0.239,-0.07 0.261,-0.064 0.286,-0.064C0.31,-0.064 0.332,-0.07 0.351,-0.08C0.37,-0.09 0.385,-0.104 0.397,-0.122C0.41,-0.14 0.419,-0.161 0.426,-0.184C0.432,-0.207 0.435,-0.232 0.435,-0.258L0.435,-0.27C0.435,-0.296 0.432,-0.32 0.426,-0.344C0.419,-0.367 0.41,-0.387 0.397,-0.406C0.385,-0.424 0.369,-0.438 0.35,-0.448C0.332,-0.459 0.31,-0.464 0.285,-0.464C0.26,-0.464 0.238,-0.459 0.219,-0.448C0.201,-0.438 0.185,-0.424 0.173,-0.406C0.16,-0.387 0.151,-0.367 0.145,-0.344C0.138,-0.32 0.135,-0.296 0.135,-0.27Z" style="fill-rule:nonzero;"/>
                </g>
                <g transform="matrix(39.9997,-0.162915,0.162915,39.9997,9398.8,6719.48)">
                    <path d="M0.288,0.01C0.251,0.01 0.218,0.003 0.188,-0.009C0.158,-0.022 0.133,-0.039 0.112,-0.062C0.09,-0.085 0.074,-0.112 0.063,-0.143C0.051,-0.174 0.045,-0.208 0.045,-0.246L0.045,-0.266C0.045,-0.309 0.052,-0.347 0.064,-0.381C0.077,-0.415 0.094,-0.443 0.116,-0.467C0.138,-0.49 0.163,-0.508 0.19,-0.52C0.218,-0.532 0.247,-0.538 0.276,-0.538C0.314,-0.538 0.347,-0.532 0.374,-0.519C0.402,-0.506 0.424,-0.487 0.442,-0.464C0.459,-0.441 0.472,-0.413 0.481,-0.382C0.489,-0.351 0.494,-0.316 0.494,-0.279L0.494,-0.239L0.099,-0.239L0.099,-0.313L0.403,-0.313L0.403,-0.319C0.402,-0.343 0.397,-0.366 0.389,-0.388C0.381,-0.41 0.368,-0.428 0.35,-0.442C0.332,-0.457 0.307,-0.464 0.276,-0.464C0.256,-0.464 0.237,-0.46 0.22,-0.451C0.202,-0.442 0.188,-0.43 0.175,-0.413C0.163,-0.396 0.153,-0.375 0.146,-0.351C0.14,-0.326 0.136,-0.298 0.136,-0.266L0.136,-0.246C0.136,-0.221 0.14,-0.197 0.147,-0.175C0.154,-0.153 0.164,-0.134 0.177,-0.117C0.191,-0.101 0.207,-0.088 0.227,-0.078C0.246,-0.069 0.268,-0.064 0.293,-0.064C0.325,-0.064 0.352,-0.07 0.374,-0.083C0.396,-0.097 0.416,-0.114 0.432,-0.136L0.487,-0.092C0.475,-0.075 0.461,-0.059 0.443,-0.043C0.426,-0.027 0.404,-0.015 0.379,-0.005C0.353,0.005 0.323,0.01 0.288,0.01Z" style="fill-rule:nonzero;"/>
                </g>
                <g transform="matrix(39.9995,-0.207772,0.207772,39.9995,9418.37,6719.4)">
                    <path d="M0.29,-0.528L0.29,-0.459L0.004,-0.459L0.004,-0.528L0.29,-0.528ZM0.101,-0.657L0.191,-0.657L0.191,-0.131C0.191,-0.113 0.194,-0.099 0.2,-0.09C0.205,-0.081 0.212,-0.075 0.221,-0.072C0.23,-0.069 0.239,-0.068 0.25,-0.068C0.257,-0.068 0.265,-0.069 0.273,-0.07C0.281,-0.072 0.288,-0.073 0.292,-0.074L0.292,-0C0.285,0.002 0.276,0.004 0.264,0.007C0.253,0.009 0.239,0.01 0.223,0.01C0.201,0.01 0.18,0.005 0.162,-0.003C0.143,-0.012 0.128,-0.027 0.117,-0.048C0.107,-0.068 0.101,-0.096 0.101,-0.131L0.101,-0.657Z" style="fill-rule:nonzero;"/>
                </g>
                <g transform="matrix(39.9992,-0.248498,0.248498,39.9992,9429.86,6719.34)">
                    <path d="M0.159,-0.445L0.159,-0L0.069,-0L0.069,-0.528L0.157,-0.528L0.159,-0.445ZM0.324,-0.531L0.324,-0.447C0.316,-0.449 0.309,-0.45 0.302,-0.45C0.296,-0.451 0.288,-0.451 0.28,-0.451C0.259,-0.451 0.241,-0.448 0.225,-0.441C0.209,-0.435 0.195,-0.426 0.184,-0.414C0.173,-0.402 0.164,-0.388 0.158,-0.372C0.152,-0.356 0.147,-0.339 0.146,-0.319L0.12,-0.305C0.12,-0.337 0.123,-0.367 0.13,-0.395C0.136,-0.423 0.146,-0.447 0.159,-0.469C0.173,-0.491 0.19,-0.508 0.21,-0.52C0.231,-0.532 0.256,-0.538 0.284,-0.538C0.291,-0.538 0.298,-0.537 0.307,-0.536C0.315,-0.534 0.321,-0.533 0.324,-0.531Z" style="fill-rule:nonzero;"/>
                </g>
                <g transform="matrix(39.999,-0.289502,0.289502,39.999,9441.84,6719.27)">
                    <path d="M0.217,-0.055L0.364,-0.528L0.461,-0.528L0.249,0.082C0.244,0.095 0.238,0.109 0.23,0.124C0.222,0.139 0.212,0.153 0.199,0.167C0.187,0.181 0.172,0.192 0.155,0.2C0.137,0.209 0.116,0.213 0.092,0.213C0.085,0.213 0.076,0.212 0.065,0.21C0.054,0.208 0.046,0.207 0.042,0.206L0.041,0.132C0.044,0.133 0.048,0.133 0.053,0.134C0.059,0.134 0.063,0.134 0.065,0.134C0.086,0.134 0.103,0.132 0.118,0.126C0.132,0.121 0.144,0.112 0.154,0.099C0.164,0.087 0.173,0.07 0.18,0.048L0.217,-0.055ZM0.109,-0.528L0.247,-0.118L0.27,-0.023L0.205,0.01L0.011,-0.528L0.109,-0.528Z" style="fill-rule:nonzero;"/>
                </g>
                <g transform="matrix(39.9976,-0.441563,0.441563,39.9976,9484.13,6718.94)">
                    <path d="M0.159,-0.423L0.159,-0L0.068,-0L0.068,-0.528L0.154,-0.528L0.159,-0.423ZM0.14,-0.284L0.098,-0.286C0.098,-0.322 0.103,-0.355 0.112,-0.386C0.121,-0.417 0.135,-0.444 0.153,-0.466C0.171,-0.489 0.193,-0.507 0.22,-0.519C0.246,-0.532 0.277,-0.538 0.313,-0.538C0.337,-0.538 0.36,-0.535 0.381,-0.528C0.402,-0.521 0.42,-0.51 0.435,-0.495C0.45,-0.48 0.462,-0.46 0.471,-0.437C0.479,-0.414 0.483,-0.385 0.483,-0.352L0.483,-0L0.393,-0L0.393,-0.348C0.393,-0.375 0.388,-0.397 0.379,-0.414C0.37,-0.431 0.357,-0.443 0.34,-0.45C0.323,-0.458 0.303,-0.462 0.28,-0.462C0.254,-0.462 0.231,-0.457 0.213,-0.448C0.195,-0.438 0.181,-0.425 0.17,-0.409C0.16,-0.392 0.152,-0.373 0.147,-0.352C0.142,-0.33 0.14,-0.308 0.14,-0.284ZM0.482,-0.334L0.422,-0.315C0.422,-0.344 0.427,-0.372 0.436,-0.399C0.446,-0.426 0.459,-0.449 0.477,-0.47C0.495,-0.491 0.516,-0.508 0.542,-0.52C0.569,-0.532 0.598,-0.538 0.632,-0.538C0.66,-0.538 0.685,-0.534 0.707,-0.527C0.729,-0.519 0.748,-0.508 0.763,-0.492C0.778,-0.477 0.79,-0.457 0.797,-0.433C0.805,-0.409 0.809,-0.38 0.809,-0.347L0.809,-0L0.718,-0L0.718,-0.348C0.718,-0.378 0.714,-0.401 0.704,-0.417C0.695,-0.434 0.682,-0.445 0.665,-0.452C0.649,-0.459 0.629,-0.462 0.605,-0.462C0.586,-0.462 0.568,-0.458 0.553,-0.452C0.537,-0.445 0.525,-0.435 0.514,-0.424C0.504,-0.412 0.496,-0.398 0.49,-0.383C0.485,-0.368 0.482,-0.351 0.482,-0.334Z" style="fill-rule:nonzero;"/>
                </g>
                <g transform="matrix(39.9966,-0.522662,0.522662,39.9966,9517.56,6718.56)">
                    <path d="M0.392,-0.122L0.392,-0.528L0.483,-0.528L0.483,-0L0.396,-0L0.392,-0.122ZM0.409,-0.233L0.447,-0.234C0.447,-0.199 0.443,-0.167 0.436,-0.137C0.428,-0.107 0.417,-0.081 0.4,-0.06C0.384,-0.038 0.363,-0.021 0.336,-0.009C0.31,0.004 0.278,0.01 0.24,0.01C0.215,0.01 0.191,0.006 0.17,-0.001C0.148,-0.009 0.13,-0.021 0.115,-0.036C0.099,-0.052 0.088,-0.072 0.079,-0.097C0.071,-0.122 0.067,-0.152 0.067,-0.188L0.067,-0.528L0.157,-0.528L0.157,-0.187C0.157,-0.163 0.16,-0.143 0.165,-0.128C0.171,-0.112 0.178,-0.1 0.187,-0.091C0.197,-0.082 0.207,-0.076 0.219,-0.072C0.23,-0.069 0.242,-0.067 0.254,-0.067C0.293,-0.067 0.323,-0.074 0.346,-0.089C0.368,-0.104 0.384,-0.124 0.394,-0.149C0.404,-0.174 0.409,-0.202 0.409,-0.233Z" style="fill-rule:nonzero;"/>
                </g>
                <g transform="matrix(39.9958,-0.582333,0.582333,39.9958,9538.05,6718.3)">
                    <path d="M0.376,-0.14C0.376,-0.153 0.374,-0.165 0.368,-0.177C0.362,-0.188 0.351,-0.198 0.333,-0.207C0.316,-0.217 0.29,-0.225 0.255,-0.231C0.226,-0.238 0.199,-0.245 0.176,-0.253C0.152,-0.262 0.132,-0.272 0.115,-0.284C0.099,-0.296 0.086,-0.31 0.078,-0.327C0.069,-0.343 0.064,-0.362 0.064,-0.384C0.064,-0.405 0.069,-0.424 0.078,-0.443C0.088,-0.461 0.101,-0.478 0.118,-0.492C0.135,-0.507 0.156,-0.518 0.18,-0.526C0.204,-0.534 0.231,-0.538 0.26,-0.538C0.303,-0.538 0.339,-0.531 0.369,-0.516C0.399,-0.501 0.422,-0.481 0.438,-0.456C0.453,-0.431 0.461,-0.403 0.461,-0.373L0.371,-0.373C0.371,-0.388 0.367,-0.402 0.358,-0.416C0.35,-0.43 0.337,-0.441 0.321,-0.45C0.304,-0.459 0.284,-0.464 0.26,-0.464C0.235,-0.464 0.215,-0.46 0.199,-0.452C0.184,-0.445 0.173,-0.435 0.166,-0.423C0.159,-0.412 0.155,-0.399 0.155,-0.386C0.155,-0.376 0.157,-0.368 0.16,-0.36C0.164,-0.352 0.17,-0.345 0.179,-0.339C0.188,-0.333 0.2,-0.327 0.216,-0.321C0.232,-0.316 0.252,-0.31 0.277,-0.305C0.32,-0.295 0.356,-0.283 0.384,-0.27C0.412,-0.256 0.433,-0.239 0.446,-0.219C0.46,-0.199 0.467,-0.175 0.467,-0.147C0.467,-0.124 0.462,-0.103 0.452,-0.083C0.443,-0.064 0.429,-0.048 0.411,-0.034C0.393,-0.02 0.371,-0.009 0.346,-0.002C0.322,0.006 0.294,0.01 0.263,0.01C0.216,0.01 0.177,0.001 0.145,-0.015C0.112,-0.032 0.088,-0.053 0.071,-0.08C0.055,-0.106 0.046,-0.134 0.046,-0.163L0.137,-0.163C0.139,-0.138 0.146,-0.119 0.159,-0.104C0.172,-0.09 0.188,-0.08 0.207,-0.073C0.225,-0.067 0.244,-0.064 0.263,-0.064C0.287,-0.064 0.308,-0.068 0.325,-0.074C0.342,-0.081 0.354,-0.09 0.363,-0.101C0.372,-0.112 0.376,-0.125 0.376,-0.14Z" style="fill-rule:nonzero;"/>
                </g>
                <g transform="matrix(39.9951,-0.623766,0.623766,39.9951,9557.09,6718.02)">
                    <path d="M0.167,-0.528L0.167,-0L0.076,-0L0.076,-0.528L0.167,-0.528ZM0.069,-0.668C0.069,-0.683 0.074,-0.695 0.083,-0.706C0.092,-0.716 0.105,-0.721 0.123,-0.721C0.14,-0.721 0.153,-0.716 0.162,-0.706C0.172,-0.695 0.176,-0.683 0.176,-0.668C0.176,-0.654 0.172,-0.642 0.162,-0.633C0.153,-0.623 0.14,-0.618 0.123,-0.618C0.105,-0.618 0.092,-0.623 0.083,-0.633C0.074,-0.642 0.069,-0.654 0.069,-0.668Z" style="fill-rule:nonzero;"/>
                </g>
                <g transform="matrix(39.9945,-0.666009,0.666009,39.9945,9565.2,6717.89)">
                    <path d="M0.28,-0.064C0.302,-0.064 0.322,-0.069 0.34,-0.078C0.358,-0.086 0.373,-0.099 0.385,-0.114C0.396,-0.129 0.403,-0.147 0.405,-0.167L0.491,-0.167C0.489,-0.136 0.479,-0.107 0.459,-0.08C0.44,-0.053 0.415,-0.031 0.383,-0.015C0.352,0.002 0.318,0.01 0.28,0.01C0.241,0.01 0.206,0.003 0.177,-0.011C0.147,-0.025 0.123,-0.044 0.103,-0.069C0.084,-0.093 0.069,-0.121 0.06,-0.153C0.05,-0.185 0.045,-0.218 0.045,-0.254L0.045,-0.274C0.045,-0.31 0.05,-0.344 0.06,-0.375C0.069,-0.407 0.084,-0.435 0.103,-0.459C0.123,-0.484 0.147,-0.503 0.177,-0.517C0.206,-0.531 0.241,-0.538 0.28,-0.538C0.322,-0.538 0.358,-0.53 0.389,-0.513C0.42,-0.496 0.444,-0.473 0.462,-0.445C0.479,-0.416 0.489,-0.383 0.491,-0.347L0.405,-0.347C0.403,-0.368 0.397,-0.388 0.386,-0.406C0.376,-0.423 0.362,-0.437 0.344,-0.448C0.325,-0.459 0.304,-0.464 0.28,-0.464C0.253,-0.464 0.229,-0.458 0.211,-0.448C0.192,-0.437 0.177,-0.422 0.166,-0.404C0.155,-0.385 0.148,-0.365 0.143,-0.343C0.138,-0.32 0.136,-0.298 0.136,-0.274L0.136,-0.254C0.136,-0.231 0.138,-0.208 0.143,-0.186C0.147,-0.163 0.155,-0.143 0.166,-0.125C0.177,-0.106 0.191,-0.092 0.21,-0.081C0.229,-0.07 0.252,-0.064 0.28,-0.064Z" style="fill-rule:nonzero;"/>
                </g>
                <g transform="matrix(39.9919,-0.804334,0.804334,39.9919,9609.51,6717.12)">
                    <path d="M0.159,-0.427L0.159,0.203L0.068,0.203L0.068,-0.528L0.151,-0.528L0.159,-0.427ZM0.515,-0.269L0.515,-0.258C0.515,-0.22 0.511,-0.184 0.501,-0.152C0.492,-0.119 0.479,-0.09 0.462,-0.066C0.444,-0.042 0.423,-0.024 0.397,-0.01C0.372,0.003 0.343,0.01 0.31,0.01C0.277,0.01 0.247,0.004 0.221,-0.007C0.195,-0.018 0.174,-0.034 0.156,-0.055C0.138,-0.076 0.124,-0.102 0.113,-0.131C0.102,-0.161 0.095,-0.194 0.091,-0.231L0.091,-0.286C0.095,-0.325 0.103,-0.36 0.113,-0.391C0.124,-0.422 0.138,-0.448 0.156,-0.47C0.174,-0.492 0.195,-0.509 0.221,-0.521C0.246,-0.532 0.275,-0.538 0.309,-0.538C0.342,-0.538 0.371,-0.532 0.397,-0.519C0.423,-0.506 0.444,-0.488 0.462,-0.464C0.479,-0.44 0.493,-0.412 0.502,-0.379C0.511,-0.346 0.515,-0.309 0.515,-0.269ZM0.424,-0.258L0.424,-0.269C0.424,-0.295 0.422,-0.32 0.416,-0.343C0.41,-0.366 0.402,-0.387 0.39,-0.405C0.379,-0.422 0.364,-0.436 0.346,-0.447C0.328,-0.457 0.307,-0.462 0.282,-0.462C0.259,-0.462 0.24,-0.458 0.223,-0.45C0.206,-0.442 0.192,-0.432 0.18,-0.419C0.168,-0.406 0.159,-0.391 0.152,-0.374C0.144,-0.357 0.139,-0.34 0.135,-0.322L0.135,-0.195C0.142,-0.173 0.151,-0.151 0.163,-0.131C0.174,-0.111 0.19,-0.095 0.209,-0.083C0.229,-0.071 0.254,-0.064 0.283,-0.064C0.308,-0.064 0.329,-0.07 0.346,-0.08C0.364,-0.09 0.379,-0.104 0.39,-0.122C0.402,-0.14 0.41,-0.161 0.416,-0.184C0.422,-0.207 0.424,-0.232 0.424,-0.258Z" style="fill-rule:nonzero;"/>
                </g>
                <g transform="matrix(39.9906,-0.866158,0.866158,39.9906,9630.37,6716.7)">
                    <path d="M0.38,-0.09L0.38,-0.362C0.38,-0.383 0.376,-0.401 0.368,-0.417C0.36,-0.432 0.347,-0.444 0.331,-0.453C0.314,-0.461 0.293,-0.465 0.269,-0.465C0.246,-0.465 0.226,-0.461 0.209,-0.454C0.192,-0.446 0.179,-0.436 0.169,-0.423C0.16,-0.41 0.155,-0.396 0.155,-0.382L0.064,-0.382C0.064,-0.401 0.069,-0.419 0.079,-0.438C0.089,-0.457 0.103,-0.473 0.121,-0.489C0.14,-0.504 0.162,-0.516 0.188,-0.525C0.214,-0.534 0.243,-0.538 0.274,-0.538C0.313,-0.538 0.347,-0.532 0.376,-0.519C0.406,-0.506 0.429,-0.486 0.446,-0.46C0.462,-0.434 0.471,-0.401 0.471,-0.361L0.471,-0.115C0.471,-0.098 0.472,-0.079 0.475,-0.059C0.478,-0.039 0.483,-0.022 0.489,-0.008L0.489,-0L0.395,-0C0.39,-0.01 0.387,-0.024 0.384,-0.042C0.382,-0.059 0.38,-0.075 0.38,-0.09ZM0.396,-0.32L0.397,-0.257L0.306,-0.257C0.28,-0.257 0.257,-0.255 0.237,-0.251C0.217,-0.247 0.2,-0.241 0.186,-0.232C0.172,-0.224 0.162,-0.214 0.155,-0.202C0.148,-0.19 0.144,-0.175 0.144,-0.159C0.144,-0.143 0.148,-0.127 0.155,-0.114C0.163,-0.1 0.174,-0.089 0.189,-0.081C0.204,-0.073 0.223,-0.069 0.245,-0.069C0.273,-0.069 0.297,-0.075 0.318,-0.087C0.34,-0.099 0.356,-0.113 0.369,-0.13C0.381,-0.147 0.388,-0.163 0.389,-0.179L0.428,-0.136C0.425,-0.122 0.419,-0.107 0.409,-0.09C0.399,-0.074 0.386,-0.058 0.369,-0.043C0.352,-0.028 0.332,-0.015 0.309,-0.005C0.286,0.005 0.261,0.01 0.232,0.01C0.196,0.01 0.165,0.003 0.138,-0.011C0.111,-0.025 0.09,-0.044 0.075,-0.068C0.061,-0.091 0.053,-0.118 0.053,-0.147C0.053,-0.175 0.059,-0.2 0.07,-0.222C0.081,-0.244 0.097,-0.262 0.118,-0.276C0.139,-0.291 0.164,-0.302 0.193,-0.309C0.222,-0.317 0.255,-0.32 0.291,-0.32L0.396,-0.32Z" style="fill-rule:nonzero;"/>
                </g>
                <g transform="matrix(39.9896,-0.910272,0.910272,39.9896,9650.51,6716.26)">
                    <path d="M0.167,-0.528L0.167,-0L0.076,-0L0.076,-0.528L0.167,-0.528ZM0.069,-0.668C0.069,-0.683 0.074,-0.695 0.083,-0.706C0.092,-0.716 0.105,-0.721 0.123,-0.721C0.14,-0.721 0.153,-0.716 0.162,-0.706C0.172,-0.695 0.176,-0.683 0.176,-0.668C0.176,-0.654 0.172,-0.642 0.162,-0.633C0.153,-0.623 0.14,-0.618 0.123,-0.618C0.105,-0.618 0.092,-0.623 0.083,-0.633C0.074,-0.642 0.069,-0.654 0.069,-0.668Z" style="fill-rule:nonzero;"/>
                </g>
                <g transform="matrix(39.9886,-0.954939,0.954939,39.9886,9658.66,6716.08)">
                    <path d="M0.159,-0.416L0.159,-0L0.069,-0L0.069,-0.528L0.154,-0.528L0.159,-0.416ZM0.138,-0.284L0.1,-0.286C0.1,-0.322 0.106,-0.355 0.116,-0.386C0.127,-0.417 0.141,-0.444 0.16,-0.466C0.179,-0.489 0.202,-0.507 0.228,-0.519C0.254,-0.532 0.283,-0.538 0.315,-0.538C0.341,-0.538 0.364,-0.535 0.385,-0.528C0.406,-0.521 0.424,-0.509 0.439,-0.494C0.454,-0.479 0.465,-0.459 0.473,-0.435C0.48,-0.411 0.484,-0.381 0.484,-0.346L0.484,-0L0.394,-0L0.394,-0.347C0.394,-0.375 0.389,-0.397 0.381,-0.414C0.373,-0.431 0.361,-0.443 0.346,-0.45C0.33,-0.458 0.311,-0.462 0.288,-0.462C0.266,-0.462 0.245,-0.457 0.227,-0.448C0.208,-0.438 0.193,-0.425 0.179,-0.409C0.166,-0.392 0.156,-0.373 0.149,-0.352C0.141,-0.33 0.138,-0.308 0.138,-0.284Z" style="fill-rule:nonzero;"/>
                </g>
                <g transform="matrix(39.9874,-1.00302,1.00302,39.9874,9679.09,6715.59)">
                    <path d="M0.29,-0.528L0.29,-0.459L0.004,-0.459L0.004,-0.528L0.29,-0.528ZM0.101,-0.657L0.191,-0.657L0.191,-0.131C0.191,-0.113 0.194,-0.099 0.2,-0.09C0.205,-0.081 0.212,-0.075 0.221,-0.072C0.23,-0.069 0.239,-0.068 0.25,-0.068C0.257,-0.068 0.265,-0.069 0.273,-0.07C0.281,-0.072 0.288,-0.073 0.292,-0.074L0.292,-0C0.285,0.002 0.276,0.004 0.264,0.007C0.253,0.009 0.239,0.01 0.223,0.01C0.201,0.01 0.18,0.005 0.162,-0.003C0.143,-0.012 0.128,-0.027 0.117,-0.048C0.107,-0.068 0.101,-0.096 0.101,-0.131L0.101,-0.657Z" style="fill-rule:nonzero;"/>
                </g>
                <g transform="matrix(39.9866,-1.03621,1.03621,39.9866,9690.61,6715.3)">
                    <path d="M0.167,-0.528L0.167,-0L0.076,-0L0.076,-0.528L0.167,-0.528ZM0.069,-0.668C0.069,-0.683 0.074,-0.695 0.083,-0.706C0.092,-0.716 0.105,-0.721 0.123,-0.721C0.14,-0.721 0.153,-0.716 0.162,-0.706C0.172,-0.695 0.176,-0.683 0.176,-0.668C0.176,-0.654 0.172,-0.642 0.162,-0.633C0.153,-0.623 0.14,-0.618 0.123,-0.618C0.105,-0.618 0.092,-0.623 0.083,-0.633C0.074,-0.642 0.069,-0.654 0.069,-0.668Z" style="fill-rule:nonzero;"/>
                </g>
                <g transform="matrix(39.9854,-1.08155,1.08155,39.9854,9698.72,6715.1)">
                    <path d="M0.159,-0.416L0.159,-0L0.069,-0L0.069,-0.528L0.154,-0.528L0.159,-0.416ZM0.138,-0.284L0.1,-0.286C0.1,-0.322 0.106,-0.355 0.116,-0.386C0.127,-0.417 0.141,-0.444 0.16,-0.466C0.179,-0.489 0.202,-0.507 0.228,-0.519C0.254,-0.532 0.283,-0.538 0.315,-0.538C0.341,-0.538 0.364,-0.535 0.385,-0.528C0.406,-0.521 0.424,-0.509 0.439,-0.494C0.454,-0.479 0.465,-0.459 0.473,-0.435C0.48,-0.411 0.484,-0.381 0.484,-0.346L0.484,-0L0.394,-0L0.394,-0.347C0.394,-0.375 0.389,-0.397 0.381,-0.414C0.373,-0.431 0.361,-0.443 0.346,-0.45C0.33,-0.458 0.311,-0.462 0.288,-0.462C0.266,-0.462 0.245,-0.457 0.227,-0.448C0.208,-0.438 0.193,-0.425 0.179,-0.409C0.166,-0.392 0.156,-0.373 0.149,-0.352C0.141,-0.33 0.138,-0.308 0.138,-0.284Z" style="fill-rule:nonzero;"/>
                </g>
                <g transform="matrix(39.9836,-1.14648,1.14648,39.9836,9719.21,6714.54)">
                    <path d="M0.411,-0.528L0.493,-0.528L0.493,-0.011C0.493,0.035 0.484,0.075 0.465,0.108C0.446,0.141 0.42,0.166 0.386,0.183C0.352,0.2 0.313,0.208 0.27,0.208C0.251,0.208 0.23,0.206 0.205,0.2C0.181,0.194 0.157,0.185 0.133,0.171C0.109,0.158 0.09,0.139 0.074,0.117L0.121,0.063C0.143,0.09 0.166,0.108 0.191,0.119C0.215,0.129 0.239,0.134 0.263,0.134C0.291,0.134 0.316,0.129 0.337,0.118C0.358,0.107 0.374,0.092 0.385,0.071C0.397,0.05 0.403,0.024 0.403,-0.007L0.403,-0.412L0.411,-0.528ZM0.047,-0.258L0.047,-0.269C0.047,-0.309 0.052,-0.346 0.062,-0.379C0.071,-0.412 0.085,-0.44 0.103,-0.464C0.121,-0.488 0.143,-0.506 0.169,-0.519C0.195,-0.532 0.224,-0.538 0.256,-0.538C0.289,-0.538 0.318,-0.532 0.343,-0.521C0.368,-0.509 0.389,-0.492 0.406,-0.47C0.424,-0.448 0.438,-0.422 0.448,-0.391C0.458,-0.36 0.465,-0.325 0.469,-0.286L0.469,-0.241C0.465,-0.202 0.458,-0.168 0.448,-0.137C0.438,-0.106 0.424,-0.079 0.406,-0.058C0.389,-0.036 0.368,-0.019 0.343,-0.008C0.318,0.004 0.288,0.01 0.255,0.01C0.223,0.01 0.195,0.003 0.169,-0.01C0.144,-0.024 0.122,-0.042 0.104,-0.066C0.085,-0.09 0.071,-0.119 0.062,-0.152C0.052,-0.184 0.047,-0.22 0.047,-0.258ZM0.138,-0.269L0.138,-0.258C0.138,-0.232 0.14,-0.207 0.146,-0.184C0.151,-0.161 0.159,-0.141 0.171,-0.123C0.182,-0.105 0.196,-0.092 0.214,-0.082C0.231,-0.072 0.252,-0.067 0.277,-0.067C0.307,-0.067 0.332,-0.073 0.351,-0.086C0.371,-0.099 0.386,-0.115 0.398,-0.136C0.409,-0.157 0.418,-0.18 0.425,-0.204L0.425,-0.322C0.421,-0.34 0.416,-0.357 0.408,-0.374C0.401,-0.391 0.392,-0.406 0.38,-0.419C0.369,-0.432 0.354,-0.442 0.337,-0.45C0.32,-0.458 0.301,-0.462 0.278,-0.462C0.253,-0.462 0.232,-0.457 0.214,-0.447C0.196,-0.436 0.182,-0.422 0.171,-0.405C0.159,-0.387 0.151,-0.366 0.146,-0.343C0.14,-0.32 0.138,-0.295 0.138,-0.269Z" style="fill-rule:nonzero;"/>
                </g>
                <g transform="matrix(39.9791,-1.2943,1.2943,39.9791,9764.97,6713.19)">
                    <path d="M0.376,-0.14C0.376,-0.153 0.374,-0.165 0.368,-0.177C0.362,-0.188 0.351,-0.198 0.333,-0.207C0.316,-0.217 0.29,-0.225 0.255,-0.231C0.226,-0.238 0.199,-0.245 0.176,-0.253C0.152,-0.262 0.132,-0.272 0.115,-0.284C0.099,-0.296 0.086,-0.31 0.078,-0.327C0.069,-0.343 0.064,-0.362 0.064,-0.384C0.064,-0.405 0.069,-0.424 0.078,-0.443C0.088,-0.461 0.101,-0.478 0.118,-0.492C0.135,-0.507 0.156,-0.518 0.18,-0.526C0.204,-0.534 0.231,-0.538 0.26,-0.538C0.303,-0.538 0.339,-0.531 0.369,-0.516C0.399,-0.501 0.422,-0.481 0.438,-0.456C0.453,-0.431 0.461,-0.403 0.461,-0.373L0.371,-0.373C0.371,-0.388 0.367,-0.402 0.358,-0.416C0.35,-0.43 0.337,-0.441 0.321,-0.45C0.304,-0.459 0.284,-0.464 0.26,-0.464C0.235,-0.464 0.215,-0.46 0.199,-0.452C0.184,-0.445 0.173,-0.435 0.166,-0.423C0.159,-0.412 0.155,-0.399 0.155,-0.386C0.155,-0.376 0.157,-0.368 0.16,-0.36C0.164,-0.352 0.17,-0.345 0.179,-0.339C0.188,-0.333 0.2,-0.327 0.216,-0.321C0.232,-0.316 0.252,-0.31 0.277,-0.305C0.32,-0.295 0.356,-0.283 0.384,-0.27C0.412,-0.256 0.433,-0.239 0.446,-0.219C0.46,-0.199 0.467,-0.175 0.467,-0.147C0.467,-0.124 0.462,-0.103 0.452,-0.083C0.443,-0.064 0.429,-0.048 0.411,-0.034C0.393,-0.02 0.371,-0.009 0.346,-0.002C0.322,0.006 0.294,0.01 0.263,0.01C0.216,0.01 0.177,0.001 0.145,-0.015C0.112,-0.032 0.088,-0.053 0.071,-0.08C0.055,-0.106 0.046,-0.134 0.046,-0.163L0.137,-0.163C0.139,-0.138 0.146,-0.119 0.159,-0.104C0.172,-0.09 0.188,-0.08 0.207,-0.073C0.225,-0.067 0.244,-0.064 0.263,-0.064C0.287,-0.064 0.308,-0.068 0.325,-0.074C0.342,-0.081 0.354,-0.09 0.363,-0.101C0.372,-0.112 0.376,-0.125 0.376,-0.14Z" style="fill-rule:nonzero;"/>
                </g>
                <g transform="matrix(39.9769,-1.3594,1.3594,39.9769,9784.02,6712.57)">
                    <path d="M0.28,-0.064C0.302,-0.064 0.322,-0.069 0.34,-0.078C0.358,-0.086 0.373,-0.099 0.385,-0.114C0.396,-0.129 0.403,-0.147 0.405,-0.167L0.491,-0.167C0.489,-0.136 0.479,-0.107 0.459,-0.08C0.44,-0.053 0.415,-0.031 0.383,-0.015C0.352,0.002 0.318,0.01 0.28,0.01C0.241,0.01 0.206,0.003 0.177,-0.011C0.147,-0.025 0.123,-0.044 0.103,-0.069C0.084,-0.093 0.069,-0.121 0.06,-0.153C0.05,-0.185 0.045,-0.218 0.045,-0.254L0.045,-0.274C0.045,-0.31 0.05,-0.344 0.06,-0.375C0.069,-0.407 0.084,-0.435 0.103,-0.459C0.123,-0.484 0.147,-0.503 0.177,-0.517C0.206,-0.531 0.241,-0.538 0.28,-0.538C0.322,-0.538 0.358,-0.53 0.389,-0.513C0.42,-0.496 0.444,-0.473 0.462,-0.445C0.479,-0.416 0.489,-0.383 0.491,-0.347L0.405,-0.347C0.403,-0.368 0.397,-0.388 0.386,-0.406C0.376,-0.423 0.362,-0.437 0.344,-0.448C0.325,-0.459 0.304,-0.464 0.28,-0.464C0.253,-0.464 0.229,-0.458 0.211,-0.448C0.192,-0.437 0.177,-0.422 0.166,-0.404C0.155,-0.385 0.148,-0.365 0.143,-0.343C0.138,-0.32 0.136,-0.298 0.136,-0.274L0.136,-0.254C0.136,-0.231 0.138,-0.208 0.143,-0.186C0.147,-0.163 0.155,-0.143 0.166,-0.125C0.177,-0.106 0.191,-0.092 0.21,-0.081C0.229,-0.07 0.252,-0.064 0.28,-0.064Z" style="fill-rule:nonzero;"/>
                </g>
                <g transform="matrix(39.9746,-1.42568,1.42568,39.9746,9803.35,6711.91)">
                    <path d="M0.392,-0.122L0.392,-0.528L0.483,-0.528L0.483,-0L0.396,-0L0.392,-0.122ZM0.409,-0.233L0.447,-0.234C0.447,-0.199 0.443,-0.167 0.436,-0.137C0.428,-0.107 0.417,-0.081 0.4,-0.06C0.384,-0.038 0.363,-0.021 0.336,-0.009C0.31,0.004 0.278,0.01 0.24,0.01C0.215,0.01 0.191,0.006 0.17,-0.001C0.148,-0.009 0.13,-0.021 0.115,-0.036C0.099,-0.052 0.088,-0.072 0.079,-0.097C0.071,-0.122 0.067,-0.152 0.067,-0.188L0.067,-0.528L0.157,-0.528L0.157,-0.187C0.157,-0.163 0.16,-0.143 0.165,-0.128C0.171,-0.112 0.178,-0.1 0.187,-0.091C0.197,-0.082 0.207,-0.076 0.219,-0.072C0.23,-0.069 0.242,-0.067 0.254,-0.067C0.293,-0.067 0.323,-0.074 0.346,-0.089C0.368,-0.104 0.384,-0.124 0.394,-0.149C0.404,-0.174 0.409,-0.202 0.409,-0.233Z" style="fill-rule:nonzero;"/>
                </g>
                <g transform="matrix(39.9728,-1.47477,1.47477,39.9728,9823.82,6711.18)">
                    <rect x="0.076" y="-0.75" width="0.091" height="0.75" style="fill-rule:nonzero;"/>
                </g>
                <g transform="matrix(39.9709,-1.52646,1.52646,39.9709,9831.95,6710.89)">
                    <path d="M0.159,-0.427L0.159,0.203L0.068,0.203L0.068,-0.528L0.151,-0.528L0.159,-0.427ZM0.515,-0.269L0.515,-0.258C0.515,-0.22 0.511,-0.184 0.501,-0.152C0.492,-0.119 0.479,-0.09 0.462,-0.066C0.444,-0.042 0.423,-0.024 0.397,-0.01C0.372,0.003 0.343,0.01 0.31,0.01C0.277,0.01 0.247,0.004 0.221,-0.007C0.195,-0.018 0.174,-0.034 0.156,-0.055C0.138,-0.076 0.124,-0.102 0.113,-0.131C0.102,-0.161 0.095,-0.194 0.091,-0.231L0.091,-0.286C0.095,-0.325 0.103,-0.36 0.113,-0.391C0.124,-0.422 0.138,-0.448 0.156,-0.47C0.174,-0.492 0.195,-0.509 0.221,-0.521C0.246,-0.532 0.275,-0.538 0.309,-0.538C0.342,-0.538 0.371,-0.532 0.397,-0.519C0.423,-0.506 0.444,-0.488 0.462,-0.464C0.479,-0.44 0.493,-0.412 0.502,-0.379C0.511,-0.346 0.515,-0.309 0.515,-0.269ZM0.424,-0.258L0.424,-0.269C0.424,-0.295 0.422,-0.32 0.416,-0.343C0.41,-0.366 0.402,-0.387 0.39,-0.405C0.379,-0.422 0.364,-0.436 0.346,-0.447C0.328,-0.457 0.307,-0.462 0.282,-0.462C0.259,-0.462 0.24,-0.458 0.223,-0.45C0.206,-0.442 0.192,-0.432 0.18,-0.419C0.168,-0.406 0.159,-0.391 0.152,-0.374C0.144,-0.357 0.139,-0.34 0.135,-0.322L0.135,-0.195C0.142,-0.173 0.151,-0.151 0.163,-0.131C0.174,-0.111 0.19,-0.095 0.209,-0.083C0.229,-0.071 0.254,-0.064 0.283,-0.064C0.308,-0.064 0.329,-0.07 0.346,-0.08C0.364,-0.09 0.379,-0.104 0.39,-0.122C0.402,-0.14 0.41,-0.161 0.416,-0.184C0.422,-0.207 0.424,-0.232 0.424,-0.258Z" style="fill-rule:nonzero;"/>
                </g>
                <g transform="matrix(39.9688,-1.57946,1.57946,39.9688,9852.81,6710.09)">
                    <path d="M0.29,-0.528L0.29,-0.459L0.004,-0.459L0.004,-0.528L0.29,-0.528ZM0.101,-0.657L0.191,-0.657L0.191,-0.131C0.191,-0.113 0.194,-0.099 0.2,-0.09C0.205,-0.081 0.212,-0.075 0.221,-0.072C0.23,-0.069 0.239,-0.068 0.25,-0.068C0.257,-0.068 0.265,-0.069 0.273,-0.07C0.281,-0.072 0.288,-0.073 0.292,-0.074L0.292,-0C0.285,0.002 0.276,0.004 0.264,0.007C0.253,0.009 0.239,0.01 0.223,0.01C0.201,0.01 0.18,0.005 0.162,-0.003C0.143,-0.012 0.128,-0.027 0.117,-0.048C0.107,-0.068 0.101,-0.096 0.101,-0.131L0.101,-0.657Z" style="fill-rule:nonzero;"/>
                </g>
                <g transform="matrix(39.9664,-1.63803,1.63803,39.9664,9864.27,6709.64)">
                    <path d="M0.392,-0.122L0.392,-0.528L0.483,-0.528L0.483,-0L0.396,-0L0.392,-0.122ZM0.409,-0.233L0.447,-0.234C0.447,-0.199 0.443,-0.167 0.436,-0.137C0.428,-0.107 0.417,-0.081 0.4,-0.06C0.384,-0.038 0.363,-0.021 0.336,-0.009C0.31,0.004 0.278,0.01 0.24,0.01C0.215,0.01 0.191,0.006 0.17,-0.001C0.148,-0.009 0.13,-0.021 0.115,-0.036C0.099,-0.052 0.088,-0.072 0.079,-0.097C0.071,-0.122 0.067,-0.152 0.067,-0.188L0.067,-0.528L0.157,-0.528L0.157,-0.187C0.157,-0.163 0.16,-0.143 0.165,-0.128C0.171,-0.112 0.178,-0.1 0.187,-0.091C0.197,-0.082 0.207,-0.076 0.219,-0.072C0.23,-0.069 0.242,-0.067 0.254,-0.067C0.293,-0.067 0.323,-0.074 0.346,-0.089C0.368,-0.104 0.384,-0.124 0.394,-0.149C0.404,-0.174 0.409,-0.202 0.409,-0.233Z" style="fill-rule:nonzero;"/>
                </g>
                <g transform="matrix(39.9638,-1.70026,1.70026,39.9638,9884.69,6708.8)">
                    <path d="M0.159,-0.445L0.159,-0L0.069,-0L0.069,-0.528L0.157,-0.528L0.159,-0.445ZM0.324,-0.531L0.324,-0.447C0.316,-0.449 0.309,-0.45 0.302,-0.45C0.296,-0.451 0.288,-0.451 0.28,-0.451C0.259,-0.451 0.241,-0.448 0.225,-0.441C0.209,-0.435 0.195,-0.426 0.184,-0.414C0.173,-0.402 0.164,-0.388 0.158,-0.372C0.152,-0.356 0.147,-0.339 0.146,-0.319L0.12,-0.305C0.12,-0.337 0.123,-0.367 0.13,-0.395C0.136,-0.423 0.146,-0.447 0.159,-0.469C0.173,-0.491 0.19,-0.508 0.21,-0.52C0.231,-0.532 0.256,-0.538 0.284,-0.538C0.291,-0.538 0.298,-0.537 0.307,-0.536C0.315,-0.534 0.321,-0.533 0.324,-0.531Z" style="fill-rule:nonzero;"/>
                </g>
                <g transform="matrix(39.9615,-1.75456,1.75456,39.9615,9896.65,6708.3)">
                    <path d="M0.288,0.01C0.251,0.01 0.218,0.003 0.188,-0.009C0.158,-0.022 0.133,-0.039 0.112,-0.062C0.09,-0.085 0.074,-0.112 0.063,-0.143C0.051,-0.174 0.045,-0.208 0.045,-0.246L0.045,-0.266C0.045,-0.309 0.052,-0.347 0.064,-0.381C0.077,-0.415 0.094,-0.443 0.116,-0.467C0.138,-0.49 0.163,-0.508 0.19,-0.52C0.218,-0.532 0.247,-0.538 0.276,-0.538C0.314,-0.538 0.347,-0.532 0.374,-0.519C0.402,-0.506 0.424,-0.487 0.442,-0.464C0.459,-0.441 0.472,-0.413 0.481,-0.382C0.489,-0.351 0.494,-0.316 0.494,-0.279L0.494,-0.239L0.099,-0.239L0.099,-0.313L0.403,-0.313L0.403,-0.319C0.402,-0.343 0.397,-0.366 0.389,-0.388C0.381,-0.41 0.368,-0.428 0.35,-0.442C0.332,-0.457 0.307,-0.464 0.276,-0.464C0.256,-0.464 0.237,-0.46 0.22,-0.451C0.202,-0.442 0.188,-0.43 0.175,-0.413C0.163,-0.396 0.153,-0.375 0.146,-0.351C0.14,-0.326 0.136,-0.298 0.136,-0.266L0.136,-0.246C0.136,-0.221 0.14,-0.197 0.147,-0.175C0.154,-0.153 0.164,-0.134 0.177,-0.117C0.191,-0.101 0.207,-0.088 0.227,-0.078C0.246,-0.069 0.268,-0.064 0.293,-0.064C0.325,-0.064 0.352,-0.07 0.374,-0.083C0.396,-0.097 0.416,-0.114 0.432,-0.136L0.487,-0.092C0.475,-0.075 0.461,-0.059 0.443,-0.043C0.426,-0.027 0.404,-0.015 0.379,-0.005C0.353,0.005 0.323,0.01 0.288,0.01Z" style="fill-rule:nonzero;"/>
                </g>
                <g transform="matrix(39.9537,-1.9249,1.9249,39.9537,9941.15,6706.3)">
                    <path d="M0.159,-0.427L0.159,0.203L0.068,0.203L0.068,-0.528L0.151,-0.528L0.159,-0.427ZM0.515,-0.269L0.515,-0.258C0.515,-0.22 0.511,-0.184 0.501,-0.152C0.492,-0.119 0.479,-0.09 0.462,-0.066C0.444,-0.042 0.423,-0.024 0.397,-0.01C0.372,0.003 0.343,0.01 0.31,0.01C0.277,0.01 0.247,0.004 0.221,-0.007C0.195,-0.018 0.174,-0.034 0.156,-0.055C0.138,-0.076 0.124,-0.102 0.113,-0.131C0.102,-0.161 0.095,-0.194 0.091,-0.231L0.091,-0.286C0.095,-0.325 0.103,-0.36 0.113,-0.391C0.124,-0.422 0.138,-0.448 0.156,-0.47C0.174,-0.492 0.195,-0.509 0.221,-0.521C0.246,-0.532 0.275,-0.538 0.309,-0.538C0.342,-0.538 0.371,-0.532 0.397,-0.519C0.423,-0.506 0.444,-0.488 0.462,-0.464C0.479,-0.44 0.493,-0.412 0.502,-0.379C0.511,-0.346 0.515,-0.309 0.515,-0.269ZM0.424,-0.258L0.424,-0.269C0.424,-0.295 0.422,-0.32 0.416,-0.343C0.41,-0.366 0.402,-0.387 0.39,-0.405C0.379,-0.422 0.364,-0.436 0.346,-0.447C0.328,-0.457 0.307,-0.462 0.282,-0.462C0.259,-0.462 0.24,-0.458 0.223,-0.45C0.206,-0.442 0.192,-0.432 0.18,-0.419C0.168,-0.406 0.159,-0.391 0.152,-0.374C0.144,-0.357 0.139,-0.34 0.135,-0.322L0.135,-0.195C0.142,-0.173 0.151,-0.151 0.163,-0.131C0.174,-0.111 0.19,-0.095 0.209,-0.083C0.229,-0.071 0.254,-0.064 0.283,-0.064C0.308,-0.064 0.329,-0.07 0.346,-0.08C0.364,-0.09 0.379,-0.104 0.39,-0.122C0.402,-0.14 0.41,-0.161 0.416,-0.184C0.422,-0.207 0.424,-0.232 0.424,-0.258Z" style="fill-rule:nonzero;"/>
                </g>
                <g transform="matrix(39.9499,-2.00211,2.00211,39.9499,9961.97,6705.3)">
                    <path d="M0.288,0.01C0.251,0.01 0.218,0.003 0.188,-0.009C0.158,-0.022 0.133,-0.039 0.112,-0.062C0.09,-0.085 0.074,-0.112 0.063,-0.143C0.051,-0.174 0.045,-0.208 0.045,-0.246L0.045,-0.266C0.045,-0.309 0.052,-0.347 0.064,-0.381C0.077,-0.415 0.094,-0.443 0.116,-0.467C0.138,-0.49 0.163,-0.508 0.19,-0.52C0.218,-0.532 0.247,-0.538 0.276,-0.538C0.314,-0.538 0.347,-0.532 0.374,-0.519C0.402,-0.506 0.424,-0.487 0.442,-0.464C0.459,-0.441 0.472,-0.413 0.481,-0.382C0.489,-0.351 0.494,-0.316 0.494,-0.279L0.494,-0.239L0.099,-0.239L0.099,-0.313L0.403,-0.313L0.403,-0.319C0.402,-0.343 0.397,-0.366 0.389,-0.388C0.381,-0.41 0.368,-0.428 0.35,-0.442C0.332,-0.457 0.307,-0.464 0.276,-0.464C0.256,-0.464 0.237,-0.46 0.22,-0.451C0.202,-0.442 0.188,-0.43 0.175,-0.413C0.163,-0.396 0.153,-0.375 0.146,-0.351C0.14,-0.326 0.136,-0.298 0.136,-0.266L0.136,-0.246C0.136,-0.221 0.14,-0.197 0.147,-0.175C0.154,-0.153 0.164,-0.134 0.177,-0.117C0.191,-0.101 0.207,-0.088 0.227,-0.078C0.246,-0.069 0.268,-0.064 0.293,-0.064C0.325,-0.064 0.352,-0.07 0.374,-0.083C0.396,-0.097 0.416,-0.114 0.432,-0.136L0.487,-0.092C0.475,-0.075 0.461,-0.059 0.443,-0.043C0.426,-0.027 0.404,-0.015 0.379,-0.005C0.353,0.005 0.323,0.01 0.288,0.01Z" style="fill-rule:nonzero;"/>
                </g>
                <g transform="matrix(39.9465,-2.06786,2.06786,39.9465,9981.54,6704.31)">
                    <path d="M0.159,-0.445L0.159,-0L0.069,-0L0.069,-0.528L0.157,-0.528L0.159,-0.445ZM0.324,-0.531L0.324,-0.447C0.316,-0.449 0.309,-0.45 0.302,-0.45C0.296,-0.451 0.288,-0.451 0.28,-0.451C0.259,-0.451 0.241,-0.448 0.225,-0.441C0.209,-0.435 0.195,-0.426 0.184,-0.414C0.173,-0.402 0.164,-0.388 0.158,-0.372C0.152,-0.356 0.147,-0.339 0.146,-0.319L0.12,-0.305C0.12,-0.337 0.123,-0.367 0.13,-0.395C0.136,-0.423 0.146,-0.447 0.159,-0.469C0.173,-0.491 0.19,-0.508 0.21,-0.52C0.231,-0.532 0.256,-0.538 0.284,-0.538C0.291,-0.538 0.298,-0.537 0.307,-0.536C0.315,-0.534 0.321,-0.533 0.324,-0.531Z" style="fill-rule:nonzero;"/>
                </g>
                <g transform="matrix(39.9441,-2.11475,2.11475,39.9441,9993.52,6703.7)">
                    <path d="M0.204,-0L0.113,-0L0.113,-0.584C0.113,-0.622 0.12,-0.654 0.134,-0.68C0.148,-0.707 0.168,-0.726 0.194,-0.74C0.22,-0.753 0.251,-0.76 0.287,-0.76C0.297,-0.76 0.308,-0.76 0.318,-0.758C0.329,-0.757 0.339,-0.755 0.349,-0.752L0.344,-0.679C0.337,-0.68 0.33,-0.681 0.321,-0.682C0.312,-0.683 0.304,-0.683 0.295,-0.683C0.276,-0.683 0.26,-0.679 0.246,-0.672C0.232,-0.664 0.222,-0.653 0.214,-0.638C0.207,-0.624 0.204,-0.605 0.204,-0.584L0.204,-0ZM0.316,-0.528L0.316,-0.459L0.03,-0.459L0.03,-0.528L0.316,-0.528Z" style="fill-rule:nonzero;"/>
                </g>
                <g transform="matrix(39.9405,-2.18026,2.18026,39.9405,10005.8,6703.05)">
                    <path d="M0.045,-0.258L0.045,-0.27C0.045,-0.308 0.05,-0.343 0.062,-0.376C0.073,-0.408 0.089,-0.437 0.109,-0.461C0.13,-0.485 0.155,-0.504 0.185,-0.518C0.215,-0.531 0.248,-0.538 0.285,-0.538C0.322,-0.538 0.355,-0.531 0.385,-0.518C0.415,-0.504 0.44,-0.485 0.461,-0.461C0.482,-0.437 0.498,-0.408 0.509,-0.376C0.52,-0.343 0.526,-0.308 0.526,-0.27L0.526,-0.258C0.526,-0.22 0.52,-0.185 0.509,-0.152C0.498,-0.12 0.482,-0.091 0.461,-0.067C0.44,-0.043 0.415,-0.024 0.385,-0.01C0.356,0.003 0.323,0.01 0.286,0.01C0.249,0.01 0.215,0.003 0.186,-0.01C0.156,-0.024 0.131,-0.043 0.11,-0.067C0.089,-0.091 0.073,-0.12 0.062,-0.152C0.05,-0.185 0.045,-0.22 0.045,-0.258ZM0.135,-0.27L0.135,-0.258C0.135,-0.232 0.138,-0.207 0.145,-0.184C0.151,-0.161 0.16,-0.14 0.173,-0.122C0.185,-0.104 0.201,-0.09 0.22,-0.08C0.239,-0.07 0.261,-0.064 0.286,-0.064C0.31,-0.064 0.332,-0.07 0.351,-0.08C0.37,-0.09 0.385,-0.104 0.397,-0.122C0.41,-0.14 0.419,-0.161 0.426,-0.184C0.432,-0.207 0.435,-0.232 0.435,-0.258L0.435,-0.27C0.435,-0.296 0.432,-0.32 0.426,-0.344C0.419,-0.367 0.41,-0.387 0.397,-0.406C0.385,-0.424 0.369,-0.438 0.35,-0.448C0.332,-0.459 0.31,-0.464 0.285,-0.464C0.26,-0.464 0.238,-0.459 0.219,-0.448C0.201,-0.438 0.185,-0.424 0.173,-0.406C0.16,-0.387 0.151,-0.367 0.145,-0.344C0.138,-0.32 0.135,-0.296 0.135,-0.27Z" style="fill-rule:nonzero;"/>
                </g>
                <g transform="matrix(39.9365,-2.25338,2.25338,39.9365,10027,6701.89)">
                    <path d="M0.159,-0.445L0.159,-0L0.069,-0L0.069,-0.528L0.157,-0.528L0.159,-0.445ZM0.324,-0.531L0.324,-0.447C0.316,-0.449 0.309,-0.45 0.302,-0.45C0.296,-0.451 0.288,-0.451 0.28,-0.451C0.259,-0.451 0.241,-0.448 0.225,-0.441C0.209,-0.435 0.195,-0.426 0.184,-0.414C0.173,-0.402 0.164,-0.388 0.158,-0.372C0.152,-0.356 0.147,-0.339 0.146,-0.319L0.12,-0.305C0.12,-0.337 0.123,-0.367 0.13,-0.395C0.136,-0.423 0.146,-0.447 0.159,-0.469C0.173,-0.491 0.19,-0.508 0.21,-0.52C0.231,-0.532 0.256,-0.538 0.284,-0.538C0.291,-0.538 0.298,-0.537 0.307,-0.536C0.315,-0.534 0.321,-0.533 0.324,-0.531Z" style="fill-rule:nonzero;"/>
                </g>
                <g transform="matrix(39.9312,-2.34503,2.34503,39.9312,10038.9,6701.24)">
                    <path d="M0.159,-0.423L0.159,-0L0.068,-0L0.068,-0.528L0.154,-0.528L0.159,-0.423ZM0.14,-0.284L0.098,-0.286C0.098,-0.322 0.103,-0.355 0.112,-0.386C0.121,-0.417 0.135,-0.444 0.153,-0.466C0.171,-0.489 0.193,-0.507 0.22,-0.519C0.246,-0.532 0.277,-0.538 0.313,-0.538C0.337,-0.538 0.36,-0.535 0.381,-0.528C0.402,-0.521 0.42,-0.51 0.435,-0.495C0.45,-0.48 0.462,-0.46 0.471,-0.437C0.479,-0.414 0.483,-0.385 0.483,-0.352L0.483,-0L0.393,-0L0.393,-0.348C0.393,-0.375 0.388,-0.397 0.379,-0.414C0.37,-0.431 0.357,-0.443 0.34,-0.45C0.323,-0.458 0.303,-0.462 0.28,-0.462C0.254,-0.462 0.231,-0.457 0.213,-0.448C0.195,-0.438 0.181,-0.425 0.17,-0.409C0.16,-0.392 0.152,-0.373 0.147,-0.352C0.142,-0.33 0.14,-0.308 0.14,-0.284ZM0.482,-0.334L0.422,-0.315C0.422,-0.344 0.427,-0.372 0.436,-0.399C0.446,-0.426 0.459,-0.449 0.477,-0.47C0.495,-0.491 0.516,-0.508 0.542,-0.52C0.569,-0.532 0.598,-0.538 0.632,-0.538C0.66,-0.538 0.685,-0.534 0.707,-0.527C0.729,-0.519 0.748,-0.508 0.763,-0.492C0.778,-0.477 0.79,-0.457 0.797,-0.433C0.805,-0.409 0.809,-0.38 0.809,-0.347L0.809,-0L0.718,-0L0.718,-0.348C0.718,-0.378 0.714,-0.401 0.704,-0.417C0.695,-0.434 0.682,-0.445 0.665,-0.452C0.649,-0.459 0.629,-0.462 0.605,-0.462C0.586,-0.462 0.568,-0.458 0.553,-0.452C0.537,-0.445 0.525,-0.435 0.514,-0.424C0.504,-0.412 0.496,-0.398 0.49,-0.383C0.485,-0.368 0.482,-0.351 0.482,-0.334Z" style="fill-rule:nonzero;"/>
                </g>
                <g transform="matrix(39.9242,-2.46195,2.46195,39.9242,10072.4,6699.26)">
                    <path d="M0.38,-0.09L0.38,-0.362C0.38,-0.383 0.376,-0.401 0.368,-0.417C0.36,-0.432 0.347,-0.444 0.331,-0.453C0.314,-0.461 0.293,-0.465 0.269,-0.465C0.246,-0.465 0.226,-0.461 0.209,-0.454C0.192,-0.446 0.179,-0.436 0.169,-0.423C0.16,-0.41 0.155,-0.396 0.155,-0.382L0.064,-0.382C0.064,-0.401 0.069,-0.419 0.079,-0.438C0.089,-0.457 0.103,-0.473 0.121,-0.489C0.14,-0.504 0.162,-0.516 0.188,-0.525C0.214,-0.534 0.243,-0.538 0.274,-0.538C0.313,-0.538 0.347,-0.532 0.376,-0.519C0.406,-0.506 0.429,-0.486 0.446,-0.46C0.462,-0.434 0.471,-0.401 0.471,-0.361L0.471,-0.115C0.471,-0.098 0.472,-0.079 0.475,-0.059C0.478,-0.039 0.483,-0.022 0.489,-0.008L0.489,-0L0.395,-0C0.39,-0.01 0.387,-0.024 0.384,-0.042C0.382,-0.059 0.38,-0.075 0.38,-0.09ZM0.396,-0.32L0.397,-0.257L0.306,-0.257C0.28,-0.257 0.257,-0.255 0.237,-0.251C0.217,-0.247 0.2,-0.241 0.186,-0.232C0.172,-0.224 0.162,-0.214 0.155,-0.202C0.148,-0.19 0.144,-0.175 0.144,-0.159C0.144,-0.143 0.148,-0.127 0.155,-0.114C0.163,-0.1 0.174,-0.089 0.189,-0.081C0.204,-0.073 0.223,-0.069 0.245,-0.069C0.273,-0.069 0.297,-0.075 0.318,-0.087C0.34,-0.099 0.356,-0.113 0.369,-0.13C0.381,-0.147 0.388,-0.163 0.389,-0.179L0.428,-0.136C0.425,-0.122 0.419,-0.107 0.409,-0.09C0.399,-0.074 0.386,-0.058 0.369,-0.043C0.352,-0.028 0.332,-0.015 0.309,-0.005C0.286,0.005 0.261,0.01 0.232,0.01C0.196,0.01 0.165,0.003 0.138,-0.011C0.111,-0.025 0.09,-0.044 0.075,-0.068C0.061,-0.091 0.053,-0.118 0.053,-0.147C0.053,-0.175 0.059,-0.2 0.07,-0.222C0.081,-0.244 0.097,-0.262 0.118,-0.276C0.139,-0.291 0.164,-0.302 0.193,-0.309C0.222,-0.317 0.255,-0.32 0.291,-0.32L0.396,-0.32Z" style="fill-rule:nonzero;"/>
                </g>
                <g transform="matrix(39.9184,-2.55335,2.55335,39.9184,10092.5,6698.03)">
                    <path d="M0.159,-0.416L0.159,-0L0.069,-0L0.069,-0.528L0.154,-0.528L0.159,-0.416ZM0.138,-0.284L0.1,-0.286C0.1,-0.322 0.106,-0.355 0.116,-0.386C0.127,-0.417 0.141,-0.444 0.16,-0.466C0.179,-0.489 0.202,-0.507 0.228,-0.519C0.254,-0.532 0.283,-0.538 0.315,-0.538C0.341,-0.538 0.364,-0.535 0.385,-0.528C0.406,-0.521 0.424,-0.509 0.439,-0.494C0.454,-0.479 0.465,-0.459 0.473,-0.435C0.48,-0.411 0.484,-0.381 0.484,-0.346L0.484,-0L0.394,-0L0.394,-0.347C0.394,-0.375 0.389,-0.397 0.381,-0.414C0.373,-0.431 0.361,-0.443 0.346,-0.45C0.33,-0.458 0.311,-0.462 0.288,-0.462C0.266,-0.462 0.245,-0.457 0.227,-0.448C0.208,-0.438 0.193,-0.425 0.179,-0.409C0.166,-0.392 0.156,-0.373 0.149,-0.352C0.141,-0.33 0.138,-0.308 0.138,-0.284Z" style="fill-rule:nonzero;"/>
                </g>
                <g transform="matrix(39.9124,-2.64631,2.64631,39.9124,10112.9,6696.72)">
                    <path d="M0.28,-0.064C0.302,-0.064 0.322,-0.069 0.34,-0.078C0.358,-0.086 0.373,-0.099 0.385,-0.114C0.396,-0.129 0.403,-0.147 0.405,-0.167L0.491,-0.167C0.489,-0.136 0.479,-0.107 0.459,-0.08C0.44,-0.053 0.415,-0.031 0.383,-0.015C0.352,0.002 0.318,0.01 0.28,0.01C0.241,0.01 0.206,0.003 0.177,-0.011C0.147,-0.025 0.123,-0.044 0.103,-0.069C0.084,-0.093 0.069,-0.121 0.06,-0.153C0.05,-0.185 0.045,-0.218 0.045,-0.254L0.045,-0.274C0.045,-0.31 0.05,-0.344 0.06,-0.375C0.069,-0.407 0.084,-0.435 0.103,-0.459C0.123,-0.484 0.147,-0.503 0.177,-0.517C0.206,-0.531 0.241,-0.538 0.28,-0.538C0.322,-0.538 0.358,-0.53 0.389,-0.513C0.42,-0.496 0.444,-0.473 0.462,-0.445C0.479,-0.416 0.489,-0.383 0.491,-0.347L0.405,-0.347C0.403,-0.368 0.397,-0.388 0.386,-0.406C0.376,-0.423 0.362,-0.437 0.344,-0.448C0.325,-0.459 0.304,-0.464 0.28,-0.464C0.253,-0.464 0.229,-0.458 0.211,-0.448C0.192,-0.437 0.177,-0.422 0.166,-0.404C0.155,-0.385 0.148,-0.365 0.143,-0.343C0.138,-0.32 0.136,-0.298 0.136,-0.274L0.136,-0.254C0.136,-0.231 0.138,-0.208 0.143,-0.186C0.147,-0.163 0.155,-0.143 0.166,-0.125C0.177,-0.106 0.191,-0.092 0.21,-0.081C0.229,-0.07 0.252,-0.064 0.28,-0.064Z" style="fill-rule:nonzero;"/>
                </g>
                <g transform="matrix(39.9062,-2.73811,2.73811,39.9062,10132.2,6695.44)">
                    <path d="M0.288,0.01C0.251,0.01 0.218,0.003 0.188,-0.009C0.158,-0.022 0.133,-0.039 0.112,-0.062C0.09,-0.085 0.074,-0.112 0.063,-0.143C0.051,-0.174 0.045,-0.208 0.045,-0.246L0.045,-0.266C0.045,-0.309 0.052,-0.347 0.064,-0.381C0.077,-0.415 0.094,-0.443 0.116,-0.467C0.138,-0.49 0.163,-0.508 0.19,-0.52C0.218,-0.532 0.247,-0.538 0.276,-0.538C0.314,-0.538 0.347,-0.532 0.374,-0.519C0.402,-0.506 0.424,-0.487 0.442,-0.464C0.459,-0.441 0.472,-0.413 0.481,-0.382C0.489,-0.351 0.494,-0.316 0.494,-0.279L0.494,-0.239L0.099,-0.239L0.099,-0.313L0.403,-0.313L0.403,-0.319C0.402,-0.343 0.397,-0.366 0.389,-0.388C0.381,-0.41 0.368,-0.428 0.35,-0.442C0.332,-0.457 0.307,-0.464 0.276,-0.464C0.256,-0.464 0.237,-0.46 0.22,-0.451C0.202,-0.442 0.188,-0.43 0.175,-0.413C0.163,-0.396 0.153,-0.375 0.146,-0.351C0.14,-0.326 0.136,-0.298 0.136,-0.266L0.136,-0.246C0.136,-0.221 0.14,-0.197 0.147,-0.175C0.154,-0.153 0.164,-0.134 0.177,-0.117C0.191,-0.101 0.207,-0.088 0.227,-0.078C0.246,-0.069 0.268,-0.064 0.293,-0.064C0.325,-0.064 0.352,-0.07 0.374,-0.083C0.396,-0.097 0.416,-0.114 0.432,-0.136L0.487,-0.092C0.475,-0.075 0.461,-0.059 0.443,-0.043C0.426,-0.027 0.404,-0.015 0.379,-0.005C0.353,0.005 0.323,0.01 0.288,0.01Z" style="fill-rule:nonzero;"/>
                </g>
                <g transform="matrix(39.8878,-2.99347,2.99347,39.8878,10176.7,6692.34)">
                    <path d="M0.159,-0.423L0.159,-0L0.068,-0L0.068,-0.528L0.154,-0.528L0.159,-0.423ZM0.14,-0.284L0.098,-0.286C0.098,-0.322 0.103,-0.355 0.112,-0.386C0.121,-0.417 0.135,-0.444 0.153,-0.466C0.171,-0.489 0.193,-0.507 0.22,-0.519C0.246,-0.532 0.277,-0.538 0.313,-0.538C0.337,-0.538 0.36,-0.535 0.381,-0.528C0.402,-0.521 0.42,-0.51 0.435,-0.495C0.45,-0.48 0.462,-0.46 0.471,-0.437C0.479,-0.414 0.483,-0.385 0.483,-0.352L0.483,-0L0.393,-0L0.393,-0.348C0.393,-0.375 0.388,-0.397 0.379,-0.414C0.37,-0.431 0.357,-0.443 0.34,-0.45C0.323,-0.458 0.303,-0.462 0.28,-0.462C0.254,-0.462 0.231,-0.457 0.213,-0.448C0.195,-0.438 0.181,-0.425 0.17,-0.409C0.16,-0.392 0.152,-0.373 0.147,-0.352C0.142,-0.33 0.14,-0.308 0.14,-0.284ZM0.482,-0.334L0.422,-0.315C0.422,-0.344 0.427,-0.372 0.436,-0.399C0.446,-0.426 0.459,-0.449 0.477,-0.47C0.495,-0.491 0.516,-0.508 0.542,-0.52C0.569,-0.532 0.598,-0.538 0.632,-0.538C0.66,-0.538 0.685,-0.534 0.707,-0.527C0.729,-0.519 0.748,-0.508 0.763,-0.492C0.778,-0.477 0.79,-0.457 0.797,-0.433C0.805,-0.409 0.809,-0.38 0.809,-0.347L0.809,-0L0.718,-0L0.718,-0.348C0.718,-0.378 0.714,-0.401 0.704,-0.417C0.695,-0.434 0.682,-0.445 0.665,-0.452C0.649,-0.459 0.629,-0.462 0.605,-0.462C0.586,-0.462 0.568,-0.458 0.553,-0.452C0.537,-0.445 0.525,-0.435 0.514,-0.424C0.504,-0.412 0.496,-0.398 0.49,-0.383C0.485,-0.368 0.482,-0.351 0.482,-0.334Z" style="fill-rule:nonzero;"/>
                </g>
                <g transform="matrix(39.877,-3.13444,3.13444,39.877,10210.1,6689.83)">
                    <path d="M0.288,0.01C0.251,0.01 0.218,0.003 0.188,-0.009C0.158,-0.022 0.133,-0.039 0.112,-0.062C0.09,-0.085 0.074,-0.112 0.063,-0.143C0.051,-0.174 0.045,-0.208 0.045,-0.246L0.045,-0.266C0.045,-0.309 0.052,-0.347 0.064,-0.381C0.077,-0.415 0.094,-0.443 0.116,-0.467C0.138,-0.49 0.163,-0.508 0.19,-0.52C0.218,-0.532 0.247,-0.538 0.276,-0.538C0.314,-0.538 0.347,-0.532 0.374,-0.519C0.402,-0.506 0.424,-0.487 0.442,-0.464C0.459,-0.441 0.472,-0.413 0.481,-0.382C0.489,-0.351 0.494,-0.316 0.494,-0.279L0.494,-0.239L0.099,-0.239L0.099,-0.313L0.403,-0.313L0.403,-0.319C0.402,-0.343 0.397,-0.366 0.389,-0.388C0.381,-0.41 0.368,-0.428 0.35,-0.442C0.332,-0.457 0.307,-0.464 0.276,-0.464C0.256,-0.464 0.237,-0.46 0.22,-0.451C0.202,-0.442 0.188,-0.43 0.175,-0.413C0.163,-0.396 0.153,-0.375 0.146,-0.351C0.14,-0.326 0.136,-0.298 0.136,-0.266L0.136,-0.246C0.136,-0.221 0.14,-0.197 0.147,-0.175C0.154,-0.153 0.164,-0.134 0.177,-0.117C0.191,-0.101 0.207,-0.088 0.227,-0.078C0.246,-0.069 0.268,-0.064 0.293,-0.064C0.325,-0.064 0.352,-0.07 0.374,-0.083C0.396,-0.097 0.416,-0.114 0.432,-0.136L0.487,-0.092C0.475,-0.075 0.461,-0.059 0.443,-0.043C0.426,-0.027 0.404,-0.015 0.379,-0.005C0.353,0.005 0.323,0.01 0.288,0.01Z" style="fill-rule:nonzero;"/>
                </g>
                <g transform="matrix(39.8706,-3.21474,3.21474,39.8706,10229.6,6688.29)">
                    <path d="M0.29,-0.528L0.29,-0.459L0.004,-0.459L0.004,-0.528L0.29,-0.528ZM0.101,-0.657L0.191,-0.657L0.191,-0.131C0.191,-0.113 0.194,-0.099 0.2,-0.09C0.205,-0.081 0.212,-0.075 0.221,-0.072C0.23,-0.069 0.239,-0.068 0.25,-0.068C0.257,-0.068 0.265,-0.069 0.273,-0.07C0.281,-0.072 0.288,-0.073 0.292,-0.074L0.292,-0C0.285,0.002 0.276,0.004 0.264,0.007C0.253,0.009 0.239,0.01 0.223,0.01C0.201,0.01 0.18,0.005 0.162,-0.003C0.143,-0.012 0.128,-0.027 0.117,-0.048C0.107,-0.068 0.101,-0.096 0.101,-0.131L0.101,-0.657Z" style="fill-rule:nonzero;"/>
                </g>
                <g transform="matrix(39.8631,-3.30617,3.30617,39.8631,10241,6687.37)">
                    <path d="M0.38,-0.09L0.38,-0.362C0.38,-0.383 0.376,-0.401 0.368,-0.417C0.36,-0.432 0.347,-0.444 0.331,-0.453C0.314,-0.461 0.293,-0.465 0.269,-0.465C0.246,-0.465 0.226,-0.461 0.209,-0.454C0.192,-0.446 0.179,-0.436 0.169,-0.423C0.16,-0.41 0.155,-0.396 0.155,-0.382L0.064,-0.382C0.064,-0.401 0.069,-0.419 0.079,-0.438C0.089,-0.457 0.103,-0.473 0.121,-0.489C0.14,-0.504 0.162,-0.516 0.188,-0.525C0.214,-0.534 0.243,-0.538 0.274,-0.538C0.313,-0.538 0.347,-0.532 0.376,-0.519C0.406,-0.506 0.429,-0.486 0.446,-0.46C0.462,-0.434 0.471,-0.401 0.471,-0.361L0.471,-0.115C0.471,-0.098 0.472,-0.079 0.475,-0.059C0.478,-0.039 0.483,-0.022 0.489,-0.008L0.489,-0L0.395,-0C0.39,-0.01 0.387,-0.024 0.384,-0.042C0.382,-0.059 0.38,-0.075 0.38,-0.09ZM0.396,-0.32L0.397,-0.257L0.306,-0.257C0.28,-0.257 0.257,-0.255 0.237,-0.251C0.217,-0.247 0.2,-0.241 0.186,-0.232C0.172,-0.224 0.162,-0.214 0.155,-0.202C0.148,-0.19 0.144,-0.175 0.144,-0.159C0.144,-0.143 0.148,-0.127 0.155,-0.114C0.163,-0.1 0.174,-0.089 0.189,-0.081C0.204,-0.073 0.223,-0.069 0.245,-0.069C0.273,-0.069 0.297,-0.075 0.318,-0.087C0.34,-0.099 0.356,-0.113 0.369,-0.13C0.381,-0.147 0.388,-0.163 0.389,-0.179L0.428,-0.136C0.425,-0.122 0.419,-0.107 0.409,-0.09C0.399,-0.074 0.386,-0.058 0.369,-0.043C0.352,-0.028 0.332,-0.015 0.309,-0.005C0.286,0.005 0.261,0.01 0.232,0.01C0.196,0.01 0.165,0.003 0.138,-0.011C0.111,-0.025 0.09,-0.044 0.075,-0.068C0.061,-0.091 0.053,-0.118 0.053,-0.147C0.053,-0.175 0.059,-0.2 0.07,-0.222C0.081,-0.244 0.097,-0.262 0.118,-0.276C0.139,-0.291 0.164,-0.302 0.193,-0.309C0.222,-0.317 0.255,-0.32 0.291,-0.32L0.396,-0.32Z" style="fill-rule:nonzero;"/>
                </g>
                <g transform="matrix(39.8529,-3.42723,3.42723,39.8529,10261.2,6685.71)">
                    <path d="M0.159,-0.427L0.159,0.203L0.068,0.203L0.068,-0.528L0.151,-0.528L0.159,-0.427ZM0.515,-0.269L0.515,-0.258C0.515,-0.22 0.511,-0.184 0.501,-0.152C0.492,-0.119 0.479,-0.09 0.462,-0.066C0.444,-0.042 0.423,-0.024 0.397,-0.01C0.372,0.003 0.343,0.01 0.31,0.01C0.277,0.01 0.247,0.004 0.221,-0.007C0.195,-0.018 0.174,-0.034 0.156,-0.055C0.138,-0.076 0.124,-0.102 0.113,-0.131C0.102,-0.161 0.095,-0.194 0.091,-0.231L0.091,-0.286C0.095,-0.325 0.103,-0.36 0.113,-0.391C0.124,-0.422 0.138,-0.448 0.156,-0.47C0.174,-0.492 0.195,-0.509 0.221,-0.521C0.246,-0.532 0.275,-0.538 0.309,-0.538C0.342,-0.538 0.371,-0.532 0.397,-0.519C0.423,-0.506 0.444,-0.488 0.462,-0.464C0.479,-0.44 0.493,-0.412 0.502,-0.379C0.511,-0.346 0.515,-0.309 0.515,-0.269ZM0.424,-0.258L0.424,-0.269C0.424,-0.295 0.422,-0.32 0.416,-0.343C0.41,-0.366 0.402,-0.387 0.39,-0.405C0.379,-0.422 0.364,-0.436 0.346,-0.447C0.328,-0.457 0.307,-0.462 0.282,-0.462C0.259,-0.462 0.24,-0.458 0.223,-0.45C0.206,-0.442 0.192,-0.432 0.18,-0.419C0.168,-0.406 0.159,-0.391 0.152,-0.374C0.144,-0.357 0.139,-0.34 0.135,-0.322L0.135,-0.195C0.142,-0.173 0.151,-0.151 0.163,-0.131C0.174,-0.111 0.19,-0.095 0.209,-0.083C0.229,-0.071 0.254,-0.064 0.283,-0.064C0.308,-0.064 0.329,-0.07 0.346,-0.08C0.364,-0.09 0.379,-0.104 0.39,-0.122C0.402,-0.14 0.41,-0.161 0.416,-0.184C0.422,-0.207 0.424,-0.232 0.424,-0.258Z" style="fill-rule:nonzero;"/>
                </g>
                <g transform="matrix(39.8424,-3.54783,3.54783,39.8424,10281.9,6683.93)">
                    <path d="M0.159,-0.75L0.159,-0L0.069,-0L0.069,-0.75L0.159,-0.75ZM0.138,-0.284L0.1,-0.286C0.1,-0.322 0.106,-0.355 0.116,-0.386C0.127,-0.417 0.141,-0.444 0.16,-0.466C0.179,-0.489 0.202,-0.507 0.228,-0.519C0.254,-0.532 0.283,-0.538 0.315,-0.538C0.341,-0.538 0.364,-0.535 0.385,-0.528C0.406,-0.521 0.424,-0.509 0.439,-0.494C0.454,-0.479 0.465,-0.459 0.473,-0.435C0.48,-0.411 0.484,-0.381 0.484,-0.346L0.484,-0L0.394,-0L0.394,-0.347C0.394,-0.375 0.389,-0.397 0.381,-0.414C0.373,-0.431 0.361,-0.443 0.346,-0.45C0.33,-0.458 0.311,-0.462 0.288,-0.462C0.266,-0.462 0.245,-0.457 0.227,-0.448C0.208,-0.438 0.193,-0.425 0.179,-0.409C0.166,-0.392 0.156,-0.373 0.149,-0.352C0.141,-0.33 0.138,-0.308 0.138,-0.284Z" style="fill-rule:nonzero;"/>
                </g>
                <g transform="matrix(39.8307,-3.67665,3.67665,39.8307,10302.3,6682.11)">
                    <path d="M0.045,-0.258L0.045,-0.27C0.045,-0.308 0.05,-0.343 0.062,-0.376C0.073,-0.408 0.089,-0.437 0.109,-0.461C0.13,-0.485 0.155,-0.504 0.185,-0.518C0.215,-0.531 0.248,-0.538 0.285,-0.538C0.322,-0.538 0.355,-0.531 0.385,-0.518C0.415,-0.504 0.44,-0.485 0.461,-0.461C0.482,-0.437 0.498,-0.408 0.509,-0.376C0.52,-0.343 0.526,-0.308 0.526,-0.27L0.526,-0.258C0.526,-0.22 0.52,-0.185 0.509,-0.152C0.498,-0.12 0.482,-0.091 0.461,-0.067C0.44,-0.043 0.415,-0.024 0.385,-0.01C0.356,0.003 0.323,0.01 0.286,0.01C0.249,0.01 0.215,0.003 0.186,-0.01C0.156,-0.024 0.131,-0.043 0.11,-0.067C0.089,-0.091 0.073,-0.12 0.062,-0.152C0.05,-0.185 0.045,-0.22 0.045,-0.258ZM0.135,-0.27L0.135,-0.258C0.135,-0.232 0.138,-0.207 0.145,-0.184C0.151,-0.161 0.16,-0.14 0.173,-0.122C0.185,-0.104 0.201,-0.09 0.22,-0.08C0.239,-0.07 0.261,-0.064 0.286,-0.064C0.31,-0.064 0.332,-0.07 0.351,-0.08C0.37,-0.09 0.385,-0.104 0.397,-0.122C0.41,-0.14 0.419,-0.161 0.426,-0.184C0.432,-0.207 0.435,-0.232 0.435,-0.258L0.435,-0.27C0.435,-0.296 0.432,-0.32 0.426,-0.344C0.419,-0.367 0.41,-0.387 0.397,-0.406C0.385,-0.424 0.369,-0.438 0.35,-0.448C0.332,-0.459 0.31,-0.464 0.285,-0.464C0.26,-0.464 0.238,-0.459 0.219,-0.448C0.201,-0.438 0.185,-0.424 0.173,-0.406C0.16,-0.387 0.151,-0.367 0.145,-0.344C0.138,-0.32 0.135,-0.296 0.135,-0.27Z" style="fill-rule:nonzero;"/>
                </g>
                <g transform="matrix(39.8201,-3.7893,3.7893,39.8201,10323.4,6680.17)">
                    <path d="M0.159,-0.445L0.159,-0L0.069,-0L0.069,-0.528L0.157,-0.528L0.159,-0.445ZM0.324,-0.531L0.324,-0.447C0.316,-0.449 0.309,-0.45 0.302,-0.45C0.296,-0.451 0.288,-0.451 0.28,-0.451C0.259,-0.451 0.241,-0.448 0.225,-0.441C0.209,-0.435 0.195,-0.426 0.184,-0.414C0.173,-0.402 0.164,-0.388 0.158,-0.372C0.152,-0.356 0.147,-0.339 0.146,-0.319L0.12,-0.305C0.12,-0.337 0.123,-0.367 0.13,-0.395C0.136,-0.423 0.146,-0.447 0.159,-0.469C0.173,-0.491 0.19,-0.508 0.21,-0.52C0.231,-0.532 0.256,-0.538 0.284,-0.538C0.291,-0.538 0.298,-0.537 0.307,-0.536C0.315,-0.534 0.321,-0.533 0.324,-0.531Z" style="fill-rule:nonzero;"/>
                </g>
                <g transform="matrix(39.7939,-4.05548,4.05548,39.7939,10360.1,6676.61)">
                    <path d="M0.376,-0.14C0.376,-0.153 0.374,-0.165 0.368,-0.177C0.362,-0.188 0.351,-0.198 0.333,-0.207C0.316,-0.217 0.29,-0.225 0.255,-0.231C0.226,-0.238 0.199,-0.245 0.176,-0.253C0.152,-0.262 0.132,-0.272 0.115,-0.284C0.099,-0.296 0.086,-0.31 0.078,-0.327C0.069,-0.343 0.064,-0.362 0.064,-0.384C0.064,-0.405 0.069,-0.424 0.078,-0.443C0.088,-0.461 0.101,-0.478 0.118,-0.492C0.135,-0.507 0.156,-0.518 0.18,-0.526C0.204,-0.534 0.231,-0.538 0.26,-0.538C0.303,-0.538 0.339,-0.531 0.369,-0.516C0.399,-0.501 0.422,-0.481 0.438,-0.456C0.453,-0.431 0.461,-0.403 0.461,-0.373L0.371,-0.373C0.371,-0.388 0.367,-0.402 0.358,-0.416C0.35,-0.43 0.337,-0.441 0.321,-0.45C0.304,-0.459 0.284,-0.464 0.26,-0.464C0.235,-0.464 0.215,-0.46 0.199,-0.452C0.184,-0.445 0.173,-0.435 0.166,-0.423C0.159,-0.412 0.155,-0.399 0.155,-0.386C0.155,-0.376 0.157,-0.368 0.16,-0.36C0.164,-0.352 0.17,-0.345 0.179,-0.339C0.188,-0.333 0.2,-0.327 0.216,-0.321C0.232,-0.316 0.252,-0.31 0.277,-0.305C0.32,-0.295 0.356,-0.283 0.384,-0.27C0.412,-0.256 0.433,-0.239 0.446,-0.219C0.46,-0.199 0.467,-0.175 0.467,-0.147C0.467,-0.124 0.462,-0.103 0.452,-0.083C0.443,-0.064 0.429,-0.048 0.411,-0.034C0.393,-0.02 0.371,-0.009 0.346,-0.002C0.322,0.006 0.294,0.01 0.263,0.01C0.216,0.01 0.177,0.001 0.145,-0.015C0.112,-0.032 0.088,-0.053 0.071,-0.08C0.055,-0.106 0.046,-0.134 0.046,-0.163L0.137,-0.163C0.139,-0.138 0.146,-0.119 0.159,-0.104C0.172,-0.09 0.188,-0.08 0.207,-0.073C0.225,-0.067 0.244,-0.064 0.263,-0.064C0.287,-0.064 0.308,-0.068 0.325,-0.074C0.342,-0.081 0.354,-0.09 0.363,-0.101C0.372,-0.112 0.376,-0.125 0.376,-0.14Z" style="fill-rule:nonzero;"/>
                </g>
                <g transform="matrix(39.7804,-4.18608,4.18608,39.7804,10379.1,6674.67)">
                    <path d="M0.217,-0.055L0.364,-0.528L0.461,-0.528L0.249,0.082C0.244,0.095 0.238,0.109 0.23,0.124C0.222,0.139 0.212,0.153 0.199,0.167C0.187,0.181 0.172,0.192 0.155,0.2C0.137,0.209 0.116,0.213 0.092,0.213C0.085,0.213 0.076,0.212 0.065,0.21C0.054,0.208 0.046,0.207 0.042,0.206L0.041,0.132C0.044,0.133 0.048,0.133 0.053,0.134C0.059,0.134 0.063,0.134 0.065,0.134C0.086,0.134 0.103,0.132 0.118,0.126C0.132,0.121 0.144,0.112 0.154,0.099C0.164,0.087 0.173,0.07 0.18,0.048L0.217,-0.055ZM0.109,-0.528L0.247,-0.118L0.27,-0.023L0.205,0.01L0.011,-0.528L0.109,-0.528Z" style="fill-rule:nonzero;"/>
                </g>
                <g transform="matrix(39.7598,-4.37663,4.37663,39.7598,10396.3,6672.89)">
                    <path d="M0.159,-0.423L0.159,-0L0.068,-0L0.068,-0.528L0.154,-0.528L0.159,-0.423ZM0.14,-0.284L0.098,-0.286C0.098,-0.322 0.103,-0.355 0.112,-0.386C0.121,-0.417 0.135,-0.444 0.153,-0.466C0.171,-0.489 0.193,-0.507 0.22,-0.519C0.246,-0.532 0.277,-0.538 0.313,-0.538C0.337,-0.538 0.36,-0.535 0.381,-0.528C0.402,-0.521 0.42,-0.51 0.435,-0.495C0.45,-0.48 0.462,-0.46 0.471,-0.437C0.479,-0.414 0.483,-0.385 0.483,-0.352L0.483,-0L0.393,-0L0.393,-0.348C0.393,-0.375 0.388,-0.397 0.379,-0.414C0.37,-0.431 0.357,-0.443 0.34,-0.45C0.323,-0.458 0.303,-0.462 0.28,-0.462C0.254,-0.462 0.231,-0.457 0.213,-0.448C0.195,-0.438 0.181,-0.425 0.17,-0.409C0.16,-0.392 0.152,-0.373 0.147,-0.352C0.142,-0.33 0.14,-0.308 0.14,-0.284ZM0.482,-0.334L0.422,-0.315C0.422,-0.344 0.427,-0.372 0.436,-0.399C0.446,-0.426 0.459,-0.449 0.477,-0.47C0.495,-0.491 0.516,-0.508 0.542,-0.52C0.569,-0.532 0.598,-0.538 0.632,-0.538C0.66,-0.538 0.685,-0.534 0.707,-0.527C0.729,-0.519 0.748,-0.508 0.763,-0.492C0.778,-0.477 0.79,-0.457 0.797,-0.433C0.805,-0.409 0.809,-0.38 0.809,-0.347L0.809,-0L0.718,-0L0.718,-0.348C0.718,-0.378 0.714,-0.401 0.704,-0.417C0.695,-0.434 0.682,-0.445 0.665,-0.452C0.649,-0.459 0.629,-0.462 0.605,-0.462C0.586,-0.462 0.568,-0.458 0.553,-0.452C0.537,-0.445 0.525,-0.435 0.514,-0.424C0.504,-0.412 0.496,-0.398 0.49,-0.383C0.485,-0.368 0.482,-0.351 0.482,-0.334Z" style="fill-rule:nonzero;"/>
                </g>
                <g transform="matrix(39.7351,-4.59567,4.59567,39.7351,10429.6,6669.22)">
                    <path d="M0.068,-0.75L0.159,-0.75L0.159,-0.103L0.151,-0L0.068,-0L0.068,-0.75ZM0.516,-0.269L0.516,-0.258C0.516,-0.22 0.512,-0.184 0.502,-0.152C0.493,-0.119 0.48,-0.09 0.462,-0.066C0.445,-0.042 0.423,-0.024 0.398,-0.01C0.373,0.003 0.343,0.01 0.311,0.01C0.277,0.01 0.248,0.004 0.222,-0.008C0.197,-0.019 0.176,-0.036 0.159,-0.058C0.141,-0.079 0.128,-0.106 0.117,-0.137C0.107,-0.168 0.1,-0.202 0.096,-0.241L0.096,-0.286C0.1,-0.325 0.107,-0.36 0.117,-0.391C0.128,-0.422 0.141,-0.448 0.159,-0.47C0.176,-0.492 0.197,-0.509 0.222,-0.521C0.247,-0.532 0.276,-0.538 0.31,-0.538C0.343,-0.538 0.372,-0.532 0.398,-0.519C0.424,-0.506 0.445,-0.488 0.463,-0.464C0.48,-0.44 0.493,-0.412 0.502,-0.379C0.512,-0.346 0.516,-0.309 0.516,-0.269ZM0.425,-0.258L0.425,-0.269C0.425,-0.295 0.423,-0.32 0.418,-0.343C0.413,-0.366 0.405,-0.387 0.395,-0.405C0.384,-0.422 0.37,-0.436 0.352,-0.447C0.334,-0.457 0.313,-0.462 0.287,-0.462C0.264,-0.462 0.245,-0.458 0.228,-0.45C0.211,-0.442 0.197,-0.432 0.185,-0.419C0.173,-0.406 0.164,-0.391 0.156,-0.374C0.149,-0.357 0.144,-0.34 0.14,-0.322L0.14,-0.204C0.145,-0.181 0.154,-0.159 0.166,-0.138C0.178,-0.117 0.194,-0.1 0.214,-0.087C0.234,-0.074 0.258,-0.067 0.288,-0.067C0.313,-0.067 0.333,-0.072 0.351,-0.082C0.368,-0.092 0.382,-0.105 0.393,-0.123C0.404,-0.141 0.412,-0.161 0.417,-0.184C0.423,-0.207 0.425,-0.232 0.425,-0.258Z" style="fill-rule:nonzero;"/>
                </g>
                <g transform="matrix(39.7147,-4.76857,4.76857,39.7147,10450.3,6666.82)">
                    <path d="M0.045,-0.258L0.045,-0.27C0.045,-0.308 0.05,-0.343 0.062,-0.376C0.073,-0.408 0.089,-0.437 0.109,-0.461C0.13,-0.485 0.155,-0.504 0.185,-0.518C0.215,-0.531 0.248,-0.538 0.285,-0.538C0.322,-0.538 0.355,-0.531 0.385,-0.518C0.415,-0.504 0.44,-0.485 0.461,-0.461C0.482,-0.437 0.498,-0.408 0.509,-0.376C0.52,-0.343 0.526,-0.308 0.526,-0.27L0.526,-0.258C0.526,-0.22 0.52,-0.185 0.509,-0.152C0.498,-0.12 0.482,-0.091 0.461,-0.067C0.44,-0.043 0.415,-0.024 0.385,-0.01C0.356,0.003 0.323,0.01 0.286,0.01C0.249,0.01 0.215,0.003 0.186,-0.01C0.156,-0.024 0.131,-0.043 0.11,-0.067C0.089,-0.091 0.073,-0.12 0.062,-0.152C0.05,-0.185 0.045,-0.22 0.045,-0.258ZM0.135,-0.27L0.135,-0.258C0.135,-0.232 0.138,-0.207 0.145,-0.184C0.151,-0.161 0.16,-0.14 0.173,-0.122C0.185,-0.104 0.201,-0.09 0.22,-0.08C0.239,-0.07 0.261,-0.064 0.286,-0.064C0.31,-0.064 0.332,-0.07 0.351,-0.08C0.37,-0.09 0.385,-0.104 0.397,-0.122C0.41,-0.14 0.419,-0.161 0.426,-0.184C0.432,-0.207 0.435,-0.232 0.435,-0.258L0.435,-0.27C0.435,-0.296 0.432,-0.32 0.426,-0.344C0.419,-0.367 0.41,-0.387 0.397,-0.406C0.385,-0.424 0.369,-0.438 0.35,-0.448C0.332,-0.459 0.31,-0.464 0.285,-0.464C0.26,-0.464 0.238,-0.459 0.219,-0.448C0.201,-0.438 0.185,-0.424 0.173,-0.406C0.16,-0.387 0.151,-0.367 0.145,-0.344C0.138,-0.32 0.135,-0.296 0.135,-0.27Z" style="fill-rule:nonzero;"/>
                </g>
                <g transform="matrix(39.6991,-4.89704,4.89704,39.6991,10471.4,6664.28)">
                    <rect x="0.076" y="-0.75" width="0.091" height="0.75" style="fill-rule:nonzero;"/>
                </g>
                <g transform="matrix(39.69,-4.97037,4.97037,39.69,10479.5,6663.29)">
                    <path d="M0.167,-0.528L0.167,-0L0.076,-0L0.076,-0.528L0.167,-0.528ZM0.069,-0.668C0.069,-0.683 0.074,-0.695 0.083,-0.706C0.092,-0.716 0.105,-0.721 0.123,-0.721C0.14,-0.721 0.153,-0.716 0.162,-0.706C0.172,-0.695 0.176,-0.683 0.176,-0.668C0.176,-0.654 0.172,-0.642 0.162,-0.633C0.153,-0.623 0.14,-0.618 0.123,-0.618C0.105,-0.618 0.092,-0.623 0.083,-0.633C0.074,-0.642 0.069,-0.654 0.069,-0.668Z" style="fill-rule:nonzero;"/>
                </g>
                <g transform="matrix(39.6742,-5.0945,5.0945,39.6742,10487.5,6662.29)">
                    <path d="M0.376,-0.14C0.376,-0.153 0.374,-0.165 0.368,-0.177C0.362,-0.188 0.351,-0.198 0.333,-0.207C0.316,-0.217 0.29,-0.225 0.255,-0.231C0.226,-0.238 0.199,-0.245 0.176,-0.253C0.152,-0.262 0.132,-0.272 0.115,-0.284C0.099,-0.296 0.086,-0.31 0.078,-0.327C0.069,-0.343 0.064,-0.362 0.064,-0.384C0.064,-0.405 0.069,-0.424 0.078,-0.443C0.088,-0.461 0.101,-0.478 0.118,-0.492C0.135,-0.507 0.156,-0.518 0.18,-0.526C0.204,-0.534 0.231,-0.538 0.26,-0.538C0.303,-0.538 0.339,-0.531 0.369,-0.516C0.399,-0.501 0.422,-0.481 0.438,-0.456C0.453,-0.431 0.461,-0.403 0.461,-0.373L0.371,-0.373C0.371,-0.388 0.367,-0.402 0.358,-0.416C0.35,-0.43 0.337,-0.441 0.321,-0.45C0.304,-0.459 0.284,-0.464 0.26,-0.464C0.235,-0.464 0.215,-0.46 0.199,-0.452C0.184,-0.445 0.173,-0.435 0.166,-0.423C0.159,-0.412 0.155,-0.399 0.155,-0.386C0.155,-0.376 0.157,-0.368 0.16,-0.36C0.164,-0.352 0.17,-0.345 0.179,-0.339C0.188,-0.333 0.2,-0.327 0.216,-0.321C0.232,-0.316 0.252,-0.31 0.277,-0.305C0.32,-0.295 0.356,-0.283 0.384,-0.27C0.412,-0.256 0.433,-0.239 0.446,-0.219C0.46,-0.199 0.467,-0.175 0.467,-0.147C0.467,-0.124 0.462,-0.103 0.452,-0.083C0.443,-0.064 0.429,-0.048 0.411,-0.034C0.393,-0.02 0.371,-0.009 0.346,-0.002C0.322,0.006 0.294,0.01 0.263,0.01C0.216,0.01 0.177,0.001 0.145,-0.015C0.112,-0.032 0.088,-0.053 0.071,-0.08C0.055,-0.106 0.046,-0.134 0.046,-0.163L0.137,-0.163C0.139,-0.138 0.146,-0.119 0.159,-0.104C0.172,-0.09 0.188,-0.08 0.207,-0.073C0.225,-0.067 0.244,-0.064 0.263,-0.064C0.287,-0.064 0.308,-0.068 0.325,-0.074C0.342,-0.081 0.354,-0.09 0.363,-0.101C0.372,-0.112 0.376,-0.125 0.376,-0.14Z" style="fill-rule:nonzero;"/>
                </g>
                <g transform="matrix(39.6405,-5.35065,5.35065,39.6405,10506.4,6659.89)">
                    <path d="M0.159,-0.423L0.159,-0L0.068,-0L0.068,-0.528L0.154,-0.528L0.159,-0.423ZM0.14,-0.284L0.098,-0.286C0.098,-0.322 0.103,-0.355 0.112,-0.386C0.121,-0.417 0.135,-0.444 0.153,-0.466C0.171,-0.489 0.193,-0.507 0.22,-0.519C0.246,-0.532 0.277,-0.538 0.313,-0.538C0.337,-0.538 0.36,-0.535 0.381,-0.528C0.402,-0.521 0.42,-0.51 0.435,-0.495C0.45,-0.48 0.462,-0.46 0.471,-0.437C0.479,-0.414 0.483,-0.385 0.483,-0.352L0.483,-0L0.393,-0L0.393,-0.348C0.393,-0.375 0.388,-0.397 0.379,-0.414C0.37,-0.431 0.357,-0.443 0.34,-0.45C0.323,-0.458 0.303,-0.462 0.28,-0.462C0.254,-0.462 0.231,-0.457 0.213,-0.448C0.195,-0.438 0.181,-0.425 0.17,-0.409C0.16,-0.392 0.152,-0.373 0.147,-0.352C0.142,-0.33 0.14,-0.308 0.14,-0.284ZM0.482,-0.334L0.422,-0.315C0.422,-0.344 0.427,-0.372 0.436,-0.399C0.446,-0.426 0.459,-0.449 0.477,-0.47C0.495,-0.491 0.516,-0.508 0.542,-0.52C0.569,-0.532 0.598,-0.538 0.632,-0.538C0.66,-0.538 0.685,-0.534 0.707,-0.527C0.729,-0.519 0.748,-0.508 0.763,-0.492C0.778,-0.477 0.79,-0.457 0.797,-0.433C0.805,-0.409 0.809,-0.38 0.809,-0.347L0.809,-0L0.718,-0L0.718,-0.348C0.718,-0.378 0.714,-0.401 0.704,-0.417C0.695,-0.434 0.682,-0.445 0.665,-0.452C0.649,-0.459 0.629,-0.462 0.605,-0.462C0.586,-0.462 0.568,-0.458 0.553,-0.452C0.537,-0.445 0.525,-0.435 0.514,-0.424C0.504,-0.412 0.496,-0.398 0.49,-0.383C0.485,-0.368 0.482,-0.351 0.482,-0.334Z" style="fill-rule:nonzero;"/>
                </g>
                <g transform="matrix(39.5606,-5.91262,5.91262,39.5606,10564.3,6651.88)">
                    <path d="M0.159,-0.416L0.159,-0L0.069,-0L0.069,-0.528L0.154,-0.528L0.159,-0.416ZM0.138,-0.284L0.1,-0.286C0.1,-0.322 0.106,-0.355 0.116,-0.386C0.127,-0.417 0.141,-0.444 0.16,-0.466C0.179,-0.489 0.202,-0.507 0.228,-0.519C0.254,-0.532 0.283,-0.538 0.315,-0.538C0.341,-0.538 0.364,-0.535 0.385,-0.528C0.406,-0.521 0.424,-0.509 0.439,-0.494C0.454,-0.479 0.465,-0.459 0.473,-0.435C0.48,-0.411 0.484,-0.381 0.484,-0.346L0.484,-0L0.394,-0L0.394,-0.347C0.394,-0.375 0.389,-0.397 0.381,-0.414C0.373,-0.431 0.361,-0.443 0.346,-0.45C0.33,-0.458 0.311,-0.462 0.288,-0.462C0.266,-0.462 0.245,-0.457 0.227,-0.448C0.208,-0.438 0.193,-0.425 0.179,-0.409C0.166,-0.392 0.156,-0.373 0.149,-0.352C0.141,-0.33 0.138,-0.308 0.138,-0.284Z" style="fill-rule:nonzero;"/>
                </g>
                <g transform="matrix(39.5235,-6.15572,6.15572,39.5235,10584.5,6648.86)">
                    <path d="M0.38,-0.09L0.38,-0.362C0.38,-0.383 0.376,-0.401 0.368,-0.417C0.36,-0.432 0.347,-0.444 0.331,-0.453C0.314,-0.461 0.293,-0.465 0.269,-0.465C0.246,-0.465 0.226,-0.461 0.209,-0.454C0.192,-0.446 0.179,-0.436 0.169,-0.423C0.16,-0.41 0.155,-0.396 0.155,-0.382L0.064,-0.382C0.064,-0.401 0.069,-0.419 0.079,-0.438C0.089,-0.457 0.103,-0.473 0.121,-0.489C0.14,-0.504 0.162,-0.516 0.188,-0.525C0.214,-0.534 0.243,-0.538 0.274,-0.538C0.313,-0.538 0.347,-0.532 0.376,-0.519C0.406,-0.506 0.429,-0.486 0.446,-0.46C0.462,-0.434 0.471,-0.401 0.471,-0.361L0.471,-0.115C0.471,-0.098 0.472,-0.079 0.475,-0.059C0.478,-0.039 0.483,-0.022 0.489,-0.008L0.489,-0L0.395,-0C0.39,-0.01 0.387,-0.024 0.384,-0.042C0.382,-0.059 0.38,-0.075 0.38,-0.09ZM0.396,-0.32L0.397,-0.257L0.306,-0.257C0.28,-0.257 0.257,-0.255 0.237,-0.251C0.217,-0.247 0.2,-0.241 0.186,-0.232C0.172,-0.224 0.162,-0.214 0.155,-0.202C0.148,-0.19 0.144,-0.175 0.144,-0.159C0.144,-0.143 0.148,-0.127 0.155,-0.114C0.163,-0.1 0.174,-0.089 0.189,-0.081C0.204,-0.073 0.223,-0.069 0.245,-0.069C0.273,-0.069 0.297,-0.075 0.318,-0.087C0.34,-0.099 0.356,-0.113 0.369,-0.13C0.381,-0.147 0.388,-0.163 0.389,-0.179L0.428,-0.136C0.425,-0.122 0.419,-0.107 0.409,-0.09C0.399,-0.074 0.386,-0.058 0.369,-0.043C0.352,-0.028 0.332,-0.015 0.309,-0.005C0.286,0.005 0.261,0.01 0.232,0.01C0.196,0.01 0.165,0.003 0.138,-0.011C0.111,-0.025 0.09,-0.044 0.075,-0.068C0.061,-0.091 0.053,-0.118 0.053,-0.147C0.053,-0.175 0.059,-0.2 0.07,-0.222C0.081,-0.244 0.097,-0.262 0.118,-0.276C0.139,-0.291 0.164,-0.302 0.193,-0.309C0.222,-0.317 0.255,-0.32 0.291,-0.32L0.396,-0.32Z" style="fill-rule:nonzero;"/>
                </g>
                <g transform="matrix(39.4888,-6.37425,6.37425,39.4888,10604.5,6645.75)">
                    <path d="M0.159,-0.445L0.159,-0L0.069,-0L0.069,-0.528L0.157,-0.528L0.159,-0.445ZM0.324,-0.531L0.324,-0.447C0.316,-0.449 0.309,-0.45 0.302,-0.45C0.296,-0.451 0.288,-0.451 0.28,-0.451C0.259,-0.451 0.241,-0.448 0.225,-0.441C0.209,-0.435 0.195,-0.426 0.184,-0.414C0.173,-0.402 0.164,-0.388 0.158,-0.372C0.152,-0.356 0.147,-0.339 0.146,-0.319L0.12,-0.305C0.12,-0.337 0.123,-0.367 0.13,-0.395C0.136,-0.423 0.146,-0.447 0.159,-0.469C0.173,-0.491 0.19,-0.508 0.21,-0.52C0.231,-0.532 0.256,-0.538 0.284,-0.538C0.291,-0.538 0.298,-0.537 0.307,-0.536C0.315,-0.534 0.321,-0.533 0.324,-0.531Z" style="fill-rule:nonzero;"/>
                </g>
                <g transform="matrix(39.4627,-6.53401,6.53401,39.4627,10616.3,6643.85)">
                    <path d="M0.159,-0.445L0.159,-0L0.069,-0L0.069,-0.528L0.157,-0.528L0.159,-0.445ZM0.324,-0.531L0.324,-0.447C0.316,-0.449 0.309,-0.45 0.302,-0.45C0.296,-0.451 0.288,-0.451 0.28,-0.451C0.259,-0.451 0.241,-0.448 0.225,-0.441C0.209,-0.435 0.195,-0.426 0.184,-0.414C0.173,-0.402 0.164,-0.388 0.158,-0.372C0.152,-0.356 0.147,-0.339 0.146,-0.319L0.12,-0.305C0.12,-0.337 0.123,-0.367 0.13,-0.395C0.136,-0.423 0.146,-0.447 0.159,-0.469C0.173,-0.491 0.19,-0.508 0.21,-0.52C0.231,-0.532 0.256,-0.538 0.284,-0.538C0.291,-0.538 0.298,-0.537 0.307,-0.536C0.315,-0.534 0.321,-0.533 0.324,-0.531Z" style="fill-rule:nonzero;"/>
                </g>
                <g transform="matrix(39.4277,-6.74238,6.74238,39.4277,10628.1,6641.92)">
                    <path d="M0.38,-0.09L0.38,-0.362C0.38,-0.383 0.376,-0.401 0.368,-0.417C0.36,-0.432 0.347,-0.444 0.331,-0.453C0.314,-0.461 0.293,-0.465 0.269,-0.465C0.246,-0.465 0.226,-0.461 0.209,-0.454C0.192,-0.446 0.179,-0.436 0.169,-0.423C0.16,-0.41 0.155,-0.396 0.155,-0.382L0.064,-0.382C0.064,-0.401 0.069,-0.419 0.079,-0.438C0.089,-0.457 0.103,-0.473 0.121,-0.489C0.14,-0.504 0.162,-0.516 0.188,-0.525C0.214,-0.534 0.243,-0.538 0.274,-0.538C0.313,-0.538 0.347,-0.532 0.376,-0.519C0.406,-0.506 0.429,-0.486 0.446,-0.46C0.462,-0.434 0.471,-0.401 0.471,-0.361L0.471,-0.115C0.471,-0.098 0.472,-0.079 0.475,-0.059C0.478,-0.039 0.483,-0.022 0.489,-0.008L0.489,-0L0.395,-0C0.39,-0.01 0.387,-0.024 0.384,-0.042C0.382,-0.059 0.38,-0.075 0.38,-0.09ZM0.396,-0.32L0.397,-0.257L0.306,-0.257C0.28,-0.257 0.257,-0.255 0.237,-0.251C0.217,-0.247 0.2,-0.241 0.186,-0.232C0.172,-0.224 0.162,-0.214 0.155,-0.202C0.148,-0.19 0.144,-0.175 0.144,-0.159C0.144,-0.143 0.148,-0.127 0.155,-0.114C0.163,-0.1 0.174,-0.089 0.189,-0.081C0.204,-0.073 0.223,-0.069 0.245,-0.069C0.273,-0.069 0.297,-0.075 0.318,-0.087C0.34,-0.099 0.356,-0.113 0.369,-0.13C0.381,-0.147 0.388,-0.163 0.389,-0.179L0.428,-0.136C0.425,-0.122 0.419,-0.107 0.409,-0.09C0.399,-0.074 0.386,-0.058 0.369,-0.043C0.352,-0.028 0.332,-0.015 0.309,-0.005C0.286,0.005 0.261,0.01 0.232,0.01C0.196,0.01 0.165,0.003 0.138,-0.011C0.111,-0.025 0.09,-0.044 0.075,-0.068C0.061,-0.091 0.053,-0.118 0.053,-0.147C0.053,-0.175 0.059,-0.2 0.07,-0.222C0.081,-0.244 0.097,-0.262 0.118,-0.276C0.139,-0.291 0.164,-0.302 0.193,-0.309C0.222,-0.317 0.255,-0.32 0.291,-0.32L0.396,-0.32Z" style="fill-rule:nonzero;"/>
                </g>
                <g transform="matrix(39.3887,-6.96654,6.96654,39.3887,10647.9,6638.51)">
                    <path d="M0.29,-0.528L0.29,-0.459L0.004,-0.459L0.004,-0.528L0.29,-0.528ZM0.101,-0.657L0.191,-0.657L0.191,-0.131C0.191,-0.113 0.194,-0.099 0.2,-0.09C0.205,-0.081 0.212,-0.075 0.221,-0.072C0.23,-0.069 0.239,-0.068 0.25,-0.068C0.257,-0.068 0.265,-0.069 0.273,-0.07C0.281,-0.072 0.288,-0.073 0.292,-0.074L0.292,-0C0.285,0.002 0.276,0.004 0.264,0.007C0.253,0.009 0.239,0.01 0.223,0.01C0.201,0.01 0.18,0.005 0.162,-0.003C0.143,-0.012 0.128,-0.027 0.117,-0.048C0.107,-0.068 0.101,-0.096 0.101,-0.131L0.101,-0.657Z" style="fill-rule:nonzero;"/>
                </g>
                <g transform="matrix(39.3599,-7.12737,7.12737,39.3599,10659.2,6636.51)">
                    <path d="M0.167,-0.528L0.167,-0L0.076,-0L0.076,-0.528L0.167,-0.528ZM0.069,-0.668C0.069,-0.683 0.074,-0.695 0.083,-0.706C0.092,-0.716 0.105,-0.721 0.123,-0.721C0.14,-0.721 0.153,-0.716 0.162,-0.706C0.172,-0.695 0.176,-0.683 0.176,-0.668C0.176,-0.654 0.172,-0.642 0.162,-0.633C0.153,-0.623 0.14,-0.618 0.123,-0.618C0.105,-0.618 0.092,-0.623 0.083,-0.633C0.074,-0.642 0.069,-0.654 0.069,-0.668Z" style="fill-rule:nonzero;"/>
                </g>
                <g transform="matrix(39.3219,-7.33417,7.33417,39.3219,10667.3,6635.08)">
                    <path d="M0.229,-0.082L0.374,-0.528L0.466,-0.528L0.276,-0L0.216,-0L0.229,-0.082ZM0.109,-0.528L0.258,-0.079L0.268,-0L0.208,-0L0.016,-0.528L0.109,-0.528Z" style="fill-rule:nonzero;"/>
                </g>
                <g transform="matrix(39.2602,-7.65748,7.65748,39.2602,10684.8,6631.82)">
                    <path d="M0.288,0.01C0.251,0.01 0.218,0.003 0.188,-0.009C0.158,-0.022 0.133,-0.039 0.112,-0.062C0.09,-0.085 0.074,-0.112 0.063,-0.143C0.051,-0.174 0.045,-0.208 0.045,-0.246L0.045,-0.266C0.045,-0.309 0.052,-0.347 0.064,-0.381C0.077,-0.415 0.094,-0.443 0.116,-0.467C0.138,-0.49 0.163,-0.508 0.19,-0.52C0.218,-0.532 0.247,-0.538 0.276,-0.538C0.314,-0.538 0.347,-0.532 0.374,-0.519C0.402,-0.506 0.424,-0.487 0.442,-0.464C0.459,-0.441 0.472,-0.413 0.481,-0.382C0.489,-0.351 0.494,-0.316 0.494,-0.279L0.494,-0.239L0.099,-0.239L0.099,-0.313L0.403,-0.313L0.403,-0.319C0.402,-0.343 0.397,-0.366 0.389,-0.388C0.381,-0.41 0.368,-0.428 0.35,-0.442C0.332,-0.457 0.307,-0.464 0.276,-0.464C0.256,-0.464 0.237,-0.46 0.22,-0.451C0.202,-0.442 0.188,-0.43 0.175,-0.413C0.163,-0.396 0.153,-0.375 0.146,-0.351C0.14,-0.326 0.136,-0.298 0.136,-0.266L0.136,-0.246C0.136,-0.221 0.14,-0.197 0.147,-0.175C0.154,-0.153 0.164,-0.134 0.177,-0.117C0.191,-0.101 0.207,-0.088 0.227,-0.078C0.246,-0.069 0.268,-0.064 0.293,-0.064C0.325,-0.064 0.352,-0.07 0.374,-0.083C0.396,-0.097 0.416,-0.114 0.432,-0.136L0.487,-0.092C0.475,-0.075 0.461,-0.059 0.443,-0.043C0.426,-0.027 0.404,-0.015 0.379,-0.005C0.353,0.005 0.323,0.01 0.288,0.01Z" style="fill-rule:nonzero;"/>
                </g>
                <g transform="matrix(39.0811,-8.52468,8.52468,39.0811,10728.4,6623.07)">
                    <path d="M0.38,-0.09L0.38,-0.362C0.38,-0.383 0.376,-0.401 0.368,-0.417C0.36,-0.432 0.347,-0.444 0.331,-0.453C0.314,-0.461 0.293,-0.465 0.269,-0.465C0.246,-0.465 0.226,-0.461 0.209,-0.454C0.192,-0.446 0.179,-0.436 0.169,-0.423C0.16,-0.41 0.155,-0.396 0.155,-0.382L0.064,-0.382C0.064,-0.401 0.069,-0.419 0.079,-0.438C0.089,-0.457 0.103,-0.473 0.121,-0.489C0.14,-0.504 0.162,-0.516 0.188,-0.525C0.214,-0.534 0.243,-0.538 0.274,-0.538C0.313,-0.538 0.347,-0.532 0.376,-0.519C0.406,-0.506 0.429,-0.486 0.446,-0.46C0.462,-0.434 0.471,-0.401 0.471,-0.361L0.471,-0.115C0.471,-0.098 0.472,-0.079 0.475,-0.059C0.478,-0.039 0.483,-0.022 0.489,-0.008L0.489,-0L0.395,-0C0.39,-0.01 0.387,-0.024 0.384,-0.042C0.382,-0.059 0.38,-0.075 0.38,-0.09ZM0.396,-0.32L0.397,-0.257L0.306,-0.257C0.28,-0.257 0.257,-0.255 0.237,-0.251C0.217,-0.247 0.2,-0.241 0.186,-0.232C0.172,-0.224 0.162,-0.214 0.155,-0.202C0.148,-0.19 0.144,-0.175 0.144,-0.159C0.144,-0.143 0.148,-0.127 0.155,-0.114C0.163,-0.1 0.174,-0.089 0.189,-0.081C0.204,-0.073 0.223,-0.069 0.245,-0.069C0.273,-0.069 0.297,-0.075 0.318,-0.087C0.34,-0.099 0.356,-0.113 0.369,-0.13C0.381,-0.147 0.388,-0.163 0.389,-0.179L0.428,-0.136C0.425,-0.122 0.419,-0.107 0.409,-0.09C0.399,-0.074 0.386,-0.058 0.369,-0.043C0.352,-0.028 0.332,-0.015 0.309,-0.005C0.286,0.005 0.261,0.01 0.232,0.01C0.196,0.01 0.165,0.003 0.138,-0.011C0.111,-0.025 0.09,-0.044 0.075,-0.068C0.061,-0.091 0.053,-0.118 0.053,-0.147C0.053,-0.175 0.059,-0.2 0.07,-0.222C0.081,-0.244 0.097,-0.262 0.118,-0.276C0.139,-0.291 0.164,-0.302 0.193,-0.309C0.222,-0.317 0.255,-0.32 0.291,-0.32L0.396,-0.32Z" style="fill-rule:nonzero;"/>
                </g>
                <g transform="matrix(38.975,-8.99732,8.99732,38.975,10748.1,6618.78)">
                    <path d="M0.068,-0.75L0.159,-0.75L0.159,-0.103L0.151,-0L0.068,-0L0.068,-0.75ZM0.516,-0.269L0.516,-0.258C0.516,-0.22 0.512,-0.184 0.502,-0.152C0.493,-0.119 0.48,-0.09 0.462,-0.066C0.445,-0.042 0.423,-0.024 0.398,-0.01C0.373,0.003 0.343,0.01 0.311,0.01C0.277,0.01 0.248,0.004 0.222,-0.008C0.197,-0.019 0.176,-0.036 0.159,-0.058C0.141,-0.079 0.128,-0.106 0.117,-0.137C0.107,-0.168 0.1,-0.202 0.096,-0.241L0.096,-0.286C0.1,-0.325 0.107,-0.36 0.117,-0.391C0.128,-0.422 0.141,-0.448 0.159,-0.47C0.176,-0.492 0.197,-0.509 0.222,-0.521C0.247,-0.532 0.276,-0.538 0.31,-0.538C0.343,-0.538 0.372,-0.532 0.398,-0.519C0.424,-0.506 0.445,-0.488 0.463,-0.464C0.48,-0.44 0.493,-0.412 0.502,-0.379C0.512,-0.346 0.516,-0.309 0.516,-0.269ZM0.425,-0.258L0.425,-0.269C0.425,-0.295 0.423,-0.32 0.418,-0.343C0.413,-0.366 0.405,-0.387 0.395,-0.405C0.384,-0.422 0.37,-0.436 0.352,-0.447C0.334,-0.457 0.313,-0.462 0.287,-0.462C0.264,-0.462 0.245,-0.458 0.228,-0.45C0.211,-0.442 0.197,-0.432 0.185,-0.419C0.173,-0.406 0.164,-0.391 0.156,-0.374C0.149,-0.357 0.144,-0.34 0.14,-0.322L0.14,-0.204C0.145,-0.181 0.154,-0.159 0.166,-0.138C0.178,-0.117 0.194,-0.1 0.214,-0.087C0.234,-0.074 0.258,-0.067 0.288,-0.067C0.313,-0.067 0.333,-0.072 0.351,-0.082C0.368,-0.092 0.382,-0.105 0.393,-0.123C0.404,-0.141 0.412,-0.161 0.417,-0.184C0.423,-0.207 0.425,-0.232 0.425,-0.258Z" style="fill-rule:nonzero;"/>
                </g>
                <g transform="matrix(38.8608,-9.47835,9.47835,38.8608,10768.4,6614.1)">
                    <path d="M0.376,-0.14C0.376,-0.153 0.374,-0.165 0.368,-0.177C0.362,-0.188 0.351,-0.198 0.333,-0.207C0.316,-0.217 0.29,-0.225 0.255,-0.231C0.226,-0.238 0.199,-0.245 0.176,-0.253C0.152,-0.262 0.132,-0.272 0.115,-0.284C0.099,-0.296 0.086,-0.31 0.078,-0.327C0.069,-0.343 0.064,-0.362 0.064,-0.384C0.064,-0.405 0.069,-0.424 0.078,-0.443C0.088,-0.461 0.101,-0.478 0.118,-0.492C0.135,-0.507 0.156,-0.518 0.18,-0.526C0.204,-0.534 0.231,-0.538 0.26,-0.538C0.303,-0.538 0.339,-0.531 0.369,-0.516C0.399,-0.501 0.422,-0.481 0.438,-0.456C0.453,-0.431 0.461,-0.403 0.461,-0.373L0.371,-0.373C0.371,-0.388 0.367,-0.402 0.358,-0.416C0.35,-0.43 0.337,-0.441 0.321,-0.45C0.304,-0.459 0.284,-0.464 0.26,-0.464C0.235,-0.464 0.215,-0.46 0.199,-0.452C0.184,-0.445 0.173,-0.435 0.166,-0.423C0.159,-0.412 0.155,-0.399 0.155,-0.386C0.155,-0.376 0.157,-0.368 0.16,-0.36C0.164,-0.352 0.17,-0.345 0.179,-0.339C0.188,-0.333 0.2,-0.327 0.216,-0.321C0.232,-0.316 0.252,-0.31 0.277,-0.305C0.32,-0.295 0.356,-0.283 0.384,-0.27C0.412,-0.256 0.433,-0.239 0.446,-0.219C0.46,-0.199 0.467,-0.175 0.467,-0.147C0.467,-0.124 0.462,-0.103 0.452,-0.083C0.443,-0.064 0.429,-0.048 0.411,-0.034C0.393,-0.02 0.371,-0.009 0.346,-0.002C0.322,0.006 0.294,0.01 0.263,0.01C0.216,0.01 0.177,0.001 0.145,-0.015C0.112,-0.032 0.088,-0.053 0.071,-0.08C0.055,-0.106 0.046,-0.134 0.046,-0.163L0.137,-0.163C0.139,-0.138 0.146,-0.119 0.159,-0.104C0.172,-0.09 0.188,-0.08 0.207,-0.073C0.225,-0.067 0.244,-0.064 0.263,-0.064C0.287,-0.064 0.308,-0.068 0.325,-0.074C0.342,-0.081 0.354,-0.09 0.363,-0.101C0.372,-0.112 0.376,-0.125 0.376,-0.14Z" style="fill-rule:nonzero;"/>
                </g>
                <g transform="matrix(38.7616,-9.87605,9.87605,38.7616,10786.9,6609.58)">
                    <path d="M0.29,-0.528L0.29,-0.459L0.004,-0.459L0.004,-0.528L0.29,-0.528ZM0.101,-0.657L0.191,-0.657L0.191,-0.131C0.191,-0.113 0.194,-0.099 0.2,-0.09C0.205,-0.081 0.212,-0.075 0.221,-0.072C0.23,-0.069 0.239,-0.068 0.25,-0.068C0.257,-0.068 0.265,-0.069 0.273,-0.07C0.281,-0.072 0.288,-0.073 0.292,-0.074L0.292,-0C0.285,0.002 0.276,0.004 0.264,0.007C0.253,0.009 0.239,0.01 0.223,0.01C0.201,0.01 0.18,0.005 0.162,-0.003C0.143,-0.012 0.128,-0.027 0.117,-0.048C0.107,-0.068 0.101,-0.096 0.101,-0.131L0.101,-0.657Z" style="fill-rule:nonzero;"/>
                </g>
                <g transform="matrix(38.6594,-10.269,10.269,38.6594,10798.1,6606.74)">
                    <path d="M0.159,-0.445L0.159,-0L0.069,-0L0.069,-0.528L0.157,-0.528L0.159,-0.445ZM0.324,-0.531L0.324,-0.447C0.316,-0.449 0.309,-0.45 0.302,-0.45C0.296,-0.451 0.288,-0.451 0.28,-0.451C0.259,-0.451 0.241,-0.448 0.225,-0.441C0.209,-0.435 0.195,-0.426 0.184,-0.414C0.173,-0.402 0.164,-0.388 0.158,-0.372C0.152,-0.356 0.147,-0.339 0.146,-0.319L0.12,-0.305C0.12,-0.337 0.123,-0.367 0.13,-0.395C0.136,-0.423 0.146,-0.447 0.159,-0.469C0.173,-0.491 0.19,-0.508 0.21,-0.52C0.231,-0.532 0.256,-0.538 0.284,-0.538C0.291,-0.538 0.298,-0.537 0.307,-0.536C0.315,-0.534 0.321,-0.533 0.324,-0.531Z" style="fill-rule:nonzero;"/>
                </g>
                <g transform="matrix(38.5311,-10.7402,10.7402,38.5311,10809.7,6603.72)">
                    <path d="M0.38,-0.09L0.38,-0.362C0.38,-0.383 0.376,-0.401 0.368,-0.417C0.36,-0.432 0.347,-0.444 0.331,-0.453C0.314,-0.461 0.293,-0.465 0.269,-0.465C0.246,-0.465 0.226,-0.461 0.209,-0.454C0.192,-0.446 0.179,-0.436 0.169,-0.423C0.16,-0.41 0.155,-0.396 0.155,-0.382L0.064,-0.382C0.064,-0.401 0.069,-0.419 0.079,-0.438C0.089,-0.457 0.103,-0.473 0.121,-0.489C0.14,-0.504 0.162,-0.516 0.188,-0.525C0.214,-0.534 0.243,-0.538 0.274,-0.538C0.313,-0.538 0.347,-0.532 0.376,-0.519C0.406,-0.506 0.429,-0.486 0.446,-0.46C0.462,-0.434 0.471,-0.401 0.471,-0.361L0.471,-0.115C0.471,-0.098 0.472,-0.079 0.475,-0.059C0.478,-0.039 0.483,-0.022 0.489,-0.008L0.489,-0L0.395,-0C0.39,-0.01 0.387,-0.024 0.384,-0.042C0.382,-0.059 0.38,-0.075 0.38,-0.09ZM0.396,-0.32L0.397,-0.257L0.306,-0.257C0.28,-0.257 0.257,-0.255 0.237,-0.251C0.217,-0.247 0.2,-0.241 0.186,-0.232C0.172,-0.224 0.162,-0.214 0.155,-0.202C0.148,-0.19 0.144,-0.175 0.144,-0.159C0.144,-0.143 0.148,-0.127 0.155,-0.114C0.163,-0.1 0.174,-0.089 0.189,-0.081C0.204,-0.073 0.223,-0.069 0.245,-0.069C0.273,-0.069 0.297,-0.075 0.318,-0.087C0.34,-0.099 0.356,-0.113 0.369,-0.13C0.381,-0.147 0.388,-0.163 0.389,-0.179L0.428,-0.136C0.425,-0.122 0.419,-0.107 0.409,-0.09C0.399,-0.074 0.386,-0.058 0.369,-0.043C0.352,-0.028 0.332,-0.015 0.309,-0.005C0.286,0.005 0.261,0.01 0.232,0.01C0.196,0.01 0.165,0.003 0.138,-0.011C0.111,-0.025 0.09,-0.044 0.075,-0.068C0.061,-0.091 0.053,-0.118 0.053,-0.147C0.053,-0.175 0.059,-0.2 0.07,-0.222C0.081,-0.244 0.097,-0.262 0.118,-0.276C0.139,-0.291 0.164,-0.302 0.193,-0.309C0.222,-0.317 0.255,-0.32 0.291,-0.32L0.396,-0.32Z" style="fill-rule:nonzero;"/>
                </g>
                <g transform="matrix(38.3282,-11.4432,11.4432,38.3282,10829.1,6598.33)">
                    <path d="M0.28,-0.064C0.302,-0.064 0.322,-0.069 0.34,-0.078C0.358,-0.086 0.373,-0.099 0.385,-0.114C0.396,-0.129 0.403,-0.147 0.405,-0.167L0.491,-0.167C0.489,-0.136 0.479,-0.107 0.459,-0.08C0.44,-0.053 0.415,-0.031 0.383,-0.015C0.352,0.002 0.318,0.01 0.28,0.01C0.241,0.01 0.206,0.003 0.177,-0.011C0.147,-0.025 0.123,-0.044 0.103,-0.069C0.084,-0.093 0.069,-0.121 0.06,-0.153C0.05,-0.185 0.045,-0.218 0.045,-0.254L0.045,-0.274C0.045,-0.31 0.05,-0.344 0.06,-0.375C0.069,-0.407 0.084,-0.435 0.103,-0.459C0.123,-0.484 0.147,-0.503 0.177,-0.517C0.206,-0.531 0.241,-0.538 0.28,-0.538C0.322,-0.538 0.358,-0.53 0.389,-0.513C0.42,-0.496 0.444,-0.473 0.462,-0.445C0.479,-0.416 0.489,-0.383 0.491,-0.347L0.405,-0.347C0.403,-0.368 0.397,-0.388 0.386,-0.406C0.376,-0.423 0.362,-0.437 0.344,-0.448C0.325,-0.459 0.304,-0.464 0.28,-0.464C0.253,-0.464 0.229,-0.458 0.211,-0.448C0.192,-0.437 0.177,-0.422 0.166,-0.404C0.155,-0.385 0.148,-0.365 0.143,-0.343C0.138,-0.32 0.136,-0.298 0.136,-0.274L0.136,-0.254C0.136,-0.231 0.138,-0.208 0.143,-0.186C0.147,-0.163 0.155,-0.143 0.166,-0.125C0.177,-0.106 0.191,-0.092 0.21,-0.081C0.229,-0.07 0.252,-0.064 0.28,-0.064Z" style="fill-rule:nonzero;"/>
                </g>
                <g transform="matrix(38.1531,-12.0141,12.0141,38.1531,10847.6,6592.78)">
                    <path d="M0.29,-0.528L0.29,-0.459L0.004,-0.459L0.004,-0.528L0.29,-0.528ZM0.101,-0.657L0.191,-0.657L0.191,-0.131C0.191,-0.113 0.194,-0.099 0.2,-0.09C0.205,-0.081 0.212,-0.075 0.221,-0.072C0.23,-0.069 0.239,-0.068 0.25,-0.068C0.257,-0.068 0.265,-0.069 0.273,-0.07C0.281,-0.072 0.288,-0.073 0.292,-0.074L0.292,-0C0.285,0.002 0.276,0.004 0.264,0.007C0.253,0.009 0.239,0.01 0.223,0.01C0.201,0.01 0.18,0.005 0.162,-0.003C0.143,-0.012 0.128,-0.027 0.117,-0.048C0.107,-0.068 0.101,-0.096 0.101,-0.131L0.101,-0.657Z" style="fill-rule:nonzero;"/>
                </g>
                <g transform="matrix(38.0093,-12.4616,12.4616,38.0093,10858.6,6589.32)">
                    <path d="M0.167,-0.528L0.167,-0L0.076,-0L0.076,-0.528L0.167,-0.528ZM0.069,-0.668C0.069,-0.683 0.074,-0.695 0.083,-0.706C0.092,-0.716 0.105,-0.721 0.123,-0.721C0.14,-0.721 0.153,-0.716 0.162,-0.706C0.172,-0.695 0.176,-0.683 0.176,-0.668C0.176,-0.654 0.172,-0.642 0.162,-0.633C0.153,-0.623 0.14,-0.618 0.123,-0.618C0.105,-0.618 0.092,-0.623 0.083,-0.633C0.074,-0.642 0.069,-0.654 0.069,-0.668Z" style="fill-rule:nonzero;"/>
                </g>
                <g transform="matrix(37.7782,-13.1458,13.1458,37.7782,10866.3,6586.86)">
                    <path d="M0.045,-0.258L0.045,-0.27C0.045,-0.308 0.05,-0.343 0.062,-0.376C0.073,-0.408 0.089,-0.437 0.109,-0.461C0.13,-0.485 0.155,-0.504 0.185,-0.518C0.215,-0.531 0.248,-0.538 0.285,-0.538C0.322,-0.538 0.355,-0.531 0.385,-0.518C0.415,-0.504 0.44,-0.485 0.461,-0.461C0.482,-0.437 0.498,-0.408 0.509,-0.376C0.52,-0.343 0.526,-0.308 0.526,-0.27L0.526,-0.258C0.526,-0.22 0.52,-0.185 0.509,-0.152C0.498,-0.12 0.482,-0.091 0.461,-0.067C0.44,-0.043 0.415,-0.024 0.385,-0.01C0.356,0.003 0.323,0.01 0.286,0.01C0.249,0.01 0.215,0.003 0.186,-0.01C0.156,-0.024 0.131,-0.043 0.11,-0.067C0.089,-0.091 0.073,-0.12 0.062,-0.152C0.05,-0.185 0.045,-0.22 0.045,-0.258ZM0.135,-0.27L0.135,-0.258C0.135,-0.232 0.138,-0.207 0.145,-0.184C0.151,-0.161 0.16,-0.14 0.173,-0.122C0.185,-0.104 0.201,-0.09 0.22,-0.08C0.239,-0.07 0.261,-0.064 0.286,-0.064C0.31,-0.064 0.332,-0.07 0.351,-0.08C0.37,-0.09 0.385,-0.104 0.397,-0.122C0.41,-0.14 0.419,-0.161 0.426,-0.184C0.432,-0.207 0.435,-0.232 0.435,-0.258L0.435,-0.27C0.435,-0.296 0.432,-0.32 0.426,-0.344C0.419,-0.367 0.41,-0.387 0.397,-0.406C0.385,-0.424 0.369,-0.438 0.35,-0.448C0.332,-0.459 0.31,-0.464 0.285,-0.464C0.26,-0.464 0.238,-0.459 0.219,-0.448C0.201,-0.438 0.185,-0.424 0.173,-0.406C0.16,-0.387 0.151,-0.367 0.145,-0.344C0.138,-0.32 0.135,-0.296 0.135,-0.27Z" style="fill-rule:nonzero;"/>
                </g>
                <g transform="matrix(37.3703,-14.264,14.264,37.3703,10886.4,6579.92)">
                    <path d="M0.159,-0.416L0.159,-0L0.069,-0L0.069,-0.528L0.154,-0.528L0.159,-0.416ZM0.138,-0.284L0.1,-0.286C0.1,-0.322 0.106,-0.355 0.116,-0.386C0.127,-0.417 0.141,-0.444 0.16,-0.466C0.179,-0.489 0.202,-0.507 0.228,-0.519C0.254,-0.532 0.283,-0.538 0.315,-0.538C0.341,-0.538 0.364,-0.535 0.385,-0.528C0.406,-0.521 0.424,-0.509 0.439,-0.494C0.454,-0.479 0.465,-0.459 0.473,-0.435C0.48,-0.411 0.484,-0.381 0.484,-0.346L0.484,-0L0.394,-0L0.394,-0.347C0.394,-0.375 0.389,-0.397 0.381,-0.414C0.373,-0.431 0.361,-0.443 0.346,-0.45C0.33,-0.458 0.311,-0.462 0.288,-0.462C0.266,-0.462 0.245,-0.457 0.227,-0.448C0.208,-0.438 0.193,-0.425 0.179,-0.409C0.166,-0.392 0.156,-0.373 0.149,-0.352C0.141,-0.33 0.138,-0.308 0.138,-0.284Z" style="fill-rule:nonzero;"/>
                </g>
                <g transform="matrix(35.9634,-17.5109,17.5109,35.9634,10928.5,6562.88)">
                    <path d="M0.28,-0.064C0.302,-0.064 0.322,-0.069 0.34,-0.078C0.358,-0.086 0.373,-0.099 0.385,-0.114C0.396,-0.129 0.403,-0.147 0.405,-0.167L0.491,-0.167C0.489,-0.136 0.479,-0.107 0.459,-0.08C0.44,-0.053 0.415,-0.031 0.383,-0.015C0.352,0.002 0.318,0.01 0.28,0.01C0.241,0.01 0.206,0.003 0.177,-0.011C0.147,-0.025 0.123,-0.044 0.103,-0.069C0.084,-0.093 0.069,-0.121 0.06,-0.153C0.05,-0.185 0.045,-0.218 0.045,-0.254L0.045,-0.274C0.045,-0.31 0.05,-0.344 0.06,-0.375C0.069,-0.407 0.084,-0.435 0.103,-0.459C0.123,-0.484 0.147,-0.503 0.177,-0.517C0.206,-0.531 0.241,-0.538 0.28,-0.538C0.322,-0.538 0.358,-0.53 0.389,-0.513C0.42,-0.496 0.444,-0.473 0.462,-0.445C0.479,-0.416 0.489,-0.383 0.491,-0.347L0.405,-0.347C0.403,-0.368 0.397,-0.388 0.386,-0.406C0.376,-0.423 0.362,-0.437 0.344,-0.448C0.325,-0.459 0.304,-0.464 0.28,-0.464C0.253,-0.464 0.229,-0.458 0.211,-0.448C0.192,-0.437 0.177,-0.422 0.166,-0.404C0.155,-0.385 0.148,-0.365 0.143,-0.343C0.138,-0.32 0.136,-0.298 0.136,-0.274L0.136,-0.254C0.136,-0.231 0.138,-0.208 0.143,-0.186C0.147,-0.163 0.155,-0.143 0.166,-0.125C0.177,-0.106 0.191,-0.092 0.21,-0.081C0.229,-0.07 0.252,-0.064 0.28,-0.064Z" style="fill-rule:nonzero;"/>
                </g>
                <g transform="matrix(34.9263,-19.4975,19.4975,34.9263,10945.9,6554.51)">
                    <path d="M0.045,-0.258L0.045,-0.27C0.045,-0.308 0.05,-0.343 0.062,-0.376C0.073,-0.408 0.089,-0.437 0.109,-0.461C0.13,-0.485 0.155,-0.504 0.185,-0.518C0.215,-0.531 0.248,-0.538 0.285,-0.538C0.322,-0.538 0.355,-0.531 0.385,-0.518C0.415,-0.504 0.44,-0.485 0.461,-0.461C0.482,-0.437 0.498,-0.408 0.509,-0.376C0.52,-0.343 0.526,-0.308 0.526,-0.27L0.526,-0.258C0.526,-0.22 0.52,-0.185 0.509,-0.152C0.498,-0.12 0.482,-0.091 0.461,-0.067C0.44,-0.043 0.415,-0.024 0.385,-0.01C0.356,0.003 0.323,0.01 0.286,0.01C0.249,0.01 0.215,0.003 0.186,-0.01C0.156,-0.024 0.131,-0.043 0.11,-0.067C0.089,-0.091 0.073,-0.12 0.062,-0.152C0.05,-0.185 0.045,-0.22 0.045,-0.258ZM0.135,-0.27L0.135,-0.258C0.135,-0.232 0.138,-0.207 0.145,-0.184C0.151,-0.161 0.16,-0.14 0.173,-0.122C0.185,-0.104 0.201,-0.09 0.22,-0.08C0.239,-0.07 0.261,-0.064 0.286,-0.064C0.31,-0.064 0.332,-0.07 0.351,-0.08C0.37,-0.09 0.385,-0.104 0.397,-0.122C0.41,-0.14 0.419,-0.161 0.426,-0.184C0.432,-0.207 0.435,-0.232 0.435,-0.258L0.435,-0.27C0.435,-0.296 0.432,-0.32 0.426,-0.344C0.419,-0.367 0.41,-0.387 0.397,-0.406C0.385,-0.424 0.369,-0.438 0.35,-0.448C0.332,-0.459 0.31,-0.464 0.285,-0.464C0.26,-0.464 0.238,-0.459 0.219,-0.448C0.201,-0.438 0.185,-0.424 0.173,-0.406C0.16,-0.387 0.151,-0.367 0.145,-0.344C0.138,-0.32 0.135,-0.296 0.135,-0.27Z" style="fill-rule:nonzero;"/>
                </g>
                <g transform="matrix(33.8751,-21.2715,21.2715,33.8751,10964.4,6544.06)">
                    <rect x="0.076" y="-0.75" width="0.091" height="0.75" style="fill-rule:nonzero;"/>
                </g>
                <g transform="matrix(32.4451,-23.3948,23.3948,32.4451,10971.4,6539.97)">
                    <path d="M0.045,-0.258L0.045,-0.27C0.045,-0.308 0.05,-0.343 0.062,-0.376C0.073,-0.408 0.089,-0.437 0.109,-0.461C0.13,-0.485 0.155,-0.504 0.185,-0.518C0.215,-0.531 0.248,-0.538 0.285,-0.538C0.322,-0.538 0.355,-0.531 0.385,-0.518C0.415,-0.504 0.44,-0.485 0.461,-0.461C0.482,-0.437 0.498,-0.408 0.509,-0.376C0.52,-0.343 0.526,-0.308 0.526,-0.27L0.526,-0.258C0.526,-0.22 0.52,-0.185 0.509,-0.152C0.498,-0.12 0.482,-0.091 0.461,-0.067C0.44,-0.043 0.415,-0.024 0.385,-0.01C0.356,0.003 0.323,0.01 0.286,0.01C0.249,0.01 0.215,0.003 0.186,-0.01C0.156,-0.024 0.131,-0.043 0.11,-0.067C0.089,-0.091 0.073,-0.12 0.062,-0.152C0.05,-0.185 0.045,-0.22 0.045,-0.258ZM0.135,-0.27L0.135,-0.258C0.135,-0.232 0.138,-0.207 0.145,-0.184C0.151,-0.161 0.16,-0.14 0.173,-0.122C0.185,-0.104 0.201,-0.09 0.22,-0.08C0.239,-0.07 0.261,-0.064 0.286,-0.064C0.31,-0.064 0.332,-0.07 0.351,-0.08C0.37,-0.09 0.385,-0.104 0.397,-0.122C0.41,-0.14 0.419,-0.161 0.426,-0.184C0.432,-0.207 0.435,-0.232 0.435,-0.258L0.435,-0.27C0.435,-0.296 0.432,-0.32 0.426,-0.344C0.419,-0.367 0.41,-0.387 0.397,-0.406C0.385,-0.424 0.369,-0.438 0.35,-0.448C0.332,-0.459 0.31,-0.464 0.285,-0.464C0.26,-0.464 0.238,-0.459 0.219,-0.448C0.201,-0.438 0.185,-0.424 0.173,-0.406C0.16,-0.387 0.151,-0.367 0.145,-0.344C0.138,-0.32 0.135,-0.296 0.135,-0.27Z" style="fill-rule:nonzero;"/>
                </g>
                <g transform="matrix(29.9348,-26.5313,26.5313,29.9348,10988.6,6527.5)">
                    <path d="M0.159,-0.445L0.159,-0L0.069,-0L0.069,-0.528L0.157,-0.528L0.159,-0.445ZM0.324,-0.531L0.324,-0.447C0.316,-0.449 0.309,-0.45 0.302,-0.45C0.296,-0.451 0.288,-0.451 0.28,-0.451C0.259,-0.451 0.241,-0.448 0.225,-0.441C0.209,-0.435 0.195,-0.426 0.184,-0.414C0.173,-0.402 0.164,-0.388 0.158,-0.372C0.152,-0.356 0.147,-0.339 0.146,-0.319L0.12,-0.305C0.12,-0.337 0.123,-0.367 0.13,-0.395C0.136,-0.423 0.146,-0.447 0.159,-0.469C0.173,-0.491 0.19,-0.508 0.21,-0.52C0.231,-0.532 0.256,-0.538 0.284,-0.538C0.291,-0.538 0.298,-0.537 0.307,-0.536C0.315,-0.534 0.321,-0.533 0.324,-0.531Z" style="fill-rule:nonzero;"/>
                </g>
            </g>
        </g>
    </g>
</svg>
