<?xml version="1.0" encoding="UTF-8" standalone="no"?>
<!DOCTYPE svg PUBLIC "-//W3C//DTD SVG 1.1//EN" "http://www.w3.org/Graphics/SVG/1.1/DTD/svg11.dtd">
<svg width="100%" height="100%" viewBox="0 0 1835 1015" version="1.1" xmlns="http://www.w3.org/2000/svg" xmlns:xlink="http://www.w3.org/1999/xlink" xml:space="preserve" xmlns:serif="http://www.serif.com/" style="fill-rule:evenodd;clip-rule:evenodd;stroke-linecap:square;stroke-linejoin:round;stroke-miterlimit:1.5;">
    <g transform="matrix(1,0,0,1,-11405.2,-7697.81)">
        <g id="rope_top" transform="matrix(1,0,0,1,7038.76,3167.23)">
            <rect x="4366.45" y="4530.58" width="1834.93" height="1014.87" style="fill:none;"/>
            <g transform="matrix(1,0,0,1,-4881.48,0)">
                <path d="M10995.1,4628.86C10572.1,5364.05 9451.73,4989.57 9356.7,5447.16" style="fill:none;stroke:rgb(255,102,159);stroke-width:49.14px;"/>
            </g>
            <g transform="matrix(1,0,0,1,-4877.25,12.1435)">
                <g transform="matrix(9.68223,-38.8105,38.8105,9.68223,9356.49,5447.11)">
                    <path d="M0.38,-0.09L0.38,-0.362C0.38,-0.383 0.376,-0.401 0.368,-0.417C0.36,-0.432 0.347,-0.444 0.331,-0.453C0.314,-0.461 0.293,-0.465 0.269,-0.465C0.246,-0.465 0.226,-0.461 0.209,-0.454C0.192,-0.446 0.179,-0.436 0.169,-0.423C0.16,-0.41 0.155,-0.396 0.155,-0.382L0.064,-0.382C0.064,-0.401 0.069,-0.419 0.079,-0.438C0.089,-0.457 0.103,-0.473 0.121,-0.489C0.14,-0.504 0.162,-0.516 0.188,-0.525C0.214,-0.534 0.243,-0.538 0.274,-0.538C0.313,-0.538 0.347,-0.532 0.376,-0.519C0.406,-0.506 0.429,-0.486 0.446,-0.46C0.462,-0.434 0.471,-0.401 0.471,-0.361L0.471,-0.115C0.471,-0.098 0.472,-0.079 0.475,-0.059C0.478,-0.039 0.483,-0.022 0.489,-0.008L0.489,-0L0.395,-0C0.39,-0.01 0.387,-0.024 0.384,-0.042C0.382,-0.059 0.38,-0.075 0.38,-0.09ZM0.396,-0.32L0.397,-0.257L0.306,-0.257C0.28,-0.257 0.257,-0.255 0.237,-0.251C0.217,-0.247 0.2,-0.241 0.186,-0.232C0.172,-0.224 0.162,-0.214 0.155,-0.202C0.148,-0.19 0.144,-0.175 0.144,-0.159C0.144,-0.143 0.148,-0.127 0.155,-0.114C0.163,-0.1 0.174,-0.089 0.189,-0.081C0.204,-0.073 0.223,-0.069 0.245,-0.069C0.273,-0.069 0.297,-0.075 0.318,-0.087C0.34,-0.099 0.356,-0.113 0.369,-0.13C0.381,-0.147 0.388,-0.163 0.389,-0.179L0.428,-0.136C0.425,-0.122 0.419,-0.107 0.409,-0.09C0.399,-0.074 0.386,-0.058 0.369,-0.043C0.352,-0.028 0.332,-0.015 0.309,-0.005C0.286,0.005 0.261,0.01 0.232,0.01C0.196,0.01 0.165,0.003 0.138,-0.011C0.111,-0.025 0.09,-0.044 0.075,-0.068C0.061,-0.091 0.053,-0.118 0.053,-0.147C0.053,-0.175 0.059,-0.2 0.07,-0.222C0.081,-0.244 0.097,-0.262 0.118,-0.276C0.139,-0.291 0.164,-0.302 0.193,-0.309C0.222,-0.317 0.255,-0.32 0.291,-0.32L0.396,-0.32Z" style="fill-rule:nonzero;"/>
                </g>
                <g transform="matrix(12.6717,-37.9398,37.9398,12.6717,9361.3,5427.56)">
                    <path d="M0.402,-0.103L0.402,-0.75L0.493,-0.75L0.493,-0L0.41,-0L0.402,-0.103ZM0.046,-0.258L0.046,-0.269C0.046,-0.309 0.051,-0.346 0.061,-0.379C0.071,-0.412 0.085,-0.44 0.104,-0.464C0.122,-0.488 0.144,-0.506 0.17,-0.519C0.195,-0.532 0.224,-0.538 0.255,-0.538C0.289,-0.538 0.318,-0.532 0.343,-0.521C0.367,-0.509 0.389,-0.492 0.406,-0.47C0.423,-0.448 0.437,-0.422 0.447,-0.391C0.457,-0.36 0.464,-0.325 0.468,-0.286L0.468,-0.241C0.465,-0.202 0.458,-0.168 0.448,-0.137C0.437,-0.106 0.423,-0.079 0.406,-0.058C0.389,-0.036 0.367,-0.019 0.342,-0.008C0.317,0.004 0.288,0.01 0.254,0.01C0.223,0.01 0.195,0.003 0.17,-0.01C0.144,-0.024 0.122,-0.042 0.104,-0.066C0.085,-0.09 0.071,-0.119 0.061,-0.152C0.051,-0.184 0.046,-0.22 0.046,-0.258ZM0.137,-0.269L0.137,-0.258C0.137,-0.232 0.14,-0.207 0.145,-0.184C0.151,-0.161 0.159,-0.141 0.17,-0.123C0.182,-0.105 0.196,-0.092 0.214,-0.082C0.231,-0.072 0.252,-0.067 0.277,-0.067C0.307,-0.067 0.331,-0.073 0.351,-0.086C0.37,-0.099 0.386,-0.115 0.397,-0.136C0.409,-0.157 0.418,-0.18 0.425,-0.204L0.425,-0.322C0.421,-0.34 0.415,-0.357 0.408,-0.374C0.401,-0.391 0.391,-0.406 0.38,-0.419C0.368,-0.432 0.354,-0.442 0.337,-0.45C0.32,-0.458 0.301,-0.462 0.278,-0.462C0.253,-0.462 0.232,-0.457 0.214,-0.447C0.196,-0.436 0.182,-0.422 0.17,-0.405C0.159,-0.387 0.151,-0.366 0.145,-0.343C0.14,-0.32 0.137,-0.295 0.137,-0.269Z" style="fill-rule:nonzero;"/>
                </g>
                <g transform="matrix(15.7327,-36.7761,36.7761,15.7327,9367.97,5407.62)">
                    <path d="M0.229,-0.082L0.374,-0.528L0.466,-0.528L0.276,-0L0.216,-0L0.229,-0.082ZM0.109,-0.528L0.258,-0.079L0.268,-0L0.208,-0L0.016,-0.528L0.109,-0.528Z" style="fill-rule:nonzero;"/>
                </g>
                <g transform="matrix(18.6478,-35.3873,35.3873,18.6478,9374.86,5391.24)">
                    <path d="M0.288,0.01C0.251,0.01 0.218,0.003 0.188,-0.009C0.158,-0.022 0.133,-0.039 0.112,-0.062C0.09,-0.085 0.074,-0.112 0.063,-0.143C0.051,-0.174 0.045,-0.208 0.045,-0.246L0.045,-0.266C0.045,-0.309 0.052,-0.347 0.064,-0.381C0.077,-0.415 0.094,-0.443 0.116,-0.467C0.138,-0.49 0.163,-0.508 0.19,-0.52C0.218,-0.532 0.247,-0.538 0.276,-0.538C0.314,-0.538 0.347,-0.532 0.374,-0.519C0.402,-0.506 0.424,-0.487 0.442,-0.464C0.459,-0.441 0.472,-0.413 0.481,-0.382C0.489,-0.351 0.494,-0.316 0.494,-0.279L0.494,-0.239L0.099,-0.239L0.099,-0.313L0.403,-0.313L0.403,-0.319C0.402,-0.343 0.397,-0.366 0.389,-0.388C0.381,-0.41 0.368,-0.428 0.35,-0.442C0.332,-0.457 0.307,-0.464 0.276,-0.464C0.256,-0.464 0.237,-0.46 0.22,-0.451C0.202,-0.442 0.188,-0.43 0.175,-0.413C0.163,-0.396 0.153,-0.375 0.146,-0.351C0.14,-0.326 0.136,-0.298 0.136,-0.266L0.136,-0.246C0.136,-0.221 0.14,-0.197 0.147,-0.175C0.154,-0.153 0.164,-0.134 0.177,-0.117C0.191,-0.101 0.207,-0.088 0.227,-0.078C0.246,-0.069 0.268,-0.064 0.293,-0.064C0.325,-0.064 0.352,-0.07 0.374,-0.083C0.396,-0.097 0.416,-0.114 0.432,-0.136L0.487,-0.092C0.475,-0.075 0.461,-0.059 0.443,-0.043C0.426,-0.027 0.404,-0.015 0.379,-0.005C0.353,0.005 0.323,0.01 0.288,0.01Z" style="fill-rule:nonzero;"/>
                </g>
                <g transform="matrix(21.6277,-33.6488,33.6488,21.6277,9383.95,5373.8)">
                    <path d="M0.159,-0.416L0.159,-0L0.069,-0L0.069,-0.528L0.154,-0.528L0.159,-0.416ZM0.138,-0.284L0.1,-0.286C0.1,-0.322 0.106,-0.355 0.116,-0.386C0.127,-0.417 0.141,-0.444 0.16,-0.466C0.179,-0.489 0.202,-0.507 0.228,-0.519C0.254,-0.532 0.283,-0.538 0.315,-0.538C0.341,-0.538 0.364,-0.535 0.385,-0.528C0.406,-0.521 0.424,-0.509 0.439,-0.494C0.454,-0.479 0.465,-0.459 0.473,-0.435C0.48,-0.411 0.484,-0.381 0.484,-0.346L0.484,-0L0.394,-0L0.394,-0.347C0.394,-0.375 0.389,-0.397 0.381,-0.414C0.373,-0.431 0.361,-0.443 0.346,-0.45C0.33,-0.458 0.311,-0.462 0.288,-0.462C0.266,-0.462 0.245,-0.457 0.227,-0.448C0.208,-0.438 0.193,-0.425 0.179,-0.409C0.166,-0.392 0.156,-0.373 0.149,-0.352C0.141,-0.33 0.138,-0.308 0.138,-0.284Z" style="fill-rule:nonzero;"/>
                </g>
                <g transform="matrix(23.7933,-32.154,32.154,23.7933,9395.11,5356.64)">
                    <path d="M0.29,-0.528L0.29,-0.459L0.004,-0.459L0.004,-0.528L0.29,-0.528ZM0.101,-0.657L0.191,-0.657L0.191,-0.131C0.191,-0.113 0.194,-0.099 0.2,-0.09C0.205,-0.081 0.212,-0.075 0.221,-0.072C0.23,-0.069 0.239,-0.068 0.25,-0.068C0.257,-0.068 0.265,-0.069 0.273,-0.07C0.281,-0.072 0.288,-0.073 0.292,-0.074L0.292,-0C0.285,0.002 0.276,0.004 0.264,0.007C0.253,0.009 0.239,0.01 0.223,0.01C0.201,0.01 0.18,0.005 0.162,-0.003C0.143,-0.012 0.128,-0.027 0.117,-0.048C0.107,-0.068 0.101,-0.096 0.101,-0.131L0.101,-0.657Z" style="fill-rule:nonzero;"/>
                </g>
                <g transform="matrix(25.9583,-30.433,30.433,25.9583,9401.81,5347.29)">
                    <path d="M0.392,-0.122L0.392,-0.528L0.483,-0.528L0.483,-0L0.396,-0L0.392,-0.122ZM0.409,-0.233L0.447,-0.234C0.447,-0.199 0.443,-0.167 0.436,-0.137C0.428,-0.107 0.417,-0.081 0.4,-0.06C0.384,-0.038 0.363,-0.021 0.336,-0.009C0.31,0.004 0.278,0.01 0.24,0.01C0.215,0.01 0.191,0.006 0.17,-0.001C0.148,-0.009 0.13,-0.021 0.115,-0.036C0.099,-0.052 0.088,-0.072 0.079,-0.097C0.071,-0.122 0.067,-0.152 0.067,-0.188L0.067,-0.528L0.157,-0.528L0.157,-0.187C0.157,-0.163 0.16,-0.143 0.165,-0.128C0.171,-0.112 0.178,-0.1 0.187,-0.091C0.197,-0.082 0.207,-0.076 0.219,-0.072C0.23,-0.069 0.242,-0.067 0.254,-0.067C0.293,-0.067 0.323,-0.074 0.346,-0.089C0.368,-0.104 0.384,-0.124 0.394,-0.149C0.404,-0.174 0.409,-0.202 0.409,-0.233Z" style="fill-rule:nonzero;"/>
                </g>
                <g transform="matrix(27.9997,-28.5661,28.5661,27.9997,9415.13,5331.76)">
                    <path d="M0.159,-0.445L0.159,-0L0.069,-0L0.069,-0.528L0.157,-0.528L0.159,-0.445ZM0.324,-0.531L0.324,-0.447C0.316,-0.449 0.309,-0.45 0.302,-0.45C0.296,-0.451 0.288,-0.451 0.28,-0.451C0.259,-0.451 0.241,-0.448 0.225,-0.441C0.209,-0.435 0.195,-0.426 0.184,-0.414C0.173,-0.402 0.164,-0.388 0.158,-0.372C0.152,-0.356 0.147,-0.339 0.146,-0.319L0.12,-0.305C0.12,-0.337 0.123,-0.367 0.13,-0.395C0.136,-0.423 0.146,-0.447 0.159,-0.469C0.173,-0.491 0.19,-0.508 0.21,-0.52C0.231,-0.532 0.256,-0.538 0.284,-0.538C0.291,-0.538 0.298,-0.537 0.307,-0.536C0.315,-0.534 0.321,-0.533 0.324,-0.531Z" style="fill-rule:nonzero;"/>
                </g>
                <g transform="matrix(29.5533,-26.9556,26.9556,29.5533,9423.33,5323.13)">
                    <path d="M0.288,0.01C0.251,0.01 0.218,0.003 0.188,-0.009C0.158,-0.022 0.133,-0.039 0.112,-0.062C0.09,-0.085 0.074,-0.112 0.063,-0.143C0.051,-0.174 0.045,-0.208 0.045,-0.246L0.045,-0.266C0.045,-0.309 0.052,-0.347 0.064,-0.381C0.077,-0.415 0.094,-0.443 0.116,-0.467C0.138,-0.49 0.163,-0.508 0.19,-0.52C0.218,-0.532 0.247,-0.538 0.276,-0.538C0.314,-0.538 0.347,-0.532 0.374,-0.519C0.402,-0.506 0.424,-0.487 0.442,-0.464C0.459,-0.441 0.472,-0.413 0.481,-0.382C0.489,-0.351 0.494,-0.316 0.494,-0.279L0.494,-0.239L0.099,-0.239L0.099,-0.313L0.403,-0.313L0.403,-0.319C0.402,-0.343 0.397,-0.366 0.389,-0.388C0.381,-0.41 0.368,-0.428 0.35,-0.442C0.332,-0.457 0.307,-0.464 0.276,-0.464C0.256,-0.464 0.237,-0.46 0.22,-0.451C0.202,-0.442 0.188,-0.43 0.175,-0.413C0.163,-0.396 0.153,-0.375 0.146,-0.351C0.14,-0.326 0.136,-0.298 0.136,-0.266L0.136,-0.246C0.136,-0.221 0.14,-0.197 0.147,-0.175C0.154,-0.153 0.164,-0.134 0.177,-0.117C0.191,-0.101 0.207,-0.088 0.227,-0.078C0.246,-0.069 0.268,-0.064 0.293,-0.064C0.325,-0.064 0.352,-0.07 0.374,-0.083C0.396,-0.097 0.416,-0.114 0.432,-0.136L0.487,-0.092C0.475,-0.075 0.461,-0.059 0.443,-0.043C0.426,-0.027 0.404,-0.015 0.379,-0.005C0.353,0.005 0.323,0.01 0.288,0.01Z" style="fill-rule:nonzero;"/>
                </g>
                <g transform="matrix(33.1881,-22.3282,22.3282,33.1881,9457.49,5294.43)">
                    <path d="M0.288,0.01C0.251,0.01 0.218,0.003 0.188,-0.009C0.158,-0.022 0.133,-0.039 0.112,-0.062C0.09,-0.085 0.074,-0.112 0.063,-0.143C0.051,-0.174 0.045,-0.208 0.045,-0.246L0.045,-0.266C0.045,-0.309 0.052,-0.347 0.064,-0.381C0.077,-0.415 0.094,-0.443 0.116,-0.467C0.138,-0.49 0.163,-0.508 0.19,-0.52C0.218,-0.532 0.247,-0.538 0.276,-0.538C0.314,-0.538 0.347,-0.532 0.374,-0.519C0.402,-0.506 0.424,-0.487 0.442,-0.464C0.459,-0.441 0.472,-0.413 0.481,-0.382C0.489,-0.351 0.494,-0.316 0.494,-0.279L0.494,-0.239L0.099,-0.239L0.099,-0.313L0.403,-0.313L0.403,-0.319C0.402,-0.343 0.397,-0.366 0.389,-0.388C0.381,-0.41 0.368,-0.428 0.35,-0.442C0.332,-0.457 0.307,-0.464 0.276,-0.464C0.256,-0.464 0.237,-0.46 0.22,-0.451C0.202,-0.442 0.188,-0.43 0.175,-0.413C0.163,-0.396 0.153,-0.375 0.146,-0.351C0.14,-0.326 0.136,-0.298 0.136,-0.266L0.136,-0.246C0.136,-0.221 0.14,-0.197 0.147,-0.175C0.154,-0.153 0.164,-0.134 0.177,-0.117C0.191,-0.101 0.207,-0.088 0.227,-0.078C0.246,-0.069 0.268,-0.064 0.293,-0.064C0.325,-0.064 0.352,-0.07 0.374,-0.083C0.396,-0.097 0.416,-0.114 0.432,-0.136L0.487,-0.092C0.475,-0.075 0.461,-0.059 0.443,-0.043C0.426,-0.027 0.404,-0.015 0.379,-0.005C0.353,0.005 0.323,0.01 0.288,0.01Z" style="fill-rule:nonzero;"/>
                </g>
                <g transform="matrix(34.3018,-20.5764,20.5764,34.3018,9473.72,5283.49)">
                    <path d="M0.13,-0.528L0.246,-0.336L0.363,-0.528L0.469,-0.528L0.296,-0.268L0.474,-0L0.37,-0L0.248,-0.198L0.125,-0L0.021,-0L0.198,-0.268L0.026,-0.528L0.13,-0.528Z" style="fill-rule:nonzero;"/>
                </g>
                <g transform="matrix(35.2816,-18.847,18.847,35.2816,9489.35,5274.03)">
                    <path d="M0.159,-0.427L0.159,0.203L0.068,0.203L0.068,-0.528L0.151,-0.528L0.159,-0.427ZM0.515,-0.269L0.515,-0.258C0.515,-0.22 0.511,-0.184 0.501,-0.152C0.492,-0.119 0.479,-0.09 0.462,-0.066C0.444,-0.042 0.423,-0.024 0.397,-0.01C0.372,0.003 0.343,0.01 0.31,0.01C0.277,0.01 0.247,0.004 0.221,-0.007C0.195,-0.018 0.174,-0.034 0.156,-0.055C0.138,-0.076 0.124,-0.102 0.113,-0.131C0.102,-0.161 0.095,-0.194 0.091,-0.231L0.091,-0.286C0.095,-0.325 0.103,-0.36 0.113,-0.391C0.124,-0.422 0.138,-0.448 0.156,-0.47C0.174,-0.492 0.195,-0.509 0.221,-0.521C0.246,-0.532 0.275,-0.538 0.309,-0.538C0.342,-0.538 0.371,-0.532 0.397,-0.519C0.423,-0.506 0.444,-0.488 0.462,-0.464C0.479,-0.44 0.493,-0.412 0.502,-0.379C0.511,-0.346 0.515,-0.309 0.515,-0.269ZM0.424,-0.258L0.424,-0.269C0.424,-0.295 0.422,-0.32 0.416,-0.343C0.41,-0.366 0.402,-0.387 0.39,-0.405C0.379,-0.422 0.364,-0.436 0.346,-0.447C0.328,-0.457 0.307,-0.462 0.282,-0.462C0.259,-0.462 0.24,-0.458 0.223,-0.45C0.206,-0.442 0.192,-0.432 0.18,-0.419C0.168,-0.406 0.159,-0.391 0.152,-0.374C0.144,-0.357 0.139,-0.34 0.135,-0.322L0.135,-0.195C0.142,-0.173 0.151,-0.151 0.163,-0.131C0.174,-0.111 0.19,-0.095 0.209,-0.083C0.229,-0.071 0.254,-0.064 0.283,-0.064C0.308,-0.064 0.329,-0.07 0.346,-0.08C0.364,-0.09 0.379,-0.104 0.39,-0.122C0.402,-0.14 0.41,-0.161 0.416,-0.184C0.422,-0.207 0.424,-0.232 0.424,-0.258Z" style="fill-rule:nonzero;"/>
                </g>
                <g transform="matrix(36.0725,-17.285,17.285,36.0725,9507.71,5264.19)">
                    <path d="M0.288,0.01C0.251,0.01 0.218,0.003 0.188,-0.009C0.158,-0.022 0.133,-0.039 0.112,-0.062C0.09,-0.085 0.074,-0.112 0.063,-0.143C0.051,-0.174 0.045,-0.208 0.045,-0.246L0.045,-0.266C0.045,-0.309 0.052,-0.347 0.064,-0.381C0.077,-0.415 0.094,-0.443 0.116,-0.467C0.138,-0.49 0.163,-0.508 0.19,-0.52C0.218,-0.532 0.247,-0.538 0.276,-0.538C0.314,-0.538 0.347,-0.532 0.374,-0.519C0.402,-0.506 0.424,-0.487 0.442,-0.464C0.459,-0.441 0.472,-0.413 0.481,-0.382C0.489,-0.351 0.494,-0.316 0.494,-0.279L0.494,-0.239L0.099,-0.239L0.099,-0.313L0.403,-0.313L0.403,-0.319C0.402,-0.343 0.397,-0.366 0.389,-0.388C0.381,-0.41 0.368,-0.428 0.35,-0.442C0.332,-0.457 0.307,-0.464 0.276,-0.464C0.256,-0.464 0.237,-0.46 0.22,-0.451C0.202,-0.442 0.188,-0.43 0.175,-0.413C0.163,-0.396 0.153,-0.375 0.146,-0.351C0.14,-0.326 0.136,-0.298 0.136,-0.266L0.136,-0.246C0.136,-0.221 0.14,-0.197 0.147,-0.175C0.154,-0.153 0.164,-0.134 0.177,-0.117C0.191,-0.101 0.207,-0.088 0.227,-0.078C0.246,-0.069 0.268,-0.064 0.293,-0.064C0.325,-0.064 0.352,-0.07 0.374,-0.083C0.396,-0.097 0.416,-0.114 0.432,-0.136L0.487,-0.092C0.475,-0.075 0.461,-0.059 0.443,-0.043C0.426,-0.027 0.404,-0.015 0.379,-0.005C0.353,0.005 0.323,0.01 0.288,0.01Z" style="fill-rule:nonzero;"/>
                </g>
                <g transform="matrix(36.6184,-16.0963,16.0963,36.6184,9525.41,5255.74)">
                    <path d="M0.159,-0.445L0.159,-0L0.069,-0L0.069,-0.528L0.157,-0.528L0.159,-0.445ZM0.324,-0.531L0.324,-0.447C0.316,-0.449 0.309,-0.45 0.302,-0.45C0.296,-0.451 0.288,-0.451 0.28,-0.451C0.259,-0.451 0.241,-0.448 0.225,-0.441C0.209,-0.435 0.195,-0.426 0.184,-0.414C0.173,-0.402 0.164,-0.388 0.158,-0.372C0.152,-0.356 0.147,-0.339 0.146,-0.319L0.12,-0.305C0.12,-0.337 0.123,-0.367 0.13,-0.395C0.136,-0.423 0.146,-0.447 0.159,-0.469C0.173,-0.491 0.19,-0.508 0.21,-0.52C0.231,-0.532 0.256,-0.538 0.284,-0.538C0.291,-0.538 0.298,-0.537 0.307,-0.536C0.315,-0.534 0.321,-0.533 0.324,-0.531Z" style="fill-rule:nonzero;"/>
                </g>
                <g transform="matrix(36.8772,-15.4943,15.4943,36.8772,9536.4,5250.9)">
                    <path d="M0.167,-0.528L0.167,-0L0.076,-0L0.076,-0.528L0.167,-0.528ZM0.069,-0.668C0.069,-0.683 0.074,-0.695 0.083,-0.706C0.092,-0.716 0.105,-0.721 0.123,-0.721C0.14,-0.721 0.153,-0.716 0.162,-0.706C0.172,-0.695 0.176,-0.683 0.176,-0.668C0.176,-0.654 0.172,-0.642 0.162,-0.633C0.153,-0.623 0.14,-0.618 0.123,-0.618C0.105,-0.618 0.092,-0.623 0.083,-0.633C0.074,-0.642 0.069,-0.654 0.069,-0.668Z" style="fill-rule:nonzero;"/>
                </g>
                <g transform="matrix(37.2321,-14.621,14.621,37.2321,9543.87,5247.66)">
                    <path d="M0.288,0.01C0.251,0.01 0.218,0.003 0.188,-0.009C0.158,-0.022 0.133,-0.039 0.112,-0.062C0.09,-0.085 0.074,-0.112 0.063,-0.143C0.051,-0.174 0.045,-0.208 0.045,-0.246L0.045,-0.266C0.045,-0.309 0.052,-0.347 0.064,-0.381C0.077,-0.415 0.094,-0.443 0.116,-0.467C0.138,-0.49 0.163,-0.508 0.19,-0.52C0.218,-0.532 0.247,-0.538 0.276,-0.538C0.314,-0.538 0.347,-0.532 0.374,-0.519C0.402,-0.506 0.424,-0.487 0.442,-0.464C0.459,-0.441 0.472,-0.413 0.481,-0.382C0.489,-0.351 0.494,-0.316 0.494,-0.279L0.494,-0.239L0.099,-0.239L0.099,-0.313L0.403,-0.313L0.403,-0.319C0.402,-0.343 0.397,-0.366 0.389,-0.388C0.381,-0.41 0.368,-0.428 0.35,-0.442C0.332,-0.457 0.307,-0.464 0.276,-0.464C0.256,-0.464 0.237,-0.46 0.22,-0.451C0.202,-0.442 0.188,-0.43 0.175,-0.413C0.163,-0.396 0.153,-0.375 0.146,-0.351C0.14,-0.326 0.136,-0.298 0.136,-0.266L0.136,-0.246C0.136,-0.221 0.14,-0.197 0.147,-0.175C0.154,-0.153 0.164,-0.134 0.177,-0.117C0.191,-0.101 0.207,-0.088 0.227,-0.078C0.246,-0.069 0.268,-0.064 0.293,-0.064C0.325,-0.064 0.352,-0.07 0.374,-0.083C0.396,-0.097 0.416,-0.114 0.432,-0.136L0.487,-0.092C0.475,-0.075 0.461,-0.059 0.443,-0.043C0.426,-0.027 0.404,-0.015 0.379,-0.005C0.353,0.005 0.323,0.01 0.288,0.01Z" style="fill-rule:nonzero;"/>
                </g>
                <g transform="matrix(37.6547,-13.4952,13.4952,37.6547,9562.09,5240.48)">
                    <path d="M0.159,-0.416L0.159,-0L0.069,-0L0.069,-0.528L0.154,-0.528L0.159,-0.416ZM0.138,-0.284L0.1,-0.286C0.1,-0.322 0.106,-0.355 0.116,-0.386C0.127,-0.417 0.141,-0.444 0.16,-0.466C0.179,-0.489 0.202,-0.507 0.228,-0.519C0.254,-0.532 0.283,-0.538 0.315,-0.538C0.341,-0.538 0.364,-0.535 0.385,-0.528C0.406,-0.521 0.424,-0.509 0.439,-0.494C0.454,-0.479 0.465,-0.459 0.473,-0.435C0.48,-0.411 0.484,-0.381 0.484,-0.346L0.484,-0L0.394,-0L0.394,-0.347C0.394,-0.375 0.389,-0.397 0.381,-0.414C0.373,-0.431 0.361,-0.443 0.346,-0.45C0.33,-0.458 0.311,-0.462 0.288,-0.462C0.266,-0.462 0.245,-0.457 0.227,-0.448C0.208,-0.438 0.193,-0.425 0.179,-0.409C0.166,-0.392 0.156,-0.373 0.149,-0.352C0.141,-0.33 0.138,-0.308 0.138,-0.284Z" style="fill-rule:nonzero;"/>
                </g>
                <g transform="matrix(38.004,-12.4778,12.4778,38.004,9581.38,5233.56)">
                    <path d="M0.28,-0.064C0.302,-0.064 0.322,-0.069 0.34,-0.078C0.358,-0.086 0.373,-0.099 0.385,-0.114C0.396,-0.129 0.403,-0.147 0.405,-0.167L0.491,-0.167C0.489,-0.136 0.479,-0.107 0.459,-0.08C0.44,-0.053 0.415,-0.031 0.383,-0.015C0.352,0.002 0.318,0.01 0.28,0.01C0.241,0.01 0.206,0.003 0.177,-0.011C0.147,-0.025 0.123,-0.044 0.103,-0.069C0.084,-0.093 0.069,-0.121 0.06,-0.153C0.05,-0.185 0.045,-0.218 0.045,-0.254L0.045,-0.274C0.045,-0.31 0.05,-0.344 0.06,-0.375C0.069,-0.407 0.084,-0.435 0.103,-0.459C0.123,-0.484 0.147,-0.503 0.177,-0.517C0.206,-0.531 0.241,-0.538 0.28,-0.538C0.322,-0.538 0.358,-0.53 0.389,-0.513C0.42,-0.496 0.444,-0.473 0.462,-0.445C0.479,-0.416 0.489,-0.383 0.491,-0.347L0.405,-0.347C0.403,-0.368 0.397,-0.388 0.386,-0.406C0.376,-0.423 0.362,-0.437 0.344,-0.448C0.325,-0.459 0.304,-0.464 0.28,-0.464C0.253,-0.464 0.229,-0.458 0.211,-0.448C0.192,-0.437 0.177,-0.422 0.166,-0.404C0.155,-0.385 0.148,-0.365 0.143,-0.343C0.138,-0.32 0.136,-0.298 0.136,-0.274L0.136,-0.254C0.136,-0.231 0.138,-0.208 0.143,-0.186C0.147,-0.163 0.155,-0.143 0.166,-0.125C0.177,-0.106 0.191,-0.092 0.21,-0.081C0.229,-0.07 0.252,-0.064 0.28,-0.064Z" style="fill-rule:nonzero;"/>
                </g>
                <g transform="matrix(38.2799,-11.6037,11.6037,38.2799,9599.77,5227.5)">
                    <path d="M0.288,0.01C0.251,0.01 0.218,0.003 0.188,-0.009C0.158,-0.022 0.133,-0.039 0.112,-0.062C0.09,-0.085 0.074,-0.112 0.063,-0.143C0.051,-0.174 0.045,-0.208 0.045,-0.246L0.045,-0.266C0.045,-0.309 0.052,-0.347 0.064,-0.381C0.077,-0.415 0.094,-0.443 0.116,-0.467C0.138,-0.49 0.163,-0.508 0.19,-0.52C0.218,-0.532 0.247,-0.538 0.276,-0.538C0.314,-0.538 0.347,-0.532 0.374,-0.519C0.402,-0.506 0.424,-0.487 0.442,-0.464C0.459,-0.441 0.472,-0.413 0.481,-0.382C0.489,-0.351 0.494,-0.316 0.494,-0.279L0.494,-0.239L0.099,-0.239L0.099,-0.313L0.403,-0.313L0.403,-0.319C0.402,-0.343 0.397,-0.366 0.389,-0.388C0.381,-0.41 0.368,-0.428 0.35,-0.442C0.332,-0.457 0.307,-0.464 0.276,-0.464C0.256,-0.464 0.237,-0.46 0.22,-0.451C0.202,-0.442 0.188,-0.43 0.175,-0.413C0.163,-0.396 0.153,-0.375 0.146,-0.351C0.14,-0.326 0.136,-0.298 0.136,-0.266L0.136,-0.246C0.136,-0.221 0.14,-0.197 0.147,-0.175C0.154,-0.153 0.164,-0.134 0.177,-0.117C0.191,-0.101 0.207,-0.088 0.227,-0.078C0.246,-0.069 0.268,-0.064 0.293,-0.064C0.325,-0.064 0.352,-0.07 0.374,-0.083C0.396,-0.097 0.416,-0.114 0.432,-0.136L0.487,-0.092C0.475,-0.075 0.461,-0.059 0.443,-0.043C0.426,-0.027 0.404,-0.015 0.379,-0.005C0.353,0.005 0.323,0.01 0.288,0.01Z" style="fill-rule:nonzero;"/>
                </g>
                <g transform="matrix(38.7471,-9.93272,9.93272,38.7471,9642.55,5215.09)">
                    <path d="M0.159,-0.416L0.159,-0L0.069,-0L0.069,-0.528L0.154,-0.528L0.159,-0.416ZM0.138,-0.284L0.1,-0.286C0.1,-0.322 0.106,-0.355 0.116,-0.386C0.127,-0.417 0.141,-0.444 0.16,-0.466C0.179,-0.489 0.202,-0.507 0.228,-0.519C0.254,-0.532 0.283,-0.538 0.315,-0.538C0.341,-0.538 0.364,-0.535 0.385,-0.528C0.406,-0.521 0.424,-0.509 0.439,-0.494C0.454,-0.479 0.465,-0.459 0.473,-0.435C0.48,-0.411 0.484,-0.381 0.484,-0.346L0.484,-0L0.394,-0L0.394,-0.347C0.394,-0.375 0.389,-0.397 0.381,-0.414C0.373,-0.431 0.361,-0.443 0.346,-0.45C0.33,-0.458 0.311,-0.462 0.288,-0.462C0.266,-0.462 0.245,-0.457 0.227,-0.448C0.208,-0.438 0.193,-0.425 0.179,-0.409C0.166,-0.392 0.156,-0.373 0.149,-0.352C0.141,-0.33 0.138,-0.308 0.138,-0.284Z" style="fill-rule:nonzero;"/>
                </g>
                <g transform="matrix(38.9044,-9.29773,9.29773,38.9044,9662.39,5209.99)">
                    <path d="M0.045,-0.258L0.045,-0.27C0.045,-0.308 0.05,-0.343 0.062,-0.376C0.073,-0.408 0.089,-0.437 0.109,-0.461C0.13,-0.485 0.155,-0.504 0.185,-0.518C0.215,-0.531 0.248,-0.538 0.285,-0.538C0.322,-0.538 0.355,-0.531 0.385,-0.518C0.415,-0.504 0.44,-0.485 0.461,-0.461C0.482,-0.437 0.498,-0.408 0.509,-0.376C0.52,-0.343 0.526,-0.308 0.526,-0.27L0.526,-0.258C0.526,-0.22 0.52,-0.185 0.509,-0.152C0.498,-0.12 0.482,-0.091 0.461,-0.067C0.44,-0.043 0.415,-0.024 0.385,-0.01C0.356,0.003 0.323,0.01 0.286,0.01C0.249,0.01 0.215,0.003 0.186,-0.01C0.156,-0.024 0.131,-0.043 0.11,-0.067C0.089,-0.091 0.073,-0.12 0.062,-0.152C0.05,-0.185 0.045,-0.22 0.045,-0.258ZM0.135,-0.27L0.135,-0.258C0.135,-0.232 0.138,-0.207 0.145,-0.184C0.151,-0.161 0.16,-0.14 0.173,-0.122C0.185,-0.104 0.201,-0.09 0.22,-0.08C0.239,-0.07 0.261,-0.064 0.286,-0.064C0.31,-0.064 0.332,-0.07 0.351,-0.08C0.37,-0.09 0.385,-0.104 0.397,-0.122C0.41,-0.14 0.419,-0.161 0.426,-0.184C0.432,-0.207 0.435,-0.232 0.435,-0.258L0.435,-0.27C0.435,-0.296 0.432,-0.32 0.426,-0.344C0.419,-0.367 0.41,-0.387 0.397,-0.406C0.385,-0.424 0.369,-0.438 0.35,-0.448C0.332,-0.459 0.31,-0.464 0.285,-0.464C0.26,-0.464 0.238,-0.459 0.219,-0.448C0.201,-0.438 0.185,-0.424 0.173,-0.406C0.16,-0.387 0.151,-0.367 0.145,-0.344C0.138,-0.32 0.135,-0.296 0.135,-0.27Z" style="fill-rule:nonzero;"/>
                </g>
                <g transform="matrix(39.0258,-8.7741,8.7741,39.0258,9683.05,5205.06)">
                    <path d="M0.229,-0.082L0.374,-0.528L0.466,-0.528L0.276,-0L0.216,-0L0.229,-0.082ZM0.109,-0.528L0.258,-0.079L0.268,-0L0.208,-0L0.016,-0.528L0.109,-0.528Z" style="fill-rule:nonzero;"/>
                </g>
                <g transform="matrix(39.1242,-8.3247,8.3247,39.1242,9700.35,5201.15)">
                    <path d="M0.288,0.01C0.251,0.01 0.218,0.003 0.188,-0.009C0.158,-0.022 0.133,-0.039 0.112,-0.062C0.09,-0.085 0.074,-0.112 0.063,-0.143C0.051,-0.174 0.045,-0.208 0.045,-0.246L0.045,-0.266C0.045,-0.309 0.052,-0.347 0.064,-0.381C0.077,-0.415 0.094,-0.443 0.116,-0.467C0.138,-0.49 0.163,-0.508 0.19,-0.52C0.218,-0.532 0.247,-0.538 0.276,-0.538C0.314,-0.538 0.347,-0.532 0.374,-0.519C0.402,-0.506 0.424,-0.487 0.442,-0.464C0.459,-0.441 0.472,-0.413 0.481,-0.382C0.489,-0.351 0.494,-0.316 0.494,-0.279L0.494,-0.239L0.099,-0.239L0.099,-0.313L0.403,-0.313L0.403,-0.319C0.402,-0.343 0.397,-0.366 0.389,-0.388C0.381,-0.41 0.368,-0.428 0.35,-0.442C0.332,-0.457 0.307,-0.464 0.276,-0.464C0.256,-0.464 0.237,-0.46 0.22,-0.451C0.202,-0.442 0.188,-0.43 0.175,-0.413C0.163,-0.396 0.153,-0.375 0.146,-0.351C0.14,-0.326 0.136,-0.298 0.136,-0.266L0.136,-0.246C0.136,-0.221 0.14,-0.197 0.147,-0.175C0.154,-0.153 0.164,-0.134 0.177,-0.117C0.191,-0.101 0.207,-0.088 0.227,-0.078C0.246,-0.069 0.268,-0.064 0.293,-0.064C0.325,-0.064 0.352,-0.07 0.374,-0.083C0.396,-0.097 0.416,-0.114 0.432,-0.136L0.487,-0.092C0.475,-0.075 0.461,-0.059 0.443,-0.043C0.426,-0.027 0.404,-0.015 0.379,-0.005C0.353,0.005 0.323,0.01 0.288,0.01Z" style="fill-rule:nonzero;"/>
                </g>
                <g transform="matrix(39.1854,-8.03165,8.03165,39.1854,9719.53,5197.09)">
                    <rect x="0.076" y="-0.75" width="0.091" height="0.75" style="fill-rule:nonzero;"/>
                </g>
                <g transform="matrix(39.2223,-7.8491,7.8491,39.2223,9727.5,5195.45)">
                    <path d="M0.29,-0.528L0.29,-0.459L0.004,-0.459L0.004,-0.528L0.29,-0.528ZM0.101,-0.657L0.191,-0.657L0.191,-0.131C0.191,-0.113 0.194,-0.099 0.2,-0.09C0.205,-0.081 0.212,-0.075 0.221,-0.072C0.23,-0.069 0.239,-0.068 0.25,-0.068C0.257,-0.068 0.265,-0.069 0.273,-0.07C0.281,-0.072 0.288,-0.073 0.292,-0.074L0.292,-0C0.285,0.002 0.276,0.004 0.264,0.007C0.253,0.009 0.239,0.01 0.223,0.01C0.201,0.01 0.18,0.005 0.162,-0.003C0.143,-0.012 0.128,-0.027 0.117,-0.048C0.107,-0.068 0.101,-0.096 0.101,-0.131L0.101,-0.657Z" style="fill-rule:nonzero;"/>
                </g>
                <g transform="matrix(39.2761,-7.57557,7.57557,39.2761,9738.76,5193.18)">
                    <path d="M0.217,-0.055L0.364,-0.528L0.461,-0.528L0.249,0.082C0.244,0.095 0.238,0.109 0.23,0.124C0.222,0.139 0.212,0.153 0.199,0.167C0.187,0.181 0.172,0.192 0.155,0.2C0.137,0.209 0.116,0.213 0.092,0.213C0.085,0.213 0.076,0.212 0.065,0.21C0.054,0.208 0.046,0.207 0.042,0.206L0.041,0.132C0.044,0.133 0.048,0.133 0.053,0.134C0.059,0.134 0.063,0.134 0.065,0.134C0.086,0.134 0.103,0.132 0.118,0.126C0.132,0.121 0.144,0.112 0.154,0.099C0.164,0.087 0.173,0.07 0.18,0.048L0.217,-0.055ZM0.109,-0.528L0.247,-0.118L0.27,-0.023L0.205,0.01L0.011,-0.528L0.109,-0.528Z" style="fill-rule:nonzero;"/>
                </g>
                <g transform="matrix(39.3951,-6.92988,6.92988,39.3951,9780.31,5185.37)">
                    <path d="M0.402,-0.103L0.402,-0.75L0.493,-0.75L0.493,-0L0.41,-0L0.402,-0.103ZM0.046,-0.258L0.046,-0.269C0.046,-0.309 0.051,-0.346 0.061,-0.379C0.071,-0.412 0.085,-0.44 0.104,-0.464C0.122,-0.488 0.144,-0.506 0.17,-0.519C0.195,-0.532 0.224,-0.538 0.255,-0.538C0.289,-0.538 0.318,-0.532 0.343,-0.521C0.367,-0.509 0.389,-0.492 0.406,-0.47C0.423,-0.448 0.437,-0.422 0.447,-0.391C0.457,-0.36 0.464,-0.325 0.468,-0.286L0.468,-0.241C0.465,-0.202 0.458,-0.168 0.448,-0.137C0.437,-0.106 0.423,-0.079 0.406,-0.058C0.389,-0.036 0.367,-0.019 0.342,-0.008C0.317,0.004 0.288,0.01 0.254,0.01C0.223,0.01 0.195,0.003 0.17,-0.01C0.144,-0.024 0.122,-0.042 0.104,-0.066C0.085,-0.09 0.071,-0.119 0.061,-0.152C0.051,-0.184 0.046,-0.22 0.046,-0.258ZM0.137,-0.269L0.137,-0.258C0.137,-0.232 0.14,-0.207 0.145,-0.184C0.151,-0.161 0.159,-0.141 0.17,-0.123C0.182,-0.105 0.196,-0.092 0.214,-0.082C0.231,-0.072 0.252,-0.067 0.277,-0.067C0.307,-0.067 0.331,-0.073 0.351,-0.086C0.37,-0.099 0.386,-0.115 0.397,-0.136C0.409,-0.157 0.418,-0.18 0.425,-0.204L0.425,-0.322C0.421,-0.34 0.415,-0.357 0.408,-0.374C0.401,-0.391 0.391,-0.406 0.38,-0.419C0.368,-0.432 0.354,-0.442 0.337,-0.45C0.32,-0.458 0.301,-0.462 0.278,-0.462C0.253,-0.462 0.232,-0.457 0.214,-0.447C0.196,-0.436 0.182,-0.422 0.17,-0.405C0.159,-0.387 0.151,-0.366 0.145,-0.343C0.14,-0.32 0.137,-0.295 0.137,-0.269Z" style="fill-rule:nonzero;"/>
                </g>
                <g transform="matrix(39.4258,-6.75312,6.75312,39.4258,9800.99,5181.75)">
                    <path d="M0.167,-0.528L0.167,-0L0.076,-0L0.076,-0.528L0.167,-0.528ZM0.069,-0.668C0.069,-0.683 0.074,-0.695 0.083,-0.706C0.092,-0.716 0.105,-0.721 0.123,-0.721C0.14,-0.721 0.153,-0.716 0.162,-0.706C0.172,-0.695 0.176,-0.683 0.176,-0.668C0.176,-0.654 0.172,-0.642 0.162,-0.633C0.153,-0.623 0.14,-0.618 0.123,-0.618C0.105,-0.618 0.092,-0.623 0.083,-0.633C0.074,-0.642 0.069,-0.654 0.069,-0.668Z" style="fill-rule:nonzero;"/>
                </g>
                <g transform="matrix(39.4483,-6.62056,6.62056,39.4483,9808.95,5180.37)">
                    <path d="M0.229,-0.082L0.374,-0.528L0.466,-0.528L0.276,-0L0.216,-0L0.229,-0.082ZM0.109,-0.528L0.258,-0.079L0.268,-0L0.208,-0L0.016,-0.528L0.109,-0.528Z" style="fill-rule:nonzero;"/>
                </g>
                <g transform="matrix(39.4762,-6.4518,6.4518,39.4762,9826.53,5177.42)">
                    <path d="M0.288,0.01C0.251,0.01 0.218,0.003 0.188,-0.009C0.158,-0.022 0.133,-0.039 0.112,-0.062C0.09,-0.085 0.074,-0.112 0.063,-0.143C0.051,-0.174 0.045,-0.208 0.045,-0.246L0.045,-0.266C0.045,-0.309 0.052,-0.347 0.064,-0.381C0.077,-0.415 0.094,-0.443 0.116,-0.467C0.138,-0.49 0.163,-0.508 0.19,-0.52C0.218,-0.532 0.247,-0.538 0.276,-0.538C0.314,-0.538 0.347,-0.532 0.374,-0.519C0.402,-0.506 0.424,-0.487 0.442,-0.464C0.459,-0.441 0.472,-0.413 0.481,-0.382C0.489,-0.351 0.494,-0.316 0.494,-0.279L0.494,-0.239L0.099,-0.239L0.099,-0.313L0.403,-0.313L0.403,-0.319C0.402,-0.343 0.397,-0.366 0.389,-0.388C0.381,-0.41 0.368,-0.428 0.35,-0.442C0.332,-0.457 0.307,-0.464 0.276,-0.464C0.256,-0.464 0.237,-0.46 0.22,-0.451C0.202,-0.442 0.188,-0.43 0.175,-0.413C0.163,-0.396 0.153,-0.375 0.146,-0.351C0.14,-0.326 0.136,-0.298 0.136,-0.266L0.136,-0.246C0.136,-0.221 0.14,-0.197 0.147,-0.175C0.154,-0.153 0.164,-0.134 0.177,-0.117C0.191,-0.101 0.207,-0.088 0.227,-0.078C0.246,-0.069 0.268,-0.064 0.293,-0.064C0.325,-0.064 0.352,-0.07 0.374,-0.083C0.396,-0.097 0.416,-0.114 0.432,-0.136L0.487,-0.092C0.475,-0.075 0.461,-0.059 0.443,-0.043C0.426,-0.027 0.404,-0.015 0.379,-0.005C0.353,0.005 0.323,0.01 0.288,0.01Z" style="fill-rule:nonzero;"/>
                </g>
                <g transform="matrix(39.4961,-6.32892,6.32892,39.4961,9845.86,5174.26)">
                    <path d="M0.159,-0.445L0.159,-0L0.069,-0L0.069,-0.528L0.157,-0.528L0.159,-0.445ZM0.324,-0.531L0.324,-0.447C0.316,-0.449 0.309,-0.45 0.302,-0.45C0.296,-0.451 0.288,-0.451 0.28,-0.451C0.259,-0.451 0.241,-0.448 0.225,-0.441C0.209,-0.435 0.195,-0.426 0.184,-0.414C0.173,-0.402 0.164,-0.388 0.158,-0.372C0.152,-0.356 0.147,-0.339 0.146,-0.319L0.12,-0.305C0.12,-0.337 0.123,-0.367 0.13,-0.395C0.136,-0.423 0.146,-0.447 0.159,-0.469C0.173,-0.491 0.19,-0.508 0.21,-0.52C0.231,-0.532 0.256,-0.538 0.284,-0.538C0.291,-0.538 0.298,-0.537 0.307,-0.536C0.315,-0.534 0.321,-0.533 0.324,-0.531Z" style="fill-rule:nonzero;"/>
                </g>
                <g transform="matrix(39.5101,-6.24107,6.24107,39.5101,9857.66,5172.37)">
                    <path d="M0.376,-0.14C0.376,-0.153 0.374,-0.165 0.368,-0.177C0.362,-0.188 0.351,-0.198 0.333,-0.207C0.316,-0.217 0.29,-0.225 0.255,-0.231C0.226,-0.238 0.199,-0.245 0.176,-0.253C0.152,-0.262 0.132,-0.272 0.115,-0.284C0.099,-0.296 0.086,-0.31 0.078,-0.327C0.069,-0.343 0.064,-0.362 0.064,-0.384C0.064,-0.405 0.069,-0.424 0.078,-0.443C0.088,-0.461 0.101,-0.478 0.118,-0.492C0.135,-0.507 0.156,-0.518 0.18,-0.526C0.204,-0.534 0.231,-0.538 0.26,-0.538C0.303,-0.538 0.339,-0.531 0.369,-0.516C0.399,-0.501 0.422,-0.481 0.438,-0.456C0.453,-0.431 0.461,-0.403 0.461,-0.373L0.371,-0.373C0.371,-0.388 0.367,-0.402 0.358,-0.416C0.35,-0.43 0.337,-0.441 0.321,-0.45C0.304,-0.459 0.284,-0.464 0.26,-0.464C0.235,-0.464 0.215,-0.46 0.199,-0.452C0.184,-0.445 0.173,-0.435 0.166,-0.423C0.159,-0.412 0.155,-0.399 0.155,-0.386C0.155,-0.376 0.157,-0.368 0.16,-0.36C0.164,-0.352 0.17,-0.345 0.179,-0.339C0.188,-0.333 0.2,-0.327 0.216,-0.321C0.232,-0.316 0.252,-0.31 0.277,-0.305C0.32,-0.295 0.356,-0.283 0.384,-0.27C0.412,-0.256 0.433,-0.239 0.446,-0.219C0.46,-0.199 0.467,-0.175 0.467,-0.147C0.467,-0.124 0.462,-0.103 0.452,-0.083C0.443,-0.064 0.429,-0.048 0.411,-0.034C0.393,-0.02 0.371,-0.009 0.346,-0.002C0.322,0.006 0.294,0.01 0.263,0.01C0.216,0.01 0.177,0.001 0.145,-0.015C0.112,-0.032 0.088,-0.053 0.071,-0.08C0.055,-0.106 0.046,-0.134 0.046,-0.163L0.137,-0.163C0.139,-0.138 0.146,-0.119 0.159,-0.104C0.172,-0.09 0.188,-0.08 0.207,-0.073C0.225,-0.067 0.244,-0.064 0.263,-0.064C0.287,-0.064 0.308,-0.068 0.325,-0.074C0.342,-0.081 0.354,-0.09 0.363,-0.101C0.372,-0.112 0.376,-0.125 0.376,-0.14Z" style="fill-rule:nonzero;"/>
                </g>
                <g transform="matrix(39.521,-6.17189,6.17189,39.521,9876.51,5169.39)">
                    <path d="M0.167,-0.528L0.167,-0L0.076,-0L0.076,-0.528L0.167,-0.528ZM0.069,-0.668C0.069,-0.683 0.074,-0.695 0.083,-0.706C0.092,-0.716 0.105,-0.721 0.123,-0.721C0.14,-0.721 0.153,-0.716 0.162,-0.706C0.172,-0.695 0.176,-0.683 0.176,-0.668C0.176,-0.654 0.172,-0.642 0.162,-0.633C0.153,-0.623 0.14,-0.618 0.123,-0.618C0.105,-0.618 0.092,-0.623 0.083,-0.633C0.074,-0.642 0.069,-0.654 0.069,-0.668Z" style="fill-rule:nonzero;"/>
                </g>
                <g transform="matrix(39.527,-6.13351,6.13351,39.527,9884.55,5168.14)">
                    <path d="M0.29,-0.528L0.29,-0.459L0.004,-0.459L0.004,-0.528L0.29,-0.528ZM0.101,-0.657L0.191,-0.657L0.191,-0.131C0.191,-0.113 0.194,-0.099 0.2,-0.09C0.205,-0.081 0.212,-0.075 0.221,-0.072C0.23,-0.069 0.239,-0.068 0.25,-0.068C0.257,-0.068 0.265,-0.069 0.273,-0.07C0.281,-0.072 0.288,-0.073 0.292,-0.074L0.292,-0C0.285,0.002 0.276,0.004 0.264,0.007C0.253,0.009 0.239,0.01 0.223,0.01C0.201,0.01 0.18,0.005 0.162,-0.003C0.143,-0.012 0.128,-0.027 0.117,-0.048C0.107,-0.068 0.101,-0.096 0.101,-0.131L0.101,-0.657Z" style="fill-rule:nonzero;"/>
                </g>
                <g transform="matrix(39.5346,-6.08389,6.08389,39.5346,9895.83,5166.38)">
                    <path d="M0.217,-0.055L0.364,-0.528L0.461,-0.528L0.249,0.082C0.244,0.095 0.238,0.109 0.23,0.124C0.222,0.139 0.212,0.153 0.199,0.167C0.187,0.181 0.172,0.192 0.155,0.2C0.137,0.209 0.116,0.213 0.092,0.213C0.085,0.213 0.076,0.212 0.065,0.21C0.054,0.208 0.046,0.207 0.042,0.206L0.041,0.132C0.044,0.133 0.048,0.133 0.053,0.134C0.059,0.134 0.063,0.134 0.065,0.134C0.086,0.134 0.103,0.132 0.118,0.126C0.132,0.121 0.144,0.112 0.154,0.099C0.164,0.087 0.173,0.07 0.18,0.048L0.217,-0.055ZM0.109,-0.528L0.247,-0.118L0.27,-0.023L0.205,0.01L0.011,-0.528L0.109,-0.528Z" style="fill-rule:nonzero;"/>
                </g>
                <g transform="matrix(39.5437,-6.02473,6.02473,39.5437,9937.68,5159.97)">
                    <path d="M0.28,-0.064C0.302,-0.064 0.322,-0.069 0.34,-0.078C0.358,-0.086 0.373,-0.099 0.385,-0.114C0.396,-0.129 0.403,-0.147 0.405,-0.167L0.491,-0.167C0.489,-0.136 0.479,-0.107 0.459,-0.08C0.44,-0.053 0.415,-0.031 0.383,-0.015C0.352,0.002 0.318,0.01 0.28,0.01C0.241,0.01 0.206,0.003 0.177,-0.011C0.147,-0.025 0.123,-0.044 0.103,-0.069C0.084,-0.093 0.069,-0.121 0.06,-0.153C0.05,-0.185 0.045,-0.218 0.045,-0.254L0.045,-0.274C0.045,-0.31 0.05,-0.344 0.06,-0.375C0.069,-0.407 0.084,-0.435 0.103,-0.459C0.123,-0.484 0.147,-0.503 0.177,-0.517C0.206,-0.531 0.241,-0.538 0.28,-0.538C0.322,-0.538 0.358,-0.53 0.389,-0.513C0.42,-0.496 0.444,-0.473 0.462,-0.445C0.479,-0.416 0.489,-0.383 0.491,-0.347L0.405,-0.347C0.403,-0.368 0.397,-0.388 0.386,-0.406C0.376,-0.423 0.362,-0.437 0.344,-0.448C0.325,-0.459 0.304,-0.464 0.28,-0.464C0.253,-0.464 0.229,-0.458 0.211,-0.448C0.192,-0.437 0.177,-0.422 0.166,-0.404C0.155,-0.385 0.148,-0.365 0.143,-0.343C0.138,-0.32 0.136,-0.298 0.136,-0.274L0.136,-0.254C0.136,-0.231 0.138,-0.208 0.143,-0.186C0.147,-0.163 0.155,-0.143 0.166,-0.125C0.177,-0.106 0.191,-0.092 0.21,-0.081C0.229,-0.07 0.252,-0.064 0.28,-0.064Z" style="fill-rule:nonzero;"/>
                </g>
                <g transform="matrix(39.5418,-6.03725,6.03725,39.5418,9956.75,5157.07)">
                    <path d="M0.392,-0.122L0.392,-0.528L0.483,-0.528L0.483,-0L0.396,-0L0.392,-0.122ZM0.409,-0.233L0.447,-0.234C0.447,-0.199 0.443,-0.167 0.436,-0.137C0.428,-0.107 0.417,-0.081 0.4,-0.06C0.384,-0.038 0.363,-0.021 0.336,-0.009C0.31,0.004 0.278,0.01 0.24,0.01C0.215,0.01 0.191,0.006 0.17,-0.001C0.148,-0.009 0.13,-0.021 0.115,-0.036C0.099,-0.052 0.088,-0.072 0.079,-0.097C0.071,-0.122 0.067,-0.152 0.067,-0.188L0.067,-0.528L0.157,-0.528L0.157,-0.187C0.157,-0.163 0.16,-0.143 0.165,-0.128C0.171,-0.112 0.178,-0.1 0.187,-0.091C0.197,-0.082 0.207,-0.076 0.219,-0.072C0.23,-0.069 0.242,-0.067 0.254,-0.067C0.293,-0.067 0.323,-0.074 0.346,-0.089C0.368,-0.104 0.384,-0.124 0.394,-0.149C0.404,-0.174 0.409,-0.202 0.409,-0.233Z" style="fill-rule:nonzero;"/>
                </g>
                <g transform="matrix(39.5381,-6.06098,6.06098,39.5381,9977.02,5153.97)">
                    <rect x="0.076" y="-0.75" width="0.091" height="0.75" style="fill-rule:nonzero;"/>
                </g>
                <g transform="matrix(39.5349,-6.08235,6.08235,39.5349,9985.01,5152.75)">
                    <path d="M0.29,-0.528L0.29,-0.459L0.004,-0.459L0.004,-0.528L0.29,-0.528ZM0.101,-0.657L0.191,-0.657L0.191,-0.131C0.191,-0.113 0.194,-0.099 0.2,-0.09C0.205,-0.081 0.212,-0.075 0.221,-0.072C0.23,-0.069 0.239,-0.068 0.25,-0.068C0.257,-0.068 0.265,-0.069 0.273,-0.07C0.281,-0.072 0.288,-0.073 0.292,-0.074L0.292,-0C0.285,0.002 0.276,0.004 0.264,0.007C0.253,0.009 0.239,0.01 0.223,0.01C0.201,0.01 0.18,0.005 0.162,-0.003C0.143,-0.012 0.128,-0.027 0.117,-0.048C0.107,-0.068 0.101,-0.096 0.101,-0.131L0.101,-0.657Z" style="fill-rule:nonzero;"/>
                </g>
                <g transform="matrix(39.527,-6.13306,6.13306,39.527,9996.39,5151)">
                    <path d="M0.392,-0.122L0.392,-0.528L0.483,-0.528L0.483,-0L0.396,-0L0.392,-0.122ZM0.409,-0.233L0.447,-0.234C0.447,-0.199 0.443,-0.167 0.436,-0.137C0.428,-0.107 0.417,-0.081 0.4,-0.06C0.384,-0.038 0.363,-0.021 0.336,-0.009C0.31,0.004 0.278,0.01 0.24,0.01C0.215,0.01 0.191,0.006 0.17,-0.001C0.148,-0.009 0.13,-0.021 0.115,-0.036C0.099,-0.052 0.088,-0.072 0.079,-0.097C0.071,-0.122 0.067,-0.152 0.067,-0.188L0.067,-0.528L0.157,-0.528L0.157,-0.187C0.157,-0.163 0.16,-0.143 0.165,-0.128C0.171,-0.112 0.178,-0.1 0.187,-0.091C0.197,-0.082 0.207,-0.076 0.219,-0.072C0.23,-0.069 0.242,-0.067 0.254,-0.067C0.293,-0.067 0.323,-0.074 0.346,-0.089C0.368,-0.104 0.384,-0.124 0.394,-0.149C0.404,-0.174 0.409,-0.202 0.409,-0.233Z" style="fill-rule:nonzero;"/>
                </g>
                <g transform="matrix(39.5162,-6.20211,6.20211,39.5162,10016.6,5147.87)">
                    <path d="M0.159,-0.445L0.159,-0L0.069,-0L0.069,-0.528L0.157,-0.528L0.159,-0.445ZM0.324,-0.531L0.324,-0.447C0.316,-0.449 0.309,-0.45 0.302,-0.45C0.296,-0.451 0.288,-0.451 0.28,-0.451C0.259,-0.451 0.241,-0.448 0.225,-0.441C0.209,-0.435 0.195,-0.426 0.184,-0.414C0.173,-0.402 0.164,-0.388 0.158,-0.372C0.152,-0.356 0.147,-0.339 0.146,-0.319L0.12,-0.305C0.12,-0.337 0.123,-0.367 0.13,-0.395C0.136,-0.423 0.146,-0.447 0.159,-0.469C0.173,-0.491 0.19,-0.508 0.21,-0.52C0.231,-0.532 0.256,-0.538 0.284,-0.538C0.291,-0.538 0.298,-0.537 0.307,-0.536C0.315,-0.534 0.321,-0.533 0.324,-0.531Z" style="fill-rule:nonzero;"/>
                </g>
                <g transform="matrix(39.5048,-6.27444,6.27444,39.5048,10028.4,5146.02)">
                    <path d="M0.288,0.01C0.251,0.01 0.218,0.003 0.188,-0.009C0.158,-0.022 0.133,-0.039 0.112,-0.062C0.09,-0.085 0.074,-0.112 0.063,-0.143C0.051,-0.174 0.045,-0.208 0.045,-0.246L0.045,-0.266C0.045,-0.309 0.052,-0.347 0.064,-0.381C0.077,-0.415 0.094,-0.443 0.116,-0.467C0.138,-0.49 0.163,-0.508 0.19,-0.52C0.218,-0.532 0.247,-0.538 0.276,-0.538C0.314,-0.538 0.347,-0.532 0.374,-0.519C0.402,-0.506 0.424,-0.487 0.442,-0.464C0.459,-0.441 0.472,-0.413 0.481,-0.382C0.489,-0.351 0.494,-0.316 0.494,-0.279L0.494,-0.239L0.099,-0.239L0.099,-0.313L0.403,-0.313L0.403,-0.319C0.402,-0.343 0.397,-0.366 0.389,-0.388C0.381,-0.41 0.368,-0.428 0.35,-0.442C0.332,-0.457 0.307,-0.464 0.276,-0.464C0.256,-0.464 0.237,-0.46 0.22,-0.451C0.202,-0.442 0.188,-0.43 0.175,-0.413C0.163,-0.396 0.153,-0.375 0.146,-0.351C0.14,-0.326 0.136,-0.298 0.136,-0.266L0.136,-0.246C0.136,-0.221 0.14,-0.197 0.147,-0.175C0.154,-0.153 0.164,-0.134 0.177,-0.117C0.191,-0.101 0.207,-0.088 0.227,-0.078C0.246,-0.069 0.268,-0.064 0.293,-0.064C0.325,-0.064 0.352,-0.07 0.374,-0.083C0.396,-0.097 0.416,-0.114 0.432,-0.136L0.487,-0.092C0.475,-0.075 0.461,-0.059 0.443,-0.043C0.426,-0.027 0.404,-0.015 0.379,-0.005C0.353,0.005 0.323,0.01 0.288,0.01Z" style="fill-rule:nonzero;"/>
                </g>
                <g transform="matrix(39.4681,-6.50122,6.50122,39.4681,10072.4,5138.94)">
                    <path d="M0.071,-0.528L0.162,-0.528L0.162,0.063C0.162,0.095 0.157,0.123 0.147,0.145C0.136,0.167 0.121,0.184 0.101,0.196C0.08,0.208 0.055,0.213 0.024,0.213C0.016,0.213 0.006,0.213 -0.005,0.211C-0.016,0.209 -0.025,0.207 -0.032,0.205L-0.032,0.132C-0.026,0.134 -0.019,0.135 -0.011,0.135C-0.003,0.136 0.004,0.137 0.01,0.137C0.023,0.137 0.034,0.134 0.043,0.129C0.053,0.125 0.059,0.117 0.064,0.106C0.069,0.095 0.071,0.081 0.071,0.063L0.071,-0.528ZM0.062,-0.668C0.062,-0.683 0.067,-0.695 0.076,-0.706C0.085,-0.716 0.098,-0.721 0.115,-0.721C0.133,-0.721 0.146,-0.716 0.155,-0.706C0.164,-0.695 0.169,-0.683 0.169,-0.668C0.169,-0.654 0.164,-0.642 0.155,-0.633C0.146,-0.623 0.133,-0.618 0.115,-0.618C0.098,-0.618 0.085,-0.623 0.076,-0.633C0.067,-0.642 0.062,-0.654 0.062,-0.668Z" style="fill-rule:nonzero;"/>
                </g>
                <g transform="matrix(39.4473,-6.6268,6.6268,39.4473,10080.2,5137.66)">
                    <path d="M0.045,-0.258L0.045,-0.27C0.045,-0.308 0.05,-0.343 0.062,-0.376C0.073,-0.408 0.089,-0.437 0.109,-0.461C0.13,-0.485 0.155,-0.504 0.185,-0.518C0.215,-0.531 0.248,-0.538 0.285,-0.538C0.322,-0.538 0.355,-0.531 0.385,-0.518C0.415,-0.504 0.44,-0.485 0.461,-0.461C0.482,-0.437 0.498,-0.408 0.509,-0.376C0.52,-0.343 0.526,-0.308 0.526,-0.27L0.526,-0.258C0.526,-0.22 0.52,-0.185 0.509,-0.152C0.498,-0.12 0.482,-0.091 0.461,-0.067C0.44,-0.043 0.415,-0.024 0.385,-0.01C0.356,0.003 0.323,0.01 0.286,0.01C0.249,0.01 0.215,0.003 0.186,-0.01C0.156,-0.024 0.131,-0.043 0.11,-0.067C0.089,-0.091 0.073,-0.12 0.062,-0.152C0.05,-0.185 0.045,-0.22 0.045,-0.258ZM0.135,-0.27L0.135,-0.258C0.135,-0.232 0.138,-0.207 0.145,-0.184C0.151,-0.161 0.16,-0.14 0.173,-0.122C0.185,-0.104 0.201,-0.09 0.22,-0.08C0.239,-0.07 0.261,-0.064 0.286,-0.064C0.31,-0.064 0.332,-0.07 0.351,-0.08C0.37,-0.09 0.385,-0.104 0.397,-0.122C0.41,-0.14 0.419,-0.161 0.426,-0.184C0.432,-0.207 0.435,-0.232 0.435,-0.258L0.435,-0.27C0.435,-0.296 0.432,-0.32 0.426,-0.344C0.419,-0.367 0.41,-0.387 0.397,-0.406C0.385,-0.424 0.369,-0.438 0.35,-0.448C0.332,-0.459 0.31,-0.464 0.285,-0.464C0.26,-0.464 0.238,-0.459 0.219,-0.448C0.201,-0.438 0.185,-0.424 0.173,-0.406C0.16,-0.387 0.151,-0.367 0.145,-0.344C0.138,-0.32 0.135,-0.296 0.135,-0.27Z" style="fill-rule:nonzero;"/>
                </g>
                <g transform="matrix(39.4172,-6.80351,6.80351,39.4172,10101.2,5134.15)">
                    <path d="M0.392,-0.122L0.392,-0.528L0.483,-0.528L0.483,-0L0.396,-0L0.392,-0.122ZM0.409,-0.233L0.447,-0.234C0.447,-0.199 0.443,-0.167 0.436,-0.137C0.428,-0.107 0.417,-0.081 0.4,-0.06C0.384,-0.038 0.363,-0.021 0.336,-0.009C0.31,0.004 0.278,0.01 0.24,0.01C0.215,0.01 0.191,0.006 0.17,-0.001C0.148,-0.009 0.13,-0.021 0.115,-0.036C0.099,-0.052 0.088,-0.072 0.079,-0.097C0.071,-0.122 0.067,-0.152 0.067,-0.188L0.067,-0.528L0.157,-0.528L0.157,-0.187C0.157,-0.163 0.16,-0.143 0.165,-0.128C0.171,-0.112 0.178,-0.1 0.187,-0.091C0.197,-0.082 0.207,-0.076 0.219,-0.072C0.23,-0.069 0.242,-0.067 0.254,-0.067C0.293,-0.067 0.323,-0.074 0.346,-0.089C0.368,-0.104 0.384,-0.124 0.394,-0.149C0.404,-0.174 0.409,-0.202 0.409,-0.233Z" style="fill-rule:nonzero;"/>
                </g>
                <g transform="matrix(39.3886,-6.96677,6.96677,39.3886,10121.4,5130.66)">
                    <path d="M0.159,-0.445L0.159,-0L0.069,-0L0.069,-0.528L0.157,-0.528L0.159,-0.445ZM0.324,-0.531L0.324,-0.447C0.316,-0.449 0.309,-0.45 0.302,-0.45C0.296,-0.451 0.288,-0.451 0.28,-0.451C0.259,-0.451 0.241,-0.448 0.225,-0.441C0.209,-0.435 0.195,-0.426 0.184,-0.414C0.173,-0.402 0.164,-0.388 0.158,-0.372C0.152,-0.356 0.147,-0.339 0.146,-0.319L0.12,-0.305C0.12,-0.337 0.123,-0.367 0.13,-0.395C0.136,-0.423 0.146,-0.447 0.159,-0.469C0.173,-0.491 0.19,-0.508 0.21,-0.52C0.231,-0.532 0.256,-0.538 0.284,-0.538C0.291,-0.538 0.298,-0.537 0.307,-0.536C0.315,-0.534 0.321,-0.533 0.324,-0.531Z" style="fill-rule:nonzero;"/>
                </g>
                <g transform="matrix(39.3611,-7.12088,7.12088,39.3611,10133.1,5128.6)">
                    <path d="M0.159,-0.416L0.159,-0L0.069,-0L0.069,-0.528L0.154,-0.528L0.159,-0.416ZM0.138,-0.284L0.1,-0.286C0.1,-0.322 0.106,-0.355 0.116,-0.386C0.127,-0.417 0.141,-0.444 0.16,-0.466C0.179,-0.489 0.202,-0.507 0.228,-0.519C0.254,-0.532 0.283,-0.538 0.315,-0.538C0.341,-0.538 0.364,-0.535 0.385,-0.528C0.406,-0.521 0.424,-0.509 0.439,-0.494C0.454,-0.479 0.465,-0.459 0.473,-0.435C0.48,-0.411 0.484,-0.381 0.484,-0.346L0.484,-0L0.394,-0L0.394,-0.347C0.394,-0.375 0.389,-0.397 0.381,-0.414C0.373,-0.431 0.361,-0.443 0.346,-0.45C0.33,-0.458 0.311,-0.462 0.288,-0.462C0.266,-0.462 0.245,-0.457 0.227,-0.448C0.208,-0.438 0.193,-0.425 0.179,-0.409C0.166,-0.392 0.156,-0.373 0.149,-0.352C0.141,-0.33 0.138,-0.308 0.138,-0.284Z" style="fill-rule:nonzero;"/>
                </g>
                <g transform="matrix(39.3199,-7.34454,7.34454,39.3199,10153.3,5124.95)">
                    <path d="M0.288,0.01C0.251,0.01 0.218,0.003 0.188,-0.009C0.158,-0.022 0.133,-0.039 0.112,-0.062C0.09,-0.085 0.074,-0.112 0.063,-0.143C0.051,-0.174 0.045,-0.208 0.045,-0.246L0.045,-0.266C0.045,-0.309 0.052,-0.347 0.064,-0.381C0.077,-0.415 0.094,-0.443 0.116,-0.467C0.138,-0.49 0.163,-0.508 0.19,-0.52C0.218,-0.532 0.247,-0.538 0.276,-0.538C0.314,-0.538 0.347,-0.532 0.374,-0.519C0.402,-0.506 0.424,-0.487 0.442,-0.464C0.459,-0.441 0.472,-0.413 0.481,-0.382C0.489,-0.351 0.494,-0.316 0.494,-0.279L0.494,-0.239L0.099,-0.239L0.099,-0.313L0.403,-0.313L0.403,-0.319C0.402,-0.343 0.397,-0.366 0.389,-0.388C0.381,-0.41 0.368,-0.428 0.35,-0.442C0.332,-0.457 0.307,-0.464 0.276,-0.464C0.256,-0.464 0.237,-0.46 0.22,-0.451C0.202,-0.442 0.188,-0.43 0.175,-0.413C0.163,-0.396 0.153,-0.375 0.146,-0.351C0.14,-0.326 0.136,-0.298 0.136,-0.266L0.136,-0.246C0.136,-0.221 0.14,-0.197 0.147,-0.175C0.154,-0.153 0.164,-0.134 0.177,-0.117C0.191,-0.101 0.207,-0.088 0.227,-0.078C0.246,-0.069 0.268,-0.064 0.293,-0.064C0.325,-0.064 0.352,-0.07 0.374,-0.083C0.396,-0.097 0.416,-0.114 0.432,-0.136L0.487,-0.092C0.475,-0.075 0.461,-0.059 0.443,-0.043C0.426,-0.027 0.404,-0.015 0.379,-0.005C0.353,0.005 0.323,0.01 0.288,0.01Z" style="fill-rule:nonzero;"/>
                </g>
                <g transform="matrix(39.2785,-7.56313,7.56313,39.2785,10172.6,5121.35)">
                    <path d="M0.217,-0.055L0.364,-0.528L0.461,-0.528L0.249,0.082C0.244,0.095 0.238,0.109 0.23,0.124C0.222,0.139 0.212,0.153 0.199,0.167C0.187,0.181 0.172,0.192 0.155,0.2C0.137,0.209 0.116,0.213 0.092,0.213C0.085,0.213 0.076,0.212 0.065,0.21C0.054,0.208 0.046,0.207 0.042,0.206L0.041,0.132C0.044,0.133 0.048,0.133 0.053,0.134C0.059,0.134 0.063,0.134 0.065,0.134C0.086,0.134 0.103,0.132 0.118,0.126C0.132,0.121 0.144,0.112 0.154,0.099C0.164,0.087 0.173,0.07 0.18,0.048L0.217,-0.055ZM0.109,-0.528L0.247,-0.118L0.27,-0.023L0.205,0.01L0.011,-0.528L0.109,-0.528Z" style="fill-rule:nonzero;"/>
                </g>
                <g transform="matrix(39.1613,-8.14818,8.14818,39.1613,10214,5113.21)">
                    <path d="M0.288,0.01C0.251,0.01 0.218,0.003 0.188,-0.009C0.158,-0.022 0.133,-0.039 0.112,-0.062C0.09,-0.085 0.074,-0.112 0.063,-0.143C0.051,-0.174 0.045,-0.208 0.045,-0.246L0.045,-0.266C0.045,-0.309 0.052,-0.347 0.064,-0.381C0.077,-0.415 0.094,-0.443 0.116,-0.467C0.138,-0.49 0.163,-0.508 0.19,-0.52C0.218,-0.532 0.247,-0.538 0.276,-0.538C0.314,-0.538 0.347,-0.532 0.374,-0.519C0.402,-0.506 0.424,-0.487 0.442,-0.464C0.459,-0.441 0.472,-0.413 0.481,-0.382C0.489,-0.351 0.494,-0.316 0.494,-0.279L0.494,-0.239L0.099,-0.239L0.099,-0.313L0.403,-0.313L0.403,-0.319C0.402,-0.343 0.397,-0.366 0.389,-0.388C0.381,-0.41 0.368,-0.428 0.35,-0.442C0.332,-0.457 0.307,-0.464 0.276,-0.464C0.256,-0.464 0.237,-0.46 0.22,-0.451C0.202,-0.442 0.188,-0.43 0.175,-0.413C0.163,-0.396 0.153,-0.375 0.146,-0.351C0.14,-0.326 0.136,-0.298 0.136,-0.266L0.136,-0.246C0.136,-0.221 0.14,-0.197 0.147,-0.175C0.154,-0.153 0.164,-0.134 0.177,-0.117C0.191,-0.101 0.207,-0.088 0.227,-0.078C0.246,-0.069 0.268,-0.064 0.293,-0.064C0.325,-0.064 0.352,-0.07 0.374,-0.083C0.396,-0.097 0.416,-0.114 0.432,-0.136L0.487,-0.092C0.475,-0.075 0.461,-0.059 0.443,-0.043C0.426,-0.027 0.404,-0.015 0.379,-0.005C0.353,0.005 0.323,0.01 0.288,0.01Z" style="fill-rule:nonzero;"/>
                </g>
                <g transform="matrix(39.1022,-8.42702,8.42702,39.1022,10233.3,5109.22)">
                    <path d="M0.13,-0.528L0.246,-0.336L0.363,-0.528L0.469,-0.528L0.296,-0.268L0.474,-0L0.37,-0L0.248,-0.198L0.125,-0L0.021,-0L0.198,-0.268L0.026,-0.528L0.13,-0.528Z" style="fill-rule:nonzero;"/>
                </g>
                <g transform="matrix(39.0328,-8.74318,8.74318,39.0328,10251.1,5105.39)">
                    <path d="M0.159,-0.427L0.159,0.203L0.068,0.203L0.068,-0.528L0.151,-0.528L0.159,-0.427ZM0.515,-0.269L0.515,-0.258C0.515,-0.22 0.511,-0.184 0.501,-0.152C0.492,-0.119 0.479,-0.09 0.462,-0.066C0.444,-0.042 0.423,-0.024 0.397,-0.01C0.372,0.003 0.343,0.01 0.31,0.01C0.277,0.01 0.247,0.004 0.221,-0.007C0.195,-0.018 0.174,-0.034 0.156,-0.055C0.138,-0.076 0.124,-0.102 0.113,-0.131C0.102,-0.161 0.095,-0.194 0.091,-0.231L0.091,-0.286C0.095,-0.325 0.103,-0.36 0.113,-0.391C0.124,-0.422 0.138,-0.448 0.156,-0.47C0.174,-0.492 0.195,-0.509 0.221,-0.521C0.246,-0.532 0.275,-0.538 0.309,-0.538C0.342,-0.538 0.371,-0.532 0.397,-0.519C0.423,-0.506 0.444,-0.488 0.462,-0.464C0.479,-0.44 0.493,-0.412 0.502,-0.379C0.511,-0.346 0.515,-0.309 0.515,-0.269ZM0.424,-0.258L0.424,-0.269C0.424,-0.295 0.422,-0.32 0.416,-0.343C0.41,-0.366 0.402,-0.387 0.39,-0.405C0.379,-0.422 0.364,-0.436 0.346,-0.447C0.328,-0.457 0.307,-0.462 0.282,-0.462C0.259,-0.462 0.24,-0.458 0.223,-0.45C0.206,-0.442 0.192,-0.432 0.18,-0.419C0.168,-0.406 0.159,-0.391 0.152,-0.374C0.144,-0.357 0.139,-0.34 0.135,-0.322L0.135,-0.195C0.142,-0.173 0.151,-0.151 0.163,-0.131C0.174,-0.111 0.19,-0.095 0.209,-0.083C0.229,-0.071 0.254,-0.064 0.283,-0.064C0.308,-0.064 0.329,-0.07 0.346,-0.08C0.364,-0.09 0.379,-0.104 0.39,-0.122C0.402,-0.14 0.41,-0.161 0.416,-0.184C0.422,-0.207 0.424,-0.232 0.424,-0.258Z" style="fill-rule:nonzero;"/>
                </g>
                <g transform="matrix(38.9799,-8.97586,8.97586,38.9799,10271.4,5100.82)">
                    <rect x="0.076" y="-0.75" width="0.091" height="0.75" style="fill-rule:nonzero;"/>
                </g>
                <g transform="matrix(38.9206,-9.22963,9.22963,38.9206,10279.4,5099.01)">
                    <path d="M0.045,-0.258L0.045,-0.27C0.045,-0.308 0.05,-0.343 0.062,-0.376C0.073,-0.408 0.089,-0.437 0.109,-0.461C0.13,-0.485 0.155,-0.504 0.185,-0.518C0.215,-0.531 0.248,-0.538 0.285,-0.538C0.322,-0.538 0.355,-0.531 0.385,-0.518C0.415,-0.504 0.44,-0.485 0.461,-0.461C0.482,-0.437 0.498,-0.408 0.509,-0.376C0.52,-0.343 0.526,-0.308 0.526,-0.27L0.526,-0.258C0.526,-0.22 0.52,-0.185 0.509,-0.152C0.498,-0.12 0.482,-0.091 0.461,-0.067C0.44,-0.043 0.415,-0.024 0.385,-0.01C0.356,0.003 0.323,0.01 0.286,0.01C0.249,0.01 0.215,0.003 0.186,-0.01C0.156,-0.024 0.131,-0.043 0.11,-0.067C0.089,-0.091 0.073,-0.12 0.062,-0.152C0.05,-0.185 0.045,-0.22 0.045,-0.258ZM0.135,-0.27L0.135,-0.258C0.135,-0.232 0.138,-0.207 0.145,-0.184C0.151,-0.161 0.16,-0.14 0.173,-0.122C0.185,-0.104 0.201,-0.09 0.22,-0.08C0.239,-0.07 0.261,-0.064 0.286,-0.064C0.31,-0.064 0.332,-0.07 0.351,-0.08C0.37,-0.09 0.385,-0.104 0.397,-0.122C0.41,-0.14 0.419,-0.161 0.426,-0.184C0.432,-0.207 0.435,-0.232 0.435,-0.258L0.435,-0.27C0.435,-0.296 0.432,-0.32 0.426,-0.344C0.419,-0.367 0.41,-0.387 0.397,-0.406C0.385,-0.424 0.369,-0.438 0.35,-0.448C0.332,-0.459 0.31,-0.464 0.285,-0.464C0.26,-0.464 0.238,-0.459 0.219,-0.448C0.201,-0.438 0.185,-0.424 0.173,-0.406C0.16,-0.387 0.151,-0.367 0.145,-0.344C0.138,-0.32 0.135,-0.296 0.135,-0.27Z" style="fill-rule:nonzero;"/>
                </g>
                <g transform="matrix(38.8439,-9.54735,9.54735,38.8439,10300,5094.11)">
                    <path d="M0.159,-0.445L0.159,-0L0.069,-0L0.069,-0.528L0.157,-0.528L0.159,-0.445ZM0.324,-0.531L0.324,-0.447C0.316,-0.449 0.309,-0.45 0.302,-0.45C0.296,-0.451 0.288,-0.451 0.28,-0.451C0.259,-0.451 0.241,-0.448 0.225,-0.441C0.209,-0.435 0.195,-0.426 0.184,-0.414C0.173,-0.402 0.164,-0.388 0.158,-0.372C0.152,-0.356 0.147,-0.339 0.146,-0.319L0.12,-0.305C0.12,-0.337 0.123,-0.367 0.13,-0.395C0.136,-0.423 0.146,-0.447 0.159,-0.469C0.173,-0.491 0.19,-0.508 0.21,-0.52C0.231,-0.532 0.256,-0.538 0.284,-0.538C0.291,-0.538 0.298,-0.537 0.307,-0.536C0.315,-0.534 0.321,-0.533 0.324,-0.531Z" style="fill-rule:nonzero;"/>
                </g>
                <g transform="matrix(38.7739,-9.82771,9.82771,38.7739,10311.6,5091.28)">
                    <path d="M0.38,-0.09L0.38,-0.362C0.38,-0.383 0.376,-0.401 0.368,-0.417C0.36,-0.432 0.347,-0.444 0.331,-0.453C0.314,-0.461 0.293,-0.465 0.269,-0.465C0.246,-0.465 0.226,-0.461 0.209,-0.454C0.192,-0.446 0.179,-0.436 0.169,-0.423C0.16,-0.41 0.155,-0.396 0.155,-0.382L0.064,-0.382C0.064,-0.401 0.069,-0.419 0.079,-0.438C0.089,-0.457 0.103,-0.473 0.121,-0.489C0.14,-0.504 0.162,-0.516 0.188,-0.525C0.214,-0.534 0.243,-0.538 0.274,-0.538C0.313,-0.538 0.347,-0.532 0.376,-0.519C0.406,-0.506 0.429,-0.486 0.446,-0.46C0.462,-0.434 0.471,-0.401 0.471,-0.361L0.471,-0.115C0.471,-0.098 0.472,-0.079 0.475,-0.059C0.478,-0.039 0.483,-0.022 0.489,-0.008L0.489,-0L0.395,-0C0.39,-0.01 0.387,-0.024 0.384,-0.042C0.382,-0.059 0.38,-0.075 0.38,-0.09ZM0.396,-0.32L0.397,-0.257L0.306,-0.257C0.28,-0.257 0.257,-0.255 0.237,-0.251C0.217,-0.247 0.2,-0.241 0.186,-0.232C0.172,-0.224 0.162,-0.214 0.155,-0.202C0.148,-0.19 0.144,-0.175 0.144,-0.159C0.144,-0.143 0.148,-0.127 0.155,-0.114C0.163,-0.1 0.174,-0.089 0.189,-0.081C0.204,-0.073 0.223,-0.069 0.245,-0.069C0.273,-0.069 0.297,-0.075 0.318,-0.087C0.34,-0.099 0.356,-0.113 0.369,-0.13C0.381,-0.147 0.388,-0.163 0.389,-0.179L0.428,-0.136C0.425,-0.122 0.419,-0.107 0.409,-0.09C0.399,-0.074 0.386,-0.058 0.369,-0.043C0.352,-0.028 0.332,-0.015 0.309,-0.005C0.286,0.005 0.261,0.01 0.232,0.01C0.196,0.01 0.165,0.003 0.138,-0.011C0.111,-0.025 0.09,-0.044 0.075,-0.068C0.061,-0.091 0.053,-0.118 0.053,-0.147C0.053,-0.175 0.059,-0.2 0.07,-0.222C0.081,-0.244 0.097,-0.262 0.118,-0.276C0.139,-0.291 0.164,-0.302 0.193,-0.309C0.222,-0.317 0.255,-0.32 0.291,-0.32L0.396,-0.32Z" style="fill-rule:nonzero;"/>
                </g>
                <g transform="matrix(38.6976,-10.124,10.124,38.6976,10331.2,5086.33)">
                    <path d="M0.29,-0.528L0.29,-0.459L0.004,-0.459L0.004,-0.528L0.29,-0.528ZM0.101,-0.657L0.191,-0.657L0.191,-0.131C0.191,-0.113 0.194,-0.099 0.2,-0.09C0.205,-0.081 0.212,-0.075 0.221,-0.072C0.23,-0.069 0.239,-0.068 0.25,-0.068C0.257,-0.068 0.265,-0.069 0.273,-0.07C0.281,-0.072 0.288,-0.073 0.292,-0.074L0.292,-0C0.285,0.002 0.276,0.004 0.264,0.007C0.253,0.009 0.239,0.01 0.223,0.01C0.201,0.01 0.18,0.005 0.162,-0.003C0.143,-0.012 0.128,-0.027 0.117,-0.048C0.107,-0.068 0.101,-0.096 0.101,-0.131L0.101,-0.657Z" style="fill-rule:nonzero;"/>
                </g>
                <g transform="matrix(38.6422,-10.3335,10.3335,38.6422,10342.2,5083.42)">
                    <path d="M0.167,-0.528L0.167,-0L0.076,-0L0.076,-0.528L0.167,-0.528ZM0.069,-0.668C0.069,-0.683 0.074,-0.695 0.083,-0.706C0.092,-0.716 0.105,-0.721 0.123,-0.721C0.14,-0.721 0.153,-0.716 0.162,-0.706C0.172,-0.695 0.176,-0.683 0.176,-0.668C0.176,-0.654 0.172,-0.642 0.162,-0.633C0.153,-0.623 0.14,-0.618 0.123,-0.618C0.105,-0.618 0.092,-0.623 0.083,-0.633C0.074,-0.642 0.069,-0.654 0.069,-0.668Z" style="fill-rule:nonzero;"/>
                </g>
                <g transform="matrix(38.5601,-10.6357,10.6357,38.5601,10350.1,5081.35)">
                    <path d="M0.045,-0.258L0.045,-0.27C0.045,-0.308 0.05,-0.343 0.062,-0.376C0.073,-0.408 0.089,-0.437 0.109,-0.461C0.13,-0.485 0.155,-0.504 0.185,-0.518C0.215,-0.531 0.248,-0.538 0.285,-0.538C0.322,-0.538 0.355,-0.531 0.385,-0.518C0.415,-0.504 0.44,-0.485 0.461,-0.461C0.482,-0.437 0.498,-0.408 0.509,-0.376C0.52,-0.343 0.526,-0.308 0.526,-0.27L0.526,-0.258C0.526,-0.22 0.52,-0.185 0.509,-0.152C0.498,-0.12 0.482,-0.091 0.461,-0.067C0.44,-0.043 0.415,-0.024 0.385,-0.01C0.356,0.003 0.323,0.01 0.286,0.01C0.249,0.01 0.215,0.003 0.186,-0.01C0.156,-0.024 0.131,-0.043 0.11,-0.067C0.089,-0.091 0.073,-0.12 0.062,-0.152C0.05,-0.185 0.045,-0.22 0.045,-0.258ZM0.135,-0.27L0.135,-0.258C0.135,-0.232 0.138,-0.207 0.145,-0.184C0.151,-0.161 0.16,-0.14 0.173,-0.122C0.185,-0.104 0.201,-0.09 0.22,-0.08C0.239,-0.07 0.261,-0.064 0.286,-0.064C0.31,-0.064 0.332,-0.07 0.351,-0.08C0.37,-0.09 0.385,-0.104 0.397,-0.122C0.41,-0.14 0.419,-0.161 0.426,-0.184C0.432,-0.207 0.435,-0.232 0.435,-0.258L0.435,-0.27C0.435,-0.296 0.432,-0.32 0.426,-0.344C0.419,-0.367 0.41,-0.387 0.397,-0.406C0.385,-0.424 0.369,-0.438 0.35,-0.448C0.332,-0.459 0.31,-0.464 0.285,-0.464C0.26,-0.464 0.238,-0.459 0.219,-0.448C0.201,-0.438 0.185,-0.424 0.173,-0.406C0.16,-0.387 0.151,-0.367 0.145,-0.344C0.138,-0.32 0.135,-0.296 0.135,-0.27Z" style="fill-rule:nonzero;"/>
                </g>
                <g transform="matrix(38.4334,-11.0847,11.0847,38.4334,10370.6,5075.71)">
                    <path d="M0.159,-0.416L0.159,-0L0.069,-0L0.069,-0.528L0.154,-0.528L0.159,-0.416ZM0.138,-0.284L0.1,-0.286C0.1,-0.322 0.106,-0.355 0.116,-0.386C0.127,-0.417 0.141,-0.444 0.16,-0.466C0.179,-0.489 0.202,-0.507 0.228,-0.519C0.254,-0.532 0.283,-0.538 0.315,-0.538C0.341,-0.538 0.364,-0.535 0.385,-0.528C0.406,-0.521 0.424,-0.509 0.439,-0.494C0.454,-0.479 0.465,-0.459 0.473,-0.435C0.48,-0.411 0.484,-0.381 0.484,-0.346L0.484,-0L0.394,-0L0.394,-0.347C0.394,-0.375 0.389,-0.397 0.381,-0.414C0.373,-0.431 0.361,-0.443 0.346,-0.45C0.33,-0.458 0.311,-0.462 0.288,-0.462C0.266,-0.462 0.245,-0.457 0.227,-0.448C0.208,-0.438 0.193,-0.425 0.179,-0.409C0.166,-0.392 0.156,-0.373 0.149,-0.352C0.141,-0.33 0.138,-0.308 0.138,-0.284Z" style="fill-rule:nonzero;"/>
                </g>
                <g transform="matrix(38.1182,-12.1245,12.1245,38.1182,10414.2,5062.81)">
                    <path d="M0.288,0.01C0.251,0.01 0.218,0.003 0.188,-0.009C0.158,-0.022 0.133,-0.039 0.112,-0.062C0.09,-0.085 0.074,-0.112 0.063,-0.143C0.051,-0.174 0.045,-0.208 0.045,-0.246L0.045,-0.266C0.045,-0.309 0.052,-0.347 0.064,-0.381C0.077,-0.415 0.094,-0.443 0.116,-0.467C0.138,-0.49 0.163,-0.508 0.19,-0.52C0.218,-0.532 0.247,-0.538 0.276,-0.538C0.314,-0.538 0.347,-0.532 0.374,-0.519C0.402,-0.506 0.424,-0.487 0.442,-0.464C0.459,-0.441 0.472,-0.413 0.481,-0.382C0.489,-0.351 0.494,-0.316 0.494,-0.279L0.494,-0.239L0.099,-0.239L0.099,-0.313L0.403,-0.313L0.403,-0.319C0.402,-0.343 0.397,-0.366 0.389,-0.388C0.381,-0.41 0.368,-0.428 0.35,-0.442C0.332,-0.457 0.307,-0.464 0.276,-0.464C0.256,-0.464 0.237,-0.46 0.22,-0.451C0.202,-0.442 0.188,-0.43 0.175,-0.413C0.163,-0.396 0.153,-0.375 0.146,-0.351C0.14,-0.326 0.136,-0.298 0.136,-0.266L0.136,-0.246C0.136,-0.221 0.14,-0.197 0.147,-0.175C0.154,-0.153 0.164,-0.134 0.177,-0.117C0.191,-0.101 0.207,-0.088 0.227,-0.078C0.246,-0.069 0.268,-0.064 0.293,-0.064C0.325,-0.064 0.352,-0.07 0.374,-0.083C0.396,-0.097 0.416,-0.114 0.432,-0.136L0.487,-0.092C0.475,-0.075 0.461,-0.059 0.443,-0.043C0.426,-0.027 0.404,-0.015 0.379,-0.005C0.353,0.005 0.323,0.01 0.288,0.01Z" style="fill-rule:nonzero;"/>
                </g>
                <g transform="matrix(37.9698,-12.5817,12.5817,37.9698,10432.8,5056.89)">
                    <path d="M0.13,-0.528L0.246,-0.336L0.363,-0.528L0.469,-0.528L0.296,-0.268L0.474,-0L0.37,-0L0.248,-0.198L0.125,-0L0.021,-0L0.198,-0.268L0.026,-0.528L0.13,-0.528Z" style="fill-rule:nonzero;"/>
                </g>
                <g transform="matrix(37.7972,-13.091,13.091,37.7972,10450.2,5051.16)">
                    <path d="M0.159,-0.427L0.159,0.203L0.068,0.203L0.068,-0.528L0.151,-0.528L0.159,-0.427ZM0.515,-0.269L0.515,-0.258C0.515,-0.22 0.511,-0.184 0.501,-0.152C0.492,-0.119 0.479,-0.09 0.462,-0.066C0.444,-0.042 0.423,-0.024 0.397,-0.01C0.372,0.003 0.343,0.01 0.31,0.01C0.277,0.01 0.247,0.004 0.221,-0.007C0.195,-0.018 0.174,-0.034 0.156,-0.055C0.138,-0.076 0.124,-0.102 0.113,-0.131C0.102,-0.161 0.095,-0.194 0.091,-0.231L0.091,-0.286C0.095,-0.325 0.103,-0.36 0.113,-0.391C0.124,-0.422 0.138,-0.448 0.156,-0.47C0.174,-0.492 0.195,-0.509 0.221,-0.521C0.246,-0.532 0.275,-0.538 0.309,-0.538C0.342,-0.538 0.371,-0.532 0.397,-0.519C0.423,-0.506 0.444,-0.488 0.462,-0.464C0.479,-0.44 0.493,-0.412 0.502,-0.379C0.511,-0.346 0.515,-0.309 0.515,-0.269ZM0.424,-0.258L0.424,-0.269C0.424,-0.295 0.422,-0.32 0.416,-0.343C0.41,-0.366 0.402,-0.387 0.39,-0.405C0.379,-0.422 0.364,-0.436 0.346,-0.447C0.328,-0.457 0.307,-0.462 0.282,-0.462C0.259,-0.462 0.24,-0.458 0.223,-0.45C0.206,-0.442 0.192,-0.432 0.18,-0.419C0.168,-0.406 0.159,-0.391 0.152,-0.374C0.144,-0.357 0.139,-0.34 0.135,-0.322L0.135,-0.195C0.142,-0.173 0.151,-0.151 0.163,-0.131C0.174,-0.111 0.19,-0.095 0.209,-0.083C0.229,-0.071 0.254,-0.064 0.283,-0.064C0.308,-0.064 0.329,-0.07 0.346,-0.08C0.364,-0.09 0.379,-0.104 0.39,-0.122C0.402,-0.14 0.41,-0.161 0.416,-0.184C0.422,-0.207 0.424,-0.232 0.424,-0.258Z" style="fill-rule:nonzero;"/>
                </g>
                <g transform="matrix(37.6115,-13.6152,13.6152,37.6115,10469.9,5044.35)">
                    <path d="M0.288,0.01C0.251,0.01 0.218,0.003 0.188,-0.009C0.158,-0.022 0.133,-0.039 0.112,-0.062C0.09,-0.085 0.074,-0.112 0.063,-0.143C0.051,-0.174 0.045,-0.208 0.045,-0.246L0.045,-0.266C0.045,-0.309 0.052,-0.347 0.064,-0.381C0.077,-0.415 0.094,-0.443 0.116,-0.467C0.138,-0.49 0.163,-0.508 0.19,-0.52C0.218,-0.532 0.247,-0.538 0.276,-0.538C0.314,-0.538 0.347,-0.532 0.374,-0.519C0.402,-0.506 0.424,-0.487 0.442,-0.464C0.459,-0.441 0.472,-0.413 0.481,-0.382C0.489,-0.351 0.494,-0.316 0.494,-0.279L0.494,-0.239L0.099,-0.239L0.099,-0.313L0.403,-0.313L0.403,-0.319C0.402,-0.343 0.397,-0.366 0.389,-0.388C0.381,-0.41 0.368,-0.428 0.35,-0.442C0.332,-0.457 0.307,-0.464 0.276,-0.464C0.256,-0.464 0.237,-0.46 0.22,-0.451C0.202,-0.442 0.188,-0.43 0.175,-0.413C0.163,-0.396 0.153,-0.375 0.146,-0.351C0.14,-0.326 0.136,-0.298 0.136,-0.266L0.136,-0.246C0.136,-0.221 0.14,-0.197 0.147,-0.175C0.154,-0.153 0.164,-0.134 0.177,-0.117C0.191,-0.101 0.207,-0.088 0.227,-0.078C0.246,-0.069 0.268,-0.064 0.293,-0.064C0.325,-0.064 0.352,-0.07 0.374,-0.083C0.396,-0.097 0.416,-0.114 0.432,-0.136L0.487,-0.092C0.475,-0.075 0.461,-0.059 0.443,-0.043C0.426,-0.027 0.404,-0.015 0.379,-0.005C0.353,0.005 0.323,0.01 0.288,0.01Z" style="fill-rule:nonzero;"/>
                </g>
                <g transform="matrix(37.4448,-14.0671,14.0671,37.4448,10488.3,5037.68)">
                    <path d="M0.159,-0.445L0.159,-0L0.069,-0L0.069,-0.528L0.157,-0.528L0.159,-0.445ZM0.324,-0.531L0.324,-0.447C0.316,-0.449 0.309,-0.45 0.302,-0.45C0.296,-0.451 0.288,-0.451 0.28,-0.451C0.259,-0.451 0.241,-0.448 0.225,-0.441C0.209,-0.435 0.195,-0.426 0.184,-0.414C0.173,-0.402 0.164,-0.388 0.158,-0.372C0.152,-0.356 0.147,-0.339 0.146,-0.319L0.12,-0.305C0.12,-0.337 0.123,-0.367 0.13,-0.395C0.136,-0.423 0.146,-0.447 0.159,-0.469C0.173,-0.491 0.19,-0.508 0.21,-0.52C0.231,-0.532 0.256,-0.538 0.284,-0.538C0.291,-0.538 0.298,-0.537 0.307,-0.536C0.315,-0.534 0.321,-0.533 0.324,-0.531Z" style="fill-rule:nonzero;"/>
                </g>
                <g transform="matrix(37.3503,-14.3163,14.3163,37.3503,10499.5,5033.48)">
                    <path d="M0.167,-0.528L0.167,-0L0.076,-0L0.076,-0.528L0.167,-0.528ZM0.069,-0.668C0.069,-0.683 0.074,-0.695 0.083,-0.706C0.092,-0.716 0.105,-0.721 0.123,-0.721C0.14,-0.721 0.153,-0.716 0.162,-0.706C0.172,-0.695 0.176,-0.683 0.176,-0.668C0.176,-0.654 0.172,-0.642 0.162,-0.633C0.153,-0.623 0.14,-0.618 0.123,-0.618C0.105,-0.618 0.092,-0.623 0.083,-0.633C0.074,-0.642 0.069,-0.654 0.069,-0.668Z" style="fill-rule:nonzero;"/>
                </g>
                <g transform="matrix(37.1198,-14.9037,14.9037,37.1198,10507.1,5030.68)">
                    <path d="M0.159,-0.423L0.159,-0L0.068,-0L0.068,-0.528L0.154,-0.528L0.159,-0.423ZM0.14,-0.284L0.098,-0.286C0.098,-0.322 0.103,-0.355 0.112,-0.386C0.121,-0.417 0.135,-0.444 0.153,-0.466C0.171,-0.489 0.193,-0.507 0.22,-0.519C0.246,-0.532 0.277,-0.538 0.313,-0.538C0.337,-0.538 0.36,-0.535 0.381,-0.528C0.402,-0.521 0.42,-0.51 0.435,-0.495C0.45,-0.48 0.462,-0.46 0.471,-0.437C0.479,-0.414 0.483,-0.385 0.483,-0.352L0.483,-0L0.393,-0L0.393,-0.348C0.393,-0.375 0.388,-0.397 0.379,-0.414C0.37,-0.431 0.357,-0.443 0.34,-0.45C0.323,-0.458 0.303,-0.462 0.28,-0.462C0.254,-0.462 0.231,-0.457 0.213,-0.448C0.195,-0.438 0.181,-0.425 0.17,-0.409C0.16,-0.392 0.152,-0.373 0.147,-0.352C0.142,-0.33 0.14,-0.308 0.14,-0.284ZM0.482,-0.334L0.422,-0.315C0.422,-0.344 0.427,-0.372 0.436,-0.399C0.446,-0.426 0.459,-0.449 0.477,-0.47C0.495,-0.491 0.516,-0.508 0.542,-0.52C0.569,-0.532 0.598,-0.538 0.632,-0.538C0.66,-0.538 0.685,-0.534 0.707,-0.527C0.729,-0.519 0.748,-0.508 0.763,-0.492C0.778,-0.477 0.79,-0.457 0.797,-0.433C0.805,-0.409 0.809,-0.38 0.809,-0.347L0.809,-0L0.718,-0L0.718,-0.348C0.718,-0.378 0.714,-0.401 0.704,-0.417C0.695,-0.434 0.682,-0.445 0.665,-0.452C0.649,-0.459 0.629,-0.462 0.605,-0.462C0.586,-0.462 0.568,-0.458 0.553,-0.452C0.537,-0.445 0.525,-0.435 0.514,-0.424C0.504,-0.412 0.496,-0.398 0.49,-0.383C0.485,-0.368 0.482,-0.351 0.482,-0.334Z" style="fill-rule:nonzero;"/>
                </g>
                <g transform="matrix(36.7951,-15.6882,15.6882,36.7951,10538.2,5018.14)">
                    <path d="M0.288,0.01C0.251,0.01 0.218,0.003 0.188,-0.009C0.158,-0.022 0.133,-0.039 0.112,-0.062C0.09,-0.085 0.074,-0.112 0.063,-0.143C0.051,-0.174 0.045,-0.208 0.045,-0.246L0.045,-0.266C0.045,-0.309 0.052,-0.347 0.064,-0.381C0.077,-0.415 0.094,-0.443 0.116,-0.467C0.138,-0.49 0.163,-0.508 0.19,-0.52C0.218,-0.532 0.247,-0.538 0.276,-0.538C0.314,-0.538 0.347,-0.532 0.374,-0.519C0.402,-0.506 0.424,-0.487 0.442,-0.464C0.459,-0.441 0.472,-0.413 0.481,-0.382C0.489,-0.351 0.494,-0.316 0.494,-0.279L0.494,-0.239L0.099,-0.239L0.099,-0.313L0.403,-0.313L0.403,-0.319C0.402,-0.343 0.397,-0.366 0.389,-0.388C0.381,-0.41 0.368,-0.428 0.35,-0.442C0.332,-0.457 0.307,-0.464 0.276,-0.464C0.256,-0.464 0.237,-0.46 0.22,-0.451C0.202,-0.442 0.188,-0.43 0.175,-0.413C0.163,-0.396 0.153,-0.375 0.146,-0.351C0.14,-0.326 0.136,-0.298 0.136,-0.266L0.136,-0.246C0.136,-0.221 0.14,-0.197 0.147,-0.175C0.154,-0.153 0.164,-0.134 0.177,-0.117C0.191,-0.101 0.207,-0.088 0.227,-0.078C0.246,-0.069 0.268,-0.064 0.293,-0.064C0.325,-0.064 0.352,-0.07 0.374,-0.083C0.396,-0.097 0.416,-0.114 0.432,-0.136L0.487,-0.092C0.475,-0.075 0.461,-0.059 0.443,-0.043C0.426,-0.027 0.404,-0.015 0.379,-0.005C0.353,0.005 0.323,0.01 0.288,0.01Z" style="fill-rule:nonzero;"/>
                </g>
                <g transform="matrix(36.5326,-16.2902,16.2902,36.5326,10556.3,5010.47)">
                    <path d="M0.159,-0.416L0.159,-0L0.069,-0L0.069,-0.528L0.154,-0.528L0.159,-0.416ZM0.138,-0.284L0.1,-0.286C0.1,-0.322 0.106,-0.355 0.116,-0.386C0.127,-0.417 0.141,-0.444 0.16,-0.466C0.179,-0.489 0.202,-0.507 0.228,-0.519C0.254,-0.532 0.283,-0.538 0.315,-0.538C0.341,-0.538 0.364,-0.535 0.385,-0.528C0.406,-0.521 0.424,-0.509 0.439,-0.494C0.454,-0.479 0.465,-0.459 0.473,-0.435C0.48,-0.411 0.484,-0.381 0.484,-0.346L0.484,-0L0.394,-0L0.394,-0.347C0.394,-0.375 0.389,-0.397 0.381,-0.414C0.373,-0.431 0.361,-0.443 0.346,-0.45C0.33,-0.458 0.311,-0.462 0.288,-0.462C0.266,-0.462 0.245,-0.457 0.227,-0.448C0.208,-0.438 0.193,-0.425 0.179,-0.409C0.166,-0.392 0.156,-0.373 0.149,-0.352C0.141,-0.33 0.138,-0.308 0.138,-0.284Z" style="fill-rule:nonzero;"/>
                </g>
                <g transform="matrix(36.3169,-16.7655,16.7655,36.3169,10575,5002.1)">
                    <path d="M0.29,-0.528L0.29,-0.459L0.004,-0.459L0.004,-0.528L0.29,-0.528ZM0.101,-0.657L0.191,-0.657L0.191,-0.131C0.191,-0.113 0.194,-0.099 0.2,-0.09C0.205,-0.081 0.212,-0.075 0.221,-0.072C0.23,-0.069 0.239,-0.068 0.25,-0.068C0.257,-0.068 0.265,-0.069 0.273,-0.07C0.281,-0.072 0.288,-0.073 0.292,-0.074L0.292,-0C0.285,0.002 0.276,0.004 0.264,0.007C0.253,0.009 0.239,0.01 0.223,0.01C0.201,0.01 0.18,0.005 0.162,-0.003C0.143,-0.012 0.128,-0.027 0.117,-0.048C0.107,-0.068 0.101,-0.096 0.101,-0.131L0.101,-0.657Z" style="fill-rule:nonzero;"/>
                </g>
                <g transform="matrix(35.7263,-17.9898,17.9898,35.7263,10607.9,4986.49)">
                    <path d="M0.159,-0.445L0.159,-0L0.069,-0L0.069,-0.528L0.157,-0.528L0.159,-0.445ZM0.324,-0.531L0.324,-0.447C0.316,-0.449 0.309,-0.45 0.302,-0.45C0.296,-0.451 0.288,-0.451 0.28,-0.451C0.259,-0.451 0.241,-0.448 0.225,-0.441C0.209,-0.435 0.195,-0.426 0.184,-0.414C0.173,-0.402 0.164,-0.388 0.158,-0.372C0.152,-0.356 0.147,-0.339 0.146,-0.319L0.12,-0.305C0.12,-0.337 0.123,-0.367 0.13,-0.395C0.136,-0.423 0.146,-0.447 0.159,-0.469C0.173,-0.491 0.19,-0.508 0.21,-0.52C0.231,-0.532 0.256,-0.538 0.284,-0.538C0.291,-0.538 0.298,-0.537 0.307,-0.536C0.315,-0.534 0.321,-0.533 0.324,-0.531Z" style="fill-rule:nonzero;"/>
                </g>
                <g transform="matrix(35.576,-18.2853,18.2853,35.576,10618.6,4981.11)">
                    <path d="M0.167,-0.528L0.167,-0L0.076,-0L0.076,-0.528L0.167,-0.528ZM0.069,-0.668C0.069,-0.683 0.074,-0.695 0.083,-0.706C0.092,-0.716 0.105,-0.721 0.123,-0.721C0.14,-0.721 0.153,-0.716 0.162,-0.706C0.172,-0.695 0.176,-0.683 0.176,-0.668C0.176,-0.654 0.172,-0.642 0.162,-0.633C0.153,-0.623 0.14,-0.618 0.123,-0.618C0.105,-0.618 0.092,-0.623 0.083,-0.633C0.074,-0.642 0.069,-0.654 0.069,-0.668Z" style="fill-rule:nonzero;"/>
                </g>
                <g transform="matrix(35.3426,-18.7323,18.7323,35.3426,10625.9,4977.42)">
                    <path d="M0.376,-0.14C0.376,-0.153 0.374,-0.165 0.368,-0.177C0.362,-0.188 0.351,-0.198 0.333,-0.207C0.316,-0.217 0.29,-0.225 0.255,-0.231C0.226,-0.238 0.199,-0.245 0.176,-0.253C0.152,-0.262 0.132,-0.272 0.115,-0.284C0.099,-0.296 0.086,-0.31 0.078,-0.327C0.069,-0.343 0.064,-0.362 0.064,-0.384C0.064,-0.405 0.069,-0.424 0.078,-0.443C0.088,-0.461 0.101,-0.478 0.118,-0.492C0.135,-0.507 0.156,-0.518 0.18,-0.526C0.204,-0.534 0.231,-0.538 0.26,-0.538C0.303,-0.538 0.339,-0.531 0.369,-0.516C0.399,-0.501 0.422,-0.481 0.438,-0.456C0.453,-0.431 0.461,-0.403 0.461,-0.373L0.371,-0.373C0.371,-0.388 0.367,-0.402 0.358,-0.416C0.35,-0.43 0.337,-0.441 0.321,-0.45C0.304,-0.459 0.284,-0.464 0.26,-0.464C0.235,-0.464 0.215,-0.46 0.199,-0.452C0.184,-0.445 0.173,-0.435 0.166,-0.423C0.159,-0.412 0.155,-0.399 0.155,-0.386C0.155,-0.376 0.157,-0.368 0.16,-0.36C0.164,-0.352 0.17,-0.345 0.179,-0.339C0.188,-0.333 0.2,-0.327 0.216,-0.321C0.232,-0.316 0.252,-0.31 0.277,-0.305C0.32,-0.295 0.356,-0.283 0.384,-0.27C0.412,-0.256 0.433,-0.239 0.446,-0.219C0.46,-0.199 0.467,-0.175 0.467,-0.147C0.467,-0.124 0.462,-0.103 0.452,-0.083C0.443,-0.064 0.429,-0.048 0.411,-0.034C0.393,-0.02 0.371,-0.009 0.346,-0.002C0.322,0.006 0.294,0.01 0.263,0.01C0.216,0.01 0.177,0.001 0.145,-0.015C0.112,-0.032 0.088,-0.053 0.071,-0.08C0.055,-0.106 0.046,-0.134 0.046,-0.163L0.137,-0.163C0.139,-0.138 0.146,-0.119 0.159,-0.104C0.172,-0.09 0.188,-0.08 0.207,-0.073C0.225,-0.067 0.244,-0.064 0.263,-0.064C0.287,-0.064 0.308,-0.068 0.325,-0.074C0.342,-0.081 0.354,-0.09 0.363,-0.101C0.372,-0.112 0.376,-0.125 0.376,-0.14Z" style="fill-rule:nonzero;"/>
                </g>
                <g transform="matrix(34.9744,-19.4111,19.4111,34.9744,10642.6,4968.55)">
                    <path d="M0.16,-0.75L0.16,-0L0.069,-0L0.069,-0.75L0.16,-0.75ZM0.482,-0.528L0.252,-0.282L0.123,-0.148L0.116,-0.244L0.208,-0.354L0.372,-0.528L0.482,-0.528ZM0.4,-0L0.211,-0.252L0.258,-0.333L0.506,-0L0.4,-0Z" style="fill-rule:nonzero;"/>
                </g>
                <g transform="matrix(34.1156,-20.8836,20.8836,34.1156,10680.6,4946.98)">
                    <path d="M0.28,-0.064C0.302,-0.064 0.322,-0.069 0.34,-0.078C0.358,-0.086 0.373,-0.099 0.385,-0.114C0.396,-0.129 0.403,-0.147 0.405,-0.167L0.491,-0.167C0.489,-0.136 0.479,-0.107 0.459,-0.08C0.44,-0.053 0.415,-0.031 0.383,-0.015C0.352,0.002 0.318,0.01 0.28,0.01C0.241,0.01 0.206,0.003 0.177,-0.011C0.147,-0.025 0.123,-0.044 0.103,-0.069C0.084,-0.093 0.069,-0.121 0.06,-0.153C0.05,-0.185 0.045,-0.218 0.045,-0.254L0.045,-0.274C0.045,-0.31 0.05,-0.344 0.06,-0.375C0.069,-0.407 0.084,-0.435 0.103,-0.459C0.123,-0.484 0.147,-0.503 0.177,-0.517C0.206,-0.531 0.241,-0.538 0.28,-0.538C0.322,-0.538 0.358,-0.53 0.389,-0.513C0.42,-0.496 0.444,-0.473 0.462,-0.445C0.479,-0.416 0.489,-0.383 0.491,-0.347L0.405,-0.347C0.403,-0.368 0.397,-0.388 0.386,-0.406C0.376,-0.423 0.362,-0.437 0.344,-0.448C0.325,-0.459 0.304,-0.464 0.28,-0.464C0.253,-0.464 0.229,-0.458 0.211,-0.448C0.192,-0.437 0.177,-0.422 0.166,-0.404C0.155,-0.385 0.148,-0.365 0.143,-0.343C0.138,-0.32 0.136,-0.298 0.136,-0.274L0.136,-0.254C0.136,-0.231 0.138,-0.208 0.143,-0.186C0.147,-0.163 0.155,-0.143 0.166,-0.125C0.177,-0.106 0.191,-0.092 0.21,-0.081C0.229,-0.07 0.252,-0.064 0.28,-0.064Z" style="fill-rule:nonzero;"/>
                </g>
                <g transform="matrix(33.6841,-21.5726,21.5726,33.6841,10697.1,4936.89)">
                    <path d="M0.159,-0.75L0.159,-0L0.069,-0L0.069,-0.75L0.159,-0.75ZM0.138,-0.284L0.1,-0.286C0.1,-0.322 0.106,-0.355 0.116,-0.386C0.127,-0.417 0.141,-0.444 0.16,-0.466C0.179,-0.489 0.202,-0.507 0.228,-0.519C0.254,-0.532 0.283,-0.538 0.315,-0.538C0.341,-0.538 0.364,-0.535 0.385,-0.528C0.406,-0.521 0.424,-0.509 0.439,-0.494C0.454,-0.479 0.465,-0.459 0.473,-0.435C0.48,-0.411 0.484,-0.381 0.484,-0.346L0.484,-0L0.394,-0L0.394,-0.347C0.394,-0.375 0.389,-0.397 0.381,-0.414C0.373,-0.431 0.361,-0.443 0.346,-0.45C0.33,-0.458 0.311,-0.462 0.288,-0.462C0.266,-0.462 0.245,-0.457 0.227,-0.448C0.208,-0.438 0.193,-0.425 0.179,-0.409C0.166,-0.392 0.156,-0.373 0.149,-0.352C0.141,-0.33 0.138,-0.308 0.138,-0.284Z" style="fill-rule:nonzero;"/>
                </g>
                <g transform="matrix(33.217,-22.2852,22.2852,33.217,10714.3,4925.88)">
                    <path d="M0.38,-0.09L0.38,-0.362C0.38,-0.383 0.376,-0.401 0.368,-0.417C0.36,-0.432 0.347,-0.444 0.331,-0.453C0.314,-0.461 0.293,-0.465 0.269,-0.465C0.246,-0.465 0.226,-0.461 0.209,-0.454C0.192,-0.446 0.179,-0.436 0.169,-0.423C0.16,-0.41 0.155,-0.396 0.155,-0.382L0.064,-0.382C0.064,-0.401 0.069,-0.419 0.079,-0.438C0.089,-0.457 0.103,-0.473 0.121,-0.489C0.14,-0.504 0.162,-0.516 0.188,-0.525C0.214,-0.534 0.243,-0.538 0.274,-0.538C0.313,-0.538 0.347,-0.532 0.376,-0.519C0.406,-0.506 0.429,-0.486 0.446,-0.46C0.462,-0.434 0.471,-0.401 0.471,-0.361L0.471,-0.115C0.471,-0.098 0.472,-0.079 0.475,-0.059C0.478,-0.039 0.483,-0.022 0.489,-0.008L0.489,-0L0.395,-0C0.39,-0.01 0.387,-0.024 0.384,-0.042C0.382,-0.059 0.38,-0.075 0.38,-0.09ZM0.396,-0.32L0.397,-0.257L0.306,-0.257C0.28,-0.257 0.257,-0.255 0.237,-0.251C0.217,-0.247 0.2,-0.241 0.186,-0.232C0.172,-0.224 0.162,-0.214 0.155,-0.202C0.148,-0.19 0.144,-0.175 0.144,-0.159C0.144,-0.143 0.148,-0.127 0.155,-0.114C0.163,-0.1 0.174,-0.089 0.189,-0.081C0.204,-0.073 0.223,-0.069 0.245,-0.069C0.273,-0.069 0.297,-0.075 0.318,-0.087C0.34,-0.099 0.356,-0.113 0.369,-0.13C0.381,-0.147 0.388,-0.163 0.389,-0.179L0.428,-0.136C0.425,-0.122 0.419,-0.107 0.409,-0.09C0.399,-0.074 0.386,-0.058 0.369,-0.043C0.352,-0.028 0.332,-0.015 0.309,-0.005C0.286,0.005 0.261,0.01 0.232,0.01C0.196,0.01 0.165,0.003 0.138,-0.011C0.111,-0.025 0.09,-0.044 0.075,-0.068C0.061,-0.091 0.053,-0.118 0.053,-0.147C0.053,-0.175 0.059,-0.2 0.07,-0.222C0.081,-0.244 0.097,-0.262 0.118,-0.276C0.139,-0.291 0.164,-0.302 0.193,-0.309C0.222,-0.317 0.255,-0.32 0.291,-0.32L0.396,-0.32Z" style="fill-rule:nonzero;"/>
                </g>
                <g transform="matrix(32.8746,-22.7873,22.7873,32.8746,10731.1,4914.62)">
                    <rect x="0.076" y="-0.75" width="0.091" height="0.75" style="fill-rule:nonzero;"/>
                </g>
                <g transform="matrix(32.6731,-23.0753,23.0753,32.6731,10737.7,4910)">
                    <rect x="0.076" y="-0.75" width="0.091" height="0.75" style="fill-rule:nonzero;"/>
                </g>
                <g transform="matrix(32.3156,-23.5733,23.5733,32.3156,10744.4,4905.37)">
                    <path d="M0.288,0.01C0.251,0.01 0.218,0.003 0.188,-0.009C0.158,-0.022 0.133,-0.039 0.112,-0.062C0.09,-0.085 0.074,-0.112 0.063,-0.143C0.051,-0.174 0.045,-0.208 0.045,-0.246L0.045,-0.266C0.045,-0.309 0.052,-0.347 0.064,-0.381C0.077,-0.415 0.094,-0.443 0.116,-0.467C0.138,-0.49 0.163,-0.508 0.19,-0.52C0.218,-0.532 0.247,-0.538 0.276,-0.538C0.314,-0.538 0.347,-0.532 0.374,-0.519C0.402,-0.506 0.424,-0.487 0.442,-0.464C0.459,-0.441 0.472,-0.413 0.481,-0.382C0.489,-0.351 0.494,-0.316 0.494,-0.279L0.494,-0.239L0.099,-0.239L0.099,-0.313L0.403,-0.313L0.403,-0.319C0.402,-0.343 0.397,-0.366 0.389,-0.388C0.381,-0.41 0.368,-0.428 0.35,-0.442C0.332,-0.457 0.307,-0.464 0.276,-0.464C0.256,-0.464 0.237,-0.46 0.22,-0.451C0.202,-0.442 0.188,-0.43 0.175,-0.413C0.163,-0.396 0.153,-0.375 0.146,-0.351C0.14,-0.326 0.136,-0.298 0.136,-0.266L0.136,-0.246C0.136,-0.221 0.14,-0.197 0.147,-0.175C0.154,-0.153 0.164,-0.134 0.177,-0.117C0.191,-0.101 0.207,-0.088 0.227,-0.078C0.246,-0.069 0.268,-0.064 0.293,-0.064C0.325,-0.064 0.352,-0.07 0.374,-0.083C0.396,-0.097 0.416,-0.114 0.432,-0.136L0.487,-0.092C0.475,-0.075 0.461,-0.059 0.443,-0.043C0.426,-0.027 0.404,-0.015 0.379,-0.005C0.353,0.005 0.323,0.01 0.288,0.01Z" style="fill-rule:nonzero;"/>
                </g>
                <g transform="matrix(31.7879,-24.2802,24.2802,31.7879,10760.3,4893.83)">
                    <path d="M0.159,-0.416L0.159,-0L0.069,-0L0.069,-0.528L0.154,-0.528L0.159,-0.416ZM0.138,-0.284L0.1,-0.286C0.1,-0.322 0.106,-0.355 0.116,-0.386C0.127,-0.417 0.141,-0.444 0.16,-0.466C0.179,-0.489 0.202,-0.507 0.228,-0.519C0.254,-0.532 0.283,-0.538 0.315,-0.538C0.341,-0.538 0.364,-0.535 0.385,-0.528C0.406,-0.521 0.424,-0.509 0.439,-0.494C0.454,-0.479 0.465,-0.459 0.473,-0.435C0.48,-0.411 0.484,-0.381 0.484,-0.346L0.484,-0L0.394,-0L0.394,-0.347C0.394,-0.375 0.389,-0.397 0.381,-0.414C0.373,-0.431 0.361,-0.443 0.346,-0.45C0.33,-0.458 0.311,-0.462 0.288,-0.462C0.266,-0.462 0.245,-0.457 0.227,-0.448C0.208,-0.438 0.193,-0.425 0.179,-0.409C0.166,-0.392 0.156,-0.373 0.149,-0.352C0.141,-0.33 0.138,-0.308 0.138,-0.284Z" style="fill-rule:nonzero;"/>
                </g>
                <g transform="matrix(31.2271,-24.9974,24.9974,31.2271,10776.6,4881.4)">
                    <path d="M0.411,-0.528L0.493,-0.528L0.493,-0.011C0.493,0.035 0.484,0.075 0.465,0.108C0.446,0.141 0.42,0.166 0.386,0.183C0.352,0.2 0.313,0.208 0.27,0.208C0.251,0.208 0.23,0.206 0.205,0.2C0.181,0.194 0.157,0.185 0.133,0.171C0.109,0.158 0.09,0.139 0.074,0.117L0.121,0.063C0.143,0.09 0.166,0.108 0.191,0.119C0.215,0.129 0.239,0.134 0.263,0.134C0.291,0.134 0.316,0.129 0.337,0.118C0.358,0.107 0.374,0.092 0.385,0.071C0.397,0.05 0.403,0.024 0.403,-0.007L0.403,-0.412L0.411,-0.528ZM0.047,-0.258L0.047,-0.269C0.047,-0.309 0.052,-0.346 0.062,-0.379C0.071,-0.412 0.085,-0.44 0.103,-0.464C0.121,-0.488 0.143,-0.506 0.169,-0.519C0.195,-0.532 0.224,-0.538 0.256,-0.538C0.289,-0.538 0.318,-0.532 0.343,-0.521C0.368,-0.509 0.389,-0.492 0.406,-0.47C0.424,-0.448 0.438,-0.422 0.448,-0.391C0.458,-0.36 0.465,-0.325 0.469,-0.286L0.469,-0.241C0.465,-0.202 0.458,-0.168 0.448,-0.137C0.438,-0.106 0.424,-0.079 0.406,-0.058C0.389,-0.036 0.368,-0.019 0.343,-0.008C0.318,0.004 0.288,0.01 0.255,0.01C0.223,0.01 0.195,0.003 0.169,-0.01C0.144,-0.024 0.122,-0.042 0.104,-0.066C0.085,-0.09 0.071,-0.119 0.062,-0.152C0.052,-0.184 0.047,-0.22 0.047,-0.258ZM0.138,-0.269L0.138,-0.258C0.138,-0.232 0.14,-0.207 0.146,-0.184C0.151,-0.161 0.159,-0.141 0.171,-0.123C0.182,-0.105 0.196,-0.092 0.214,-0.082C0.231,-0.072 0.252,-0.067 0.277,-0.067C0.307,-0.067 0.332,-0.073 0.351,-0.086C0.371,-0.099 0.386,-0.115 0.398,-0.136C0.409,-0.157 0.418,-0.18 0.425,-0.204L0.425,-0.322C0.421,-0.34 0.416,-0.357 0.408,-0.374C0.401,-0.391 0.392,-0.406 0.38,-0.419C0.369,-0.432 0.354,-0.442 0.337,-0.45C0.32,-0.458 0.301,-0.462 0.278,-0.462C0.253,-0.462 0.232,-0.457 0.214,-0.447C0.196,-0.436 0.182,-0.422 0.171,-0.405C0.159,-0.387 0.151,-0.366 0.146,-0.343C0.14,-0.32 0.138,-0.295 0.138,-0.269Z" style="fill-rule:nonzero;"/>
                </g>
                <g transform="matrix(30.6261,-25.7302,25.7302,30.6261,10792.8,4868.38)">
                    <path d="M0.288,0.01C0.251,0.01 0.218,0.003 0.188,-0.009C0.158,-0.022 0.133,-0.039 0.112,-0.062C0.09,-0.085 0.074,-0.112 0.063,-0.143C0.051,-0.174 0.045,-0.208 0.045,-0.246L0.045,-0.266C0.045,-0.309 0.052,-0.347 0.064,-0.381C0.077,-0.415 0.094,-0.443 0.116,-0.467C0.138,-0.49 0.163,-0.508 0.19,-0.52C0.218,-0.532 0.247,-0.538 0.276,-0.538C0.314,-0.538 0.347,-0.532 0.374,-0.519C0.402,-0.506 0.424,-0.487 0.442,-0.464C0.459,-0.441 0.472,-0.413 0.481,-0.382C0.489,-0.351 0.494,-0.316 0.494,-0.279L0.494,-0.239L0.099,-0.239L0.099,-0.313L0.403,-0.313L0.403,-0.319C0.402,-0.343 0.397,-0.366 0.389,-0.388C0.381,-0.41 0.368,-0.428 0.35,-0.442C0.332,-0.457 0.307,-0.464 0.276,-0.464C0.256,-0.464 0.237,-0.46 0.22,-0.451C0.202,-0.442 0.188,-0.43 0.175,-0.413C0.163,-0.396 0.153,-0.375 0.146,-0.351C0.14,-0.326 0.136,-0.298 0.136,-0.266L0.136,-0.246C0.136,-0.221 0.14,-0.197 0.147,-0.175C0.154,-0.153 0.164,-0.134 0.177,-0.117C0.191,-0.101 0.207,-0.088 0.227,-0.078C0.246,-0.069 0.268,-0.064 0.293,-0.064C0.325,-0.064 0.352,-0.07 0.374,-0.083C0.396,-0.097 0.416,-0.114 0.432,-0.136L0.487,-0.092C0.475,-0.075 0.461,-0.059 0.443,-0.043C0.426,-0.027 0.404,-0.015 0.379,-0.005C0.353,0.005 0.323,0.01 0.288,0.01Z" style="fill-rule:nonzero;"/>
                </g>
                <g transform="matrix(29.2618,-27.2717,27.2717,29.2618,10826.6,4839.28)">
                    <path d="M0.28,-0.064C0.302,-0.064 0.322,-0.069 0.34,-0.078C0.358,-0.086 0.373,-0.099 0.385,-0.114C0.396,-0.129 0.403,-0.147 0.405,-0.167L0.491,-0.167C0.489,-0.136 0.479,-0.107 0.459,-0.08C0.44,-0.053 0.415,-0.031 0.383,-0.015C0.352,0.002 0.318,0.01 0.28,0.01C0.241,0.01 0.206,0.003 0.177,-0.011C0.147,-0.025 0.123,-0.044 0.103,-0.069C0.084,-0.093 0.069,-0.121 0.06,-0.153C0.05,-0.185 0.045,-0.218 0.045,-0.254L0.045,-0.274C0.045,-0.31 0.05,-0.344 0.06,-0.375C0.069,-0.407 0.084,-0.435 0.103,-0.459C0.123,-0.484 0.147,-0.503 0.177,-0.517C0.206,-0.531 0.241,-0.538 0.28,-0.538C0.322,-0.538 0.358,-0.53 0.389,-0.513C0.42,-0.496 0.444,-0.473 0.462,-0.445C0.479,-0.416 0.489,-0.383 0.491,-0.347L0.405,-0.347C0.403,-0.368 0.397,-0.388 0.386,-0.406C0.376,-0.423 0.362,-0.437 0.344,-0.448C0.325,-0.459 0.304,-0.464 0.28,-0.464C0.253,-0.464 0.229,-0.458 0.211,-0.448C0.192,-0.437 0.177,-0.422 0.166,-0.404C0.155,-0.385 0.148,-0.365 0.143,-0.343C0.138,-0.32 0.136,-0.298 0.136,-0.274L0.136,-0.254C0.136,-0.231 0.138,-0.208 0.143,-0.186C0.147,-0.163 0.155,-0.143 0.166,-0.125C0.177,-0.106 0.191,-0.092 0.21,-0.081C0.229,-0.07 0.252,-0.064 0.28,-0.064Z" style="fill-rule:nonzero;"/>
                </g>
                <g transform="matrix(28.6261,-27.9383,27.9383,28.6261,10840.7,4826.1)">
                    <path d="M0.159,-0.75L0.159,-0L0.069,-0L0.069,-0.75L0.159,-0.75ZM0.138,-0.284L0.1,-0.286C0.1,-0.322 0.106,-0.355 0.116,-0.386C0.127,-0.417 0.141,-0.444 0.16,-0.466C0.179,-0.489 0.202,-0.507 0.228,-0.519C0.254,-0.532 0.283,-0.538 0.315,-0.538C0.341,-0.538 0.364,-0.535 0.385,-0.528C0.406,-0.521 0.424,-0.509 0.439,-0.494C0.454,-0.479 0.465,-0.459 0.473,-0.435C0.48,-0.411 0.484,-0.381 0.484,-0.346L0.484,-0L0.394,-0L0.394,-0.347C0.394,-0.375 0.389,-0.397 0.381,-0.414C0.373,-0.431 0.361,-0.443 0.346,-0.45C0.33,-0.458 0.311,-0.462 0.288,-0.462C0.266,-0.462 0.245,-0.457 0.227,-0.448C0.208,-0.438 0.193,-0.425 0.179,-0.409C0.166,-0.392 0.156,-0.373 0.149,-0.352C0.141,-0.33 0.138,-0.308 0.138,-0.284Z" style="fill-rule:nonzero;"/>
                </g>
                <g transform="matrix(27.9544,-28.6104,28.6104,27.9544,10855.4,4811.84)">
                    <path d="M0.38,-0.09L0.38,-0.362C0.38,-0.383 0.376,-0.401 0.368,-0.417C0.36,-0.432 0.347,-0.444 0.331,-0.453C0.314,-0.461 0.293,-0.465 0.269,-0.465C0.246,-0.465 0.226,-0.461 0.209,-0.454C0.192,-0.446 0.179,-0.436 0.169,-0.423C0.16,-0.41 0.155,-0.396 0.155,-0.382L0.064,-0.382C0.064,-0.401 0.069,-0.419 0.079,-0.438C0.089,-0.457 0.103,-0.473 0.121,-0.489C0.14,-0.504 0.162,-0.516 0.188,-0.525C0.214,-0.534 0.243,-0.538 0.274,-0.538C0.313,-0.538 0.347,-0.532 0.376,-0.519C0.406,-0.506 0.429,-0.486 0.446,-0.46C0.462,-0.434 0.471,-0.401 0.471,-0.361L0.471,-0.115C0.471,-0.098 0.472,-0.079 0.475,-0.059C0.478,-0.039 0.483,-0.022 0.489,-0.008L0.489,-0L0.395,-0C0.39,-0.01 0.387,-0.024 0.384,-0.042C0.382,-0.059 0.38,-0.075 0.38,-0.09ZM0.396,-0.32L0.397,-0.257L0.306,-0.257C0.28,-0.257 0.257,-0.255 0.237,-0.251C0.217,-0.247 0.2,-0.241 0.186,-0.232C0.172,-0.224 0.162,-0.214 0.155,-0.202C0.148,-0.19 0.144,-0.175 0.144,-0.159C0.144,-0.143 0.148,-0.127 0.155,-0.114C0.163,-0.1 0.174,-0.089 0.189,-0.081C0.204,-0.073 0.223,-0.069 0.245,-0.069C0.273,-0.069 0.297,-0.075 0.318,-0.087C0.34,-0.099 0.356,-0.113 0.369,-0.13C0.381,-0.147 0.388,-0.163 0.389,-0.179L0.428,-0.136C0.425,-0.122 0.419,-0.107 0.409,-0.09C0.399,-0.074 0.386,-0.058 0.369,-0.043C0.352,-0.028 0.332,-0.015 0.309,-0.005C0.286,0.005 0.261,0.01 0.232,0.01C0.196,0.01 0.165,0.003 0.138,-0.011C0.111,-0.025 0.09,-0.044 0.075,-0.068C0.061,-0.091 0.053,-0.118 0.053,-0.147C0.053,-0.175 0.059,-0.2 0.07,-0.222C0.081,-0.244 0.097,-0.262 0.118,-0.276C0.139,-0.291 0.164,-0.302 0.193,-0.309C0.222,-0.317 0.255,-0.32 0.291,-0.32L0.396,-0.32Z" style="fill-rule:nonzero;"/>
                </g>
                <g transform="matrix(27.2608,-29.2719,29.2719,27.2608,10869.5,4797.44)">
                    <path d="M0.159,-0.416L0.159,-0L0.069,-0L0.069,-0.528L0.154,-0.528L0.159,-0.416ZM0.138,-0.284L0.1,-0.286C0.1,-0.322 0.106,-0.355 0.116,-0.386C0.127,-0.417 0.141,-0.444 0.16,-0.466C0.179,-0.489 0.202,-0.507 0.228,-0.519C0.254,-0.532 0.283,-0.538 0.315,-0.538C0.341,-0.538 0.364,-0.535 0.385,-0.528C0.406,-0.521 0.424,-0.509 0.439,-0.494C0.454,-0.479 0.465,-0.459 0.473,-0.435C0.48,-0.411 0.484,-0.381 0.484,-0.346L0.484,-0L0.394,-0L0.394,-0.347C0.394,-0.375 0.389,-0.397 0.381,-0.414C0.373,-0.431 0.361,-0.443 0.346,-0.45C0.33,-0.458 0.311,-0.462 0.288,-0.462C0.266,-0.462 0.245,-0.457 0.227,-0.448C0.208,-0.438 0.193,-0.425 0.179,-0.409C0.166,-0.392 0.156,-0.373 0.149,-0.352C0.141,-0.33 0.138,-0.308 0.138,-0.284Z" style="fill-rule:nonzero;"/>
                </g>
                <g transform="matrix(26.5565,-29.9124,29.9124,26.5565,10883.5,4782.46)">
                    <path d="M0.411,-0.528L0.493,-0.528L0.493,-0.011C0.493,0.035 0.484,0.075 0.465,0.108C0.446,0.141 0.42,0.166 0.386,0.183C0.352,0.2 0.313,0.208 0.27,0.208C0.251,0.208 0.23,0.206 0.205,0.2C0.181,0.194 0.157,0.185 0.133,0.171C0.109,0.158 0.09,0.139 0.074,0.117L0.121,0.063C0.143,0.09 0.166,0.108 0.191,0.119C0.215,0.129 0.239,0.134 0.263,0.134C0.291,0.134 0.316,0.129 0.337,0.118C0.358,0.107 0.374,0.092 0.385,0.071C0.397,0.05 0.403,0.024 0.403,-0.007L0.403,-0.412L0.411,-0.528ZM0.047,-0.258L0.047,-0.269C0.047,-0.309 0.052,-0.346 0.062,-0.379C0.071,-0.412 0.085,-0.44 0.103,-0.464C0.121,-0.488 0.143,-0.506 0.169,-0.519C0.195,-0.532 0.224,-0.538 0.256,-0.538C0.289,-0.538 0.318,-0.532 0.343,-0.521C0.368,-0.509 0.389,-0.492 0.406,-0.47C0.424,-0.448 0.438,-0.422 0.448,-0.391C0.458,-0.36 0.465,-0.325 0.469,-0.286L0.469,-0.241C0.465,-0.202 0.458,-0.168 0.448,-0.137C0.438,-0.106 0.424,-0.079 0.406,-0.058C0.389,-0.036 0.368,-0.019 0.343,-0.008C0.318,0.004 0.288,0.01 0.255,0.01C0.223,0.01 0.195,0.003 0.169,-0.01C0.144,-0.024 0.122,-0.042 0.104,-0.066C0.085,-0.09 0.071,-0.119 0.062,-0.152C0.052,-0.184 0.047,-0.22 0.047,-0.258ZM0.138,-0.269L0.138,-0.258C0.138,-0.232 0.14,-0.207 0.146,-0.184C0.151,-0.161 0.159,-0.141 0.171,-0.123C0.182,-0.105 0.196,-0.092 0.214,-0.082C0.231,-0.072 0.252,-0.067 0.277,-0.067C0.307,-0.067 0.332,-0.073 0.351,-0.086C0.371,-0.099 0.386,-0.115 0.398,-0.136C0.409,-0.157 0.418,-0.18 0.425,-0.204L0.425,-0.322C0.421,-0.34 0.416,-0.357 0.408,-0.374C0.401,-0.391 0.392,-0.406 0.38,-0.419C0.369,-0.432 0.354,-0.442 0.337,-0.45C0.32,-0.458 0.301,-0.462 0.278,-0.462C0.253,-0.462 0.232,-0.457 0.214,-0.447C0.196,-0.436 0.182,-0.422 0.171,-0.405C0.159,-0.387 0.151,-0.366 0.146,-0.343C0.14,-0.32 0.138,-0.295 0.138,-0.269Z" style="fill-rule:nonzero;"/>
                </g>
                <g transform="matrix(25.815,-30.5546,30.5546,25.815,10897.3,4766.83)">
                    <path d="M0.288,0.01C0.251,0.01 0.218,0.003 0.188,-0.009C0.158,-0.022 0.133,-0.039 0.112,-0.062C0.09,-0.085 0.074,-0.112 0.063,-0.143C0.051,-0.174 0.045,-0.208 0.045,-0.246L0.045,-0.266C0.045,-0.309 0.052,-0.347 0.064,-0.381C0.077,-0.415 0.094,-0.443 0.116,-0.467C0.138,-0.49 0.163,-0.508 0.19,-0.52C0.218,-0.532 0.247,-0.538 0.276,-0.538C0.314,-0.538 0.347,-0.532 0.374,-0.519C0.402,-0.506 0.424,-0.487 0.442,-0.464C0.459,-0.441 0.472,-0.413 0.481,-0.382C0.489,-0.351 0.494,-0.316 0.494,-0.279L0.494,-0.239L0.099,-0.239L0.099,-0.313L0.403,-0.313L0.403,-0.319C0.402,-0.343 0.397,-0.366 0.389,-0.388C0.381,-0.41 0.368,-0.428 0.35,-0.442C0.332,-0.457 0.307,-0.464 0.276,-0.464C0.256,-0.464 0.237,-0.46 0.22,-0.451C0.202,-0.442 0.188,-0.43 0.175,-0.413C0.163,-0.396 0.153,-0.375 0.146,-0.351C0.14,-0.326 0.136,-0.298 0.136,-0.266L0.136,-0.246C0.136,-0.221 0.14,-0.197 0.147,-0.175C0.154,-0.153 0.164,-0.134 0.177,-0.117C0.191,-0.101 0.207,-0.088 0.227,-0.078C0.246,-0.069 0.268,-0.064 0.293,-0.064C0.325,-0.064 0.352,-0.07 0.374,-0.083C0.396,-0.097 0.416,-0.114 0.432,-0.136L0.487,-0.092C0.475,-0.075 0.461,-0.059 0.443,-0.043C0.426,-0.027 0.404,-0.015 0.379,-0.005C0.353,0.005 0.323,0.01 0.288,0.01Z" style="fill-rule:nonzero;"/>
                </g>
                <g transform="matrix(24.1858,-31.8598,31.8598,24.1858,10925.6,4732.43)">
                    <path d="M0.159,-0.416L0.159,-0L0.069,-0L0.069,-0.528L0.154,-0.528L0.159,-0.416ZM0.138,-0.284L0.1,-0.286C0.1,-0.322 0.106,-0.355 0.116,-0.386C0.127,-0.417 0.141,-0.444 0.16,-0.466C0.179,-0.489 0.202,-0.507 0.228,-0.519C0.254,-0.532 0.283,-0.538 0.315,-0.538C0.341,-0.538 0.364,-0.535 0.385,-0.528C0.406,-0.521 0.424,-0.509 0.439,-0.494C0.454,-0.479 0.465,-0.459 0.473,-0.435C0.48,-0.411 0.484,-0.381 0.484,-0.346L0.484,-0L0.394,-0L0.394,-0.347C0.394,-0.375 0.389,-0.397 0.381,-0.414C0.373,-0.431 0.361,-0.443 0.346,-0.45C0.33,-0.458 0.311,-0.462 0.288,-0.462C0.266,-0.462 0.245,-0.457 0.227,-0.448C0.208,-0.438 0.193,-0.425 0.179,-0.409C0.166,-0.392 0.156,-0.373 0.149,-0.352C0.141,-0.33 0.138,-0.308 0.138,-0.284Z" style="fill-rule:nonzero;"/>
                </g>
                <g transform="matrix(23.4349,-32.4161,32.4161,23.4349,10938,4716.1)">
                    <path d="M0.38,-0.09L0.38,-0.362C0.38,-0.383 0.376,-0.401 0.368,-0.417C0.36,-0.432 0.347,-0.444 0.331,-0.453C0.314,-0.461 0.293,-0.465 0.269,-0.465C0.246,-0.465 0.226,-0.461 0.209,-0.454C0.192,-0.446 0.179,-0.436 0.169,-0.423C0.16,-0.41 0.155,-0.396 0.155,-0.382L0.064,-0.382C0.064,-0.401 0.069,-0.419 0.079,-0.438C0.089,-0.457 0.103,-0.473 0.121,-0.489C0.14,-0.504 0.162,-0.516 0.188,-0.525C0.214,-0.534 0.243,-0.538 0.274,-0.538C0.313,-0.538 0.347,-0.532 0.376,-0.519C0.406,-0.506 0.429,-0.486 0.446,-0.46C0.462,-0.434 0.471,-0.401 0.471,-0.361L0.471,-0.115C0.471,-0.098 0.472,-0.079 0.475,-0.059C0.478,-0.039 0.483,-0.022 0.489,-0.008L0.489,-0L0.395,-0C0.39,-0.01 0.387,-0.024 0.384,-0.042C0.382,-0.059 0.38,-0.075 0.38,-0.09ZM0.396,-0.32L0.397,-0.257L0.306,-0.257C0.28,-0.257 0.257,-0.255 0.237,-0.251C0.217,-0.247 0.2,-0.241 0.186,-0.232C0.172,-0.224 0.162,-0.214 0.155,-0.202C0.148,-0.19 0.144,-0.175 0.144,-0.159C0.144,-0.143 0.148,-0.127 0.155,-0.114C0.163,-0.1 0.174,-0.089 0.189,-0.081C0.204,-0.073 0.223,-0.069 0.245,-0.069C0.273,-0.069 0.297,-0.075 0.318,-0.087C0.34,-0.099 0.356,-0.113 0.369,-0.13C0.381,-0.147 0.388,-0.163 0.389,-0.179L0.428,-0.136C0.425,-0.122 0.419,-0.107 0.409,-0.09C0.399,-0.074 0.386,-0.058 0.369,-0.043C0.352,-0.028 0.332,-0.015 0.309,-0.005C0.286,0.005 0.261,0.01 0.232,0.01C0.196,0.01 0.165,0.003 0.138,-0.011C0.111,-0.025 0.09,-0.044 0.075,-0.068C0.061,-0.091 0.053,-0.118 0.053,-0.147C0.053,-0.175 0.059,-0.2 0.07,-0.222C0.081,-0.244 0.097,-0.262 0.118,-0.276C0.139,-0.291 0.164,-0.302 0.193,-0.309C0.222,-0.317 0.255,-0.32 0.291,-0.32L0.396,-0.32Z" style="fill-rule:nonzero;"/>
                </g>
                <g transform="matrix(22.8691,-32.8178,32.8178,22.8691,10949.8,4699.77)">
                    <path d="M0.29,-0.528L0.29,-0.459L0.004,-0.459L0.004,-0.528L0.29,-0.528ZM0.101,-0.657L0.191,-0.657L0.191,-0.131C0.191,-0.113 0.194,-0.099 0.2,-0.09C0.205,-0.081 0.212,-0.075 0.221,-0.072C0.23,-0.069 0.239,-0.068 0.25,-0.068C0.257,-0.068 0.265,-0.069 0.273,-0.07C0.281,-0.072 0.288,-0.073 0.292,-0.074L0.292,-0C0.285,0.002 0.276,0.004 0.264,0.007C0.253,0.009 0.239,0.01 0.223,0.01C0.201,0.01 0.18,0.005 0.162,-0.003C0.143,-0.012 0.128,-0.027 0.117,-0.048C0.107,-0.068 0.101,-0.096 0.101,-0.131L0.101,-0.657Z" style="fill-rule:nonzero;"/>
                </g>
                <g transform="matrix(22.2521,-33.2392,33.2392,22.2521,10956.4,4690.39)">
                    <path d="M0.392,-0.122L0.392,-0.528L0.483,-0.528L0.483,-0L0.396,-0L0.392,-0.122ZM0.409,-0.233L0.447,-0.234C0.447,-0.199 0.443,-0.167 0.436,-0.137C0.428,-0.107 0.417,-0.081 0.4,-0.06C0.384,-0.038 0.363,-0.021 0.336,-0.009C0.31,0.004 0.278,0.01 0.24,0.01C0.215,0.01 0.191,0.006 0.17,-0.001C0.148,-0.009 0.13,-0.021 0.115,-0.036C0.099,-0.052 0.088,-0.072 0.079,-0.097C0.071,-0.122 0.067,-0.152 0.067,-0.188L0.067,-0.528L0.157,-0.528L0.157,-0.187C0.157,-0.163 0.16,-0.143 0.165,-0.128C0.171,-0.112 0.178,-0.1 0.187,-0.091C0.197,-0.082 0.207,-0.076 0.219,-0.072C0.23,-0.069 0.242,-0.067 0.254,-0.067C0.293,-0.067 0.323,-0.074 0.346,-0.089C0.368,-0.104 0.384,-0.124 0.394,-0.149C0.404,-0.174 0.409,-0.202 0.409,-0.233Z" style="fill-rule:nonzero;"/>
                </g>
                <g transform="matrix(21.6032,-33.6645,33.6645,21.6032,10967.8,4673.36)">
                    <path d="M0.159,-0.445L0.159,-0L0.069,-0L0.069,-0.528L0.157,-0.528L0.159,-0.445ZM0.324,-0.531L0.324,-0.447C0.316,-0.449 0.309,-0.45 0.302,-0.45C0.296,-0.451 0.288,-0.451 0.28,-0.451C0.259,-0.451 0.241,-0.448 0.225,-0.441C0.209,-0.435 0.195,-0.426 0.184,-0.414C0.173,-0.402 0.164,-0.388 0.158,-0.372C0.152,-0.356 0.147,-0.339 0.146,-0.319L0.12,-0.305C0.12,-0.337 0.123,-0.367 0.13,-0.395C0.136,-0.423 0.146,-0.447 0.159,-0.469C0.173,-0.491 0.19,-0.508 0.21,-0.52C0.231,-0.532 0.256,-0.538 0.284,-0.538C0.291,-0.538 0.298,-0.537 0.307,-0.536C0.315,-0.534 0.321,-0.533 0.324,-0.531Z" style="fill-rule:nonzero;"/>
                </g>
                <g transform="matrix(21.0454,-34.016,34.016,21.0454,10974.3,4663.3)">
                    <path d="M0.288,0.01C0.251,0.01 0.218,0.003 0.188,-0.009C0.158,-0.022 0.133,-0.039 0.112,-0.062C0.09,-0.085 0.074,-0.112 0.063,-0.143C0.051,-0.174 0.045,-0.208 0.045,-0.246L0.045,-0.266C0.045,-0.309 0.052,-0.347 0.064,-0.381C0.077,-0.415 0.094,-0.443 0.116,-0.467C0.138,-0.49 0.163,-0.508 0.19,-0.52C0.218,-0.532 0.247,-0.538 0.276,-0.538C0.314,-0.538 0.347,-0.532 0.374,-0.519C0.402,-0.506 0.424,-0.487 0.442,-0.464C0.459,-0.441 0.472,-0.413 0.481,-0.382C0.489,-0.351 0.494,-0.316 0.494,-0.279L0.494,-0.239L0.099,-0.239L0.099,-0.313L0.403,-0.313L0.403,-0.319C0.402,-0.343 0.397,-0.366 0.389,-0.388C0.381,-0.41 0.368,-0.428 0.35,-0.442C0.332,-0.457 0.307,-0.464 0.276,-0.464C0.256,-0.464 0.237,-0.46 0.22,-0.451C0.202,-0.442 0.188,-0.43 0.175,-0.413C0.163,-0.396 0.153,-0.375 0.146,-0.351C0.14,-0.326 0.136,-0.298 0.136,-0.266L0.136,-0.246C0.136,-0.221 0.14,-0.197 0.147,-0.175C0.154,-0.153 0.164,-0.134 0.177,-0.117C0.191,-0.101 0.207,-0.088 0.227,-0.078C0.246,-0.069 0.268,-0.064 0.293,-0.064C0.325,-0.064 0.352,-0.07 0.374,-0.083C0.396,-0.097 0.416,-0.114 0.432,-0.136L0.487,-0.092C0.475,-0.075 0.461,-0.059 0.443,-0.043C0.426,-0.027 0.404,-0.015 0.379,-0.005C0.353,0.005 0.323,0.01 0.288,0.01Z" style="fill-rule:nonzero;"/>
                </g>
            </g>
        </g>
    </g>
</svg>
