<?xml version="1.0" encoding="UTF-8" standalone="no"?>
<!DOCTYPE svg PUBLIC "-//W3C//DTD SVG 1.1//EN" "http://www.w3.org/Graphics/SVG/1.1/DTD/svg11.dtd">
<svg width="100%" height="100%" viewBox="0 0 502 102" version="1.1" xmlns="http://www.w3.org/2000/svg" xmlns:xlink="http://www.w3.org/1999/xlink" xml:space="preserve" xmlns:serif="http://www.serif.com/" style="fill-rule:evenodd;clip-rule:evenodd;stroke-linejoin:round;stroke-miterlimit:2;">
    <g transform="matrix(1,0,0,1,-7154.67,-4578.72)">
        <g id="island_anotherPersonality" transform="matrix(1,0,0,1,1814.6,-498.454)">
            <rect x="5340.07" y="5077.17" width="501.165" height="101.964" style="fill:none;"/>
            <clipPath id="_clip1">
                <rect x="5340.07" y="5077.17" width="501.165" height="101.964"/>
            </clipPath>
            <g clip-path="url(#_clip1)">
                <g transform="matrix(3.08914,0,0,0.842156,-3564.12,3422.38)">
                    <path d="M2882.42,2049.99L2901.81,2049.99L2901.81,2006.45L2922.82,2006.45L2922.82,1964.95L3044.65,1964.95L3044.65,2086.02L2882.42,2086.02L2882.42,2049.99Z" style="fill:rgb(255,102,159);"/>
                </g>
                <g transform="matrix(1,0,-4.93038e-32,1,3194.66,3415.13)">
                    <path d="M2263.76,1696.99L2274.83,1725.95L2269.03,1725.95L2264.97,1714.79L2247.13,1714.79L2243.08,1725.95L2237.3,1725.95L2248.34,1696.99L2253.59,1696.99L2248.81,1710.16L2263.28,1710.16L2258.49,1696.99L2263.76,1696.99ZM2253.04,1764.01L2253.04,1731.71L2258.02,1731.71L2258.29,1735.19L2258.3,1735.18C2259.36,1733.86 2260.66,1732.86 2262.18,1732.16C2263.7,1731.47 2265.46,1731.12 2267.45,1731.12C2269.44,1731.12 2271.21,1731.51 2272.76,1732.28C2274.3,1733.05 2275.6,1734.15 2276.65,1735.58C2277.71,1737 2278.5,1738.7 2279.04,1740.69C2279.58,1742.67 2279.85,1744.87 2279.85,1747.29L2279.85,1747.91C2279.85,1750.21 2279.57,1752.35 2279.03,1754.31C2278.48,1756.27 2277.68,1757.98 2276.64,1759.42C2275.59,1760.87 2274.31,1761.99 2272.78,1762.79C2271.26,1763.59 2269.51,1763.99 2267.54,1763.99C2265.53,1763.99 2263.75,1763.66 2262.21,1763C2260.76,1762.38 2259.52,1761.49 2258.49,1760.33L2258.49,1764.01L2253.04,1764.01ZM2258.49,1755.18C2258.55,1755.3 2258.62,1755.42 2258.69,1755.54C2259.4,1756.74 2260.33,1757.71 2261.51,1758.44C2262.68,1759.17 2264.15,1759.54 2265.93,1759.54C2267.39,1759.54 2268.66,1759.23 2269.72,1758.62C2270.79,1758 2271.67,1757.16 2272.36,1756.08C2273.05,1755.01 2273.57,1753.77 2273.9,1752.38C2274.23,1750.98 2274.4,1749.49 2274.4,1747.91L2274.4,1747.29C2274.4,1745.71 2274.23,1744.22 2273.9,1742.83C2273.57,1741.43 2273.05,1740.2 2272.36,1739.13C2271.67,1738.07 2270.78,1737.23 2269.71,1736.62C2268.63,1736 2267.36,1735.69 2265.87,1735.69C2264.5,1735.69 2263.32,1735.93 2262.31,1736.4C2261.3,1736.86 2260.45,1737.49 2259.75,1738.29C2259.26,1738.83 2258.85,1739.42 2258.49,1740.06L2258.49,1755.18ZM2502.16,1764.01L2502.5,1763.07L2491.19,1731.71L2497.11,1731.71L2505.04,1755.42L2512.4,1731.71L2518.2,1731.71L2506.97,1764.01L2502.16,1764.01ZM2282.74,1703.34L2282.74,1725.95L2277.33,1725.95L2277.33,1694.25L2282.45,1694.25L2282.62,1698.19C2282.68,1698.12 2282.74,1698.05 2282.8,1697.97C2283.94,1696.6 2285.29,1695.54 2286.86,1694.79C2288.43,1694.04 2290.18,1693.66 2292.09,1693.66C2293.65,1693.66 2295.06,1693.87 2296.31,1694.29C2297.56,1694.71 2298.63,1695.38 2299.52,1696.3C2300.41,1697.22 2301.09,1698.41 2301.55,1699.86C2302.02,1701.32 2302.26,1703.09 2302.26,1705.18L2302.26,1725.95L2296.81,1725.95L2296.81,1705.12C2296.81,1703.46 2296.56,1702.13 2296.08,1701.12C2295.59,1700.12 2294.87,1699.38 2293.94,1698.92C2293,1698.46 2291.85,1698.24 2290.48,1698.24C2289.13,1698.24 2287.91,1698.52 2286.8,1699.08C2285.7,1699.65 2284.75,1700.43 2283.96,1701.43C2283.49,1702.02 2283.09,1702.65 2282.74,1703.34ZM2306.62,1710.45L2306.62,1709.78C2306.62,1707.49 2306.96,1705.37 2307.62,1703.41C2308.28,1701.44 2309.24,1699.73 2310.49,1698.28C2311.74,1696.82 2313.26,1695.69 2315.03,1694.88C2316.81,1694.07 2318.8,1693.66 2321.01,1693.66C2323.24,1693.66 2325.24,1694.07 2327.03,1694.88C2328.82,1695.69 2330.34,1696.82 2331.6,1698.28C2332.86,1699.73 2333.82,1701.44 2334.49,1703.41C2335.15,1705.37 2335.48,1707.49 2335.48,1709.78L2335.48,1710.45C2335.48,1712.74 2335.15,1714.86 2334.49,1716.81C2333.82,1718.76 2332.86,1720.47 2331.6,1721.92C2330.34,1723.38 2328.83,1724.51 2327.06,1725.32C2325.29,1726.13 2323.29,1726.54 2321.07,1726.54C2318.84,1726.54 2316.84,1726.13 2315.06,1725.32C2313.28,1724.51 2311.77,1723.38 2310.51,1721.92C2309.25,1720.47 2308.28,1718.76 2307.62,1716.81C2306.96,1714.86 2306.62,1712.74 2306.62,1710.45ZM2312.04,1709.78L2312.04,1710.45C2312.04,1712.03 2312.23,1713.52 2312.6,1714.92C2312.97,1716.32 2313.53,1717.55 2314.29,1718.62C2315.04,1719.7 2315.98,1720.54 2317.11,1721.16C2318.25,1721.78 2319.56,1722.08 2321.07,1722.08C2322.55,1722.08 2323.86,1721.78 2324.98,1721.16C2326.1,1720.54 2327.03,1719.7 2327.78,1718.62C2328.52,1717.55 2329.08,1716.32 2329.46,1714.92C2329.84,1713.52 2330.03,1712.03 2330.03,1710.45L2330.03,1709.78C2330.03,1708.22 2329.84,1706.74 2329.46,1705.34C2329.08,1703.94 2328.51,1702.7 2327.76,1701.62C2327.01,1700.53 2326.07,1699.68 2324.95,1699.06C2323.83,1698.43 2322.51,1698.12 2321.01,1698.12C2319.53,1698.12 2318.22,1698.43 2317.1,1699.06C2315.97,1699.68 2315.04,1700.53 2314.29,1701.62C2313.53,1702.7 2312.97,1703.94 2312.6,1705.34C2312.23,1706.74 2312.04,1708.22 2312.04,1709.78ZM2341.81,1698.41L2336.01,1698.41L2336.01,1694.25L2341.81,1694.25L2341.81,1686.55L2347.23,1686.55L2347.23,1694.25L2353.15,1694.25L2353.15,1698.41L2347.23,1698.41L2347.23,1718.1C2347.23,1719.17 2347.4,1719.98 2347.73,1720.53C2348.06,1721.08 2348.49,1721.44 2349.02,1721.61C2349.55,1721.79 2350.11,1721.88 2350.72,1721.88C2351.17,1721.88 2351.64,1721.83 2352.14,1721.75C2352.64,1721.66 2353.01,1721.58 2353.27,1721.53L2353.3,1725.95C2352.87,1726.09 2352.31,1726.22 2351.61,1726.35C2350.92,1726.47 2350.08,1726.54 2349.11,1726.54C2347.78,1726.54 2346.56,1726.27 2345.45,1725.74C2344.33,1725.22 2343.45,1724.33 2342.79,1723.09C2342.14,1721.85 2341.81,1720.18 2341.81,1718.07L2341.81,1698.41ZM2362.53,1703.34L2362.53,1725.95L2357.11,1725.95L2357.11,1680.95L2362.53,1680.95L2362.53,1698.04L2362.59,1697.97C2363.72,1696.6 2365.07,1695.54 2366.64,1694.79C2368.22,1694.04 2369.96,1693.66 2371.87,1693.66C2373.44,1693.66 2374.84,1693.87 2376.09,1694.29C2377.34,1694.71 2378.41,1695.38 2379.3,1696.3C2380.19,1697.22 2380.87,1698.41 2381.34,1699.86C2381.8,1701.32 2382.04,1703.09 2382.04,1705.18L2382.04,1725.95L2376.59,1725.95L2376.59,1705.12C2376.59,1703.46 2376.35,1702.13 2375.86,1701.12C2375.37,1700.12 2374.66,1699.38 2373.72,1698.92C2372.78,1698.46 2371.63,1698.24 2370.26,1698.24C2368.91,1698.24 2367.69,1698.52 2366.59,1699.08C2365.48,1699.65 2364.53,1700.43 2363.74,1701.43C2363.28,1702.02 2362.87,1702.65 2362.53,1703.34ZM2391.8,1711.62C2391.84,1712.97 2392.05,1714.25 2392.43,1715.45C2392.85,1716.77 2393.46,1717.92 2394.27,1718.92C2395.08,1719.91 2396.07,1720.7 2397.23,1721.26C2398.39,1721.83 2399.72,1722.11 2401.2,1722.11C2403.12,1722.11 2404.74,1721.72 2406.07,1720.94C2407.39,1720.16 2408.55,1719.11 2409.55,1717.81L2412.83,1720.41C2412.15,1721.45 2411.28,1722.43 2410.22,1723.37C2409.17,1724.31 2407.88,1725.07 2406.34,1725.66C2404.81,1726.24 2403,1726.54 2400.91,1726.54C2398.7,1726.54 2396.7,1726.16 2394.92,1725.41C2393.13,1724.66 2391.6,1723.6 2390.32,1722.23C2389.04,1720.86 2388.06,1719.24 2387.37,1717.37C2386.69,1715.49 2386.35,1713.44 2386.35,1711.21L2386.35,1709.98C2386.35,1707.4 2386.73,1705.11 2387.49,1703.08C2388.25,1701.06 2389.29,1699.35 2390.6,1697.94C2391.91,1696.54 2393.39,1695.47 2395.05,1694.75C2396.71,1694.03 2398.43,1693.66 2400.21,1693.66C2402.47,1693.66 2404.43,1694.06 2406.08,1694.84C2407.73,1695.62 2409.08,1696.71 2410.14,1698.1C2411.19,1699.5 2411.97,1701.14 2412.48,1703.03C2412.99,1704.91 2413.24,1706.97 2413.24,1709.19L2413.24,1711.62L2391.8,1711.62ZM2391.96,1707.2L2407.82,1707.2L2407.82,1706.79C2407.74,1705.38 2407.46,1704.02 2406.96,1702.69C2406.46,1701.36 2405.68,1700.27 2404.6,1699.41C2403.53,1698.55 2402.06,1698.12 2400.21,1698.12C2398.97,1698.12 2397.84,1698.38 2396.81,1698.89C2395.77,1699.41 2394.88,1700.18 2394.14,1701.19C2393.4,1702.21 2392.82,1703.45 2392.41,1704.91C2392.21,1705.62 2392.06,1706.38 2391.96,1707.2ZM2422.59,1703.43L2422.59,1725.95L2417.17,1725.95L2417.17,1694.25L2422.44,1694.25L2422.55,1697.88L2422.59,1697.81C2423.39,1696.51 2424.41,1695.5 2425.65,1694.76C2426.89,1694.03 2428.37,1693.66 2430.09,1693.66C2430.48,1693.66 2430.93,1693.71 2431.44,1693.8C2431.95,1693.88 2432.3,1693.98 2432.49,1694.08L2432.46,1699.11C2432.01,1699.02 2431.59,1698.95 2431.19,1698.92C2430.79,1698.89 2430.34,1698.88 2429.83,1698.88C2428.58,1698.88 2427.47,1699.08 2426.52,1699.47C2425.56,1699.86 2424.75,1700.4 2424.09,1701.11C2423.46,1701.77 2422.97,1702.54 2422.59,1703.43ZM2288.41,1749.08C2288.44,1750.43 2288.65,1751.71 2289.03,1752.9C2289.45,1754.22 2290.07,1755.38 2290.88,1756.38C2291.69,1757.37 2292.67,1758.15 2293.84,1758.72C2295,1759.29 2296.32,1759.57 2297.81,1759.57C2299.72,1759.57 2301.34,1759.18 2302.67,1758.4C2304,1757.62 2305.16,1756.57 2306.16,1755.26L2309.44,1757.87C2308.75,1758.9 2307.88,1759.89 2306.83,1760.83C2305.78,1761.77 2304.48,1762.53 2302.95,1763.11C2301.41,1763.7 2299.6,1763.99 2297.51,1763.99C2295.31,1763.99 2293.31,1763.62 2291.52,1762.87C2289.74,1762.11 2288.2,1761.05 2286.92,1759.69C2285.64,1758.32 2284.66,1756.7 2283.98,1754.82C2283.29,1752.95 2282.95,1750.9 2282.95,1748.67L2282.95,1747.44C2282.95,1744.86 2283.33,1742.56 2284.1,1740.54C2284.86,1738.52 2285.89,1736.81 2287.2,1735.4C2288.51,1733.99 2289.99,1732.93 2291.65,1732.21C2293.31,1731.48 2295.03,1731.12 2296.81,1731.12C2299.08,1731.12 2301.03,1731.51 2302.68,1732.29C2304.33,1733.08 2305.69,1734.16 2306.74,1735.56C2307.8,1736.96 2308.58,1738.6 2309.09,1740.48C2309.59,1742.37 2309.85,1744.42 2309.85,1746.65L2309.85,1749.08L2288.41,1749.08ZM2288.57,1744.66L2304.43,1744.66L2304.43,1744.25C2304.35,1742.84 2304.06,1741.47 2303.56,1740.15C2303.07,1738.82 2302.28,1737.72 2301.2,1736.86C2300.13,1736.01 2298.67,1735.58 2296.81,1735.58C2295.58,1735.58 2294.45,1735.83 2293.41,1736.35C2292.38,1736.87 2291.49,1737.64 2290.75,1738.65C2290,1739.67 2289.43,1740.91 2289.02,1742.37C2288.82,1743.08 2288.67,1743.84 2288.57,1744.66ZM2319.2,1740.89L2319.2,1763.41L2313.78,1763.41L2313.78,1731.71L2319.05,1731.71L2319.16,1735.33L2319.2,1735.27C2320,1733.97 2321.02,1732.95 2322.26,1732.22C2323.5,1731.49 2324.98,1731.12 2326.7,1731.12C2327.09,1731.12 2327.53,1731.17 2328.04,1731.25C2328.55,1731.34 2328.9,1731.43 2329.1,1731.53L2329.07,1736.57C2328.62,1736.47 2328.19,1736.41 2327.79,1736.38C2327.39,1736.35 2326.94,1736.34 2326.43,1736.34C2325.18,1736.34 2324.08,1736.53 2323.12,1736.92C2322.16,1737.31 2321.35,1737.86 2320.69,1738.56C2320.07,1739.22 2319.57,1740 2319.2,1740.89ZM2350.16,1755C2350.16,1754.22 2349.99,1753.49 2349.65,1752.82C2349.31,1752.14 2348.62,1751.53 2347.57,1750.97C2346.53,1750.41 2344.96,1749.93 2342.87,1749.52C2341.11,1749.15 2339.53,1748.71 2338.11,1748.2C2336.69,1747.69 2335.49,1747.08 2334.51,1746.36C2333.52,1745.63 2332.76,1744.78 2332.24,1743.81C2331.71,1742.83 2331.44,1741.69 2331.44,1740.38C2331.44,1739.13 2331.72,1737.95 2332.28,1736.84C2332.84,1735.72 2333.63,1734.74 2334.65,1733.88C2335.68,1733.02 2336.91,1732.34 2338.36,1731.85C2339.8,1731.37 2341.41,1731.12 2343.19,1731.12C2345.73,1731.12 2347.9,1731.57 2349.7,1732.47C2351.49,1733.37 2352.87,1734.56 2353.83,1736.06C2354.78,1737.55 2355.26,1739.21 2355.26,1741.02L2349.84,1741.02C2349.84,1740.15 2349.58,1739.29 2349.07,1738.46C2348.55,1737.63 2347.8,1736.94 2346.81,1736.4C2345.82,1735.85 2344.62,1735.58 2343.19,1735.58C2341.69,1735.58 2340.47,1735.81 2339.54,1736.26C2338.62,1736.72 2337.94,1737.3 2337.52,1738.01C2337.1,1738.71 2336.89,1739.45 2336.89,1740.23C2336.89,1740.82 2336.99,1741.34 2337.2,1741.8C2337.41,1742.26 2337.77,1742.68 2338.3,1743.06C2338.83,1743.44 2339.57,1743.8 2340.53,1744.13C2341.48,1744.46 2342.7,1744.79 2344.19,1745.13C2346.78,1745.71 2348.92,1746.41 2350.6,1747.24C2352.28,1748.06 2353.53,1749.06 2354.35,1750.25C2355.17,1751.44 2355.58,1752.89 2355.58,1754.59C2355.58,1755.98 2355.3,1757.25 2354.72,1758.4C2354.14,1759.55 2353.31,1760.54 2352.23,1761.37C2351.15,1762.2 2349.86,1762.85 2348.36,1763.31C2346.87,1763.76 2345.19,1763.99 2343.34,1763.99C2340.55,1763.99 2338.18,1763.5 2336.25,1762.5C2334.32,1761.5 2332.85,1760.21 2331.85,1758.63C2330.86,1757.05 2330.36,1755.38 2330.36,1753.62L2335.81,1753.62C2335.89,1755.11 2336.32,1756.28 2337.1,1757.15C2337.88,1758.02 2338.84,1758.64 2339.97,1759C2341.1,1759.36 2342.22,1759.54 2343.34,1759.54C2344.82,1759.54 2346.07,1759.35 2347.07,1758.95C2348.08,1758.56 2348.85,1758.03 2349.37,1757.34C2349.9,1756.66 2350.16,1755.88 2350.16,1755ZM2358.84,1747.91L2358.84,1747.24C2358.84,1744.95 2359.17,1742.83 2359.84,1740.86C2360.5,1738.9 2361.46,1737.19 2362.71,1735.74C2363.96,1734.28 2365.47,1733.15 2367.25,1732.34C2369.02,1731.53 2371.02,1731.12 2373.22,1731.12C2375.45,1731.12 2377.46,1731.53 2379.24,1732.34C2381.03,1733.15 2382.55,1734.28 2383.81,1735.74C2385.07,1737.19 2386.04,1738.9 2386.7,1740.86C2387.36,1742.83 2387.7,1744.95 2387.7,1747.24L2387.7,1747.91C2387.7,1750.19 2387.36,1752.31 2386.7,1754.27C2386.04,1756.22 2385.07,1757.92 2383.81,1759.38C2382.55,1760.83 2381.04,1761.97 2379.27,1762.78C2377.51,1763.59 2375.51,1763.99 2373.28,1763.99C2371.05,1763.99 2369.05,1763.59 2367.28,1762.78C2365.5,1761.97 2363.98,1760.83 2362.72,1759.38C2361.46,1757.92 2360.5,1756.22 2359.84,1754.27C2359.17,1752.31 2358.84,1750.19 2358.84,1747.91ZM2364.26,1747.24L2364.26,1747.91C2364.26,1749.49 2364.44,1750.98 2364.82,1752.38C2365.19,1753.77 2365.75,1755.01 2366.5,1756.08C2367.25,1757.16 2368.19,1758 2369.33,1758.62C2370.46,1759.23 2371.78,1759.54 2373.28,1759.54C2374.77,1759.54 2376.07,1759.23 2377.19,1758.62C2378.32,1758 2379.25,1757.16 2379.99,1756.08C2380.73,1755.01 2381.3,1753.77 2381.68,1752.38C2382.06,1750.98 2382.25,1749.49 2382.25,1747.91L2382.25,1747.24C2382.25,1745.67 2382.06,1744.19 2381.68,1742.8C2381.3,1741.4 2380.73,1740.16 2379.98,1739.08C2379.22,1737.99 2378.29,1737.14 2377.16,1736.51C2376.04,1735.89 2374.73,1735.58 2373.22,1735.58C2371.74,1735.58 2370.43,1735.89 2369.31,1736.51C2368.19,1737.14 2367.25,1737.99 2366.5,1739.08C2365.75,1740.16 2365.19,1741.4 2364.82,1742.8C2364.44,1744.19 2364.26,1745.67 2364.26,1747.24ZM2397.51,1740.8L2397.51,1763.41L2392.09,1763.41L2392.09,1731.71L2397.22,1731.71L2397.39,1735.65C2397.45,1735.58 2397.51,1735.5 2397.57,1735.43C2398.7,1734.06 2400.06,1733 2401.63,1732.25C2403.2,1731.5 2404.94,1731.12 2406.86,1731.12C2408.42,1731.12 2409.83,1731.33 2411.08,1731.75C2412.33,1732.17 2413.4,1732.84 2414.28,1733.76C2415.17,1734.68 2415.85,1735.86 2416.32,1737.32C2416.79,1738.77 2417.03,1740.55 2417.03,1742.64L2417.03,1763.41L2411.58,1763.41L2411.58,1742.58C2411.58,1740.92 2411.33,1739.58 2410.84,1738.58C2410.36,1737.57 2409.64,1736.84 2408.7,1736.38C2407.77,1735.92 2406.61,1735.69 2405.25,1735.69C2403.9,1735.69 2402.67,1735.98 2401.57,1736.54C2400.47,1737.11 2399.52,1737.89 2398.73,1738.89C2398.26,1739.47 2397.86,1740.11 2397.51,1740.8ZM2441.64,1760.06C2441.39,1760.32 2441.12,1760.59 2440.83,1760.84C2439.83,1761.75 2438.63,1762.5 2437.26,1763.1C2435.88,1763.69 2434.33,1763.99 2432.61,1763.99C2430.46,1763.99 2428.58,1763.57 2426.97,1762.73C2425.36,1761.89 2424.11,1760.77 2423.22,1759.35C2422.33,1757.93 2421.89,1756.35 2421.89,1754.59C2421.89,1752.89 2422.22,1751.39 2422.89,1750.09C2423.55,1748.79 2424.51,1747.71 2425.76,1746.84C2427.01,1745.97 2428.51,1745.31 2430.27,1744.86C2432.03,1744.41 2433.99,1744.19 2436.16,1744.19L2441.52,1744.19L2441.52,1741.67C2441.52,1740.42 2441.27,1739.33 2440.77,1738.4C2440.27,1737.48 2439.53,1736.76 2438.53,1736.25C2437.53,1735.74 2436.3,1735.49 2434.84,1735.49C2433.47,1735.49 2432.28,1735.72 2431.25,1736.19C2430.22,1736.66 2429.42,1737.27 2428.85,1738.04C2428.27,1738.8 2427.98,1739.62 2427.98,1740.5L2422.56,1740.5C2422.56,1739.36 2422.86,1738.24 2423.44,1737.13C2424.03,1736.02 2424.87,1735 2425.98,1734.1C2427.08,1733.19 2428.41,1732.47 2429.96,1731.93C2431.51,1731.39 2433.25,1731.12 2435.16,1731.12C2437.47,1731.12 2439.5,1731.51 2441.27,1732.29C2443.04,1733.08 2444.42,1734.25 2445.43,1735.82C2446.44,1737.4 2446.94,1739.36 2446.94,1741.73L2446.94,1756.49C2446.94,1757.55 2447.03,1758.67 2447.22,1759.86C2447.4,1761.05 2447.68,1762.08 2448.05,1762.94L2448.05,1763.41L2442.4,1763.41C2442.12,1762.78 2441.91,1761.95 2441.75,1760.9C2441.71,1760.62 2441.67,1760.33 2441.64,1760.06ZM2441.52,1748L2437.04,1748C2435.49,1748 2434.12,1748.12 2432.91,1748.36C2431.7,1748.61 2430.68,1748.97 2429.86,1749.46C2429.04,1749.95 2428.41,1750.56 2427.98,1751.29C2427.55,1752.03 2427.34,1752.88 2427.34,1753.86C2427.34,1754.85 2427.56,1755.76 2428.01,1756.58C2428.46,1757.4 2429.14,1758.05 2430.05,1758.53C2430.96,1759.01 2432.08,1759.25 2433.4,1759.25C2435.06,1759.25 2436.53,1758.9 2437.8,1758.19C2439.07,1757.49 2440.08,1756.63 2440.83,1755.61C2441.11,1755.24 2441.34,1754.87 2441.52,1754.51L2441.52,1748ZM2458.95,1718.41L2458.95,1763.41L2453.5,1763.41L2453.5,1718.41L2458.95,1718.41ZM2471.14,1731.71L2471.14,1763.41L2465.69,1763.41L2465.69,1731.71L2471.14,1731.71ZM2465.28,1723.3C2465.28,1722.42 2465.55,1721.68 2466.09,1721.07C2466.63,1720.47 2467.42,1720.16 2468.48,1720.16C2469.51,1720.16 2470.31,1720.47 2470.87,1721.07C2471.42,1721.68 2471.7,1722.42 2471.7,1723.3C2471.7,1724.14 2471.42,1724.86 2470.87,1725.45C2470.31,1726.05 2469.51,1726.35 2468.48,1726.35C2467.42,1726.35 2466.63,1726.05 2466.09,1725.45C2465.55,1724.86 2465.28,1724.14 2465.28,1723.3ZM2479.38,1735.87L2473.58,1735.87L2473.58,1731.71L2479.38,1731.71L2479.38,1724L2484.8,1724L2484.8,1731.71L2490.72,1731.71L2490.72,1735.87L2484.8,1735.87L2484.8,1755.56C2484.8,1756.63 2484.96,1757.44 2485.3,1757.99C2485.63,1758.53 2486.06,1758.9 2486.59,1759.07C2487.11,1759.25 2487.68,1759.34 2488.28,1759.34C2488.73,1759.34 2489.21,1759.29 2489.7,1759.2C2490.2,1759.12 2490.58,1759.04 2490.83,1758.98L2490.86,1763.41C2490.43,1763.54 2489.87,1763.68 2489.18,1763.8C2488.48,1763.93 2487.65,1763.99 2486.67,1763.99C2485.34,1763.99 2484.12,1763.73 2483.01,1763.2C2481.9,1762.67 2481.01,1761.79 2480.36,1760.55C2479.7,1759.31 2479.38,1757.64 2479.38,1755.53L2479.38,1735.87Z"/>
                </g>
            </g>
        </g>
    </g>
</svg>
