<?xml version="1.0" encoding="UTF-8" standalone="no"?>
<!DOCTYPE svg PUBLIC "-//W3C//DTD SVG 1.1//EN" "http://www.w3.org/Graphics/SVG/1.1/DTD/svg11.dtd">
<svg width="100%" height="100%" viewBox="0 0 900 515" version="1.1" xmlns="http://www.w3.org/2000/svg" xmlns:xlink="http://www.w3.org/1999/xlink" xml:space="preserve" xmlns:serif="http://www.serif.com/" style="fill-rule:evenodd;clip-rule:evenodd;stroke-linejoin:round;stroke-miterlimit:2;">
    <g transform="matrix(1,0,0,1,-15600.8,-4304.19)">
        <g id="island_profile" transform="matrix(1,0,0,1,10765.8,-170.051)">
            <rect x="4834.97" y="4474.24" width="899.857" height="514.253" style="fill:none;"/>
            <g transform="matrix(0.0821968,-3.25268e-17,0,0.0238295,4653.17,4941.86)">
                <path d="M2211.8,1956.97L2211.8,-19623.5L13159.4,-19623.5L13159.4,-19018.5L12338.6,-19018.5L12338.6,-18744.8L11828.1,-18744.8L11828.1,-17449.1L11392.5,-17449.1L11392.5,-14347.6L10933.9,-14347.6L10933.9,-7961.2L10105.6,-7961.2L10105.6,-4930.82L7892.31,-4930.82L7892.31,-3884.99L5706.08,-3884.99L5706.08,-300.677L5422.81,-300.677L5422.81,1350.59L2880.01,1350.59L2880.01,1956.97L2211.8,1956.97Z" style="fill:rgb(27,208,69);"/>
            </g>
            <g transform="matrix(1,0,0,1,2563.78,2829.79)">
                <g transform="matrix(40,0,0,40,2270.89,1720.38)">
                    <path d="M0.115,-0.711L0.3,-0.354L0.485,-0.711L0.592,-0.711L0.347,-0.266L0.347,-0L0.252,-0L0.252,-0.266L0.007,-0.711L0.115,-0.711Z" style="fill-rule:nonzero;"/>
                </g>
                <g transform="matrix(40,0,0,40,2293.32,1720.38)">
                    <path d="M0.045,-0.258L0.045,-0.27C0.045,-0.308 0.05,-0.343 0.062,-0.376C0.073,-0.408 0.089,-0.437 0.109,-0.461C0.13,-0.485 0.155,-0.504 0.185,-0.518C0.215,-0.531 0.248,-0.538 0.285,-0.538C0.322,-0.538 0.355,-0.531 0.385,-0.518C0.415,-0.504 0.44,-0.485 0.461,-0.461C0.482,-0.437 0.498,-0.408 0.509,-0.376C0.52,-0.343 0.526,-0.308 0.526,-0.27L0.526,-0.258C0.526,-0.22 0.52,-0.185 0.509,-0.152C0.498,-0.12 0.482,-0.091 0.461,-0.067C0.44,-0.043 0.415,-0.024 0.385,-0.01C0.356,0.003 0.323,0.01 0.286,0.01C0.249,0.01 0.215,0.003 0.186,-0.01C0.156,-0.024 0.131,-0.043 0.11,-0.067C0.089,-0.091 0.073,-0.12 0.062,-0.152C0.05,-0.185 0.045,-0.22 0.045,-0.258ZM0.135,-0.27L0.135,-0.258C0.135,-0.232 0.138,-0.207 0.145,-0.184C0.151,-0.161 0.16,-0.14 0.173,-0.122C0.185,-0.104 0.201,-0.09 0.22,-0.08C0.239,-0.07 0.261,-0.064 0.286,-0.064C0.31,-0.064 0.332,-0.07 0.351,-0.08C0.37,-0.09 0.385,-0.104 0.397,-0.122C0.41,-0.14 0.419,-0.161 0.426,-0.184C0.432,-0.207 0.435,-0.232 0.435,-0.258L0.435,-0.27C0.435,-0.296 0.432,-0.32 0.426,-0.344C0.419,-0.367 0.41,-0.387 0.397,-0.406C0.385,-0.424 0.369,-0.438 0.35,-0.448C0.332,-0.459 0.31,-0.464 0.285,-0.464C0.26,-0.464 0.238,-0.459 0.219,-0.448C0.201,-0.438 0.185,-0.424 0.173,-0.406C0.16,-0.387 0.151,-0.367 0.145,-0.344C0.138,-0.32 0.135,-0.296 0.135,-0.27Z" style="fill-rule:nonzero;"/>
                </g>
                <g transform="matrix(40,0,0,40,2314.53,1720.38)">
                    <path d="M0.392,-0.122L0.392,-0.528L0.483,-0.528L0.483,-0L0.396,-0L0.392,-0.122ZM0.409,-0.233L0.447,-0.234C0.447,-0.199 0.443,-0.167 0.436,-0.137C0.428,-0.107 0.417,-0.081 0.4,-0.06C0.384,-0.038 0.363,-0.021 0.336,-0.009C0.31,0.004 0.278,0.01 0.24,0.01C0.215,0.01 0.191,0.006 0.17,-0.001C0.148,-0.009 0.13,-0.021 0.115,-0.036C0.099,-0.052 0.088,-0.072 0.079,-0.097C0.071,-0.122 0.067,-0.152 0.067,-0.188L0.067,-0.528L0.157,-0.528L0.157,-0.187C0.157,-0.163 0.16,-0.143 0.165,-0.128C0.171,-0.112 0.178,-0.1 0.187,-0.091C0.197,-0.082 0.207,-0.076 0.219,-0.072C0.23,-0.069 0.242,-0.067 0.254,-0.067C0.293,-0.067 0.323,-0.074 0.346,-0.089C0.368,-0.104 0.384,-0.124 0.394,-0.149C0.404,-0.174 0.409,-0.202 0.409,-0.233Z" style="fill-rule:nonzero;"/>
                </g>
                <g transform="matrix(40,0,0,40,2334.98,1720.38)">
                    <path d="M0.159,-0.445L0.159,-0L0.069,-0L0.069,-0.528L0.157,-0.528L0.159,-0.445ZM0.324,-0.531L0.324,-0.447C0.316,-0.449 0.309,-0.45 0.302,-0.45C0.296,-0.451 0.288,-0.451 0.28,-0.451C0.259,-0.451 0.241,-0.448 0.225,-0.441C0.209,-0.435 0.195,-0.426 0.184,-0.414C0.173,-0.402 0.164,-0.388 0.158,-0.372C0.152,-0.356 0.147,-0.339 0.146,-0.319L0.12,-0.305C0.12,-0.337 0.123,-0.367 0.13,-0.395C0.136,-0.423 0.146,-0.447 0.159,-0.469C0.173,-0.491 0.19,-0.508 0.21,-0.52C0.231,-0.532 0.256,-0.538 0.284,-0.538C0.291,-0.538 0.298,-0.537 0.307,-0.536C0.315,-0.534 0.321,-0.533 0.324,-0.531Z" style="fill-rule:nonzero;"/>
                </g>
                <g transform="matrix(40,0,0,40,2355.26,1720.38)">
                    <path d="M0.159,-0.427L0.159,0.203L0.068,0.203L0.068,-0.528L0.151,-0.528L0.159,-0.427ZM0.515,-0.269L0.515,-0.258C0.515,-0.22 0.511,-0.184 0.501,-0.152C0.492,-0.119 0.479,-0.09 0.462,-0.066C0.444,-0.042 0.423,-0.024 0.397,-0.01C0.372,0.003 0.343,0.01 0.31,0.01C0.277,0.01 0.247,0.004 0.221,-0.007C0.195,-0.018 0.174,-0.034 0.156,-0.055C0.138,-0.076 0.124,-0.102 0.113,-0.131C0.102,-0.161 0.095,-0.194 0.091,-0.231L0.091,-0.286C0.095,-0.325 0.103,-0.36 0.113,-0.391C0.124,-0.422 0.138,-0.448 0.156,-0.47C0.174,-0.492 0.195,-0.509 0.221,-0.521C0.246,-0.532 0.275,-0.538 0.309,-0.538C0.342,-0.538 0.371,-0.532 0.397,-0.519C0.423,-0.506 0.444,-0.488 0.462,-0.464C0.479,-0.44 0.493,-0.412 0.502,-0.379C0.511,-0.346 0.515,-0.309 0.515,-0.269ZM0.424,-0.258L0.424,-0.269C0.424,-0.295 0.422,-0.32 0.416,-0.343C0.41,-0.366 0.402,-0.387 0.39,-0.405C0.379,-0.422 0.364,-0.436 0.346,-0.447C0.328,-0.457 0.307,-0.462 0.282,-0.462C0.259,-0.462 0.24,-0.458 0.223,-0.45C0.206,-0.442 0.192,-0.432 0.18,-0.419C0.168,-0.406 0.159,-0.391 0.152,-0.374C0.144,-0.357 0.139,-0.34 0.135,-0.322L0.135,-0.195C0.142,-0.173 0.151,-0.151 0.163,-0.131C0.174,-0.111 0.19,-0.095 0.209,-0.083C0.229,-0.071 0.254,-0.064 0.283,-0.064C0.308,-0.064 0.329,-0.07 0.346,-0.08C0.364,-0.09 0.379,-0.104 0.39,-0.122C0.402,-0.14 0.41,-0.161 0.416,-0.184C0.422,-0.207 0.424,-0.232 0.424,-0.258Z" style="fill-rule:nonzero;"/>
                </g>
                <g transform="matrix(40,0,0,40,2376.12,1720.38)">
                    <path d="M0.288,0.01C0.251,0.01 0.218,0.003 0.188,-0.009C0.158,-0.022 0.133,-0.039 0.112,-0.062C0.09,-0.085 0.074,-0.112 0.063,-0.143C0.051,-0.174 0.045,-0.208 0.045,-0.246L0.045,-0.266C0.045,-0.309 0.052,-0.347 0.064,-0.381C0.077,-0.415 0.094,-0.443 0.116,-0.467C0.138,-0.49 0.163,-0.508 0.19,-0.52C0.218,-0.532 0.247,-0.538 0.276,-0.538C0.314,-0.538 0.347,-0.532 0.374,-0.519C0.402,-0.506 0.424,-0.487 0.442,-0.464C0.459,-0.441 0.472,-0.413 0.481,-0.382C0.489,-0.351 0.494,-0.316 0.494,-0.279L0.494,-0.239L0.099,-0.239L0.099,-0.313L0.403,-0.313L0.403,-0.319C0.402,-0.343 0.397,-0.366 0.389,-0.388C0.381,-0.41 0.368,-0.428 0.35,-0.442C0.332,-0.457 0.307,-0.464 0.276,-0.464C0.256,-0.464 0.237,-0.46 0.22,-0.451C0.202,-0.442 0.188,-0.43 0.175,-0.413C0.163,-0.396 0.153,-0.375 0.146,-0.351C0.14,-0.326 0.136,-0.298 0.136,-0.266L0.136,-0.246C0.136,-0.221 0.14,-0.197 0.147,-0.175C0.154,-0.153 0.164,-0.134 0.177,-0.117C0.191,-0.101 0.207,-0.088 0.227,-0.078C0.246,-0.069 0.268,-0.064 0.293,-0.064C0.325,-0.064 0.352,-0.07 0.374,-0.083C0.396,-0.097 0.416,-0.114 0.432,-0.136L0.487,-0.092C0.475,-0.075 0.461,-0.059 0.443,-0.043C0.426,-0.027 0.404,-0.015 0.379,-0.005C0.353,0.005 0.323,0.01 0.288,0.01Z" style="fill-rule:nonzero;"/>
                </g>
                <g transform="matrix(40,0,0,40,2395.73,1720.38)">
                    <path d="M0.159,-0.445L0.159,-0L0.069,-0L0.069,-0.528L0.157,-0.528L0.159,-0.445ZM0.324,-0.531L0.324,-0.447C0.316,-0.449 0.309,-0.45 0.302,-0.45C0.296,-0.451 0.288,-0.451 0.28,-0.451C0.259,-0.451 0.241,-0.448 0.225,-0.441C0.209,-0.435 0.195,-0.426 0.184,-0.414C0.173,-0.402 0.164,-0.388 0.158,-0.372C0.152,-0.356 0.147,-0.339 0.146,-0.319L0.12,-0.305C0.12,-0.337 0.123,-0.367 0.13,-0.395C0.136,-0.423 0.146,-0.447 0.159,-0.469C0.173,-0.491 0.19,-0.508 0.21,-0.52C0.231,-0.532 0.256,-0.538 0.284,-0.538C0.291,-0.538 0.298,-0.537 0.307,-0.536C0.315,-0.534 0.321,-0.533 0.324,-0.531Z" style="fill-rule:nonzero;"/>
                </g>
                <g transform="matrix(40,0,0,40,2407.68,1720.38)">
                    <path d="M0.376,-0.14C0.376,-0.153 0.374,-0.165 0.368,-0.177C0.362,-0.188 0.351,-0.198 0.333,-0.207C0.316,-0.217 0.29,-0.225 0.255,-0.231C0.226,-0.238 0.199,-0.245 0.176,-0.253C0.152,-0.262 0.132,-0.272 0.115,-0.284C0.099,-0.296 0.086,-0.31 0.078,-0.327C0.069,-0.343 0.064,-0.362 0.064,-0.384C0.064,-0.405 0.069,-0.424 0.078,-0.443C0.088,-0.461 0.101,-0.478 0.118,-0.492C0.135,-0.507 0.156,-0.518 0.18,-0.526C0.204,-0.534 0.231,-0.538 0.26,-0.538C0.303,-0.538 0.339,-0.531 0.369,-0.516C0.399,-0.501 0.422,-0.481 0.438,-0.456C0.453,-0.431 0.461,-0.403 0.461,-0.373L0.371,-0.373C0.371,-0.388 0.367,-0.402 0.358,-0.416C0.35,-0.43 0.337,-0.441 0.321,-0.45C0.304,-0.459 0.284,-0.464 0.26,-0.464C0.235,-0.464 0.215,-0.46 0.199,-0.452C0.184,-0.445 0.173,-0.435 0.166,-0.423C0.159,-0.412 0.155,-0.399 0.155,-0.386C0.155,-0.376 0.157,-0.368 0.16,-0.36C0.164,-0.352 0.17,-0.345 0.179,-0.339C0.188,-0.333 0.2,-0.327 0.216,-0.321C0.232,-0.316 0.252,-0.31 0.277,-0.305C0.32,-0.295 0.356,-0.283 0.384,-0.27C0.412,-0.256 0.433,-0.239 0.446,-0.219C0.46,-0.199 0.467,-0.175 0.467,-0.147C0.467,-0.124 0.462,-0.103 0.452,-0.083C0.443,-0.064 0.429,-0.048 0.411,-0.034C0.393,-0.02 0.371,-0.009 0.346,-0.002C0.322,0.006 0.294,0.01 0.263,0.01C0.216,0.01 0.177,0.001 0.145,-0.015C0.112,-0.032 0.088,-0.053 0.071,-0.08C0.055,-0.106 0.046,-0.134 0.046,-0.163L0.137,-0.163C0.139,-0.138 0.146,-0.119 0.159,-0.104C0.172,-0.09 0.188,-0.08 0.207,-0.073C0.225,-0.067 0.244,-0.064 0.263,-0.064C0.287,-0.064 0.308,-0.068 0.325,-0.074C0.342,-0.081 0.354,-0.09 0.363,-0.101C0.372,-0.112 0.376,-0.125 0.376,-0.14Z" style="fill-rule:nonzero;"/>
                </g>
                <g transform="matrix(40,0,0,40,2426.73,1720.38)">
                    <path d="M0.045,-0.258L0.045,-0.27C0.045,-0.308 0.05,-0.343 0.062,-0.376C0.073,-0.408 0.089,-0.437 0.109,-0.461C0.13,-0.485 0.155,-0.504 0.185,-0.518C0.215,-0.531 0.248,-0.538 0.285,-0.538C0.322,-0.538 0.355,-0.531 0.385,-0.518C0.415,-0.504 0.44,-0.485 0.461,-0.461C0.482,-0.437 0.498,-0.408 0.509,-0.376C0.52,-0.343 0.526,-0.308 0.526,-0.27L0.526,-0.258C0.526,-0.22 0.52,-0.185 0.509,-0.152C0.498,-0.12 0.482,-0.091 0.461,-0.067C0.44,-0.043 0.415,-0.024 0.385,-0.01C0.356,0.003 0.323,0.01 0.286,0.01C0.249,0.01 0.215,0.003 0.186,-0.01C0.156,-0.024 0.131,-0.043 0.11,-0.067C0.089,-0.091 0.073,-0.12 0.062,-0.152C0.05,-0.185 0.045,-0.22 0.045,-0.258ZM0.135,-0.27L0.135,-0.258C0.135,-0.232 0.138,-0.207 0.145,-0.184C0.151,-0.161 0.16,-0.14 0.173,-0.122C0.185,-0.104 0.201,-0.09 0.22,-0.08C0.239,-0.07 0.261,-0.064 0.286,-0.064C0.31,-0.064 0.332,-0.07 0.351,-0.08C0.37,-0.09 0.385,-0.104 0.397,-0.122C0.41,-0.14 0.419,-0.161 0.426,-0.184C0.432,-0.207 0.435,-0.232 0.435,-0.258L0.435,-0.27C0.435,-0.296 0.432,-0.32 0.426,-0.344C0.419,-0.367 0.41,-0.387 0.397,-0.406C0.385,-0.424 0.369,-0.438 0.35,-0.448C0.332,-0.459 0.31,-0.464 0.285,-0.464C0.26,-0.464 0.238,-0.459 0.219,-0.448C0.201,-0.438 0.185,-0.424 0.173,-0.406C0.16,-0.387 0.151,-0.367 0.145,-0.344C0.138,-0.32 0.135,-0.296 0.135,-0.27Z" style="fill-rule:nonzero;"/>
                </g>
                <g transform="matrix(40,0,0,40,2447.94,1720.38)">
                    <path d="M0.159,-0.416L0.159,-0L0.069,-0L0.069,-0.528L0.154,-0.528L0.159,-0.416ZM0.138,-0.284L0.1,-0.286C0.1,-0.322 0.106,-0.355 0.116,-0.386C0.127,-0.417 0.141,-0.444 0.16,-0.466C0.179,-0.489 0.202,-0.507 0.228,-0.519C0.254,-0.532 0.283,-0.538 0.315,-0.538C0.341,-0.538 0.364,-0.535 0.385,-0.528C0.406,-0.521 0.424,-0.509 0.439,-0.494C0.454,-0.479 0.465,-0.459 0.473,-0.435C0.48,-0.411 0.484,-0.381 0.484,-0.346L0.484,-0L0.394,-0L0.394,-0.347C0.394,-0.375 0.389,-0.397 0.381,-0.414C0.373,-0.431 0.361,-0.443 0.346,-0.45C0.33,-0.458 0.311,-0.462 0.288,-0.462C0.266,-0.462 0.245,-0.457 0.227,-0.448C0.208,-0.438 0.193,-0.425 0.179,-0.409C0.166,-0.392 0.156,-0.373 0.149,-0.352C0.141,-0.33 0.138,-0.308 0.138,-0.284Z" style="fill-rule:nonzero;"/>
                </g>
                <g transform="matrix(40,0,0,40,2468.43,1720.38)">
                    <path d="M0.38,-0.09L0.38,-0.362C0.38,-0.383 0.376,-0.401 0.368,-0.417C0.36,-0.432 0.347,-0.444 0.331,-0.453C0.314,-0.461 0.293,-0.465 0.269,-0.465C0.246,-0.465 0.226,-0.461 0.209,-0.454C0.192,-0.446 0.179,-0.436 0.169,-0.423C0.16,-0.41 0.155,-0.396 0.155,-0.382L0.064,-0.382C0.064,-0.401 0.069,-0.419 0.079,-0.438C0.089,-0.457 0.103,-0.473 0.121,-0.489C0.14,-0.504 0.162,-0.516 0.188,-0.525C0.214,-0.534 0.243,-0.538 0.274,-0.538C0.313,-0.538 0.347,-0.532 0.376,-0.519C0.406,-0.506 0.429,-0.486 0.446,-0.46C0.462,-0.434 0.471,-0.401 0.471,-0.361L0.471,-0.115C0.471,-0.098 0.472,-0.079 0.475,-0.059C0.478,-0.039 0.483,-0.022 0.489,-0.008L0.489,-0L0.395,-0C0.39,-0.01 0.387,-0.024 0.384,-0.042C0.382,-0.059 0.38,-0.075 0.38,-0.09ZM0.396,-0.32L0.397,-0.257L0.306,-0.257C0.28,-0.257 0.257,-0.255 0.237,-0.251C0.217,-0.247 0.2,-0.241 0.186,-0.232C0.172,-0.224 0.162,-0.214 0.155,-0.202C0.148,-0.19 0.144,-0.175 0.144,-0.159C0.144,-0.143 0.148,-0.127 0.155,-0.114C0.163,-0.1 0.174,-0.089 0.189,-0.081C0.204,-0.073 0.223,-0.069 0.245,-0.069C0.273,-0.069 0.297,-0.075 0.318,-0.087C0.34,-0.099 0.356,-0.113 0.369,-0.13C0.381,-0.147 0.388,-0.163 0.389,-0.179L0.428,-0.136C0.425,-0.122 0.419,-0.107 0.409,-0.09C0.399,-0.074 0.386,-0.058 0.369,-0.043C0.352,-0.028 0.332,-0.015 0.309,-0.005C0.286,0.005 0.261,0.01 0.232,0.01C0.196,0.01 0.165,0.003 0.138,-0.011C0.111,-0.025 0.09,-0.044 0.075,-0.068C0.061,-0.091 0.053,-0.118 0.053,-0.147C0.053,-0.175 0.059,-0.2 0.07,-0.222C0.081,-0.244 0.097,-0.262 0.118,-0.276C0.139,-0.291 0.164,-0.302 0.193,-0.309C0.222,-0.317 0.255,-0.32 0.291,-0.32L0.396,-0.32Z" style="fill-rule:nonzero;"/>
                </g>
                <g transform="matrix(40,0,0,40,2488.59,1720.38)">
                    <rect x="0.076" y="-0.75" width="0.091" height="0.75" style="fill-rule:nonzero;"/>
                </g>
                <g transform="matrix(40,0,0,40,2496.72,1720.38)">
                    <path d="M0.167,-0.528L0.167,-0L0.076,-0L0.076,-0.528L0.167,-0.528ZM0.069,-0.668C0.069,-0.683 0.074,-0.695 0.083,-0.706C0.092,-0.716 0.105,-0.721 0.123,-0.721C0.14,-0.721 0.153,-0.716 0.162,-0.706C0.172,-0.695 0.176,-0.683 0.176,-0.668C0.176,-0.654 0.172,-0.642 0.162,-0.633C0.153,-0.623 0.14,-0.618 0.123,-0.618C0.105,-0.618 0.092,-0.623 0.083,-0.633C0.074,-0.642 0.069,-0.654 0.069,-0.668Z" style="fill-rule:nonzero;"/>
                </g>
                <g transform="matrix(40,0,0,40,2504.84,1720.38)">
                    <path d="M0.29,-0.528L0.29,-0.459L0.004,-0.459L0.004,-0.528L0.29,-0.528ZM0.101,-0.657L0.191,-0.657L0.191,-0.131C0.191,-0.113 0.194,-0.099 0.2,-0.09C0.205,-0.081 0.212,-0.075 0.221,-0.072C0.23,-0.069 0.239,-0.068 0.25,-0.068C0.257,-0.068 0.265,-0.069 0.273,-0.07C0.281,-0.072 0.288,-0.073 0.292,-0.074L0.292,-0C0.285,0.002 0.276,0.004 0.264,0.007C0.253,0.009 0.239,0.01 0.223,0.01C0.201,0.01 0.18,0.005 0.162,-0.003C0.143,-0.012 0.128,-0.027 0.117,-0.048C0.107,-0.068 0.101,-0.096 0.101,-0.131L0.101,-0.657Z" style="fill-rule:nonzero;"/>
                </g>
                <g transform="matrix(40,0,0,40,2516.33,1720.38)">
                    <path d="M0.217,-0.055L0.364,-0.528L0.461,-0.528L0.249,0.082C0.244,0.095 0.238,0.109 0.23,0.124C0.222,0.139 0.212,0.153 0.199,0.167C0.187,0.181 0.172,0.192 0.155,0.2C0.137,0.209 0.116,0.213 0.092,0.213C0.085,0.213 0.076,0.212 0.065,0.21C0.054,0.208 0.046,0.207 0.042,0.206L0.041,0.132C0.044,0.133 0.048,0.133 0.053,0.134C0.059,0.134 0.063,0.134 0.065,0.134C0.086,0.134 0.103,0.132 0.118,0.126C0.132,0.121 0.144,0.112 0.154,0.099C0.164,0.087 0.173,0.07 0.18,0.048L0.217,-0.055ZM0.109,-0.528L0.247,-0.118L0.27,-0.023L0.205,0.01L0.011,-0.528L0.109,-0.528Z" style="fill-rule:nonzero;"/>
                </g>
                <g transform="matrix(40,0,0,40,2541.98,1720.38)">
                    <path d="M0.167,-0.528L0.167,-0L0.076,-0L0.076,-0.528L0.167,-0.528ZM0.069,-0.668C0.069,-0.683 0.074,-0.695 0.083,-0.706C0.092,-0.716 0.105,-0.721 0.123,-0.721C0.14,-0.721 0.153,-0.716 0.162,-0.706C0.172,-0.695 0.176,-0.683 0.176,-0.668C0.176,-0.654 0.172,-0.642 0.162,-0.633C0.153,-0.623 0.14,-0.618 0.123,-0.618C0.105,-0.618 0.092,-0.623 0.083,-0.633C0.074,-0.642 0.069,-0.654 0.069,-0.668Z" style="fill-rule:nonzero;"/>
                </g>
                <g transform="matrix(40,0,0,40,2550.1,1720.38)">
                    <path d="M0.376,-0.14C0.376,-0.153 0.374,-0.165 0.368,-0.177C0.362,-0.188 0.351,-0.198 0.333,-0.207C0.316,-0.217 0.29,-0.225 0.255,-0.231C0.226,-0.238 0.199,-0.245 0.176,-0.253C0.152,-0.262 0.132,-0.272 0.115,-0.284C0.099,-0.296 0.086,-0.31 0.078,-0.327C0.069,-0.343 0.064,-0.362 0.064,-0.384C0.064,-0.405 0.069,-0.424 0.078,-0.443C0.088,-0.461 0.101,-0.478 0.118,-0.492C0.135,-0.507 0.156,-0.518 0.18,-0.526C0.204,-0.534 0.231,-0.538 0.26,-0.538C0.303,-0.538 0.339,-0.531 0.369,-0.516C0.399,-0.501 0.422,-0.481 0.438,-0.456C0.453,-0.431 0.461,-0.403 0.461,-0.373L0.371,-0.373C0.371,-0.388 0.367,-0.402 0.358,-0.416C0.35,-0.43 0.337,-0.441 0.321,-0.45C0.304,-0.459 0.284,-0.464 0.26,-0.464C0.235,-0.464 0.215,-0.46 0.199,-0.452C0.184,-0.445 0.173,-0.435 0.166,-0.423C0.159,-0.412 0.155,-0.399 0.155,-0.386C0.155,-0.376 0.157,-0.368 0.16,-0.36C0.164,-0.352 0.17,-0.345 0.179,-0.339C0.188,-0.333 0.2,-0.327 0.216,-0.321C0.232,-0.316 0.252,-0.31 0.277,-0.305C0.32,-0.295 0.356,-0.283 0.384,-0.27C0.412,-0.256 0.433,-0.239 0.446,-0.219C0.46,-0.199 0.467,-0.175 0.467,-0.147C0.467,-0.124 0.462,-0.103 0.452,-0.083C0.443,-0.064 0.429,-0.048 0.411,-0.034C0.393,-0.02 0.371,-0.009 0.346,-0.002C0.322,0.006 0.294,0.01 0.263,0.01C0.216,0.01 0.177,0.001 0.145,-0.015C0.112,-0.032 0.088,-0.053 0.071,-0.08C0.055,-0.106 0.046,-0.134 0.046,-0.163L0.137,-0.163C0.139,-0.138 0.146,-0.119 0.159,-0.104C0.172,-0.09 0.188,-0.08 0.207,-0.073C0.225,-0.067 0.244,-0.064 0.263,-0.064C0.287,-0.064 0.308,-0.068 0.325,-0.074C0.342,-0.081 0.354,-0.09 0.363,-0.101C0.372,-0.112 0.376,-0.125 0.376,-0.14Z" style="fill-rule:nonzero;"/>
                </g>
                <g transform="matrix(40,0,0,40,2569.15,1720.38)">
                    <path d="M0.065,-0.048C0.065,-0.063 0.07,-0.076 0.079,-0.087C0.089,-0.097 0.103,-0.103 0.121,-0.103C0.139,-0.103 0.153,-0.097 0.163,-0.087C0.172,-0.076 0.177,-0.063 0.177,-0.048C0.177,-0.033 0.172,-0.02 0.163,-0.01C0.153,0.001 0.139,0.006 0.121,0.006C0.103,0.006 0.089,0.001 0.079,-0.01C0.07,-0.02 0.065,-0.033 0.065,-0.048ZM0.065,-0.479C0.065,-0.494 0.07,-0.507 0.08,-0.518C0.089,-0.528 0.103,-0.534 0.122,-0.534C0.14,-0.534 0.154,-0.528 0.163,-0.518C0.173,-0.507 0.178,-0.494 0.178,-0.479C0.178,-0.464 0.173,-0.451 0.163,-0.441C0.154,-0.431 0.14,-0.425 0.122,-0.425C0.103,-0.425 0.089,-0.431 0.08,-0.441C0.07,-0.451 0.065,-0.464 0.065,-0.479Z" style="fill-rule:nonzero;"/>
                </g>
            </g>
        </g>
    </g>
</svg>
