<?xml version="1.0" encoding="UTF-8" standalone="no"?>
<!DOCTYPE svg PUBLIC "-//W3C//DTD SVG 1.1//EN" "http://www.w3.org/Graphics/SVG/1.1/DTD/svg11.dtd">
<svg width="100%" height="100%" viewBox="0 0 966 495" version="1.1" xmlns="http://www.w3.org/2000/svg" xmlns:xlink="http://www.w3.org/1999/xlink" xml:space="preserve" xmlns:serif="http://www.serif.com/" style="fill-rule:evenodd;clip-rule:evenodd;stroke-linecap:round;stroke-linejoin:round;stroke-miterlimit:1.5;">
    <g transform="matrix(1,0,0,1,-11392.8,-6047.83)">
        <g id="island_history" transform="matrix(1,0,0,1,6559.35,-70.6808)">
            <rect x="4833.47" y="6118.51" width="965.091" height="494.953" style="fill:none;"/>
            <clipPath id="_clip1">
                <rect x="4833.47" y="6118.51" width="965.091" height="494.953"/>
            </clipPath>
            <g clip-path="url(#_clip1)">
                <g transform="matrix(1.33749,0,0,1.67957,2173.06,2761.15)">
                    <path d="M2710.69,2293.63L1990.24,2293.63L1990.24,1998.94L2095.23,1998.94L2095.23,2018.14L2148.17,2018.14L2147.33,2087.67L2710.69,2087.67L2710.69,2293.63Z" style="fill:rgb(255,212,52);"/>
                </g>
                <g transform="matrix(1,0,0,1,438.011,3913.02)">
                    <g transform="matrix(32,0,0,32,4742.75,2657.55)">
                        <path d="M0.467,-0.822L0.391,-0.84C0.379,-0.797 0.365,-0.753 0.347,-0.71L0.063,-0.71L0.063,-0.64L0.316,-0.64C0.252,-0.508 0.16,-0.386 0.04,-0.304C0.054,-0.29 0.078,-0.263 0.088,-0.246C0.151,-0.291 0.207,-0.345 0.255,-0.406L0.255,0.079L0.329,0.079L0.329,-0.119L0.748,-0.119L0.748,-0.015C0.748,-0 0.743,0.006 0.726,0.006C0.707,0.007 0.646,0.008 0.58,0.005C0.59,0.026 0.601,0.057 0.605,0.077C0.691,0.077 0.746,0.077 0.779,0.066C0.812,0.053 0.822,0.03 0.822,-0.014L0.822,-0.524L0.336,-0.524C0.359,-0.562 0.379,-0.6 0.397,-0.64L0.939,-0.64L0.939,-0.71L0.427,-0.71C0.442,-0.747 0.455,-0.785 0.467,-0.822ZM0.329,-0.353L0.329,-0.456L0.748,-0.456L0.748,-0.353L0.329,-0.353ZM0.329,-0.289L0.748,-0.289L0.748,-0.184L0.329,-0.184L0.329,-0.289Z" style="fill-rule:nonzero;"/>
                    </g>
                    <g transform="matrix(32,0,0,32,4773.47,2657.55)">
                        <path d="M0.338,-0.519L0.151,-0.519L0.151,-0.71L0.338,-0.71L0.338,-0.519ZM0.338,-0.451L0.338,-0.252L0.151,-0.252L0.151,-0.451L0.338,-0.451ZM0.408,-0.779L0.08,-0.779L0.08,-0.088L0.151,-0.088L0.151,-0.182L0.408,-0.182L0.408,-0.779ZM0.928,-0.019L0.928,-0.797L0.501,-0.797L0.501,-0.441C0.501,-0.285 0.484,-0.094 0.314,0.035C0.33,0.046 0.358,0.071 0.369,0.087C0.484,-0.001 0.535,-0.122 0.558,-0.241L0.854,-0.241L0.854,-0.019C0.854,-0.001 0.847,0.005 0.829,0.005C0.812,0.006 0.749,0.007 0.684,0.004C0.695,0.025 0.708,0.057 0.711,0.078C0.798,0.078 0.852,0.076 0.885,0.064C0.917,0.052 0.928,0.028 0.928,-0.019L0.928,-0.019ZM0.854,-0.727L0.854,-0.554L0.574,-0.554L0.574,-0.727L0.854,-0.727ZM0.574,-0.44L0.574,-0.486L0.854,-0.486L0.854,-0.309L0.568,-0.309C0.573,-0.354 0.574,-0.399 0.574,-0.44Z" style="fill-rule:nonzero;"/>
                    </g>
                    <g transform="matrix(32,0,0,32,4804.19,2657.55)">
                        <path d="M0.951,-0.072L0.539,-0.072L0.539,-0.65L0.9,-0.65L0.9,-0.727L0.104,-0.727L0.104,-0.65L0.456,-0.65L0.456,-0.072L0.052,-0.072L0.052,0.003L0.951,0.003L0.951,-0.072Z" style="fill-rule:nonzero;"/>
                    </g>
                    <g transform="matrix(32,0,0,32,4834.91,2657.55)">
                        <path d="M0.212,-0.83L0.148,-0.808C0.179,-0.763 0.213,-0.703 0.228,-0.662L0.067,-0.662L0.067,-0.598L0.317,-0.598L0.279,-0.591C0.298,-0.561 0.317,-0.519 0.327,-0.49L0.108,-0.49L0.108,-0.428L0.461,-0.428L0.461,-0.355L0.158,-0.355L0.158,-0.297L0.461,-0.297L0.461,-0.223L0.064,-0.223L0.064,-0.159L0.393,-0.159C0.302,-0.089 0.163,-0.029 0.037,0C0.054,0.016 0.076,0.044 0.086,0.063C0.217,0.027 0.364,-0.046 0.461,-0.133L0.461,0.08L0.536,0.08L0.536,-0.138C0.633,-0.046 0.779,0.029 0.914,0.066C0.926,0.046 0.947,0.016 0.964,0C0.835,-0.028 0.696,-0.087 0.604,-0.159L0.94,-0.159L0.94,-0.223L0.536,-0.223L0.536,-0.297L0.851,-0.297L0.851,-0.355L0.536,-0.355L0.536,-0.428L0.9,-0.428L0.9,-0.49L0.673,-0.49C0.692,-0.52 0.714,-0.559 0.735,-0.597L0.731,-0.598L0.936,-0.598L0.936,-0.662L0.78,-0.662C0.807,-0.701 0.84,-0.756 0.868,-0.807L0.791,-0.828C0.774,-0.783 0.741,-0.717 0.714,-0.675L0.754,-0.662L0.631,-0.662L0.631,-0.841L0.559,-0.841L0.559,-0.662L0.44,-0.662L0.44,-0.841L0.369,-0.841L0.369,-0.662L0.246,-0.662L0.298,-0.682C0.283,-0.722 0.247,-0.785 0.212,-0.83ZM0.65,-0.598C0.637,-0.564 0.616,-0.522 0.599,-0.493L0.609,-0.49L0.369,-0.49L0.403,-0.497C0.395,-0.525 0.375,-0.567 0.354,-0.598L0.65,-0.598Z" style="fill-rule:nonzero;"/>
                    </g>
                    <g transform="matrix(32,0,0,32,4865.63,2657.55)">
                        <path d="M0.303,-0.472L0.303,-0.568L0.695,-0.568L0.695,-0.472L0.303,-0.472ZM0.77,-0.623L0.231,-0.623L0.231,-0.416L0.77,-0.416L0.77,-0.623ZM0.533,-0.841L0.456,-0.841L0.456,-0.745L0.065,-0.745L0.065,-0.679L0.934,-0.679L0.934,-0.745L0.533,-0.745L0.533,-0.841ZM0.897,-0.01L0.897,-0.354L0.11,-0.354L0.11,0.08L0.183,0.08L0.183,-0.29L0.822,-0.29L0.822,-0.011C0.822,0.003 0.818,0.007 0.8,0.008C0.784,0.009 0.727,0.009 0.662,0.007C0.672,0.028 0.683,0.057 0.686,0.078C0.769,0.078 0.823,0.078 0.856,0.066C0.888,0.054 0.897,0.032 0.897,-0.01ZM0.691,-0.225L0.31,-0.225L0.31,0.038L0.376,0.038L0.376,-0.014L0.691,-0.014L0.691,-0.225ZM0.376,-0.17L0.623,-0.17L0.623,-0.068L0.376,-0.068L0.376,-0.17Z" style="fill-rule:nonzero;"/>
                    </g>
                    <g transform="matrix(32,0,0,32,4896.35,2657.55)">
                        <path d="M0.65,-0.828L0.578,-0.845C0.549,-0.76 0.495,-0.68 0.433,-0.628L0.46,-0.61L0.46,-0.542L0.147,-0.542L0.147,-0.479L0.46,-0.479L0.46,-0.389L0.048,-0.389L0.048,-0.323L0.665,-0.323L0.665,-0.235L0.08,-0.235L0.08,-0.169L0.665,-0.169L0.665,-0.01C0.665,0.004 0.66,0.008 0.642,0.009C0.624,0.01 0.565,0.01 0.497,0.008C0.508,0.028 0.521,0.058 0.525,0.079C0.607,0.079 0.663,0.078 0.697,0.068C0.731,0.056 0.741,0.035 0.741,-0.009L0.741,-0.169L0.929,-0.169L0.929,-0.235L0.741,-0.235L0.741,-0.323L0.956,-0.323L0.956,-0.389L0.537,-0.389L0.537,-0.479L0.861,-0.479L0.861,-0.542L0.537,-0.542L0.537,-0.611L0.52,-0.611C0.542,-0.635 0.563,-0.662 0.583,-0.692L0.651,-0.692C0.681,-0.653 0.71,-0.606 0.721,-0.573L0.787,-0.601C0.776,-0.626 0.755,-0.66 0.732,-0.692L0.945,-0.692L0.945,-0.756L0.619,-0.756C0.631,-0.779 0.641,-0.803 0.65,-0.828ZM0.278,-0.169L0.223,-0.126C0.288,-0.083 0.36,-0.019 0.393,0.028L0.451,-0.019C0.417,-0.066 0.343,-0.128 0.278,-0.169ZM0.257,-0.826L0.186,-0.845C0.152,-0.756 0.096,-0.669 0.033,-0.61C0.051,-0.601 0.082,-0.58 0.096,-0.568C0.129,-0.601 0.161,-0.644 0.191,-0.692L0.231,-0.692C0.25,-0.654 0.268,-0.608 0.274,-0.578L0.341,-0.603C0.335,-0.626 0.321,-0.66 0.305,-0.692L0.488,-0.692L0.488,-0.756L0.226,-0.756C0.237,-0.779 0.248,-0.802 0.257,-0.826Z" style="fill-rule:nonzero;"/>
                    </g>
                    <g transform="matrix(32,0,0,32,4927.07,2657.55)">
                        <path d="M0.26,-0.147L0.205,-0.106C0.262,-0.066 0.33,-0.006 0.36,0.036L0.42,-0.01C0.387,-0.051 0.318,-0.109 0.26,-0.147ZM0.854,-0.628L0.534,-0.628L0.534,-0.696L0.927,-0.696L0.927,-0.759L0.534,-0.759L0.534,-0.839L0.46,-0.839L0.46,-0.759L0.077,-0.759L0.077,-0.696L0.46,-0.696L0.46,-0.628L0.15,-0.628L0.15,-0.3L0.648,-0.3L0.648,-0.222L0.052,-0.222L0.052,-0.158L0.648,-0.158L0.648,-0.001C0.648,0.013 0.643,0.017 0.626,0.018C0.609,0.019 0.547,0.019 0.481,0.017C0.491,0.036 0.502,0.062 0.506,0.083C0.592,0.083 0.646,0.082 0.679,0.072C0.712,0.062 0.722,0.042 0.722,-0L0.722,-0.158L0.949,-0.158L0.949,-0.222L0.722,-0.222L0.722,-0.3L0.854,-0.3L0.854,-0.628ZM0.221,-0.355L0.221,-0.438L0.46,-0.438L0.46,-0.355L0.221,-0.355ZM0.534,-0.438L0.78,-0.438L0.78,-0.355L0.534,-0.355L0.534,-0.438ZM0.221,-0.49L0.221,-0.572L0.46,-0.572L0.46,-0.49L0.221,-0.49ZM0.534,-0.572L0.78,-0.572L0.78,-0.49L0.534,-0.49L0.534,-0.572Z" style="fill-rule:nonzero;"/>
                    </g>
                    <g transform="matrix(32,0,0,32,4957.79,2657.55)">
                        <path d="M0.379,-0.642L0.166,-0.642L0.166,-0.73L0.379,-0.73L0.379,-0.642ZM0.379,-0.585L0.379,-0.489L0.166,-0.489L0.166,-0.585L0.379,-0.585ZM0.838,-0.642L0.615,-0.642L0.615,-0.73L0.838,-0.73L0.838,-0.642ZM0.838,-0.585L0.838,-0.488L0.615,-0.488L0.615,-0.585L0.838,-0.585ZM0.914,-0.023L0.914,-0.793L0.544,-0.793L0.544,-0.425L0.838,-0.425L0.838,-0.023C0.838,-0.004 0.832,0.002 0.812,0.002C0.792,0.003 0.724,0.004 0.655,0.001C0.666,0.022 0.679,0.058 0.683,0.079C0.773,0.079 0.833,0.077 0.868,0.065C0.902,0.052 0.914,0.028 0.914,-0.023ZM0.45,-0.793L0.092,-0.793L0.092,0.08L0.166,0.08L0.166,-0.426L0.45,-0.426L0.45,-0.793Z" style="fill-rule:nonzero;"/>
                    </g>
                    <g transform="matrix(32,0,0,32,4988.51,2657.55)">
                        <path d="M0.719,-0.502L0.228,-0.502L0.228,-0.436L0.643,-0.436C0.602,-0.403 0.55,-0.371 0.5,-0.347L0.463,-0.347L0.463,-0.275L0.06,-0.275L0.06,-0.204L0.463,-0.204L0.463,-0.011C0.463,0.003 0.458,0.008 0.438,0.009C0.417,0.01 0.349,0.01 0.272,0.008C0.285,0.029 0.299,0.06 0.305,0.081C0.396,0.081 0.453,0.08 0.49,0.069C0.527,0.057 0.539,0.036 0.539,-0.01L0.539,-0.204L0.945,-0.204L0.945,-0.275L0.539,-0.275L0.539,-0.301C0.628,-0.343 0.721,-0.407 0.784,-0.47L0.735,-0.506L0.719,-0.502ZM0.471,-0.845L0.406,-0.82C0.436,-0.776 0.466,-0.716 0.48,-0.674L0.273,-0.674L0.308,-0.691C0.291,-0.729 0.249,-0.786 0.212,-0.828L0.149,-0.799C0.18,-0.761 0.215,-0.711 0.233,-0.674L0.08,-0.674L0.08,-0.45L0.152,-0.45L0.152,-0.606L0.853,-0.606L0.853,-0.45L0.928,-0.45L0.928,-0.674L0.772,-0.674C0.806,-0.714 0.843,-0.762 0.874,-0.807L0.795,-0.834C0.771,-0.786 0.726,-0.72 0.689,-0.674L0.51,-0.674L0.552,-0.69C0.54,-0.733 0.504,-0.797 0.471,-0.845Z" style="fill-rule:nonzero;"/>
                    </g>
                    <g transform="matrix(32,0,0,32,5019.23,2657.55)">
                        <path d="M0.601,-0.565L0.533,-0.593C0.501,-0.521 0.441,-0.437 0.377,-0.384C0.393,-0.373 0.417,-0.352 0.429,-0.338C0.496,-0.397 0.559,-0.482 0.601,-0.565ZM0.799,-0.596L0.741,-0.563C0.805,-0.497 0.875,-0.406 0.904,-0.345L0.967,-0.382C0.936,-0.443 0.864,-0.531 0.799,-0.596ZM0.709,-0.84L0.636,-0.84L0.636,-0.693L0.4,-0.693L0.4,-0.623L0.949,-0.623L0.949,-0.693L0.709,-0.693L0.709,-0.84ZM0.842,-0.4L0.766,-0.416C0.746,-0.342 0.715,-0.273 0.671,-0.21C0.627,-0.27 0.591,-0.338 0.565,-0.41L0.5,-0.392C0.531,-0.304 0.573,-0.222 0.625,-0.152C0.558,-0.078 0.471,-0.017 0.361,0.024C0.374,0.039 0.392,0.066 0.401,0.083C0.512,0.041 0.6,-0.02 0.671,-0.095C0.739,-0.018 0.821,0.043 0.916,0.082C0.928,0.062 0.952,0.032 0.969,0.016C0.872,-0.019 0.788,-0.078 0.719,-0.153C0.774,-0.226 0.814,-0.309 0.842,-0.4ZM0.269,-0.84L0.199,-0.84L0.199,-0.626L0.052,-0.626L0.052,-0.555L0.191,-0.555C0.16,-0.418 0.096,-0.26 0.032,-0.175C0.045,-0.158 0.063,-0.129 0.071,-0.109C0.119,-0.174 0.164,-0.281 0.199,-0.391L0.199,0.079L0.269,0.079L0.269,-0.39C0.302,-0.337 0.341,-0.272 0.358,-0.237L0.4,-0.295C0.382,-0.324 0.298,-0.444 0.269,-0.479L0.269,-0.555L0.391,-0.555L0.391,-0.626L0.269,-0.626L0.269,-0.84Z" style="fill-rule:nonzero;"/>
                    </g>
                    <g transform="matrix(32,0,0,32,5055.84,2657.55)">
                        <path d="M0.22,-0.84L0.152,-0.84L0.152,0.079L0.22,0.079L0.22,-0.84ZM0.129,-0.64L0.073,-0.647C0.067,-0.569 0.051,-0.458 0.027,-0.39L0.086,-0.37C0.109,-0.445 0.125,-0.561 0.129,-0.64L0.129,-0.64ZM0.279,-0.694L0.229,-0.674C0.25,-0.627 0.273,-0.564 0.282,-0.526L0.334,-0.552C0.325,-0.588 0.301,-0.648 0.279,-0.694ZM0.446,-0.267L0.446,-0.342L0.808,-0.342L0.808,-0.267L0.446,-0.267ZM0.446,-0.21L0.808,-0.21L0.808,-0.134L0.446,-0.134L0.446,-0.21ZM0.664,-0.84L0.59,-0.84L0.59,-0.762L0.334,-0.762L0.334,-0.704L0.59,-0.704L0.59,-0.64L0.358,-0.64L0.358,-0.585L0.59,-0.585L0.59,-0.516L0.304,-0.516L0.304,-0.458L0.958,-0.458L0.958,-0.516L0.664,-0.516L0.664,-0.585L0.903,-0.585L0.903,-0.64L0.664,-0.64L0.664,-0.704L0.928,-0.704L0.928,-0.762L0.664,-0.762L0.664,-0.84ZM0.879,-0.004L0.879,-0.4L0.376,-0.4L0.376,0.079L0.446,0.079L0.446,-0.077L0.808,-0.077L0.808,-0.005C0.808,0.007 0.803,0.011 0.79,0.012C0.776,0.013 0.728,0.013 0.677,0.011C0.686,0.029 0.696,0.057 0.699,0.076C0.77,0.076 0.815,0.076 0.843,0.064C0.871,0.053 0.879,0.033 0.879,-0.004Z" style="fill-rule:nonzero;"/>
                    </g>
                    <g transform="matrix(32,0,0,32,5086.56,2657.55)">
                        <path d="M0.874,-0.454L0.588,-0.454L0.588,-0.726L0.84,-0.726L0.84,-0.601C0.84,-0.59 0.837,-0.587 0.82,-0.586C0.805,-0.585 0.753,-0.585 0.69,-0.587C0.7,-0.567 0.71,-0.541 0.713,-0.521C0.791,-0.521 0.841,-0.521 0.872,-0.532C0.903,-0.543 0.91,-0.564 0.91,-0.601L0.91,-0.794L0.519,-0.794L0.519,0.081L0.588,0.081L0.588,0.033C0.604,0.045 0.625,0.066 0.636,0.082C0.687,0.047 0.732,0.003 0.771,-0.048C0.814,0.005 0.864,0.049 0.92,0.08C0.932,0.061 0.955,0.033 0.972,0.019C0.912,-0.01 0.859,-0.054 0.812,-0.109C0.872,-0.205 0.912,-0.32 0.934,-0.44L0.887,-0.457L0.874,-0.454ZM0.588,-0.392L0.596,-0.392C0.627,-0.287 0.671,-0.189 0.727,-0.107C0.688,-0.053 0.642,-0.006 0.588,0.029L0.588,-0.392ZM0.66,-0.392L0.852,-0.392C0.835,-0.315 0.806,-0.238 0.767,-0.169C0.721,-0.236 0.686,-0.312 0.66,-0.392ZM0.431,-0.495L0.382,-0.507L0.487,-0.507L0.487,-0.572L0.301,-0.572L0.301,-0.673L0.448,-0.673L0.448,-0.737L0.301,-0.737L0.301,-0.839L0.231,-0.839L0.231,-0.737L0.077,-0.737L0.077,-0.673L0.231,-0.673L0.231,-0.572L0.042,-0.572L0.042,-0.507L0.157,-0.507L0.111,-0.495C0.131,-0.455 0.148,-0.401 0.154,-0.365L0.056,-0.365L0.056,-0.3L0.231,-0.3L0.231,-0.191L0.066,-0.191L0.066,-0.126L0.231,-0.126L0.231,0.078L0.301,0.078L0.301,-0.126L0.461,-0.126L0.461,-0.191L0.301,-0.191L0.301,-0.3L0.474,-0.3L0.474,-0.365L0.375,-0.365C0.393,-0.4 0.412,-0.449 0.431,-0.495ZM0.365,-0.507C0.355,-0.468 0.332,-0.412 0.316,-0.376L0.354,-0.365L0.178,-0.365L0.215,-0.376C0.21,-0.41 0.192,-0.465 0.171,-0.507L0.365,-0.507Z" style="fill-rule:nonzero;"/>
                    </g>
                    <g transform="matrix(32,0,0,32,5117.28,2657.55)">
                        <path d="M0.151,-0.053L0.197,0.028C0.29,0.009 0.428,-0.038 0.529,-0.096C0.688,-0.19 0.827,-0.319 0.913,-0.454L0.865,-0.536C0.784,-0.395 0.652,-0.265 0.486,-0.17C0.385,-0.112 0.261,-0.072 0.151,-0.053ZM0.324,-0.338L0.37,-0.408C0.326,-0.44 0.209,-0.511 0.15,-0.543L0.106,-0.475C0.166,-0.444 0.275,-0.374 0.324,-0.338ZM0.471,-0.559L0.518,-0.627C0.475,-0.659 0.36,-0.735 0.301,-0.768L0.256,-0.701C0.315,-0.667 0.423,-0.595 0.471,-0.559Z" style="fill-rule:nonzero;"/>
                    </g>
                    <g transform="matrix(32,0,0,32,5148,2657.55)">
                        <path d="M0.829,0.027L0.899,-0.033C0.834,-0.112 0.712,-0.242 0.607,-0.332C0.678,-0.422 0.741,-0.539 0.775,-0.625C0.781,-0.639 0.794,-0.661 0.8,-0.669L0.749,-0.708C0.733,-0.703 0.707,-0.7 0.674,-0.7L0.288,-0.7C0.258,-0.7 0.202,-0.704 0.187,-0.706L0.187,-0.615C0.199,-0.616 0.253,-0.62 0.288,-0.62L0.678,-0.62C0.653,-0.537 0.58,-0.419 0.512,-0.342C0.409,-0.227 0.261,-0.108 0.1,-0.045L0.164,0.022C0.312,-0.045 0.447,-0.155 0.554,-0.27C0.656,-0.179 0.762,-0.062 0.829,0.027Z" style="fill-rule:nonzero;"/>
                    </g>
                    <g transform="matrix(32,0,0,32,5178.72,2657.55)">
                        <path d="M0.215,-0.74L0.215,-0.657C0.24,-0.659 0.273,-0.66 0.306,-0.66L0.71,-0.66C0.739,-0.66 0.774,-0.659 0.803,-0.657L0.803,-0.74C0.774,-0.736 0.738,-0.734 0.71,-0.734L0.305,-0.734C0.273,-0.734 0.243,-0.737 0.215,-0.74ZM0.095,-0.489L0.095,-0.406C0.123,-0.408 0.152,-0.408 0.182,-0.408L0.482,-0.408C0.479,-0.314 0.468,-0.23 0.424,-0.16C0.385,-0.097 0.313,-0.039 0.235,-0.007L0.309,0.048C0.394,0.004 0.47,-0.068 0.506,-0.135C0.546,-0.209 0.562,-0.3 0.565,-0.408L0.837,-0.408C0.861,-0.408 0.893,-0.407 0.915,-0.406L0.915,-0.489C0.891,-0.485 0.858,-0.484 0.837,-0.484L0.182,-0.484C0.151,-0.484 0.123,-0.486 0.095,-0.489Z" style="fill-rule:nonzero;"/>
                    </g>
                    <g transform="matrix(32,0,0,32,5208.48,2657.55)">
                        <path d="M0.85,0.034L0.934,-0.004C0.892,-0.107 0.783,-0.308 0.712,-0.411L0.637,-0.377C0.674,-0.329 0.719,-0.251 0.759,-0.172C0.649,-0.157 0.457,-0.136 0.31,-0.122C0.36,-0.252 0.459,-0.559 0.488,-0.653C0.501,-0.695 0.512,-0.721 0.522,-0.746L0.422,-0.766C0.419,-0.74 0.415,-0.716 0.403,-0.67C0.375,-0.572 0.273,-0.252 0.217,-0.114L0.167,-0.111C0.138,-0.11 0.104,-0.109 0.074,-0.11L0.089,-0.017C0.118,-0.021 0.147,-0.026 0.172,-0.028C0.306,-0.04 0.641,-0.077 0.795,-0.097C0.818,-0.048 0.837,-0.002 0.85,0.034Z" style="fill-rule:nonzero;"/>
                    </g>
                    <g transform="matrix(32,0,0,32,5239.2,2657.55)">
                        <path d="M0.159,-0.134L0.159,-0.043C0.186,-0.045 0.231,-0.047 0.272,-0.047L0.761,-0.047L0.759,0.009L0.849,0.009C0.848,-0.007 0.845,-0.052 0.845,-0.088L0.845,-0.604C0.845,-0.628 0.847,-0.659 0.848,-0.682C0.828,-0.681 0.798,-0.68 0.774,-0.68L0.281,-0.68C0.249,-0.68 0.205,-0.682 0.172,-0.686L0.172,-0.597C0.195,-0.598 0.245,-0.6 0.282,-0.6L0.761,-0.6L0.761,-0.128L0.27,-0.128C0.228,-0.128 0.185,-0.131 0.159,-0.134Z" style="fill-rule:nonzero;"/>
                    </g>
                    <g transform="matrix(32,0,0,32,5269.92,2657.55)">
                        <path d="M0.102,-0.433L0.102,-0.335C0.133,-0.338 0.186,-0.34 0.241,-0.34L0.79,-0.34C0.835,-0.34 0.877,-0.336 0.897,-0.335L0.897,-0.433C0.875,-0.431 0.839,-0.428 0.789,-0.428L0.241,-0.428C0.185,-0.428 0.132,-0.431 0.102,-0.433Z" style="fill-rule:nonzero;"/>
                    </g>
                    <g transform="matrix(32,0,0,32,5299.04,2657.55)">
                        <path d="M0.829,0.027L0.899,-0.033C0.834,-0.112 0.712,-0.242 0.607,-0.332C0.678,-0.422 0.741,-0.539 0.775,-0.625C0.781,-0.639 0.794,-0.661 0.8,-0.669L0.749,-0.708C0.733,-0.703 0.707,-0.7 0.674,-0.7L0.288,-0.7C0.258,-0.7 0.202,-0.704 0.187,-0.706L0.187,-0.615C0.199,-0.616 0.253,-0.62 0.288,-0.62L0.678,-0.62C0.653,-0.537 0.58,-0.419 0.512,-0.342C0.409,-0.227 0.261,-0.108 0.1,-0.045L0.164,0.022C0.312,-0.045 0.447,-0.155 0.554,-0.27C0.656,-0.179 0.762,-0.062 0.829,0.027Z" style="fill-rule:nonzero;"/>
                    </g>
                </g>
                <g transform="matrix(1,0,0,1,743.611,3949.77)">
                    <g transform="matrix(32,0,0,32,4742.75,2657.55)">
                        <path d="M0.416,0.011C0.611,0.011 0.777,-0.134 0.777,-0.361C0.777,-0.588 0.611,-0.73 0.416,-0.73C0.222,-0.73 0.055,-0.588 0.055,-0.361C0.055,-0.134 0.222,0.011 0.416,0.011ZM0.416,-0.034C0.247,-0.034 0.107,-0.166 0.107,-0.361C0.107,-0.556 0.247,-0.685 0.416,-0.685C0.584,-0.685 0.725,-0.556 0.725,-0.361C0.725,-0.166 0.584,-0.034 0.416,-0.034ZM0.424,-0.145C0.491,-0.145 0.534,-0.169 0.574,-0.209L0.539,-0.253C0.507,-0.224 0.479,-0.205 0.428,-0.205C0.347,-0.205 0.296,-0.264 0.296,-0.358C0.296,-0.45 0.35,-0.515 0.432,-0.515C0.471,-0.515 0.502,-0.499 0.529,-0.469L0.569,-0.511C0.536,-0.548 0.491,-0.576 0.428,-0.576C0.32,-0.576 0.222,-0.492 0.222,-0.358C0.222,-0.224 0.31,-0.145 0.424,-0.145Z" style="fill-rule:nonzero;"/>
                    </g>
                    <g transform="matrix(32,0,0,32,4773.98,2657.55)">
                        <path d="M0.044,-0L0.505,-0L0.505,-0.079L0.296,-0.079C0.259,-0.079 0.215,-0.075 0.176,-0.072C0.35,-0.235 0.47,-0.382 0.47,-0.531C0.47,-0.661 0.387,-0.746 0.256,-0.746C0.164,-0.746 0.101,-0.702 0.042,-0.637L0.093,-0.587C0.134,-0.636 0.185,-0.672 0.245,-0.672C0.336,-0.672 0.38,-0.611 0.38,-0.527C0.38,-0.402 0.277,-0.255 0.044,-0.058L0.044,-0Z" style="fill-rule:nonzero;"/>
                    </g>
                    <g transform="matrix(32,0,0,32,4790.46,2657.55)">
                        <path d="M0.278,0.013C0.417,0.013 0.506,-0.113 0.506,-0.369C0.506,-0.623 0.417,-0.746 0.278,-0.746C0.138,-0.746 0.05,-0.623 0.05,-0.369C0.05,-0.113 0.138,0.013 0.278,0.013ZM0.278,-0.061C0.195,-0.061 0.138,-0.154 0.138,-0.369C0.138,-0.583 0.195,-0.674 0.278,-0.674C0.361,-0.674 0.418,-0.583 0.418,-0.369C0.418,-0.154 0.361,-0.061 0.278,-0.061Z" style="fill-rule:nonzero;"/>
                    </g>
                    <g transform="matrix(32,0,0,32,4806.94,2657.55)">
                        <path d="M0.044,-0L0.505,-0L0.505,-0.079L0.296,-0.079C0.259,-0.079 0.215,-0.075 0.176,-0.072C0.35,-0.235 0.47,-0.382 0.47,-0.531C0.47,-0.661 0.387,-0.746 0.256,-0.746C0.164,-0.746 0.101,-0.702 0.042,-0.637L0.093,-0.587C0.134,-0.636 0.185,-0.672 0.245,-0.672C0.336,-0.672 0.38,-0.611 0.38,-0.527C0.38,-0.402 0.277,-0.255 0.044,-0.058L0.044,-0Z" style="fill-rule:nonzero;"/>
                    </g>
                    <g transform="matrix(32,0,0,32,4823.42,2657.55)">
                        <path d="M0.262,0.013C0.385,0.013 0.502,-0.078 0.502,-0.238C0.502,-0.4 0.402,-0.472 0.281,-0.472C0.237,-0.472 0.204,-0.461 0.171,-0.443L0.19,-0.655L0.466,-0.655L0.466,-0.733L0.11,-0.733L0.086,-0.391L0.135,-0.36C0.177,-0.388 0.208,-0.403 0.257,-0.403C0.349,-0.403 0.409,-0.341 0.409,-0.236C0.409,-0.129 0.34,-0.063 0.253,-0.063C0.168,-0.063 0.114,-0.102 0.073,-0.144L0.027,-0.084C0.077,-0.035 0.147,0.013 0.262,0.013Z" style="fill-rule:nonzero;"/>
                    </g>
                    <g transform="matrix(32,0,0,32,4845.79,2657.55)">
                        <path d="M0.217,0.013C0.284,0.013 0.345,-0.022 0.397,-0.065L0.4,-0.065L0.408,-0L0.483,-0L0.483,-0.334C0.483,-0.469 0.428,-0.557 0.295,-0.557C0.207,-0.557 0.131,-0.519 0.082,-0.486L0.117,-0.425C0.16,-0.452 0.217,-0.481 0.28,-0.481C0.369,-0.481 0.392,-0.414 0.392,-0.344C0.161,-0.318 0.059,-0.259 0.059,-0.141C0.059,-0.043 0.126,0.013 0.217,0.013ZM0.243,-0.061C0.189,-0.061 0.147,-0.085 0.147,-0.147C0.147,-0.217 0.209,-0.262 0.392,-0.283L0.392,-0.132C0.339,-0.085 0.295,-0.061 0.243,-0.061Z" style="fill-rule:nonzero;"/>
                    </g>
                    <g transform="matrix(32,0,0,32,4862.52,2657.55)">
                        <path d="M0.092,-0L0.184,-0L0.184,-0.349C0.22,-0.441 0.275,-0.475 0.32,-0.475C0.343,-0.475 0.354,-0.473 0.37,-0.468L0.39,-0.545C0.373,-0.554 0.356,-0.557 0.332,-0.557C0.27,-0.557 0.215,-0.513 0.178,-0.444L0.176,-0.444L0.167,-0.543L0.092,-0.543L0.092,-0Z" style="fill-rule:nonzero;"/>
                    </g>
                    <g transform="matrix(32,0,0,32,4873.66,2657.55)">
                        <path d="M0.092,-0L0.184,-0L0.184,-0.543L0.092,-0.543L0.092,-0ZM0.137,-0.655C0.172,-0.655 0.198,-0.679 0.198,-0.716C0.198,-0.751 0.172,-0.775 0.137,-0.775C0.101,-0.775 0.076,-0.751 0.076,-0.716C0.076,-0.679 0.101,-0.655 0.137,-0.655Z" style="fill-rule:nonzero;"/>
                    </g>
                    <g transform="matrix(32,0,0,32,4881.18,2657.55)">
                        <path d="M0.262,0.011C0.299,0.011 0.335,0.001 0.364,-0.013L0.345,-0.078C0.324,-0.067 0.303,-0.064 0.283,-0.064C0.22,-0.064 0.199,-0.102 0.199,-0.169L0.199,-0.469L0.347,-0.469L0.347,-0.543L0.199,-0.543L0.199,-0.718L0.123,-0.718L0.113,-0.543L0.027,-0.538L0.027,-0.469L0.108,-0.469L0.108,-0.171C0.108,-0.063 0.147,0.011 0.262,0.011Z" style="fill-rule:nonzero;"/>
                    </g>
                    <g transform="matrix(32,0,0,32,4891.96,2657.55)">
                        <path d="M0.251,0.013C0.325,0.013 0.379,-0.026 0.43,-0.085L0.433,-0.085L0.44,-0L0.516,-0L0.516,-0.543L0.425,-0.543L0.425,-0.158C0.373,-0.094 0.334,-0.066 0.278,-0.066C0.206,-0.066 0.176,-0.109 0.176,-0.21L0.176,-0.543L0.084,-0.543L0.084,-0.199C0.084,-0.06 0.136,0.013 0.251,0.013Z" style="fill-rule:nonzero;"/>
                    </g>
                    <g transform="matrix(32,0,0,32,4910.11,2657.55)">
                        <path d="M0.092,-0L0.184,-0L0.184,-0.394C0.233,-0.45 0.279,-0.477 0.32,-0.477C0.389,-0.477 0.421,-0.434 0.421,-0.332L0.421,-0L0.512,-0L0.512,-0.394C0.563,-0.45 0.607,-0.477 0.649,-0.477C0.718,-0.477 0.75,-0.434 0.75,-0.332L0.75,-0L0.841,-0L0.841,-0.344C0.841,-0.482 0.788,-0.557 0.677,-0.557C0.61,-0.557 0.554,-0.514 0.497,-0.453C0.475,-0.517 0.431,-0.557 0.347,-0.557C0.282,-0.557 0.226,-0.516 0.178,-0.464L0.176,-0.464L0.167,-0.543L0.092,-0.543L0.092,-0Z" style="fill-rule:nonzero;"/>
                    </g>
                    <g transform="matrix(32,0,0,32,4938.46,2657.55)">
                        <path d="M0.092,-0L0.184,-0L0.184,-0.394C0.238,-0.449 0.276,-0.477 0.332,-0.477C0.404,-0.477 0.435,-0.434 0.435,-0.332L0.435,-0L0.526,-0L0.526,-0.344C0.526,-0.482 0.474,-0.557 0.36,-0.557C0.286,-0.557 0.229,-0.516 0.178,-0.464L0.176,-0.464L0.167,-0.543L0.092,-0.543L0.092,-0Z" style="fill-rule:nonzero;"/>
                    </g>
                    <g transform="matrix(32,0,0,32,4956.7,2657.55)">
                        <path d="M0.044,-0L0.505,-0L0.505,-0.079L0.296,-0.079C0.259,-0.079 0.215,-0.075 0.176,-0.072C0.35,-0.235 0.47,-0.382 0.47,-0.531C0.47,-0.661 0.387,-0.746 0.256,-0.746C0.164,-0.746 0.101,-0.702 0.042,-0.637L0.093,-0.587C0.134,-0.636 0.185,-0.672 0.245,-0.672C0.336,-0.672 0.38,-0.611 0.38,-0.527C0.38,-0.402 0.277,-0.255 0.044,-0.058L0.044,-0Z" style="fill-rule:nonzero;"/>
                    </g>
                    <g transform="matrix(32,0,0,32,4973.18,2657.55)">
                        <path d="M0.278,0.013C0.417,0.013 0.506,-0.113 0.506,-0.369C0.506,-0.623 0.417,-0.746 0.278,-0.746C0.138,-0.746 0.05,-0.623 0.05,-0.369C0.05,-0.113 0.138,0.013 0.278,0.013ZM0.278,-0.061C0.195,-0.061 0.138,-0.154 0.138,-0.369C0.138,-0.583 0.195,-0.674 0.278,-0.674C0.361,-0.674 0.418,-0.583 0.418,-0.369C0.418,-0.154 0.361,-0.061 0.278,-0.061Z" style="fill-rule:nonzero;"/>
                    </g>
                    <g transform="matrix(32,0,0,32,4989.66,2657.55)">
                        <path d="M0.044,-0L0.505,-0L0.505,-0.079L0.296,-0.079C0.259,-0.079 0.215,-0.075 0.176,-0.072C0.35,-0.235 0.47,-0.382 0.47,-0.531C0.47,-0.661 0.387,-0.746 0.256,-0.746C0.164,-0.746 0.101,-0.702 0.042,-0.637L0.093,-0.587C0.134,-0.636 0.185,-0.672 0.245,-0.672C0.336,-0.672 0.38,-0.611 0.38,-0.527C0.38,-0.402 0.277,-0.255 0.044,-0.058L0.044,-0Z" style="fill-rule:nonzero;"/>
                    </g>
                    <g transform="matrix(32,0,0,32,5006.14,2657.55)">
                        <path d="M0.262,0.013C0.385,0.013 0.502,-0.078 0.502,-0.238C0.502,-0.4 0.402,-0.472 0.281,-0.472C0.237,-0.472 0.204,-0.461 0.171,-0.443L0.19,-0.655L0.466,-0.655L0.466,-0.733L0.11,-0.733L0.086,-0.391L0.135,-0.36C0.177,-0.388 0.208,-0.403 0.257,-0.403C0.349,-0.403 0.409,-0.341 0.409,-0.236C0.409,-0.129 0.34,-0.063 0.253,-0.063C0.168,-0.063 0.114,-0.102 0.073,-0.144L0.027,-0.084C0.077,-0.035 0.147,0.013 0.262,0.013Z" style="fill-rule:nonzero;"/>
                    </g>
                </g>
                <g transform="matrix(2.10532,0,0,1.08439,312.176,4042.93)">
                    <path d="M2148.27,2122.42C2148.27,2110.28 2150.76,2098.64 2155.18,2090.06C2159.6,2081.47 2165.59,2076.65 2171.84,2076.65C2192.12,2076.65 2220.09,2076.65 2233.12,2076.65C2237.83,2076.65 2242.43,2079.39 2246.33,2084.52C2252.31,2092.38 2261.45,2104.39 2267.43,2112.24C2271.33,2117.37 2275.93,2120.11 2280.64,2120.11C2327.88,2120.11 2590.7,2120.11 2590.7,2120.11L2590.7,2290.3C2590.7,2290.3 2263.44,2290.22 2171.84,2290.19C2158.82,2290.19 2148.27,2269.7 2148.27,2244.43L2148.27,2122.42Z" style="fill:none;stroke:black;stroke-width:1.79px;"/>
                </g>
            </g>
        </g>
    </g>
</svg>
