<?xml version="1.0" encoding="UTF-8" standalone="no"?>
<!DOCTYPE svg PUBLIC "-//W3C//DTD SVG 1.1//EN" "http://www.w3.org/Graphics/SVG/1.1/DTD/svg11.dtd">
<svg width="100%" height="100%" viewBox="0 0 1858 423" version="1.1" xmlns="http://www.w3.org/2000/svg" xmlns:xlink="http://www.w3.org/1999/xlink" xml:space="preserve" xmlns:serif="http://www.serif.com/" style="fill-rule:evenodd;clip-rule:evenodd;stroke-linecap:square;stroke-linejoin:round;stroke-miterlimit:1.5;">
    <g transform="matrix(1,0,0,1,-15621.8,-10269.6)">
        <g id="rope_bottom" transform="matrix(1,0,0,1,11255.4,3873.86)">
            <rect x="4366.45" y="6395.77" width="1857.75" height="422.062" style="fill:none;"/>
            <g transform="matrix(1,0,0,1,-4901.71,-9.47152)">
                <path d="M11017.9,6494.06C10921.3,6671.68 9996.76,6719.55 9356.7,6719.55" style="fill:none;stroke:rgb(69,139,232);stroke-width:49.14px;"/>
            </g>
            <g transform="matrix(1,0,0,1,-4901.71,4.71422)">
                <g transform="matrix(40,-0.0235496,0.0235496,40,9356.69,6719.55)">
                    <path d="M0.204,-0L0.113,-0L0.113,-0.584C0.113,-0.622 0.12,-0.654 0.134,-0.68C0.148,-0.707 0.168,-0.726 0.194,-0.74C0.22,-0.753 0.251,-0.76 0.287,-0.76C0.297,-0.76 0.308,-0.76 0.318,-0.758C0.329,-0.757 0.339,-0.755 0.349,-0.752L0.344,-0.679C0.337,-0.68 0.33,-0.681 0.321,-0.682C0.312,-0.683 0.304,-0.683 0.295,-0.683C0.276,-0.683 0.26,-0.679 0.246,-0.672C0.232,-0.664 0.222,-0.653 0.214,-0.638C0.207,-0.624 0.204,-0.605 0.204,-0.584L0.204,-0ZM0.316,-0.528L0.316,-0.459L0.03,-0.459L0.03,-0.528L0.316,-0.528Z" style="fill-rule:nonzero;"/>
                </g>
                <g transform="matrix(40,-0.0624305,0.0624305,40,9368.97,6719.54)">
                    <path d="M0.159,-0.445L0.159,-0L0.069,-0L0.069,-0.528L0.157,-0.528L0.159,-0.445ZM0.324,-0.531L0.324,-0.447C0.316,-0.449 0.309,-0.45 0.302,-0.45C0.296,-0.451 0.288,-0.451 0.28,-0.451C0.259,-0.451 0.241,-0.448 0.225,-0.441C0.209,-0.435 0.195,-0.426 0.184,-0.414C0.173,-0.402 0.164,-0.388 0.158,-0.372C0.152,-0.356 0.147,-0.339 0.146,-0.319L0.12,-0.305C0.12,-0.337 0.123,-0.367 0.13,-0.395C0.136,-0.423 0.146,-0.447 0.159,-0.469C0.173,-0.491 0.19,-0.508 0.21,-0.52C0.231,-0.532 0.256,-0.538 0.284,-0.538C0.291,-0.538 0.298,-0.537 0.307,-0.536C0.315,-0.534 0.321,-0.533 0.324,-0.531Z" style="fill-rule:nonzero;"/>
                </g>
                <g transform="matrix(39.9999,-0.0901817,0.0901817,39.9999,9380.93,6719.53)">
                    <path d="M0.167,-0.528L0.167,-0L0.076,-0L0.076,-0.528L0.167,-0.528ZM0.069,-0.668C0.069,-0.683 0.074,-0.695 0.083,-0.706C0.092,-0.716 0.105,-0.721 0.123,-0.721C0.14,-0.721 0.153,-0.716 0.162,-0.706C0.172,-0.695 0.176,-0.683 0.176,-0.668C0.176,-0.654 0.172,-0.642 0.162,-0.633C0.153,-0.623 0.14,-0.618 0.123,-0.618C0.105,-0.618 0.092,-0.623 0.083,-0.633C0.074,-0.642 0.069,-0.654 0.069,-0.668Z" style="fill-rule:nonzero;"/>
                </g>
                <g transform="matrix(39.9998,-0.133294,0.133294,39.9998,9389.11,6719.51)">
                    <path d="M0.288,0.01C0.251,0.01 0.218,0.003 0.188,-0.009C0.158,-0.022 0.133,-0.039 0.112,-0.062C0.09,-0.085 0.074,-0.112 0.063,-0.143C0.051,-0.174 0.045,-0.208 0.045,-0.246L0.045,-0.266C0.045,-0.309 0.052,-0.347 0.064,-0.381C0.077,-0.415 0.094,-0.443 0.116,-0.467C0.138,-0.49 0.163,-0.508 0.19,-0.52C0.218,-0.532 0.247,-0.538 0.276,-0.538C0.314,-0.538 0.347,-0.532 0.374,-0.519C0.402,-0.506 0.424,-0.487 0.442,-0.464C0.459,-0.441 0.472,-0.413 0.481,-0.382C0.489,-0.351 0.494,-0.316 0.494,-0.279L0.494,-0.239L0.099,-0.239L0.099,-0.313L0.403,-0.313L0.403,-0.319C0.402,-0.343 0.397,-0.366 0.389,-0.388C0.381,-0.41 0.368,-0.428 0.35,-0.442C0.332,-0.457 0.307,-0.464 0.276,-0.464C0.256,-0.464 0.237,-0.46 0.22,-0.451C0.202,-0.442 0.188,-0.43 0.175,-0.413C0.163,-0.396 0.153,-0.375 0.146,-0.351C0.14,-0.326 0.136,-0.298 0.136,-0.266L0.136,-0.246C0.136,-0.221 0.14,-0.197 0.147,-0.175C0.154,-0.153 0.164,-0.134 0.177,-0.117C0.191,-0.101 0.207,-0.088 0.227,-0.078C0.246,-0.069 0.268,-0.064 0.293,-0.064C0.325,-0.064 0.352,-0.07 0.374,-0.083C0.396,-0.097 0.416,-0.114 0.432,-0.136L0.487,-0.092C0.475,-0.075 0.461,-0.059 0.443,-0.043C0.426,-0.027 0.404,-0.015 0.379,-0.005C0.353,0.005 0.323,0.01 0.288,0.01Z" style="fill-rule:nonzero;"/>
                </g>
                <g transform="matrix(39.9995,-0.194031,0.194031,39.9995,9408.73,6719.45)">
                    <path d="M0.159,-0.416L0.159,-0L0.069,-0L0.069,-0.528L0.154,-0.528L0.159,-0.416ZM0.138,-0.284L0.1,-0.286C0.1,-0.322 0.106,-0.355 0.116,-0.386C0.127,-0.417 0.141,-0.444 0.16,-0.466C0.179,-0.489 0.202,-0.507 0.228,-0.519C0.254,-0.532 0.283,-0.538 0.315,-0.538C0.341,-0.538 0.364,-0.535 0.385,-0.528C0.406,-0.521 0.424,-0.509 0.439,-0.494C0.454,-0.479 0.465,-0.459 0.473,-0.435C0.48,-0.411 0.484,-0.381 0.484,-0.346L0.484,-0L0.394,-0L0.394,-0.347C0.394,-0.375 0.389,-0.397 0.381,-0.414C0.373,-0.431 0.361,-0.443 0.346,-0.45C0.33,-0.458 0.311,-0.462 0.288,-0.462C0.266,-0.462 0.245,-0.457 0.227,-0.448C0.208,-0.438 0.193,-0.425 0.179,-0.409C0.166,-0.392 0.156,-0.373 0.149,-0.352C0.141,-0.33 0.138,-0.308 0.138,-0.284Z" style="fill-rule:nonzero;"/>
                </g>
                <g transform="matrix(39.9992,-0.255294,0.255294,39.9992,9429.19,6719.35)">
                    <path d="M0.402,-0.103L0.402,-0.75L0.493,-0.75L0.493,-0L0.41,-0L0.402,-0.103ZM0.046,-0.258L0.046,-0.269C0.046,-0.309 0.051,-0.346 0.061,-0.379C0.071,-0.412 0.085,-0.44 0.104,-0.464C0.122,-0.488 0.144,-0.506 0.17,-0.519C0.195,-0.532 0.224,-0.538 0.255,-0.538C0.289,-0.538 0.318,-0.532 0.343,-0.521C0.367,-0.509 0.389,-0.492 0.406,-0.47C0.423,-0.448 0.437,-0.422 0.447,-0.391C0.457,-0.36 0.464,-0.325 0.468,-0.286L0.468,-0.241C0.465,-0.202 0.458,-0.168 0.448,-0.137C0.437,-0.106 0.423,-0.079 0.406,-0.058C0.389,-0.036 0.367,-0.019 0.342,-0.008C0.317,0.004 0.288,0.01 0.254,0.01C0.223,0.01 0.195,0.003 0.17,-0.01C0.144,-0.024 0.122,-0.042 0.104,-0.066C0.085,-0.09 0.071,-0.119 0.061,-0.152C0.051,-0.184 0.046,-0.22 0.046,-0.258ZM0.137,-0.269L0.137,-0.258C0.137,-0.232 0.14,-0.207 0.145,-0.184C0.151,-0.161 0.159,-0.141 0.17,-0.123C0.182,-0.105 0.196,-0.092 0.214,-0.082C0.231,-0.072 0.252,-0.067 0.277,-0.067C0.307,-0.067 0.331,-0.073 0.351,-0.086C0.37,-0.099 0.386,-0.115 0.397,-0.136C0.409,-0.157 0.418,-0.18 0.425,-0.204L0.425,-0.322C0.421,-0.34 0.415,-0.357 0.408,-0.374C0.401,-0.391 0.391,-0.406 0.38,-0.419C0.368,-0.432 0.354,-0.442 0.337,-0.45C0.32,-0.458 0.301,-0.462 0.278,-0.462C0.253,-0.462 0.232,-0.457 0.214,-0.447C0.196,-0.436 0.182,-0.422 0.17,-0.405C0.159,-0.387 0.151,-0.366 0.145,-0.343C0.14,-0.32 0.137,-0.295 0.137,-0.269Z" style="fill-rule:nonzero;"/>
                </g>
                <g transform="matrix(39.9989,-0.300921,0.300921,39.9989,9450.18,6719.21)">
                    <rect x="0.076" y="-0.75" width="0.091" height="0.75" style="fill-rule:nonzero;"/>
                </g>
                <g transform="matrix(39.9987,-0.325449,0.325449,39.9987,9458.25,6719.15)">
                    <path d="M0.167,-0.528L0.167,-0L0.076,-0L0.076,-0.528L0.167,-0.528ZM0.069,-0.668C0.069,-0.683 0.074,-0.695 0.083,-0.706C0.092,-0.716 0.105,-0.721 0.123,-0.721C0.14,-0.721 0.153,-0.716 0.162,-0.706C0.172,-0.695 0.176,-0.683 0.176,-0.668C0.176,-0.654 0.172,-0.642 0.162,-0.633C0.153,-0.623 0.14,-0.618 0.123,-0.618C0.105,-0.618 0.092,-0.623 0.083,-0.633C0.074,-0.642 0.069,-0.654 0.069,-0.668Z" style="fill-rule:nonzero;"/>
                </g>
                <g transform="matrix(39.9983,-0.368529,0.368529,39.9983,9466.38,6719.09)">
                    <path d="M0.159,-0.416L0.159,-0L0.069,-0L0.069,-0.528L0.154,-0.528L0.159,-0.416ZM0.138,-0.284L0.1,-0.286C0.1,-0.322 0.106,-0.355 0.116,-0.386C0.127,-0.417 0.141,-0.444 0.16,-0.466C0.179,-0.489 0.202,-0.507 0.228,-0.519C0.254,-0.532 0.283,-0.538 0.315,-0.538C0.341,-0.538 0.364,-0.535 0.385,-0.528C0.406,-0.521 0.424,-0.509 0.439,-0.494C0.454,-0.479 0.465,-0.459 0.473,-0.435C0.48,-0.411 0.484,-0.381 0.484,-0.346L0.484,-0L0.394,-0L0.394,-0.347C0.394,-0.375 0.389,-0.397 0.381,-0.414C0.373,-0.431 0.361,-0.443 0.346,-0.45C0.33,-0.458 0.311,-0.462 0.288,-0.462C0.266,-0.462 0.245,-0.457 0.227,-0.448C0.208,-0.438 0.193,-0.425 0.179,-0.409C0.166,-0.392 0.156,-0.373 0.149,-0.352C0.141,-0.33 0.138,-0.308 0.138,-0.284Z" style="fill-rule:nonzero;"/>
                </g>
                <g transform="matrix(39.9977,-0.429448,0.429448,39.9977,9486.87,6718.9)">
                    <path d="M0.288,0.01C0.251,0.01 0.218,0.003 0.188,-0.009C0.158,-0.022 0.133,-0.039 0.112,-0.062C0.09,-0.085 0.074,-0.112 0.063,-0.143C0.051,-0.174 0.045,-0.208 0.045,-0.246L0.045,-0.266C0.045,-0.309 0.052,-0.347 0.064,-0.381C0.077,-0.415 0.094,-0.443 0.116,-0.467C0.138,-0.49 0.163,-0.508 0.19,-0.52C0.218,-0.532 0.247,-0.538 0.276,-0.538C0.314,-0.538 0.347,-0.532 0.374,-0.519C0.402,-0.506 0.424,-0.487 0.442,-0.464C0.459,-0.441 0.472,-0.413 0.481,-0.382C0.489,-0.351 0.494,-0.316 0.494,-0.279L0.494,-0.239L0.099,-0.239L0.099,-0.313L0.403,-0.313L0.403,-0.319C0.402,-0.343 0.397,-0.366 0.389,-0.388C0.381,-0.41 0.368,-0.428 0.35,-0.442C0.332,-0.457 0.307,-0.464 0.276,-0.464C0.256,-0.464 0.237,-0.46 0.22,-0.451C0.202,-0.442 0.188,-0.43 0.175,-0.413C0.163,-0.396 0.153,-0.375 0.146,-0.351C0.14,-0.326 0.136,-0.298 0.136,-0.266L0.136,-0.246C0.136,-0.221 0.14,-0.197 0.147,-0.175C0.154,-0.153 0.164,-0.134 0.177,-0.117C0.191,-0.101 0.207,-0.088 0.227,-0.078C0.246,-0.069 0.268,-0.064 0.293,-0.064C0.325,-0.064 0.352,-0.07 0.374,-0.083C0.396,-0.097 0.416,-0.114 0.432,-0.136L0.487,-0.092C0.475,-0.075 0.461,-0.059 0.443,-0.043C0.426,-0.027 0.404,-0.015 0.379,-0.005C0.353,0.005 0.323,0.01 0.288,0.01Z" style="fill-rule:nonzero;"/>
                </g>
                <g transform="matrix(39.997,-0.486986,0.486986,39.997,9506.47,6718.69)">
                    <path d="M0.376,-0.14C0.376,-0.153 0.374,-0.165 0.368,-0.177C0.362,-0.188 0.351,-0.198 0.333,-0.207C0.316,-0.217 0.29,-0.225 0.255,-0.231C0.226,-0.238 0.199,-0.245 0.176,-0.253C0.152,-0.262 0.132,-0.272 0.115,-0.284C0.099,-0.296 0.086,-0.31 0.078,-0.327C0.069,-0.343 0.064,-0.362 0.064,-0.384C0.064,-0.405 0.069,-0.424 0.078,-0.443C0.088,-0.461 0.101,-0.478 0.118,-0.492C0.135,-0.507 0.156,-0.518 0.18,-0.526C0.204,-0.534 0.231,-0.538 0.26,-0.538C0.303,-0.538 0.339,-0.531 0.369,-0.516C0.399,-0.501 0.422,-0.481 0.438,-0.456C0.453,-0.431 0.461,-0.403 0.461,-0.373L0.371,-0.373C0.371,-0.388 0.367,-0.402 0.358,-0.416C0.35,-0.43 0.337,-0.441 0.321,-0.45C0.304,-0.459 0.284,-0.464 0.26,-0.464C0.235,-0.464 0.215,-0.46 0.199,-0.452C0.184,-0.445 0.173,-0.435 0.166,-0.423C0.159,-0.412 0.155,-0.399 0.155,-0.386C0.155,-0.376 0.157,-0.368 0.16,-0.36C0.164,-0.352 0.17,-0.345 0.179,-0.339C0.188,-0.333 0.2,-0.327 0.216,-0.321C0.232,-0.316 0.252,-0.31 0.277,-0.305C0.32,-0.295 0.356,-0.283 0.384,-0.27C0.412,-0.256 0.433,-0.239 0.446,-0.219C0.46,-0.199 0.467,-0.175 0.467,-0.147C0.467,-0.124 0.462,-0.103 0.452,-0.083C0.443,-0.064 0.429,-0.048 0.411,-0.034C0.393,-0.02 0.371,-0.009 0.346,-0.002C0.322,0.006 0.294,0.01 0.263,0.01C0.216,0.01 0.177,0.001 0.145,-0.015C0.112,-0.032 0.088,-0.053 0.071,-0.08C0.055,-0.106 0.046,-0.134 0.046,-0.163L0.137,-0.163C0.139,-0.138 0.146,-0.119 0.159,-0.104C0.172,-0.09 0.188,-0.08 0.207,-0.073C0.225,-0.067 0.244,-0.064 0.263,-0.064C0.287,-0.064 0.308,-0.068 0.325,-0.074C0.342,-0.081 0.354,-0.09 0.363,-0.101C0.372,-0.112 0.376,-0.125 0.376,-0.14Z" style="fill-rule:nonzero;"/>
                </g>
                <g transform="matrix(39.9963,-0.544515,0.544515,39.9963,9525.54,6718.46)">
                    <path d="M0.376,-0.14C0.376,-0.153 0.374,-0.165 0.368,-0.177C0.362,-0.188 0.351,-0.198 0.333,-0.207C0.316,-0.217 0.29,-0.225 0.255,-0.231C0.226,-0.238 0.199,-0.245 0.176,-0.253C0.152,-0.262 0.132,-0.272 0.115,-0.284C0.099,-0.296 0.086,-0.31 0.078,-0.327C0.069,-0.343 0.064,-0.362 0.064,-0.384C0.064,-0.405 0.069,-0.424 0.078,-0.443C0.088,-0.461 0.101,-0.478 0.118,-0.492C0.135,-0.507 0.156,-0.518 0.18,-0.526C0.204,-0.534 0.231,-0.538 0.26,-0.538C0.303,-0.538 0.339,-0.531 0.369,-0.516C0.399,-0.501 0.422,-0.481 0.438,-0.456C0.453,-0.431 0.461,-0.403 0.461,-0.373L0.371,-0.373C0.371,-0.388 0.367,-0.402 0.358,-0.416C0.35,-0.43 0.337,-0.441 0.321,-0.45C0.304,-0.459 0.284,-0.464 0.26,-0.464C0.235,-0.464 0.215,-0.46 0.199,-0.452C0.184,-0.445 0.173,-0.435 0.166,-0.423C0.159,-0.412 0.155,-0.399 0.155,-0.386C0.155,-0.376 0.157,-0.368 0.16,-0.36C0.164,-0.352 0.17,-0.345 0.179,-0.339C0.188,-0.333 0.2,-0.327 0.216,-0.321C0.232,-0.316 0.252,-0.31 0.277,-0.305C0.32,-0.295 0.356,-0.283 0.384,-0.27C0.412,-0.256 0.433,-0.239 0.446,-0.219C0.46,-0.199 0.467,-0.175 0.467,-0.147C0.467,-0.124 0.462,-0.103 0.452,-0.083C0.443,-0.064 0.429,-0.048 0.411,-0.034C0.393,-0.02 0.371,-0.009 0.346,-0.002C0.322,0.006 0.294,0.01 0.263,0.01C0.216,0.01 0.177,0.001 0.145,-0.015C0.112,-0.032 0.088,-0.053 0.071,-0.08C0.055,-0.106 0.046,-0.134 0.046,-0.163L0.137,-0.163C0.139,-0.138 0.146,-0.119 0.159,-0.104C0.172,-0.09 0.188,-0.08 0.207,-0.073C0.225,-0.067 0.244,-0.064 0.263,-0.064C0.287,-0.064 0.308,-0.068 0.325,-0.074C0.342,-0.081 0.354,-0.09 0.363,-0.101C0.372,-0.112 0.376,-0.125 0.376,-0.14Z" style="fill-rule:nonzero;"/>
                </g>
                <g transform="matrix(39.9942,-0.682132,0.682132,39.9942,9569.53,6717.83)">
                    <path d="M0.068,-0.75L0.159,-0.75L0.159,-0.103L0.151,-0L0.068,-0L0.068,-0.75ZM0.516,-0.269L0.516,-0.258C0.516,-0.22 0.512,-0.184 0.502,-0.152C0.493,-0.119 0.48,-0.09 0.462,-0.066C0.445,-0.042 0.423,-0.024 0.398,-0.01C0.373,0.003 0.343,0.01 0.311,0.01C0.277,0.01 0.248,0.004 0.222,-0.008C0.197,-0.019 0.176,-0.036 0.159,-0.058C0.141,-0.079 0.128,-0.106 0.117,-0.137C0.107,-0.168 0.1,-0.202 0.096,-0.241L0.096,-0.286C0.1,-0.325 0.107,-0.36 0.117,-0.391C0.128,-0.422 0.141,-0.448 0.159,-0.47C0.176,-0.492 0.197,-0.509 0.222,-0.521C0.247,-0.532 0.276,-0.538 0.31,-0.538C0.343,-0.538 0.372,-0.532 0.398,-0.519C0.424,-0.506 0.445,-0.488 0.463,-0.464C0.48,-0.44 0.493,-0.412 0.502,-0.379C0.512,-0.346 0.516,-0.309 0.516,-0.269ZM0.425,-0.258L0.425,-0.269C0.425,-0.295 0.423,-0.32 0.418,-0.343C0.413,-0.366 0.405,-0.387 0.395,-0.405C0.384,-0.422 0.37,-0.436 0.352,-0.447C0.334,-0.457 0.313,-0.462 0.287,-0.462C0.264,-0.462 0.245,-0.458 0.228,-0.45C0.211,-0.442 0.197,-0.432 0.185,-0.419C0.173,-0.406 0.164,-0.391 0.156,-0.374C0.149,-0.357 0.144,-0.34 0.14,-0.322L0.14,-0.204C0.145,-0.181 0.154,-0.159 0.166,-0.138C0.178,-0.117 0.194,-0.1 0.214,-0.087C0.234,-0.074 0.258,-0.067 0.288,-0.067C0.313,-0.067 0.333,-0.072 0.351,-0.082C0.368,-0.092 0.382,-0.105 0.393,-0.123C0.404,-0.141 0.412,-0.161 0.417,-0.184C0.423,-0.207 0.425,-0.232 0.425,-0.258Z" style="fill-rule:nonzero;"/>
                </g>
                <g transform="matrix(39.9931,-0.742941,0.742941,39.9931,9590.38,6717.47)">
                    <path d="M0.288,0.01C0.251,0.01 0.218,0.003 0.188,-0.009C0.158,-0.022 0.133,-0.039 0.112,-0.062C0.09,-0.085 0.074,-0.112 0.063,-0.143C0.051,-0.174 0.045,-0.208 0.045,-0.246L0.045,-0.266C0.045,-0.309 0.052,-0.347 0.064,-0.381C0.077,-0.415 0.094,-0.443 0.116,-0.467C0.138,-0.49 0.163,-0.508 0.19,-0.52C0.218,-0.532 0.247,-0.538 0.276,-0.538C0.314,-0.538 0.347,-0.532 0.374,-0.519C0.402,-0.506 0.424,-0.487 0.442,-0.464C0.459,-0.441 0.472,-0.413 0.481,-0.382C0.489,-0.351 0.494,-0.316 0.494,-0.279L0.494,-0.239L0.099,-0.239L0.099,-0.313L0.403,-0.313L0.403,-0.319C0.402,-0.343 0.397,-0.366 0.389,-0.388C0.381,-0.41 0.368,-0.428 0.35,-0.442C0.332,-0.457 0.307,-0.464 0.276,-0.464C0.256,-0.464 0.237,-0.46 0.22,-0.451C0.202,-0.442 0.188,-0.43 0.175,-0.413C0.163,-0.396 0.153,-0.375 0.146,-0.351C0.14,-0.326 0.136,-0.298 0.136,-0.266L0.136,-0.246C0.136,-0.221 0.14,-0.197 0.147,-0.175C0.154,-0.153 0.164,-0.134 0.177,-0.117C0.191,-0.101 0.207,-0.088 0.227,-0.078C0.246,-0.069 0.268,-0.064 0.293,-0.064C0.325,-0.064 0.352,-0.07 0.374,-0.083C0.396,-0.097 0.416,-0.114 0.432,-0.136L0.487,-0.092C0.475,-0.075 0.461,-0.059 0.443,-0.043C0.426,-0.027 0.404,-0.015 0.379,-0.005C0.353,0.005 0.323,0.01 0.288,0.01Z" style="fill-rule:nonzero;"/>
                </g>
                <g transform="matrix(39.9919,-0.803942,0.803942,39.9919,9609.99,6717.11)">
                    <path d="M0.159,-0.416L0.159,-0L0.069,-0L0.069,-0.528L0.154,-0.528L0.159,-0.416ZM0.138,-0.284L0.1,-0.286C0.1,-0.322 0.106,-0.355 0.116,-0.386C0.127,-0.417 0.141,-0.444 0.16,-0.466C0.179,-0.489 0.202,-0.507 0.228,-0.519C0.254,-0.532 0.283,-0.538 0.315,-0.538C0.341,-0.538 0.364,-0.535 0.385,-0.528C0.406,-0.521 0.424,-0.509 0.439,-0.494C0.454,-0.479 0.465,-0.459 0.473,-0.435C0.48,-0.411 0.484,-0.381 0.484,-0.346L0.484,-0L0.394,-0L0.394,-0.347C0.394,-0.375 0.389,-0.397 0.381,-0.414C0.373,-0.431 0.361,-0.443 0.346,-0.45C0.33,-0.458 0.311,-0.462 0.288,-0.462C0.266,-0.462 0.245,-0.457 0.227,-0.448C0.208,-0.438 0.193,-0.425 0.179,-0.409C0.166,-0.392 0.156,-0.373 0.149,-0.352C0.141,-0.33 0.138,-0.308 0.138,-0.284Z" style="fill-rule:nonzero;"/>
                </g>
                <g transform="matrix(39.9906,-0.866356,0.866356,39.9906,9630.5,6716.7)">
                    <path d="M0.288,0.01C0.251,0.01 0.218,0.003 0.188,-0.009C0.158,-0.022 0.133,-0.039 0.112,-0.062C0.09,-0.085 0.074,-0.112 0.063,-0.143C0.051,-0.174 0.045,-0.208 0.045,-0.246L0.045,-0.266C0.045,-0.309 0.052,-0.347 0.064,-0.381C0.077,-0.415 0.094,-0.443 0.116,-0.467C0.138,-0.49 0.163,-0.508 0.19,-0.52C0.218,-0.532 0.247,-0.538 0.276,-0.538C0.314,-0.538 0.347,-0.532 0.374,-0.519C0.402,-0.506 0.424,-0.487 0.442,-0.464C0.459,-0.441 0.472,-0.413 0.481,-0.382C0.489,-0.351 0.494,-0.316 0.494,-0.279L0.494,-0.239L0.099,-0.239L0.099,-0.313L0.403,-0.313L0.403,-0.319C0.402,-0.343 0.397,-0.366 0.389,-0.388C0.381,-0.41 0.368,-0.428 0.35,-0.442C0.332,-0.457 0.307,-0.464 0.276,-0.464C0.256,-0.464 0.237,-0.46 0.22,-0.451C0.202,-0.442 0.188,-0.43 0.175,-0.413C0.163,-0.396 0.153,-0.375 0.146,-0.351C0.14,-0.326 0.136,-0.298 0.136,-0.266L0.136,-0.246C0.136,-0.221 0.14,-0.197 0.147,-0.175C0.154,-0.153 0.164,-0.134 0.177,-0.117C0.191,-0.101 0.207,-0.088 0.227,-0.078C0.246,-0.069 0.268,-0.064 0.293,-0.064C0.325,-0.064 0.352,-0.07 0.374,-0.083C0.396,-0.097 0.416,-0.114 0.432,-0.136L0.487,-0.092C0.475,-0.075 0.461,-0.059 0.443,-0.043C0.426,-0.027 0.404,-0.015 0.379,-0.005C0.353,0.005 0.323,0.01 0.288,0.01Z" style="fill-rule:nonzero;"/>
                </g>
                <g transform="matrix(39.9893,-0.923654,0.923654,39.9893,9650.07,6716.27)">
                    <path d="M0.229,-0.082L0.374,-0.528L0.466,-0.528L0.276,-0L0.216,-0L0.229,-0.082ZM0.109,-0.528L0.258,-0.079L0.268,-0L0.208,-0L0.016,-0.528L0.109,-0.528Z" style="fill-rule:nonzero;"/>
                </g>
                <g transform="matrix(39.9879,-0.98499,0.98499,39.9879,9667.89,6715.87)">
                    <path d="M0.045,-0.258L0.045,-0.27C0.045,-0.308 0.05,-0.343 0.062,-0.376C0.073,-0.408 0.089,-0.437 0.109,-0.461C0.13,-0.485 0.155,-0.504 0.185,-0.518C0.215,-0.531 0.248,-0.538 0.285,-0.538C0.322,-0.538 0.355,-0.531 0.385,-0.518C0.415,-0.504 0.44,-0.485 0.461,-0.461C0.482,-0.437 0.498,-0.408 0.509,-0.376C0.52,-0.343 0.526,-0.308 0.526,-0.27L0.526,-0.258C0.526,-0.22 0.52,-0.185 0.509,-0.152C0.498,-0.12 0.482,-0.091 0.461,-0.067C0.44,-0.043 0.415,-0.024 0.385,-0.01C0.356,0.003 0.323,0.01 0.286,0.01C0.249,0.01 0.215,0.003 0.186,-0.01C0.156,-0.024 0.131,-0.043 0.11,-0.067C0.089,-0.091 0.073,-0.12 0.062,-0.152C0.05,-0.185 0.045,-0.22 0.045,-0.258ZM0.135,-0.27L0.135,-0.258C0.135,-0.232 0.138,-0.207 0.145,-0.184C0.151,-0.161 0.16,-0.14 0.173,-0.122C0.185,-0.104 0.201,-0.09 0.22,-0.08C0.239,-0.07 0.261,-0.064 0.286,-0.064C0.31,-0.064 0.332,-0.07 0.351,-0.08C0.37,-0.09 0.385,-0.104 0.397,-0.122C0.41,-0.14 0.419,-0.161 0.426,-0.184C0.432,-0.207 0.435,-0.232 0.435,-0.258L0.435,-0.27C0.435,-0.296 0.432,-0.32 0.426,-0.344C0.419,-0.367 0.41,-0.387 0.397,-0.406C0.385,-0.424 0.369,-0.438 0.35,-0.448C0.332,-0.459 0.31,-0.464 0.285,-0.464C0.26,-0.464 0.238,-0.459 0.219,-0.448C0.201,-0.438 0.185,-0.424 0.173,-0.406C0.16,-0.387 0.151,-0.367 0.145,-0.344C0.138,-0.32 0.135,-0.296 0.135,-0.27Z" style="fill-rule:nonzero;"/>
                </g>
                <g transform="matrix(39.9867,-1.03111,1.03111,39.9867,9689.05,6715.34)">
                    <rect x="0.076" y="-0.75" width="0.091" height="0.75" style="fill-rule:nonzero;"/>
                </g>
                <g transform="matrix(39.9855,-1.07578,1.07578,39.9855,9697.2,6715.14)">
                    <path d="M0.288,0.01C0.251,0.01 0.218,0.003 0.188,-0.009C0.158,-0.022 0.133,-0.039 0.112,-0.062C0.09,-0.085 0.074,-0.112 0.063,-0.143C0.051,-0.174 0.045,-0.208 0.045,-0.246L0.045,-0.266C0.045,-0.309 0.052,-0.347 0.064,-0.381C0.077,-0.415 0.094,-0.443 0.116,-0.467C0.138,-0.49 0.163,-0.508 0.19,-0.52C0.218,-0.532 0.247,-0.538 0.276,-0.538C0.314,-0.538 0.347,-0.532 0.374,-0.519C0.402,-0.506 0.424,-0.487 0.442,-0.464C0.459,-0.441 0.472,-0.413 0.481,-0.382C0.489,-0.351 0.494,-0.316 0.494,-0.279L0.494,-0.239L0.099,-0.239L0.099,-0.313L0.403,-0.313L0.403,-0.319C0.402,-0.343 0.397,-0.366 0.389,-0.388C0.381,-0.41 0.368,-0.428 0.35,-0.442C0.332,-0.457 0.307,-0.464 0.276,-0.464C0.256,-0.464 0.237,-0.46 0.22,-0.451C0.202,-0.442 0.188,-0.43 0.175,-0.413C0.163,-0.396 0.153,-0.375 0.146,-0.351C0.14,-0.326 0.136,-0.298 0.136,-0.266L0.136,-0.246C0.136,-0.221 0.14,-0.197 0.147,-0.175C0.154,-0.153 0.164,-0.134 0.177,-0.117C0.191,-0.101 0.207,-0.088 0.227,-0.078C0.246,-0.069 0.268,-0.064 0.293,-0.064C0.325,-0.064 0.352,-0.07 0.374,-0.083C0.396,-0.097 0.416,-0.114 0.432,-0.136L0.487,-0.092C0.475,-0.075 0.461,-0.059 0.443,-0.043C0.426,-0.027 0.404,-0.015 0.379,-0.005C0.353,0.005 0.323,0.01 0.288,0.01Z" style="fill-rule:nonzero;"/>
                </g>
                <g transform="matrix(39.9838,-1.13959,1.13959,39.9838,9716.82,6714.61)">
                    <path d="M0.159,-0.416L0.159,-0L0.069,-0L0.069,-0.528L0.154,-0.528L0.159,-0.416ZM0.138,-0.284L0.1,-0.286C0.1,-0.322 0.106,-0.355 0.116,-0.386C0.127,-0.417 0.141,-0.444 0.16,-0.466C0.179,-0.489 0.202,-0.507 0.228,-0.519C0.254,-0.532 0.283,-0.538 0.315,-0.538C0.341,-0.538 0.364,-0.535 0.385,-0.528C0.406,-0.521 0.424,-0.509 0.439,-0.494C0.454,-0.479 0.465,-0.459 0.473,-0.435C0.48,-0.411 0.484,-0.381 0.484,-0.346L0.484,-0L0.394,-0L0.394,-0.347C0.394,-0.375 0.389,-0.397 0.381,-0.414C0.373,-0.431 0.361,-0.443 0.346,-0.45C0.33,-0.458 0.311,-0.462 0.288,-0.462C0.266,-0.462 0.245,-0.457 0.227,-0.448C0.208,-0.438 0.193,-0.425 0.179,-0.409C0.166,-0.392 0.156,-0.373 0.149,-0.352C0.141,-0.33 0.138,-0.308 0.138,-0.284Z" style="fill-rule:nonzero;"/>
                </g>
                <g transform="matrix(39.9818,-1.20488,1.20488,39.9818,9737.31,6714.03)">
                    <path d="M0.28,-0.064C0.302,-0.064 0.322,-0.069 0.34,-0.078C0.358,-0.086 0.373,-0.099 0.385,-0.114C0.396,-0.129 0.403,-0.147 0.405,-0.167L0.491,-0.167C0.489,-0.136 0.479,-0.107 0.459,-0.08C0.44,-0.053 0.415,-0.031 0.383,-0.015C0.352,0.002 0.318,0.01 0.28,0.01C0.241,0.01 0.206,0.003 0.177,-0.011C0.147,-0.025 0.123,-0.044 0.103,-0.069C0.084,-0.093 0.069,-0.121 0.06,-0.153C0.05,-0.185 0.045,-0.218 0.045,-0.254L0.045,-0.274C0.045,-0.31 0.05,-0.344 0.06,-0.375C0.069,-0.407 0.084,-0.435 0.103,-0.459C0.123,-0.484 0.147,-0.503 0.177,-0.517C0.206,-0.531 0.241,-0.538 0.28,-0.538C0.322,-0.538 0.358,-0.53 0.389,-0.513C0.42,-0.496 0.444,-0.473 0.462,-0.445C0.479,-0.416 0.489,-0.383 0.491,-0.347L0.405,-0.347C0.403,-0.368 0.397,-0.388 0.386,-0.406C0.376,-0.423 0.362,-0.437 0.344,-0.448C0.325,-0.459 0.304,-0.464 0.28,-0.464C0.253,-0.464 0.229,-0.458 0.211,-0.448C0.192,-0.437 0.177,-0.422 0.166,-0.404C0.155,-0.385 0.148,-0.365 0.143,-0.343C0.138,-0.32 0.136,-0.298 0.136,-0.274L0.136,-0.254C0.136,-0.231 0.138,-0.208 0.143,-0.186C0.147,-0.163 0.155,-0.143 0.166,-0.125C0.177,-0.106 0.191,-0.092 0.21,-0.081C0.229,-0.07 0.252,-0.064 0.28,-0.064Z" style="fill-rule:nonzero;"/>
                </g>
                <g transform="matrix(39.9799,-1.2683,1.2683,39.9799,9756.59,6713.45)">
                    <path d="M0.288,0.01C0.251,0.01 0.218,0.003 0.188,-0.009C0.158,-0.022 0.133,-0.039 0.112,-0.062C0.09,-0.085 0.074,-0.112 0.063,-0.143C0.051,-0.174 0.045,-0.208 0.045,-0.246L0.045,-0.266C0.045,-0.309 0.052,-0.347 0.064,-0.381C0.077,-0.415 0.094,-0.443 0.116,-0.467C0.138,-0.49 0.163,-0.508 0.19,-0.52C0.218,-0.532 0.247,-0.538 0.276,-0.538C0.314,-0.538 0.347,-0.532 0.374,-0.519C0.402,-0.506 0.424,-0.487 0.442,-0.464C0.459,-0.441 0.472,-0.413 0.481,-0.382C0.489,-0.351 0.494,-0.316 0.494,-0.279L0.494,-0.239L0.099,-0.239L0.099,-0.313L0.403,-0.313L0.403,-0.319C0.402,-0.343 0.397,-0.366 0.389,-0.388C0.381,-0.41 0.368,-0.428 0.35,-0.442C0.332,-0.457 0.307,-0.464 0.276,-0.464C0.256,-0.464 0.237,-0.46 0.22,-0.451C0.202,-0.442 0.188,-0.43 0.175,-0.413C0.163,-0.396 0.153,-0.375 0.146,-0.351C0.14,-0.326 0.136,-0.298 0.136,-0.266L0.136,-0.246C0.136,-0.221 0.14,-0.197 0.147,-0.175C0.154,-0.153 0.164,-0.134 0.177,-0.117C0.191,-0.101 0.207,-0.088 0.227,-0.078C0.246,-0.069 0.268,-0.064 0.293,-0.064C0.325,-0.064 0.352,-0.07 0.374,-0.083C0.396,-0.097 0.416,-0.114 0.432,-0.136L0.487,-0.092C0.475,-0.075 0.461,-0.059 0.443,-0.043C0.426,-0.027 0.404,-0.015 0.379,-0.005C0.353,0.005 0.323,0.01 0.288,0.01Z" style="fill-rule:nonzero;"/>
                </g>
                <g transform="matrix(39.9749,-1.41726,1.41726,39.9749,9801.15,6711.99)">
                    <path d="M0.28,-0.064C0.302,-0.064 0.322,-0.069 0.34,-0.078C0.358,-0.086 0.373,-0.099 0.385,-0.114C0.396,-0.129 0.403,-0.147 0.405,-0.167L0.491,-0.167C0.489,-0.136 0.479,-0.107 0.459,-0.08C0.44,-0.053 0.415,-0.031 0.383,-0.015C0.352,0.002 0.318,0.01 0.28,0.01C0.241,0.01 0.206,0.003 0.177,-0.011C0.147,-0.025 0.123,-0.044 0.103,-0.069C0.084,-0.093 0.069,-0.121 0.06,-0.153C0.05,-0.185 0.045,-0.218 0.045,-0.254L0.045,-0.274C0.045,-0.31 0.05,-0.344 0.06,-0.375C0.069,-0.407 0.084,-0.435 0.103,-0.459C0.123,-0.484 0.147,-0.503 0.177,-0.517C0.206,-0.531 0.241,-0.538 0.28,-0.538C0.322,-0.538 0.358,-0.53 0.389,-0.513C0.42,-0.496 0.444,-0.473 0.462,-0.445C0.479,-0.416 0.489,-0.383 0.491,-0.347L0.405,-0.347C0.403,-0.368 0.397,-0.388 0.386,-0.406C0.376,-0.423 0.362,-0.437 0.344,-0.448C0.325,-0.459 0.304,-0.464 0.28,-0.464C0.253,-0.464 0.229,-0.458 0.211,-0.448C0.192,-0.437 0.177,-0.422 0.166,-0.404C0.155,-0.385 0.148,-0.365 0.143,-0.343C0.138,-0.32 0.136,-0.298 0.136,-0.274L0.136,-0.254C0.136,-0.231 0.138,-0.208 0.143,-0.186C0.147,-0.163 0.155,-0.143 0.166,-0.125C0.177,-0.106 0.191,-0.092 0.21,-0.081C0.229,-0.07 0.252,-0.064 0.28,-0.064Z" style="fill-rule:nonzero;"/>
                </g>
                <g transform="matrix(39.9724,-1.48578,1.48578,39.9724,9820.46,6711.31)">
                    <path d="M0.045,-0.258L0.045,-0.27C0.045,-0.308 0.05,-0.343 0.062,-0.376C0.073,-0.408 0.089,-0.437 0.109,-0.461C0.13,-0.485 0.155,-0.504 0.185,-0.518C0.215,-0.531 0.248,-0.538 0.285,-0.538C0.322,-0.538 0.355,-0.531 0.385,-0.518C0.415,-0.504 0.44,-0.485 0.461,-0.461C0.482,-0.437 0.498,-0.408 0.509,-0.376C0.52,-0.343 0.526,-0.308 0.526,-0.27L0.526,-0.258C0.526,-0.22 0.52,-0.185 0.509,-0.152C0.498,-0.12 0.482,-0.091 0.461,-0.067C0.44,-0.043 0.415,-0.024 0.385,-0.01C0.356,0.003 0.323,0.01 0.286,0.01C0.249,0.01 0.215,0.003 0.186,-0.01C0.156,-0.024 0.131,-0.043 0.11,-0.067C0.089,-0.091 0.073,-0.12 0.062,-0.152C0.05,-0.185 0.045,-0.22 0.045,-0.258ZM0.135,-0.27L0.135,-0.258C0.135,-0.232 0.138,-0.207 0.145,-0.184C0.151,-0.161 0.16,-0.14 0.173,-0.122C0.185,-0.104 0.201,-0.09 0.22,-0.08C0.239,-0.07 0.261,-0.064 0.286,-0.064C0.31,-0.064 0.332,-0.07 0.351,-0.08C0.37,-0.09 0.385,-0.104 0.397,-0.122C0.41,-0.14 0.419,-0.161 0.426,-0.184C0.432,-0.207 0.435,-0.232 0.435,-0.258L0.435,-0.27C0.435,-0.296 0.432,-0.32 0.426,-0.344C0.419,-0.367 0.41,-0.387 0.397,-0.406C0.385,-0.424 0.369,-0.438 0.35,-0.448C0.332,-0.459 0.31,-0.464 0.285,-0.464C0.26,-0.464 0.238,-0.459 0.219,-0.448C0.201,-0.438 0.185,-0.424 0.173,-0.406C0.16,-0.387 0.151,-0.367 0.145,-0.344C0.138,-0.32 0.135,-0.296 0.135,-0.27Z" style="fill-rule:nonzero;"/>
                </g>
                <g transform="matrix(39.9696,-1.55974,1.55974,39.9696,9841.73,6710.52)">
                    <path d="M0.045,-0.258L0.045,-0.27C0.045,-0.308 0.05,-0.343 0.062,-0.376C0.073,-0.408 0.089,-0.437 0.109,-0.461C0.13,-0.485 0.155,-0.504 0.185,-0.518C0.215,-0.531 0.248,-0.538 0.285,-0.538C0.322,-0.538 0.355,-0.531 0.385,-0.518C0.415,-0.504 0.44,-0.485 0.461,-0.461C0.482,-0.437 0.498,-0.408 0.509,-0.376C0.52,-0.343 0.526,-0.308 0.526,-0.27L0.526,-0.258C0.526,-0.22 0.52,-0.185 0.509,-0.152C0.498,-0.12 0.482,-0.091 0.461,-0.067C0.44,-0.043 0.415,-0.024 0.385,-0.01C0.356,0.003 0.323,0.01 0.286,0.01C0.249,0.01 0.215,0.003 0.186,-0.01C0.156,-0.024 0.131,-0.043 0.11,-0.067C0.089,-0.091 0.073,-0.12 0.062,-0.152C0.05,-0.185 0.045,-0.22 0.045,-0.258ZM0.135,-0.27L0.135,-0.258C0.135,-0.232 0.138,-0.207 0.145,-0.184C0.151,-0.161 0.16,-0.14 0.173,-0.122C0.185,-0.104 0.201,-0.09 0.22,-0.08C0.239,-0.07 0.261,-0.064 0.286,-0.064C0.31,-0.064 0.332,-0.07 0.351,-0.08C0.37,-0.09 0.385,-0.104 0.397,-0.122C0.41,-0.14 0.419,-0.161 0.426,-0.184C0.432,-0.207 0.435,-0.232 0.435,-0.258L0.435,-0.27C0.435,-0.296 0.432,-0.32 0.426,-0.344C0.419,-0.367 0.41,-0.387 0.397,-0.406C0.385,-0.424 0.369,-0.438 0.35,-0.448C0.332,-0.459 0.31,-0.464 0.285,-0.464C0.26,-0.464 0.238,-0.459 0.219,-0.448C0.201,-0.438 0.185,-0.424 0.173,-0.406C0.16,-0.387 0.151,-0.367 0.145,-0.344C0.138,-0.32 0.135,-0.296 0.135,-0.27Z" style="fill-rule:nonzero;"/>
                </g>
                <g transform="matrix(39.9666,-1.63547,1.63547,39.9666,9862.87,6709.7)">
                    <path d="M0.159,-0.427L0.159,0.203L0.068,0.203L0.068,-0.528L0.151,-0.528L0.159,-0.427ZM0.515,-0.269L0.515,-0.258C0.515,-0.22 0.511,-0.184 0.501,-0.152C0.492,-0.119 0.479,-0.09 0.462,-0.066C0.444,-0.042 0.423,-0.024 0.397,-0.01C0.372,0.003 0.343,0.01 0.31,0.01C0.277,0.01 0.247,0.004 0.221,-0.007C0.195,-0.018 0.174,-0.034 0.156,-0.055C0.138,-0.076 0.124,-0.102 0.113,-0.131C0.102,-0.161 0.095,-0.194 0.091,-0.231L0.091,-0.286C0.095,-0.325 0.103,-0.36 0.113,-0.391C0.124,-0.422 0.138,-0.448 0.156,-0.47C0.174,-0.492 0.195,-0.509 0.221,-0.521C0.246,-0.532 0.275,-0.538 0.309,-0.538C0.342,-0.538 0.371,-0.532 0.397,-0.519C0.423,-0.506 0.444,-0.488 0.462,-0.464C0.479,-0.44 0.493,-0.412 0.502,-0.379C0.511,-0.346 0.515,-0.309 0.515,-0.269ZM0.424,-0.258L0.424,-0.269C0.424,-0.295 0.422,-0.32 0.416,-0.343C0.41,-0.366 0.402,-0.387 0.39,-0.405C0.379,-0.422 0.364,-0.436 0.346,-0.447C0.328,-0.457 0.307,-0.462 0.282,-0.462C0.259,-0.462 0.24,-0.458 0.223,-0.45C0.206,-0.442 0.192,-0.432 0.18,-0.419C0.168,-0.406 0.159,-0.391 0.152,-0.374C0.144,-0.357 0.139,-0.34 0.135,-0.322L0.135,-0.195C0.142,-0.173 0.151,-0.151 0.163,-0.131C0.174,-0.111 0.19,-0.095 0.209,-0.083C0.229,-0.071 0.254,-0.064 0.283,-0.064C0.308,-0.064 0.329,-0.07 0.346,-0.08C0.364,-0.09 0.379,-0.104 0.39,-0.122C0.402,-0.14 0.41,-0.161 0.416,-0.184C0.422,-0.207 0.424,-0.232 0.424,-0.258Z" style="fill-rule:nonzero;"/>
                </g>
                <g transform="matrix(39.9635,-1.70737,1.70737,39.9635,9883.73,6708.84)">
                    <path d="M0.288,0.01C0.251,0.01 0.218,0.003 0.188,-0.009C0.158,-0.022 0.133,-0.039 0.112,-0.062C0.09,-0.085 0.074,-0.112 0.063,-0.143C0.051,-0.174 0.045,-0.208 0.045,-0.246L0.045,-0.266C0.045,-0.309 0.052,-0.347 0.064,-0.381C0.077,-0.415 0.094,-0.443 0.116,-0.467C0.138,-0.49 0.163,-0.508 0.19,-0.52C0.218,-0.532 0.247,-0.538 0.276,-0.538C0.314,-0.538 0.347,-0.532 0.374,-0.519C0.402,-0.506 0.424,-0.487 0.442,-0.464C0.459,-0.441 0.472,-0.413 0.481,-0.382C0.489,-0.351 0.494,-0.316 0.494,-0.279L0.494,-0.239L0.099,-0.239L0.099,-0.313L0.403,-0.313L0.403,-0.319C0.402,-0.343 0.397,-0.366 0.389,-0.388C0.381,-0.41 0.368,-0.428 0.35,-0.442C0.332,-0.457 0.307,-0.464 0.276,-0.464C0.256,-0.464 0.237,-0.46 0.22,-0.451C0.202,-0.442 0.188,-0.43 0.175,-0.413C0.163,-0.396 0.153,-0.375 0.146,-0.351C0.14,-0.326 0.136,-0.298 0.136,-0.266L0.136,-0.246C0.136,-0.221 0.14,-0.197 0.147,-0.175C0.154,-0.153 0.164,-0.134 0.177,-0.117C0.191,-0.101 0.207,-0.088 0.227,-0.078C0.246,-0.069 0.268,-0.064 0.293,-0.064C0.325,-0.064 0.352,-0.07 0.374,-0.083C0.396,-0.097 0.416,-0.114 0.432,-0.136L0.487,-0.092C0.475,-0.075 0.461,-0.059 0.443,-0.043C0.426,-0.027 0.404,-0.015 0.379,-0.005C0.353,0.005 0.323,0.01 0.288,0.01Z" style="fill-rule:nonzero;"/>
                </g>
                <g transform="matrix(39.9609,-1.76849,1.76849,39.9609,9903.35,6708)">
                    <path d="M0.159,-0.445L0.159,-0L0.069,-0L0.069,-0.528L0.157,-0.528L0.159,-0.445ZM0.324,-0.531L0.324,-0.447C0.316,-0.449 0.309,-0.45 0.302,-0.45C0.296,-0.451 0.288,-0.451 0.28,-0.451C0.259,-0.451 0.241,-0.448 0.225,-0.441C0.209,-0.435 0.195,-0.426 0.184,-0.414C0.173,-0.402 0.164,-0.388 0.158,-0.372C0.152,-0.356 0.147,-0.339 0.146,-0.319L0.12,-0.305C0.12,-0.337 0.123,-0.367 0.13,-0.395C0.136,-0.423 0.146,-0.447 0.159,-0.469C0.173,-0.491 0.19,-0.508 0.21,-0.52C0.231,-0.532 0.256,-0.538 0.284,-0.538C0.291,-0.538 0.298,-0.537 0.307,-0.536C0.315,-0.534 0.321,-0.533 0.324,-0.531Z" style="fill-rule:nonzero;"/>
                </g>
                <g transform="matrix(39.9584,-1.8237,1.8237,39.9584,9915.24,6707.48)">
                    <path d="M0.38,-0.09L0.38,-0.362C0.38,-0.383 0.376,-0.401 0.368,-0.417C0.36,-0.432 0.347,-0.444 0.331,-0.453C0.314,-0.461 0.293,-0.465 0.269,-0.465C0.246,-0.465 0.226,-0.461 0.209,-0.454C0.192,-0.446 0.179,-0.436 0.169,-0.423C0.16,-0.41 0.155,-0.396 0.155,-0.382L0.064,-0.382C0.064,-0.401 0.069,-0.419 0.079,-0.438C0.089,-0.457 0.103,-0.473 0.121,-0.489C0.14,-0.504 0.162,-0.516 0.188,-0.525C0.214,-0.534 0.243,-0.538 0.274,-0.538C0.313,-0.538 0.347,-0.532 0.376,-0.519C0.406,-0.506 0.429,-0.486 0.446,-0.46C0.462,-0.434 0.471,-0.401 0.471,-0.361L0.471,-0.115C0.471,-0.098 0.472,-0.079 0.475,-0.059C0.478,-0.039 0.483,-0.022 0.489,-0.008L0.489,-0L0.395,-0C0.39,-0.01 0.387,-0.024 0.384,-0.042C0.382,-0.059 0.38,-0.075 0.38,-0.09ZM0.396,-0.32L0.397,-0.257L0.306,-0.257C0.28,-0.257 0.257,-0.255 0.237,-0.251C0.217,-0.247 0.2,-0.241 0.186,-0.232C0.172,-0.224 0.162,-0.214 0.155,-0.202C0.148,-0.19 0.144,-0.175 0.144,-0.159C0.144,-0.143 0.148,-0.127 0.155,-0.114C0.163,-0.1 0.174,-0.089 0.189,-0.081C0.204,-0.073 0.223,-0.069 0.245,-0.069C0.273,-0.069 0.297,-0.075 0.318,-0.087C0.34,-0.099 0.356,-0.113 0.369,-0.13C0.381,-0.147 0.388,-0.163 0.389,-0.179L0.428,-0.136C0.425,-0.122 0.419,-0.107 0.409,-0.09C0.399,-0.074 0.386,-0.058 0.369,-0.043C0.352,-0.028 0.332,-0.015 0.309,-0.005C0.286,0.005 0.261,0.01 0.232,0.01C0.196,0.01 0.165,0.003 0.138,-0.011C0.111,-0.025 0.09,-0.044 0.075,-0.068C0.061,-0.091 0.053,-0.118 0.053,-0.147C0.053,-0.175 0.059,-0.2 0.07,-0.222C0.081,-0.244 0.097,-0.262 0.118,-0.276C0.139,-0.291 0.164,-0.302 0.193,-0.309C0.222,-0.317 0.255,-0.32 0.291,-0.32L0.396,-0.32Z" style="fill-rule:nonzero;"/>
                </g>
                <g transform="matrix(39.9557,-1.88115,1.88115,39.9557,9935.41,6706.56)">
                    <path d="M0.29,-0.528L0.29,-0.459L0.004,-0.459L0.004,-0.528L0.29,-0.528ZM0.101,-0.657L0.191,-0.657L0.191,-0.131C0.191,-0.113 0.194,-0.099 0.2,-0.09C0.205,-0.081 0.212,-0.075 0.221,-0.072C0.23,-0.069 0.239,-0.068 0.25,-0.068C0.257,-0.068 0.265,-0.069 0.273,-0.07C0.281,-0.072 0.288,-0.073 0.292,-0.074L0.292,-0C0.285,0.002 0.276,0.004 0.264,0.007C0.253,0.009 0.239,0.01 0.223,0.01C0.201,0.01 0.18,0.005 0.162,-0.003C0.143,-0.012 0.128,-0.027 0.117,-0.048C0.107,-0.068 0.101,-0.096 0.101,-0.131L0.101,-0.657Z" style="fill-rule:nonzero;"/>
                </g>
                <g transform="matrix(39.9539,-1.9209,1.9209,39.9539,9946.86,6706.02)">
                    <path d="M0.167,-0.528L0.167,-0L0.076,-0L0.076,-0.528L0.167,-0.528ZM0.069,-0.668C0.069,-0.683 0.074,-0.695 0.083,-0.706C0.092,-0.716 0.105,-0.721 0.123,-0.721C0.14,-0.721 0.153,-0.716 0.162,-0.706C0.172,-0.695 0.176,-0.683 0.176,-0.668C0.176,-0.654 0.172,-0.642 0.162,-0.633C0.153,-0.623 0.14,-0.618 0.123,-0.618C0.105,-0.618 0.092,-0.623 0.083,-0.633C0.074,-0.642 0.069,-0.654 0.069,-0.668Z" style="fill-rule:nonzero;"/>
                </g>
                <g transform="matrix(39.9511,-1.97722,1.97722,39.9511,9954.96,6705.64)">
                    <path d="M0.045,-0.258L0.045,-0.27C0.045,-0.308 0.05,-0.343 0.062,-0.376C0.073,-0.408 0.089,-0.437 0.109,-0.461C0.13,-0.485 0.155,-0.504 0.185,-0.518C0.215,-0.531 0.248,-0.538 0.285,-0.538C0.322,-0.538 0.355,-0.531 0.385,-0.518C0.415,-0.504 0.44,-0.485 0.461,-0.461C0.482,-0.437 0.498,-0.408 0.509,-0.376C0.52,-0.343 0.526,-0.308 0.526,-0.27L0.526,-0.258C0.526,-0.22 0.52,-0.185 0.509,-0.152C0.498,-0.12 0.482,-0.091 0.461,-0.067C0.44,-0.043 0.415,-0.024 0.385,-0.01C0.356,0.003 0.323,0.01 0.286,0.01C0.249,0.01 0.215,0.003 0.186,-0.01C0.156,-0.024 0.131,-0.043 0.11,-0.067C0.089,-0.091 0.073,-0.12 0.062,-0.152C0.05,-0.185 0.045,-0.22 0.045,-0.258ZM0.135,-0.27L0.135,-0.258C0.135,-0.232 0.138,-0.207 0.145,-0.184C0.151,-0.161 0.16,-0.14 0.173,-0.122C0.185,-0.104 0.201,-0.09 0.22,-0.08C0.239,-0.07 0.261,-0.064 0.286,-0.064C0.31,-0.064 0.332,-0.07 0.351,-0.08C0.37,-0.09 0.385,-0.104 0.397,-0.122C0.41,-0.14 0.419,-0.161 0.426,-0.184C0.432,-0.207 0.435,-0.232 0.435,-0.258L0.435,-0.27C0.435,-0.296 0.432,-0.32 0.426,-0.344C0.419,-0.367 0.41,-0.387 0.397,-0.406C0.385,-0.424 0.369,-0.438 0.35,-0.448C0.332,-0.459 0.31,-0.464 0.285,-0.464C0.26,-0.464 0.238,-0.459 0.219,-0.448C0.201,-0.438 0.185,-0.424 0.173,-0.406C0.16,-0.387 0.151,-0.367 0.145,-0.344C0.138,-0.32 0.135,-0.296 0.135,-0.27Z" style="fill-rule:nonzero;"/>
                </g>
                <g transform="matrix(39.947,-2.05933,2.05933,39.947,9976.2,6704.59)">
                    <path d="M0.159,-0.416L0.159,-0L0.069,-0L0.069,-0.528L0.154,-0.528L0.159,-0.416ZM0.138,-0.284L0.1,-0.286C0.1,-0.322 0.106,-0.355 0.116,-0.386C0.127,-0.417 0.141,-0.444 0.16,-0.466C0.179,-0.489 0.202,-0.507 0.228,-0.519C0.254,-0.532 0.283,-0.538 0.315,-0.538C0.341,-0.538 0.364,-0.535 0.385,-0.528C0.406,-0.521 0.424,-0.509 0.439,-0.494C0.454,-0.479 0.465,-0.459 0.473,-0.435C0.48,-0.411 0.484,-0.381 0.484,-0.346L0.484,-0L0.394,-0L0.394,-0.347C0.394,-0.375 0.389,-0.397 0.381,-0.414C0.373,-0.431 0.361,-0.443 0.346,-0.45C0.33,-0.458 0.311,-0.462 0.288,-0.462C0.266,-0.462 0.245,-0.457 0.227,-0.448C0.208,-0.438 0.193,-0.425 0.179,-0.409C0.166,-0.392 0.156,-0.373 0.149,-0.352C0.141,-0.33 0.138,-0.308 0.138,-0.284Z" style="fill-rule:nonzero;"/>
                </g>
                <g transform="matrix(39.9371,-2.24281,2.24281,39.9371,10021.6,6702.19)">
                    <path d="M0.28,-0.064C0.302,-0.064 0.322,-0.069 0.34,-0.078C0.358,-0.086 0.373,-0.099 0.385,-0.114C0.396,-0.129 0.403,-0.147 0.405,-0.167L0.491,-0.167C0.489,-0.136 0.479,-0.107 0.459,-0.08C0.44,-0.053 0.415,-0.031 0.383,-0.015C0.352,0.002 0.318,0.01 0.28,0.01C0.241,0.01 0.206,0.003 0.177,-0.011C0.147,-0.025 0.123,-0.044 0.103,-0.069C0.084,-0.093 0.069,-0.121 0.06,-0.153C0.05,-0.185 0.045,-0.218 0.045,-0.254L0.045,-0.274C0.045,-0.31 0.05,-0.344 0.06,-0.375C0.069,-0.407 0.084,-0.435 0.103,-0.459C0.123,-0.484 0.147,-0.503 0.177,-0.517C0.206,-0.531 0.241,-0.538 0.28,-0.538C0.322,-0.538 0.358,-0.53 0.389,-0.513C0.42,-0.496 0.444,-0.473 0.462,-0.445C0.479,-0.416 0.489,-0.383 0.491,-0.347L0.405,-0.347C0.403,-0.368 0.397,-0.388 0.386,-0.406C0.376,-0.423 0.362,-0.437 0.344,-0.448C0.325,-0.459 0.304,-0.464 0.28,-0.464C0.253,-0.464 0.229,-0.458 0.211,-0.448C0.192,-0.437 0.177,-0.422 0.166,-0.404C0.155,-0.385 0.148,-0.365 0.143,-0.343C0.138,-0.32 0.136,-0.298 0.136,-0.274L0.136,-0.254C0.136,-0.231 0.138,-0.208 0.143,-0.186C0.147,-0.163 0.155,-0.143 0.166,-0.125C0.177,-0.106 0.191,-0.092 0.21,-0.081C0.229,-0.07 0.252,-0.064 0.28,-0.064Z" style="fill-rule:nonzero;"/>
                </g>
                <g transform="matrix(39.9322,-2.32731,2.32731,39.9322,10040.9,6701.11)">
                    <path d="M0.045,-0.258L0.045,-0.27C0.045,-0.308 0.05,-0.343 0.062,-0.376C0.073,-0.408 0.089,-0.437 0.109,-0.461C0.13,-0.485 0.155,-0.504 0.185,-0.518C0.215,-0.531 0.248,-0.538 0.285,-0.538C0.322,-0.538 0.355,-0.531 0.385,-0.518C0.415,-0.504 0.44,-0.485 0.461,-0.461C0.482,-0.437 0.498,-0.408 0.509,-0.376C0.52,-0.343 0.526,-0.308 0.526,-0.27L0.526,-0.258C0.526,-0.22 0.52,-0.185 0.509,-0.152C0.498,-0.12 0.482,-0.091 0.461,-0.067C0.44,-0.043 0.415,-0.024 0.385,-0.01C0.356,0.003 0.323,0.01 0.286,0.01C0.249,0.01 0.215,0.003 0.186,-0.01C0.156,-0.024 0.131,-0.043 0.11,-0.067C0.089,-0.091 0.073,-0.12 0.062,-0.152C0.05,-0.185 0.045,-0.22 0.045,-0.258ZM0.135,-0.27L0.135,-0.258C0.135,-0.232 0.138,-0.207 0.145,-0.184C0.151,-0.161 0.16,-0.14 0.173,-0.122C0.185,-0.104 0.201,-0.09 0.22,-0.08C0.239,-0.07 0.261,-0.064 0.286,-0.064C0.31,-0.064 0.332,-0.07 0.351,-0.08C0.37,-0.09 0.385,-0.104 0.397,-0.122C0.41,-0.14 0.419,-0.161 0.426,-0.184C0.432,-0.207 0.435,-0.232 0.435,-0.258L0.435,-0.27C0.435,-0.296 0.432,-0.32 0.426,-0.344C0.419,-0.367 0.41,-0.387 0.397,-0.406C0.385,-0.424 0.369,-0.438 0.35,-0.448C0.332,-0.459 0.31,-0.464 0.285,-0.464C0.26,-0.464 0.238,-0.459 0.219,-0.448C0.201,-0.438 0.185,-0.424 0.173,-0.406C0.16,-0.387 0.151,-0.367 0.145,-0.344C0.138,-0.32 0.135,-0.296 0.135,-0.27Z" style="fill-rule:nonzero;"/>
                </g>
                <g transform="matrix(39.9285,-2.39027,2.39027,39.9285,10062,6699.88)">
                    <rect x="0.076" y="-0.75" width="0.091" height="0.75" style="fill-rule:nonzero;"/>
                </g>
                <g transform="matrix(39.9264,-2.42581,2.42581,39.9264,10070.2,6699.39)">
                    <rect x="0.076" y="-0.75" width="0.091" height="0.75" style="fill-rule:nonzero;"/>
                </g>
                <g transform="matrix(39.9225,-2.48835,2.48835,39.9225,10078.3,6698.9)">
                    <path d="M0.38,-0.09L0.38,-0.362C0.38,-0.383 0.376,-0.401 0.368,-0.417C0.36,-0.432 0.347,-0.444 0.331,-0.453C0.314,-0.461 0.293,-0.465 0.269,-0.465C0.246,-0.465 0.226,-0.461 0.209,-0.454C0.192,-0.446 0.179,-0.436 0.169,-0.423C0.16,-0.41 0.155,-0.396 0.155,-0.382L0.064,-0.382C0.064,-0.401 0.069,-0.419 0.079,-0.438C0.089,-0.457 0.103,-0.473 0.121,-0.489C0.14,-0.504 0.162,-0.516 0.188,-0.525C0.214,-0.534 0.243,-0.538 0.274,-0.538C0.313,-0.538 0.347,-0.532 0.376,-0.519C0.406,-0.506 0.429,-0.486 0.446,-0.46C0.462,-0.434 0.471,-0.401 0.471,-0.361L0.471,-0.115C0.471,-0.098 0.472,-0.079 0.475,-0.059C0.478,-0.039 0.483,-0.022 0.489,-0.008L0.489,-0L0.395,-0C0.39,-0.01 0.387,-0.024 0.384,-0.042C0.382,-0.059 0.38,-0.075 0.38,-0.09ZM0.396,-0.32L0.397,-0.257L0.306,-0.257C0.28,-0.257 0.257,-0.255 0.237,-0.251C0.217,-0.247 0.2,-0.241 0.186,-0.232C0.172,-0.224 0.162,-0.214 0.155,-0.202C0.148,-0.19 0.144,-0.175 0.144,-0.159C0.144,-0.143 0.148,-0.127 0.155,-0.114C0.163,-0.1 0.174,-0.089 0.189,-0.081C0.204,-0.073 0.223,-0.069 0.245,-0.069C0.273,-0.069 0.297,-0.075 0.318,-0.087C0.34,-0.099 0.356,-0.113 0.369,-0.13C0.381,-0.147 0.388,-0.163 0.389,-0.179L0.428,-0.136C0.425,-0.122 0.419,-0.107 0.409,-0.09C0.399,-0.074 0.386,-0.058 0.369,-0.043C0.352,-0.028 0.332,-0.015 0.309,-0.005C0.286,0.005 0.261,0.01 0.232,0.01C0.196,0.01 0.165,0.003 0.138,-0.011C0.111,-0.025 0.09,-0.044 0.075,-0.068C0.061,-0.091 0.053,-0.118 0.053,-0.147C0.053,-0.175 0.059,-0.2 0.07,-0.222C0.081,-0.244 0.097,-0.262 0.118,-0.276C0.139,-0.291 0.164,-0.302 0.193,-0.309C0.222,-0.317 0.255,-0.32 0.291,-0.32L0.396,-0.32Z" style="fill-rule:nonzero;"/>
                </g>
                <g transform="matrix(39.9165,-2.58331,2.58331,39.9165,10098.4,6697.65)">
                    <path d="M0.068,-0.75L0.159,-0.75L0.159,-0.103L0.151,-0L0.068,-0L0.068,-0.75ZM0.516,-0.269L0.516,-0.258C0.516,-0.22 0.512,-0.184 0.502,-0.152C0.493,-0.119 0.48,-0.09 0.462,-0.066C0.445,-0.042 0.423,-0.024 0.398,-0.01C0.373,0.003 0.343,0.01 0.311,0.01C0.277,0.01 0.248,0.004 0.222,-0.008C0.197,-0.019 0.176,-0.036 0.159,-0.058C0.141,-0.079 0.128,-0.106 0.117,-0.137C0.107,-0.168 0.1,-0.202 0.096,-0.241L0.096,-0.286C0.1,-0.325 0.107,-0.36 0.117,-0.391C0.128,-0.422 0.141,-0.448 0.159,-0.47C0.176,-0.492 0.197,-0.509 0.222,-0.521C0.247,-0.532 0.276,-0.538 0.31,-0.538C0.343,-0.538 0.372,-0.532 0.398,-0.519C0.424,-0.506 0.445,-0.488 0.463,-0.464C0.48,-0.44 0.493,-0.412 0.502,-0.379C0.512,-0.346 0.516,-0.309 0.516,-0.269ZM0.425,-0.258L0.425,-0.269C0.425,-0.295 0.423,-0.32 0.418,-0.343C0.413,-0.366 0.405,-0.387 0.395,-0.405C0.384,-0.422 0.37,-0.436 0.352,-0.447C0.334,-0.457 0.313,-0.462 0.287,-0.462C0.264,-0.462 0.245,-0.458 0.228,-0.45C0.211,-0.442 0.197,-0.432 0.185,-0.419C0.173,-0.406 0.164,-0.391 0.156,-0.374C0.149,-0.357 0.144,-0.34 0.14,-0.322L0.14,-0.204C0.145,-0.181 0.154,-0.159 0.166,-0.138C0.178,-0.117 0.194,-0.1 0.214,-0.087C0.234,-0.074 0.258,-0.067 0.288,-0.067C0.313,-0.067 0.333,-0.072 0.351,-0.082C0.368,-0.092 0.382,-0.105 0.393,-0.123C0.404,-0.141 0.412,-0.161 0.417,-0.184C0.423,-0.207 0.425,-0.232 0.425,-0.258Z" style="fill-rule:nonzero;"/>
                </g>
                <g transform="matrix(39.9102,-2.67909,2.67909,39.9102,10119.2,6696.31)">
                    <path d="M0.045,-0.258L0.045,-0.27C0.045,-0.308 0.05,-0.343 0.062,-0.376C0.073,-0.408 0.089,-0.437 0.109,-0.461C0.13,-0.485 0.155,-0.504 0.185,-0.518C0.215,-0.531 0.248,-0.538 0.285,-0.538C0.322,-0.538 0.355,-0.531 0.385,-0.518C0.415,-0.504 0.44,-0.485 0.461,-0.461C0.482,-0.437 0.498,-0.408 0.509,-0.376C0.52,-0.343 0.526,-0.308 0.526,-0.27L0.526,-0.258C0.526,-0.22 0.52,-0.185 0.509,-0.152C0.498,-0.12 0.482,-0.091 0.461,-0.067C0.44,-0.043 0.415,-0.024 0.385,-0.01C0.356,0.003 0.323,0.01 0.286,0.01C0.249,0.01 0.215,0.003 0.186,-0.01C0.156,-0.024 0.131,-0.043 0.11,-0.067C0.089,-0.091 0.073,-0.12 0.062,-0.152C0.05,-0.185 0.045,-0.22 0.045,-0.258ZM0.135,-0.27L0.135,-0.258C0.135,-0.232 0.138,-0.207 0.145,-0.184C0.151,-0.161 0.16,-0.14 0.173,-0.122C0.185,-0.104 0.201,-0.09 0.22,-0.08C0.239,-0.07 0.261,-0.064 0.286,-0.064C0.31,-0.064 0.332,-0.07 0.351,-0.08C0.37,-0.09 0.385,-0.104 0.397,-0.122C0.41,-0.14 0.419,-0.161 0.426,-0.184C0.432,-0.207 0.435,-0.232 0.435,-0.258L0.435,-0.27C0.435,-0.296 0.432,-0.32 0.426,-0.344C0.419,-0.367 0.41,-0.387 0.397,-0.406C0.385,-0.424 0.369,-0.438 0.35,-0.448C0.332,-0.459 0.31,-0.464 0.285,-0.464C0.26,-0.464 0.238,-0.459 0.219,-0.448C0.201,-0.438 0.185,-0.424 0.173,-0.406C0.16,-0.387 0.151,-0.367 0.145,-0.344C0.138,-0.32 0.135,-0.296 0.135,-0.27Z" style="fill-rule:nonzero;"/>
                </g>
                <g transform="matrix(39.9044,-2.76333,2.76333,39.9044,10140.4,6694.89)">
                    <path d="M0.159,-0.445L0.159,-0L0.069,-0L0.069,-0.528L0.157,-0.528L0.159,-0.445ZM0.324,-0.531L0.324,-0.447C0.316,-0.449 0.309,-0.45 0.302,-0.45C0.296,-0.451 0.288,-0.451 0.28,-0.451C0.259,-0.451 0.241,-0.448 0.225,-0.441C0.209,-0.435 0.195,-0.426 0.184,-0.414C0.173,-0.402 0.164,-0.388 0.158,-0.372C0.152,-0.356 0.147,-0.339 0.146,-0.319L0.12,-0.305C0.12,-0.337 0.123,-0.367 0.13,-0.395C0.136,-0.423 0.146,-0.447 0.159,-0.469C0.173,-0.491 0.19,-0.508 0.21,-0.52C0.231,-0.532 0.256,-0.538 0.284,-0.538C0.291,-0.538 0.298,-0.537 0.307,-0.536C0.315,-0.534 0.321,-0.533 0.324,-0.531Z" style="fill-rule:nonzero;"/>
                </g>
                <g transform="matrix(39.8993,-2.83648,2.83648,39.8993,10152.3,6694.07)">
                    <path d="M0.38,-0.09L0.38,-0.362C0.38,-0.383 0.376,-0.401 0.368,-0.417C0.36,-0.432 0.347,-0.444 0.331,-0.453C0.314,-0.461 0.293,-0.465 0.269,-0.465C0.246,-0.465 0.226,-0.461 0.209,-0.454C0.192,-0.446 0.179,-0.436 0.169,-0.423C0.16,-0.41 0.155,-0.396 0.155,-0.382L0.064,-0.382C0.064,-0.401 0.069,-0.419 0.079,-0.438C0.089,-0.457 0.103,-0.473 0.121,-0.489C0.14,-0.504 0.162,-0.516 0.188,-0.525C0.214,-0.534 0.243,-0.538 0.274,-0.538C0.313,-0.538 0.347,-0.532 0.376,-0.519C0.406,-0.506 0.429,-0.486 0.446,-0.46C0.462,-0.434 0.471,-0.401 0.471,-0.361L0.471,-0.115C0.471,-0.098 0.472,-0.079 0.475,-0.059C0.478,-0.039 0.483,-0.022 0.489,-0.008L0.489,-0L0.395,-0C0.39,-0.01 0.387,-0.024 0.384,-0.042C0.382,-0.059 0.38,-0.075 0.38,-0.09ZM0.396,-0.32L0.397,-0.257L0.306,-0.257C0.28,-0.257 0.257,-0.255 0.237,-0.251C0.217,-0.247 0.2,-0.241 0.186,-0.232C0.172,-0.224 0.162,-0.214 0.155,-0.202C0.148,-0.19 0.144,-0.175 0.144,-0.159C0.144,-0.143 0.148,-0.127 0.155,-0.114C0.163,-0.1 0.174,-0.089 0.189,-0.081C0.204,-0.073 0.223,-0.069 0.245,-0.069C0.273,-0.069 0.297,-0.075 0.318,-0.087C0.34,-0.099 0.356,-0.113 0.369,-0.13C0.381,-0.147 0.388,-0.163 0.389,-0.179L0.428,-0.136C0.425,-0.122 0.419,-0.107 0.409,-0.09C0.399,-0.074 0.386,-0.058 0.369,-0.043C0.352,-0.028 0.332,-0.015 0.309,-0.005C0.286,0.005 0.261,0.01 0.232,0.01C0.196,0.01 0.165,0.003 0.138,-0.011C0.111,-0.025 0.09,-0.044 0.075,-0.068C0.061,-0.091 0.053,-0.118 0.053,-0.147C0.053,-0.175 0.059,-0.2 0.07,-0.222C0.081,-0.244 0.097,-0.262 0.118,-0.276C0.139,-0.291 0.164,-0.302 0.193,-0.309C0.222,-0.317 0.255,-0.32 0.291,-0.32L0.396,-0.32Z" style="fill-rule:nonzero;"/>
                </g>
                <g transform="matrix(39.8938,-2.91229,2.91229,39.8938,10172.4,6692.64)">
                    <path d="M0.29,-0.528L0.29,-0.459L0.004,-0.459L0.004,-0.528L0.29,-0.528ZM0.101,-0.657L0.191,-0.657L0.191,-0.131C0.191,-0.113 0.194,-0.099 0.2,-0.09C0.205,-0.081 0.212,-0.075 0.221,-0.072C0.23,-0.069 0.239,-0.068 0.25,-0.068C0.257,-0.068 0.265,-0.069 0.273,-0.07C0.281,-0.072 0.288,-0.073 0.292,-0.074L0.292,-0C0.285,0.002 0.276,0.004 0.264,0.007C0.253,0.009 0.239,0.01 0.223,0.01C0.201,0.01 0.18,0.005 0.162,-0.003C0.143,-0.012 0.128,-0.027 0.117,-0.048C0.107,-0.068 0.101,-0.096 0.101,-0.131L0.101,-0.657Z" style="fill-rule:nonzero;"/>
                </g>
                <g transform="matrix(39.8899,-2.96579,2.96579,39.8899,10183.9,6691.8)">
                    <path d="M0.167,-0.528L0.167,-0L0.076,-0L0.076,-0.528L0.167,-0.528ZM0.069,-0.668C0.069,-0.683 0.074,-0.695 0.083,-0.706C0.092,-0.716 0.105,-0.721 0.123,-0.721C0.14,-0.721 0.153,-0.716 0.162,-0.706C0.172,-0.695 0.176,-0.683 0.176,-0.668C0.176,-0.654 0.172,-0.642 0.162,-0.633C0.153,-0.623 0.14,-0.618 0.123,-0.618C0.105,-0.618 0.092,-0.623 0.083,-0.633C0.074,-0.642 0.069,-0.654 0.069,-0.668Z" style="fill-rule:nonzero;"/>
                </g>
                <g transform="matrix(39.8842,-3.04146,3.04146,39.8842,10192,6691.2)">
                    <path d="M0.045,-0.258L0.045,-0.27C0.045,-0.308 0.05,-0.343 0.062,-0.376C0.073,-0.408 0.089,-0.437 0.109,-0.461C0.13,-0.485 0.155,-0.504 0.185,-0.518C0.215,-0.531 0.248,-0.538 0.285,-0.538C0.322,-0.538 0.355,-0.531 0.385,-0.518C0.415,-0.504 0.44,-0.485 0.461,-0.461C0.482,-0.437 0.498,-0.408 0.509,-0.376C0.52,-0.343 0.526,-0.308 0.526,-0.27L0.526,-0.258C0.526,-0.22 0.52,-0.185 0.509,-0.152C0.498,-0.12 0.482,-0.091 0.461,-0.067C0.44,-0.043 0.415,-0.024 0.385,-0.01C0.356,0.003 0.323,0.01 0.286,0.01C0.249,0.01 0.215,0.003 0.186,-0.01C0.156,-0.024 0.131,-0.043 0.11,-0.067C0.089,-0.091 0.073,-0.12 0.062,-0.152C0.05,-0.185 0.045,-0.22 0.045,-0.258ZM0.135,-0.27L0.135,-0.258C0.135,-0.232 0.138,-0.207 0.145,-0.184C0.151,-0.161 0.16,-0.14 0.173,-0.122C0.185,-0.104 0.201,-0.09 0.22,-0.08C0.239,-0.07 0.261,-0.064 0.286,-0.064C0.31,-0.064 0.332,-0.07 0.351,-0.08C0.37,-0.09 0.385,-0.104 0.397,-0.122C0.41,-0.14 0.419,-0.161 0.426,-0.184C0.432,-0.207 0.435,-0.232 0.435,-0.258L0.435,-0.27C0.435,-0.296 0.432,-0.32 0.426,-0.344C0.419,-0.367 0.41,-0.387 0.397,-0.406C0.385,-0.424 0.369,-0.438 0.35,-0.448C0.332,-0.459 0.31,-0.464 0.285,-0.464C0.26,-0.464 0.238,-0.459 0.219,-0.448C0.201,-0.438 0.185,-0.424 0.173,-0.406C0.16,-0.387 0.151,-0.367 0.145,-0.344C0.138,-0.32 0.135,-0.296 0.135,-0.27Z" style="fill-rule:nonzero;"/>
                </g>
                <g transform="matrix(39.8756,-3.15241,3.15241,39.8756,10213.1,6689.59)">
                    <path d="M0.159,-0.416L0.159,-0L0.069,-0L0.069,-0.528L0.154,-0.528L0.159,-0.416ZM0.138,-0.284L0.1,-0.286C0.1,-0.322 0.106,-0.355 0.116,-0.386C0.127,-0.417 0.141,-0.444 0.16,-0.466C0.179,-0.489 0.202,-0.507 0.228,-0.519C0.254,-0.532 0.283,-0.538 0.315,-0.538C0.341,-0.538 0.364,-0.535 0.385,-0.528C0.406,-0.521 0.424,-0.509 0.439,-0.494C0.454,-0.479 0.465,-0.459 0.473,-0.435C0.48,-0.411 0.484,-0.381 0.484,-0.346L0.484,-0L0.394,-0L0.394,-0.347C0.394,-0.375 0.389,-0.397 0.381,-0.414C0.373,-0.431 0.361,-0.443 0.346,-0.45C0.33,-0.458 0.311,-0.462 0.288,-0.462C0.266,-0.462 0.245,-0.457 0.227,-0.448C0.208,-0.438 0.193,-0.425 0.179,-0.409C0.166,-0.392 0.156,-0.373 0.149,-0.352C0.141,-0.33 0.138,-0.308 0.138,-0.284Z" style="fill-rule:nonzero;"/>
                </g>
                <g transform="matrix(39.8571,-3.37773,3.37773,39.8571,10258.4,6685.93)">
                    <path d="M0.29,-0.528L0.29,-0.459L0.004,-0.459L0.004,-0.528L0.29,-0.528ZM0.101,-0.657L0.191,-0.657L0.191,-0.131C0.191,-0.113 0.194,-0.099 0.2,-0.09C0.205,-0.081 0.212,-0.075 0.221,-0.072C0.23,-0.069 0.239,-0.068 0.25,-0.068C0.257,-0.068 0.265,-0.069 0.273,-0.07C0.281,-0.072 0.288,-0.073 0.292,-0.074L0.292,-0C0.285,0.002 0.276,0.004 0.264,0.007C0.253,0.009 0.239,0.01 0.223,0.01C0.201,0.01 0.18,0.005 0.162,-0.003C0.143,-0.012 0.128,-0.027 0.117,-0.048C0.107,-0.068 0.101,-0.096 0.101,-0.131L0.101,-0.657Z" style="fill-rule:nonzero;"/>
                </g>
                <g transform="matrix(39.8489,-3.47328,3.47328,39.8489,10269.8,6684.97)">
                    <path d="M0.288,0.01C0.251,0.01 0.218,0.003 0.188,-0.009C0.158,-0.022 0.133,-0.039 0.112,-0.062C0.09,-0.085 0.074,-0.112 0.063,-0.143C0.051,-0.174 0.045,-0.208 0.045,-0.246L0.045,-0.266C0.045,-0.309 0.052,-0.347 0.064,-0.381C0.077,-0.415 0.094,-0.443 0.116,-0.467C0.138,-0.49 0.163,-0.508 0.19,-0.52C0.218,-0.532 0.247,-0.538 0.276,-0.538C0.314,-0.538 0.347,-0.532 0.374,-0.519C0.402,-0.506 0.424,-0.487 0.442,-0.464C0.459,-0.441 0.472,-0.413 0.481,-0.382C0.489,-0.351 0.494,-0.316 0.494,-0.279L0.494,-0.239L0.099,-0.239L0.099,-0.313L0.403,-0.313L0.403,-0.319C0.402,-0.343 0.397,-0.366 0.389,-0.388C0.381,-0.41 0.368,-0.428 0.35,-0.442C0.332,-0.457 0.307,-0.464 0.276,-0.464C0.256,-0.464 0.237,-0.46 0.22,-0.451C0.202,-0.442 0.188,-0.43 0.175,-0.413C0.163,-0.396 0.153,-0.375 0.146,-0.351C0.14,-0.326 0.136,-0.298 0.136,-0.266L0.136,-0.246C0.136,-0.221 0.14,-0.197 0.147,-0.175C0.154,-0.153 0.164,-0.134 0.177,-0.117C0.191,-0.101 0.207,-0.088 0.227,-0.078C0.246,-0.069 0.268,-0.064 0.293,-0.064C0.325,-0.064 0.352,-0.07 0.374,-0.083C0.396,-0.097 0.416,-0.114 0.432,-0.136L0.487,-0.092C0.475,-0.075 0.461,-0.059 0.443,-0.043C0.426,-0.027 0.404,-0.015 0.379,-0.005C0.353,0.005 0.323,0.01 0.288,0.01Z" style="fill-rule:nonzero;"/>
                </g>
                <g transform="matrix(39.8383,-3.5926,3.5926,39.8383,10289.4,6683.27)">
                    <path d="M0.38,-0.09L0.38,-0.362C0.38,-0.383 0.376,-0.401 0.368,-0.417C0.36,-0.432 0.347,-0.444 0.331,-0.453C0.314,-0.461 0.293,-0.465 0.269,-0.465C0.246,-0.465 0.226,-0.461 0.209,-0.454C0.192,-0.446 0.179,-0.436 0.169,-0.423C0.16,-0.41 0.155,-0.396 0.155,-0.382L0.064,-0.382C0.064,-0.401 0.069,-0.419 0.079,-0.438C0.089,-0.457 0.103,-0.473 0.121,-0.489C0.14,-0.504 0.162,-0.516 0.188,-0.525C0.214,-0.534 0.243,-0.538 0.274,-0.538C0.313,-0.538 0.347,-0.532 0.376,-0.519C0.406,-0.506 0.429,-0.486 0.446,-0.46C0.462,-0.434 0.471,-0.401 0.471,-0.361L0.471,-0.115C0.471,-0.098 0.472,-0.079 0.475,-0.059C0.478,-0.039 0.483,-0.022 0.489,-0.008L0.489,-0L0.395,-0C0.39,-0.01 0.387,-0.024 0.384,-0.042C0.382,-0.059 0.38,-0.075 0.38,-0.09ZM0.396,-0.32L0.397,-0.257L0.306,-0.257C0.28,-0.257 0.257,-0.255 0.237,-0.251C0.217,-0.247 0.2,-0.241 0.186,-0.232C0.172,-0.224 0.162,-0.214 0.155,-0.202C0.148,-0.19 0.144,-0.175 0.144,-0.159C0.144,-0.143 0.148,-0.127 0.155,-0.114C0.163,-0.1 0.174,-0.089 0.189,-0.081C0.204,-0.073 0.223,-0.069 0.245,-0.069C0.273,-0.069 0.297,-0.075 0.318,-0.087C0.34,-0.099 0.356,-0.113 0.369,-0.13C0.381,-0.147 0.388,-0.163 0.389,-0.179L0.428,-0.136C0.425,-0.122 0.419,-0.107 0.409,-0.09C0.399,-0.074 0.386,-0.058 0.369,-0.043C0.352,-0.028 0.332,-0.015 0.309,-0.005C0.286,0.005 0.261,0.01 0.232,0.01C0.196,0.01 0.165,0.003 0.138,-0.011C0.111,-0.025 0.09,-0.044 0.075,-0.068C0.061,-0.091 0.053,-0.118 0.053,-0.147C0.053,-0.175 0.059,-0.2 0.07,-0.222C0.081,-0.244 0.097,-0.262 0.118,-0.276C0.139,-0.291 0.164,-0.302 0.193,-0.309C0.222,-0.317 0.255,-0.32 0.291,-0.32L0.396,-0.32Z" style="fill-rule:nonzero;"/>
                </g>
                <g transform="matrix(39.8227,-3.76164,3.76164,39.8227,10309.5,6681.47)">
                    <path d="M0.159,-0.423L0.159,-0L0.068,-0L0.068,-0.528L0.154,-0.528L0.159,-0.423ZM0.14,-0.284L0.098,-0.286C0.098,-0.322 0.103,-0.355 0.112,-0.386C0.121,-0.417 0.135,-0.444 0.153,-0.466C0.171,-0.489 0.193,-0.507 0.22,-0.519C0.246,-0.532 0.277,-0.538 0.313,-0.538C0.337,-0.538 0.36,-0.535 0.381,-0.528C0.402,-0.521 0.42,-0.51 0.435,-0.495C0.45,-0.48 0.462,-0.46 0.471,-0.437C0.479,-0.414 0.483,-0.385 0.483,-0.352L0.483,-0L0.393,-0L0.393,-0.348C0.393,-0.375 0.388,-0.397 0.379,-0.414C0.37,-0.431 0.357,-0.443 0.34,-0.45C0.323,-0.458 0.303,-0.462 0.28,-0.462C0.254,-0.462 0.231,-0.457 0.213,-0.448C0.195,-0.438 0.181,-0.425 0.17,-0.409C0.16,-0.392 0.152,-0.373 0.147,-0.352C0.142,-0.33 0.14,-0.308 0.14,-0.284ZM0.482,-0.334L0.422,-0.315C0.422,-0.344 0.427,-0.372 0.436,-0.399C0.446,-0.426 0.459,-0.449 0.477,-0.47C0.495,-0.491 0.516,-0.508 0.542,-0.52C0.569,-0.532 0.598,-0.538 0.632,-0.538C0.66,-0.538 0.685,-0.534 0.707,-0.527C0.729,-0.519 0.748,-0.508 0.763,-0.492C0.778,-0.477 0.79,-0.457 0.797,-0.433C0.805,-0.409 0.809,-0.38 0.809,-0.347L0.809,-0L0.718,-0L0.718,-0.348C0.718,-0.378 0.714,-0.401 0.704,-0.417C0.695,-0.434 0.682,-0.445 0.665,-0.452C0.649,-0.459 0.629,-0.462 0.605,-0.462C0.586,-0.462 0.568,-0.458 0.553,-0.452C0.537,-0.445 0.525,-0.435 0.514,-0.424C0.504,-0.412 0.496,-0.398 0.49,-0.383C0.485,-0.368 0.482,-0.351 0.482,-0.334Z" style="fill-rule:nonzero;"/>
                </g>
                <g transform="matrix(39.8028,-3.96738,3.96738,39.8028,10342.8,6678.32)">
                    <path d="M0.203,-0.094L0.338,-0.528L0.398,-0.528L0.386,-0.442L0.248,-0L0.19,-0L0.203,-0.094ZM0.111,-0.528L0.227,-0.089L0.235,-0L0.174,-0L0.021,-0.528L0.111,-0.528ZM0.528,-0.092L0.638,-0.528L0.728,-0.528L0.575,-0L0.514,-0L0.528,-0.092ZM0.411,-0.528L0.544,-0.101L0.559,-0L0.501,-0L0.359,-0.443L0.348,-0.528L0.411,-0.528Z" style="fill-rule:nonzero;"/>
                </g>
                <g transform="matrix(39.7849,-4.1424,4.1424,39.7849,10371.2,6675.5)">
                    <path d="M0.045,-0.258L0.045,-0.27C0.045,-0.308 0.05,-0.343 0.062,-0.376C0.073,-0.408 0.089,-0.437 0.109,-0.461C0.13,-0.485 0.155,-0.504 0.185,-0.518C0.215,-0.531 0.248,-0.538 0.285,-0.538C0.322,-0.538 0.355,-0.531 0.385,-0.518C0.415,-0.504 0.44,-0.485 0.461,-0.461C0.482,-0.437 0.498,-0.408 0.509,-0.376C0.52,-0.343 0.526,-0.308 0.526,-0.27L0.526,-0.258C0.526,-0.22 0.52,-0.185 0.509,-0.152C0.498,-0.12 0.482,-0.091 0.461,-0.067C0.44,-0.043 0.415,-0.024 0.385,-0.01C0.356,0.003 0.323,0.01 0.286,0.01C0.249,0.01 0.215,0.003 0.186,-0.01C0.156,-0.024 0.131,-0.043 0.11,-0.067C0.089,-0.091 0.073,-0.12 0.062,-0.152C0.05,-0.185 0.045,-0.22 0.045,-0.258ZM0.135,-0.27L0.135,-0.258C0.135,-0.232 0.138,-0.207 0.145,-0.184C0.151,-0.161 0.16,-0.14 0.173,-0.122C0.185,-0.104 0.201,-0.09 0.22,-0.08C0.239,-0.07 0.261,-0.064 0.286,-0.064C0.31,-0.064 0.332,-0.07 0.351,-0.08C0.37,-0.09 0.385,-0.104 0.397,-0.122C0.41,-0.14 0.419,-0.161 0.426,-0.184C0.432,-0.207 0.435,-0.232 0.435,-0.258L0.435,-0.27C0.435,-0.296 0.432,-0.32 0.426,-0.344C0.419,-0.367 0.41,-0.387 0.397,-0.406C0.385,-0.424 0.369,-0.438 0.35,-0.448C0.332,-0.459 0.31,-0.464 0.285,-0.464C0.26,-0.464 0.238,-0.459 0.219,-0.448C0.201,-0.438 0.185,-0.424 0.173,-0.406C0.16,-0.387 0.151,-0.367 0.145,-0.344C0.138,-0.32 0.135,-0.296 0.135,-0.27Z" style="fill-rule:nonzero;"/>
                </g>
                <g transform="matrix(39.7712,-4.27212,4.27212,39.7712,10392.3,6673.29)">
                    <path d="M0.159,-0.445L0.159,-0L0.069,-0L0.069,-0.528L0.157,-0.528L0.159,-0.445ZM0.324,-0.531L0.324,-0.447C0.316,-0.449 0.309,-0.45 0.302,-0.45C0.296,-0.451 0.288,-0.451 0.28,-0.451C0.259,-0.451 0.241,-0.448 0.225,-0.441C0.209,-0.435 0.195,-0.426 0.184,-0.414C0.173,-0.402 0.164,-0.388 0.158,-0.372C0.152,-0.356 0.147,-0.339 0.146,-0.319L0.12,-0.305C0.12,-0.337 0.123,-0.367 0.13,-0.395C0.136,-0.423 0.146,-0.447 0.159,-0.469C0.173,-0.491 0.19,-0.508 0.21,-0.52C0.231,-0.532 0.256,-0.538 0.284,-0.538C0.291,-0.538 0.298,-0.537 0.307,-0.536C0.315,-0.534 0.321,-0.533 0.324,-0.531Z" style="fill-rule:nonzero;"/>
                </g>
                <g transform="matrix(39.7583,-4.39072,4.39072,39.7583,10404.2,6672.03)">
                    <path d="M0.16,-0.75L0.16,-0L0.069,-0L0.069,-0.75L0.16,-0.75ZM0.482,-0.528L0.252,-0.282L0.123,-0.148L0.116,-0.244L0.208,-0.354L0.372,-0.528L0.482,-0.528ZM0.4,-0L0.211,-0.252L0.258,-0.333L0.506,-0L0.4,-0Z" style="fill-rule:nonzero;"/>
                </g>
                <g transform="matrix(39.7181,-4.74093,4.74093,39.7181,10447.5,6667.16)">
                    <path d="M0.159,-0.75L0.159,-0L0.069,-0L0.069,-0.75L0.159,-0.75ZM0.138,-0.284L0.1,-0.286C0.1,-0.322 0.106,-0.355 0.116,-0.386C0.127,-0.417 0.141,-0.444 0.16,-0.466C0.179,-0.489 0.202,-0.507 0.228,-0.519C0.254,-0.532 0.283,-0.538 0.315,-0.538C0.341,-0.538 0.364,-0.535 0.385,-0.528C0.406,-0.521 0.424,-0.509 0.439,-0.494C0.454,-0.479 0.465,-0.459 0.473,-0.435C0.48,-0.411 0.484,-0.381 0.484,-0.346L0.484,-0L0.394,-0L0.394,-0.347C0.394,-0.375 0.389,-0.397 0.381,-0.414C0.373,-0.431 0.361,-0.443 0.346,-0.45C0.33,-0.458 0.311,-0.462 0.288,-0.462C0.266,-0.462 0.245,-0.457 0.227,-0.448C0.208,-0.438 0.193,-0.425 0.179,-0.409C0.166,-0.392 0.156,-0.373 0.149,-0.352C0.141,-0.33 0.138,-0.308 0.138,-0.284Z" style="fill-rule:nonzero;"/>
                </g>
                <g transform="matrix(39.6966,-4.91744,4.91744,39.6966,10467.7,6664.74)">
                    <path d="M0.38,-0.09L0.38,-0.362C0.38,-0.383 0.376,-0.401 0.368,-0.417C0.36,-0.432 0.347,-0.444 0.331,-0.453C0.314,-0.461 0.293,-0.465 0.269,-0.465C0.246,-0.465 0.226,-0.461 0.209,-0.454C0.192,-0.446 0.179,-0.436 0.169,-0.423C0.16,-0.41 0.155,-0.396 0.155,-0.382L0.064,-0.382C0.064,-0.401 0.069,-0.419 0.079,-0.438C0.089,-0.457 0.103,-0.473 0.121,-0.489C0.14,-0.504 0.162,-0.516 0.188,-0.525C0.214,-0.534 0.243,-0.538 0.274,-0.538C0.313,-0.538 0.347,-0.532 0.376,-0.519C0.406,-0.506 0.429,-0.486 0.446,-0.46C0.462,-0.434 0.471,-0.401 0.471,-0.361L0.471,-0.115C0.471,-0.098 0.472,-0.079 0.475,-0.059C0.478,-0.039 0.483,-0.022 0.489,-0.008L0.489,-0L0.395,-0C0.39,-0.01 0.387,-0.024 0.384,-0.042C0.382,-0.059 0.38,-0.075 0.38,-0.09ZM0.396,-0.32L0.397,-0.257L0.306,-0.257C0.28,-0.257 0.257,-0.255 0.237,-0.251C0.217,-0.247 0.2,-0.241 0.186,-0.232C0.172,-0.224 0.162,-0.214 0.155,-0.202C0.148,-0.19 0.144,-0.175 0.144,-0.159C0.144,-0.143 0.148,-0.127 0.155,-0.114C0.163,-0.1 0.174,-0.089 0.189,-0.081C0.204,-0.073 0.223,-0.069 0.245,-0.069C0.273,-0.069 0.297,-0.075 0.318,-0.087C0.34,-0.099 0.356,-0.113 0.369,-0.13C0.381,-0.147 0.388,-0.163 0.389,-0.179L0.428,-0.136C0.425,-0.122 0.419,-0.107 0.409,-0.09C0.399,-0.074 0.386,-0.058 0.369,-0.043C0.352,-0.028 0.332,-0.015 0.309,-0.005C0.286,0.005 0.261,0.01 0.232,0.01C0.196,0.01 0.165,0.003 0.138,-0.011C0.111,-0.025 0.09,-0.044 0.075,-0.068C0.061,-0.091 0.053,-0.118 0.053,-0.147C0.053,-0.175 0.059,-0.2 0.07,-0.222C0.081,-0.244 0.097,-0.262 0.118,-0.276C0.139,-0.291 0.164,-0.302 0.193,-0.309C0.222,-0.317 0.255,-0.32 0.291,-0.32L0.396,-0.32Z" style="fill-rule:nonzero;"/>
                </g>
                <g transform="matrix(39.6768,-5.07438,5.07438,39.6768,10487.8,6662.26)">
                    <path d="M0.159,-0.445L0.159,-0L0.069,-0L0.069,-0.528L0.157,-0.528L0.159,-0.445ZM0.324,-0.531L0.324,-0.447C0.316,-0.449 0.309,-0.45 0.302,-0.45C0.296,-0.451 0.288,-0.451 0.28,-0.451C0.259,-0.451 0.241,-0.448 0.225,-0.441C0.209,-0.435 0.195,-0.426 0.184,-0.414C0.173,-0.402 0.164,-0.388 0.158,-0.372C0.152,-0.356 0.147,-0.339 0.146,-0.319L0.12,-0.305C0.12,-0.337 0.123,-0.367 0.13,-0.395C0.136,-0.423 0.146,-0.447 0.159,-0.469C0.173,-0.491 0.19,-0.508 0.21,-0.52C0.231,-0.532 0.256,-0.538 0.284,-0.538C0.291,-0.538 0.298,-0.537 0.307,-0.536C0.315,-0.534 0.321,-0.533 0.324,-0.531Z" style="fill-rule:nonzero;"/>
                </g>
                <g transform="matrix(39.6497,-5.28229,5.28229,39.6497,10499.6,6660.77)">
                    <path d="M0.159,-0.423L0.159,-0L0.068,-0L0.068,-0.528L0.154,-0.528L0.159,-0.423ZM0.14,-0.284L0.098,-0.286C0.098,-0.322 0.103,-0.355 0.112,-0.386C0.121,-0.417 0.135,-0.444 0.153,-0.466C0.171,-0.489 0.193,-0.507 0.22,-0.519C0.246,-0.532 0.277,-0.538 0.313,-0.538C0.337,-0.538 0.36,-0.535 0.381,-0.528C0.402,-0.521 0.42,-0.51 0.435,-0.495C0.45,-0.48 0.462,-0.46 0.471,-0.437C0.479,-0.414 0.483,-0.385 0.483,-0.352L0.483,-0L0.393,-0L0.393,-0.348C0.393,-0.375 0.388,-0.397 0.379,-0.414C0.37,-0.431 0.357,-0.443 0.34,-0.45C0.323,-0.458 0.303,-0.462 0.28,-0.462C0.254,-0.462 0.231,-0.457 0.213,-0.448C0.195,-0.438 0.181,-0.425 0.17,-0.409C0.16,-0.392 0.152,-0.373 0.147,-0.352C0.142,-0.33 0.14,-0.308 0.14,-0.284ZM0.482,-0.334L0.422,-0.315C0.422,-0.344 0.427,-0.372 0.436,-0.399C0.446,-0.426 0.459,-0.449 0.477,-0.47C0.495,-0.491 0.516,-0.508 0.542,-0.52C0.569,-0.532 0.598,-0.538 0.632,-0.538C0.66,-0.538 0.685,-0.534 0.707,-0.527C0.729,-0.519 0.748,-0.508 0.763,-0.492C0.778,-0.477 0.79,-0.457 0.797,-0.433C0.805,-0.409 0.809,-0.38 0.809,-0.347L0.809,-0L0.718,-0L0.718,-0.348C0.718,-0.378 0.714,-0.401 0.704,-0.417C0.695,-0.434 0.682,-0.445 0.665,-0.452C0.649,-0.459 0.629,-0.462 0.605,-0.462C0.586,-0.462 0.568,-0.458 0.553,-0.452C0.537,-0.445 0.525,-0.435 0.514,-0.424C0.504,-0.412 0.496,-0.398 0.49,-0.383C0.485,-0.368 0.482,-0.351 0.482,-0.334Z" style="fill-rule:nonzero;"/>
                </g>
                <g transform="matrix(39.6114,-5.56227,5.56227,39.6114,10532.8,6656.34)">
                    <path d="M0.045,-0.258L0.045,-0.27C0.045,-0.308 0.05,-0.343 0.062,-0.376C0.073,-0.408 0.089,-0.437 0.109,-0.461C0.13,-0.485 0.155,-0.504 0.185,-0.518C0.215,-0.531 0.248,-0.538 0.285,-0.538C0.322,-0.538 0.355,-0.531 0.385,-0.518C0.415,-0.504 0.44,-0.485 0.461,-0.461C0.482,-0.437 0.498,-0.408 0.509,-0.376C0.52,-0.343 0.526,-0.308 0.526,-0.27L0.526,-0.258C0.526,-0.22 0.52,-0.185 0.509,-0.152C0.498,-0.12 0.482,-0.091 0.461,-0.067C0.44,-0.043 0.415,-0.024 0.385,-0.01C0.356,0.003 0.323,0.01 0.286,0.01C0.249,0.01 0.215,0.003 0.186,-0.01C0.156,-0.024 0.131,-0.043 0.11,-0.067C0.089,-0.091 0.073,-0.12 0.062,-0.152C0.05,-0.185 0.045,-0.22 0.045,-0.258ZM0.135,-0.27L0.135,-0.258C0.135,-0.232 0.138,-0.207 0.145,-0.184C0.151,-0.161 0.16,-0.14 0.173,-0.122C0.185,-0.104 0.201,-0.09 0.22,-0.08C0.239,-0.07 0.261,-0.064 0.286,-0.064C0.31,-0.064 0.332,-0.07 0.351,-0.08C0.37,-0.09 0.385,-0.104 0.397,-0.122C0.41,-0.14 0.419,-0.161 0.426,-0.184C0.432,-0.207 0.435,-0.232 0.435,-0.258L0.435,-0.27C0.435,-0.296 0.432,-0.32 0.426,-0.344C0.419,-0.367 0.41,-0.387 0.397,-0.406C0.385,-0.424 0.369,-0.438 0.35,-0.448C0.332,-0.459 0.31,-0.464 0.285,-0.464C0.26,-0.464 0.238,-0.459 0.219,-0.448C0.201,-0.438 0.185,-0.424 0.173,-0.406C0.16,-0.387 0.151,-0.367 0.145,-0.344C0.138,-0.32 0.135,-0.296 0.135,-0.27Z" style="fill-rule:nonzero;"/>
                </g>
                <g transform="matrix(39.5785,-5.79128,5.79128,39.5785,10553.8,6653.39)">
                    <path d="M0.159,-0.416L0.159,-0L0.069,-0L0.069,-0.528L0.154,-0.528L0.159,-0.416ZM0.138,-0.284L0.1,-0.286C0.1,-0.322 0.106,-0.355 0.116,-0.386C0.127,-0.417 0.141,-0.444 0.16,-0.466C0.179,-0.489 0.202,-0.507 0.228,-0.519C0.254,-0.532 0.283,-0.538 0.315,-0.538C0.341,-0.538 0.364,-0.535 0.385,-0.528C0.406,-0.521 0.424,-0.509 0.439,-0.494C0.454,-0.479 0.465,-0.459 0.473,-0.435C0.48,-0.411 0.484,-0.381 0.484,-0.346L0.484,-0L0.394,-0L0.394,-0.347C0.394,-0.375 0.389,-0.397 0.381,-0.414C0.373,-0.431 0.361,-0.443 0.346,-0.45C0.33,-0.458 0.311,-0.462 0.288,-0.462C0.266,-0.462 0.245,-0.457 0.227,-0.448C0.208,-0.438 0.193,-0.425 0.179,-0.409C0.166,-0.392 0.156,-0.373 0.149,-0.352C0.141,-0.33 0.138,-0.308 0.138,-0.284Z" style="fill-rule:nonzero;"/>
                </g>
                <g transform="matrix(39.5459,-6.01003,6.01003,39.5459,10574.1,6650.43)">
                    <path d="M0.217,-0.055L0.364,-0.528L0.461,-0.528L0.249,0.082C0.244,0.095 0.238,0.109 0.23,0.124C0.222,0.139 0.212,0.153 0.199,0.167C0.187,0.181 0.172,0.192 0.155,0.2C0.137,0.209 0.116,0.213 0.092,0.213C0.085,0.213 0.076,0.212 0.065,0.21C0.054,0.208 0.046,0.207 0.042,0.206L0.041,0.132C0.044,0.133 0.048,0.133 0.053,0.134C0.059,0.134 0.063,0.134 0.065,0.134C0.086,0.134 0.103,0.132 0.118,0.126C0.132,0.121 0.144,0.112 0.154,0.099C0.164,0.087 0.173,0.07 0.18,0.048L0.217,-0.055ZM0.109,-0.528L0.247,-0.118L0.27,-0.023L0.205,0.01L0.011,-0.528L0.109,-0.528Z" style="fill-rule:nonzero;"/>
                </g>
                <g transform="matrix(39.4565,-6.5715,6.5715,39.4565,10615.9,6643.92)">
                    <path d="M0.392,-0.122L0.392,-0.528L0.483,-0.528L0.483,-0L0.396,-0L0.392,-0.122ZM0.409,-0.233L0.447,-0.234C0.447,-0.199 0.443,-0.167 0.436,-0.137C0.428,-0.107 0.417,-0.081 0.4,-0.06C0.384,-0.038 0.363,-0.021 0.336,-0.009C0.31,0.004 0.278,0.01 0.24,0.01C0.215,0.01 0.191,0.006 0.17,-0.001C0.148,-0.009 0.13,-0.021 0.115,-0.036C0.099,-0.052 0.088,-0.072 0.079,-0.097C0.071,-0.122 0.067,-0.152 0.067,-0.188L0.067,-0.528L0.157,-0.528L0.157,-0.187C0.157,-0.163 0.16,-0.143 0.165,-0.128C0.171,-0.112 0.178,-0.1 0.187,-0.091C0.197,-0.082 0.207,-0.076 0.219,-0.072C0.23,-0.069 0.242,-0.067 0.254,-0.067C0.293,-0.067 0.323,-0.074 0.346,-0.089C0.368,-0.104 0.384,-0.124 0.394,-0.149C0.404,-0.174 0.409,-0.202 0.409,-0.233Z" style="fill-rule:nonzero;"/>
                </g>
                <g transform="matrix(39.4068,-6.86305,6.86305,39.4068,10636.1,6640.57)">
                    <path d="M0.159,-0.416L0.159,-0L0.069,-0L0.069,-0.528L0.154,-0.528L0.159,-0.416ZM0.138,-0.284L0.1,-0.286C0.1,-0.322 0.106,-0.355 0.116,-0.386C0.127,-0.417 0.141,-0.444 0.16,-0.466C0.179,-0.489 0.202,-0.507 0.228,-0.519C0.254,-0.532 0.283,-0.538 0.315,-0.538C0.341,-0.538 0.364,-0.535 0.385,-0.528C0.406,-0.521 0.424,-0.509 0.439,-0.494C0.454,-0.479 0.465,-0.459 0.473,-0.435C0.48,-0.411 0.484,-0.381 0.484,-0.346L0.484,-0L0.394,-0L0.394,-0.347C0.394,-0.375 0.389,-0.397 0.381,-0.414C0.373,-0.431 0.361,-0.443 0.346,-0.45C0.33,-0.458 0.311,-0.462 0.288,-0.462C0.266,-0.462 0.245,-0.457 0.227,-0.448C0.208,-0.438 0.193,-0.425 0.179,-0.409C0.166,-0.392 0.156,-0.373 0.149,-0.352C0.141,-0.33 0.138,-0.308 0.138,-0.284Z" style="fill-rule:nonzero;"/>
                </g>
                <g transform="matrix(39.3685,-7.07973,7.07973,39.3685,10656.2,6637.05)">
                    <path d="M0.167,-0.528L0.167,-0L0.076,-0L0.076,-0.528L0.167,-0.528ZM0.069,-0.668C0.069,-0.683 0.074,-0.695 0.083,-0.706C0.092,-0.716 0.105,-0.721 0.123,-0.721C0.14,-0.721 0.153,-0.716 0.162,-0.706C0.172,-0.695 0.176,-0.683 0.176,-0.668C0.176,-0.654 0.172,-0.642 0.162,-0.633C0.153,-0.623 0.14,-0.618 0.123,-0.618C0.105,-0.618 0.092,-0.623 0.083,-0.633C0.074,-0.642 0.069,-0.654 0.069,-0.668Z" style="fill-rule:nonzero;"/>
                </g>
                <g transform="matrix(39.3423,-7.22386,7.22386,39.3423,10664.2,6635.62)">
                    <path d="M0.29,-0.528L0.29,-0.459L0.004,-0.459L0.004,-0.528L0.29,-0.528ZM0.101,-0.657L0.191,-0.657L0.191,-0.131C0.191,-0.113 0.194,-0.099 0.2,-0.09C0.205,-0.081 0.212,-0.075 0.221,-0.072C0.23,-0.069 0.239,-0.068 0.25,-0.068C0.257,-0.068 0.265,-0.069 0.273,-0.07C0.281,-0.072 0.288,-0.073 0.292,-0.074L0.292,-0C0.285,0.002 0.276,0.004 0.264,0.007C0.253,0.009 0.239,0.01 0.223,0.01C0.201,0.01 0.18,0.005 0.162,-0.003C0.143,-0.012 0.128,-0.027 0.117,-0.048C0.107,-0.068 0.101,-0.096 0.101,-0.131L0.101,-0.657Z" style="fill-rule:nonzero;"/>
                </g>
                <g transform="matrix(39.296,-7.47152,7.47152,39.296,10675.6,6633.55)">
                    <path d="M0.217,-0.055L0.364,-0.528L0.461,-0.528L0.249,0.082C0.244,0.095 0.238,0.109 0.23,0.124C0.222,0.139 0.212,0.153 0.199,0.167C0.187,0.181 0.172,0.192 0.155,0.2C0.137,0.209 0.116,0.213 0.092,0.213C0.085,0.213 0.076,0.212 0.065,0.21C0.054,0.208 0.046,0.207 0.042,0.206L0.041,0.132C0.044,0.133 0.048,0.133 0.053,0.134C0.059,0.134 0.063,0.134 0.065,0.134C0.086,0.134 0.103,0.132 0.118,0.126C0.132,0.121 0.144,0.112 0.154,0.099C0.164,0.087 0.173,0.07 0.18,0.048L0.217,-0.055ZM0.109,-0.528L0.247,-0.118L0.27,-0.023L0.205,0.01L0.011,-0.528L0.109,-0.528Z" style="fill-rule:nonzero;"/>
                </g>
                <g transform="matrix(39.1537,-8.1845,8.1845,39.1537,10717.1,6625.42)">
                    <path d="M0.29,-0.528L0.29,-0.459L0.004,-0.459L0.004,-0.528L0.29,-0.528ZM0.101,-0.657L0.191,-0.657L0.191,-0.131C0.191,-0.113 0.194,-0.099 0.2,-0.09C0.205,-0.081 0.212,-0.075 0.221,-0.072C0.23,-0.069 0.239,-0.068 0.25,-0.068C0.257,-0.068 0.265,-0.069 0.273,-0.07C0.281,-0.072 0.288,-0.073 0.292,-0.074L0.292,-0C0.285,0.002 0.276,0.004 0.264,0.007C0.253,0.009 0.239,0.01 0.223,0.01C0.201,0.01 0.18,0.005 0.162,-0.003C0.143,-0.012 0.128,-0.027 0.117,-0.048C0.107,-0.068 0.101,-0.096 0.101,-0.131L0.101,-0.657Z" style="fill-rule:nonzero;"/>
                </g>
                <g transform="matrix(39.0956,-8.45791,8.45791,39.0956,10728.3,6623.09)">
                    <path d="M0.159,-0.445L0.159,-0L0.069,-0L0.069,-0.528L0.157,-0.528L0.159,-0.445ZM0.324,-0.531L0.324,-0.447C0.316,-0.449 0.309,-0.45 0.302,-0.45C0.296,-0.451 0.288,-0.451 0.28,-0.451C0.259,-0.451 0.241,-0.448 0.225,-0.441C0.209,-0.435 0.195,-0.426 0.184,-0.414C0.173,-0.402 0.164,-0.388 0.158,-0.372C0.152,-0.356 0.147,-0.339 0.146,-0.319L0.12,-0.305C0.12,-0.337 0.123,-0.367 0.13,-0.395C0.136,-0.423 0.146,-0.447 0.159,-0.469C0.173,-0.491 0.19,-0.508 0.21,-0.52C0.231,-0.532 0.256,-0.538 0.284,-0.538C0.291,-0.538 0.298,-0.537 0.307,-0.536C0.315,-0.534 0.321,-0.533 0.324,-0.531Z" style="fill-rule:nonzero;"/>
                </g>
                <g transform="matrix(39.0226,-8.78854,8.78854,39.0226,10740,6620.58)">
                    <path d="M0.392,-0.122L0.392,-0.528L0.483,-0.528L0.483,-0L0.396,-0L0.392,-0.122ZM0.409,-0.233L0.447,-0.234C0.447,-0.199 0.443,-0.167 0.436,-0.137C0.428,-0.107 0.417,-0.081 0.4,-0.06C0.384,-0.038 0.363,-0.021 0.336,-0.009C0.31,0.004 0.278,0.01 0.24,0.01C0.215,0.01 0.191,0.006 0.17,-0.001C0.148,-0.009 0.13,-0.021 0.115,-0.036C0.099,-0.052 0.088,-0.072 0.079,-0.097C0.071,-0.122 0.067,-0.152 0.067,-0.188L0.067,-0.528L0.157,-0.528L0.157,-0.187C0.157,-0.163 0.16,-0.143 0.165,-0.128C0.171,-0.112 0.178,-0.1 0.187,-0.091C0.197,-0.082 0.207,-0.076 0.219,-0.072C0.23,-0.069 0.242,-0.067 0.254,-0.067C0.293,-0.067 0.323,-0.074 0.346,-0.089C0.368,-0.104 0.384,-0.124 0.394,-0.149C0.404,-0.174 0.409,-0.202 0.409,-0.233Z" style="fill-rule:nonzero;"/>
                </g>
                <g transform="matrix(38.9142,-9.25671,9.25671,38.9142,10760,6616.09)">
                    <path d="M0.376,-0.14C0.376,-0.153 0.374,-0.165 0.368,-0.177C0.362,-0.188 0.351,-0.198 0.333,-0.207C0.316,-0.217 0.29,-0.225 0.255,-0.231C0.226,-0.238 0.199,-0.245 0.176,-0.253C0.152,-0.262 0.132,-0.272 0.115,-0.284C0.099,-0.296 0.086,-0.31 0.078,-0.327C0.069,-0.343 0.064,-0.362 0.064,-0.384C0.064,-0.405 0.069,-0.424 0.078,-0.443C0.088,-0.461 0.101,-0.478 0.118,-0.492C0.135,-0.507 0.156,-0.518 0.18,-0.526C0.204,-0.534 0.231,-0.538 0.26,-0.538C0.303,-0.538 0.339,-0.531 0.369,-0.516C0.399,-0.501 0.422,-0.481 0.438,-0.456C0.453,-0.431 0.461,-0.403 0.461,-0.373L0.371,-0.373C0.371,-0.388 0.367,-0.402 0.358,-0.416C0.35,-0.43 0.337,-0.441 0.321,-0.45C0.304,-0.459 0.284,-0.464 0.26,-0.464C0.235,-0.464 0.215,-0.46 0.199,-0.452C0.184,-0.445 0.173,-0.435 0.166,-0.423C0.159,-0.412 0.155,-0.399 0.155,-0.386C0.155,-0.376 0.157,-0.368 0.16,-0.36C0.164,-0.352 0.17,-0.345 0.179,-0.339C0.188,-0.333 0.2,-0.327 0.216,-0.321C0.232,-0.316 0.252,-0.31 0.277,-0.305C0.32,-0.295 0.356,-0.283 0.384,-0.27C0.412,-0.256 0.433,-0.239 0.446,-0.219C0.46,-0.199 0.467,-0.175 0.467,-0.147C0.467,-0.124 0.462,-0.103 0.452,-0.083C0.443,-0.064 0.429,-0.048 0.411,-0.034C0.393,-0.02 0.371,-0.009 0.346,-0.002C0.322,0.006 0.294,0.01 0.263,0.01C0.216,0.01 0.177,0.001 0.145,-0.015C0.112,-0.032 0.088,-0.053 0.071,-0.08C0.055,-0.106 0.046,-0.134 0.046,-0.163L0.137,-0.163C0.139,-0.138 0.146,-0.119 0.159,-0.104C0.172,-0.09 0.188,-0.08 0.207,-0.073C0.225,-0.067 0.244,-0.064 0.263,-0.064C0.287,-0.064 0.308,-0.068 0.325,-0.074C0.342,-0.081 0.354,-0.09 0.363,-0.101C0.372,-0.112 0.376,-0.125 0.376,-0.14Z" style="fill-rule:nonzero;"/>
                </g>
                <g transform="matrix(38.8217,-9.63709,9.63709,38.8217,10778.5,6611.67)">
                    <path d="M0.29,-0.528L0.29,-0.459L0.004,-0.459L0.004,-0.528L0.29,-0.528ZM0.101,-0.657L0.191,-0.657L0.191,-0.131C0.191,-0.113 0.194,-0.099 0.2,-0.09C0.205,-0.081 0.212,-0.075 0.221,-0.072C0.23,-0.069 0.239,-0.068 0.25,-0.068C0.257,-0.068 0.265,-0.069 0.273,-0.07C0.281,-0.072 0.288,-0.073 0.292,-0.074L0.292,-0C0.285,0.002 0.276,0.004 0.264,0.007C0.253,0.009 0.239,0.01 0.223,0.01C0.201,0.01 0.18,0.005 0.162,-0.003C0.143,-0.012 0.128,-0.027 0.117,-0.048C0.107,-0.068 0.101,-0.096 0.101,-0.131L0.101,-0.657Z" style="fill-rule:nonzero;"/>
                </g>
                <g transform="matrix(38.5198,-10.7809,10.7809,38.5198,10813.7,6602.6)">
                    <path d="M0.159,-0.445L0.159,-0L0.069,-0L0.069,-0.528L0.157,-0.528L0.159,-0.445ZM0.324,-0.531L0.324,-0.447C0.316,-0.449 0.309,-0.45 0.302,-0.45C0.296,-0.451 0.288,-0.451 0.28,-0.451C0.259,-0.451 0.241,-0.448 0.225,-0.441C0.209,-0.435 0.195,-0.426 0.184,-0.414C0.173,-0.402 0.164,-0.388 0.158,-0.372C0.152,-0.356 0.147,-0.339 0.146,-0.319L0.12,-0.305C0.12,-0.337 0.123,-0.367 0.13,-0.395C0.136,-0.423 0.146,-0.447 0.159,-0.469C0.173,-0.491 0.19,-0.508 0.21,-0.52C0.231,-0.532 0.256,-0.538 0.284,-0.538C0.291,-0.538 0.298,-0.537 0.307,-0.536C0.315,-0.534 0.321,-0.533 0.324,-0.531Z" style="fill-rule:nonzero;"/>
                </g>
                <g transform="matrix(38.3707,-11.2999,11.2999,38.3707,10825.3,6599.41)">
                    <path d="M0.288,0.01C0.251,0.01 0.218,0.003 0.188,-0.009C0.158,-0.022 0.133,-0.039 0.112,-0.062C0.09,-0.085 0.074,-0.112 0.063,-0.143C0.051,-0.174 0.045,-0.208 0.045,-0.246L0.045,-0.266C0.045,-0.309 0.052,-0.347 0.064,-0.381C0.077,-0.415 0.094,-0.443 0.116,-0.467C0.138,-0.49 0.163,-0.508 0.19,-0.52C0.218,-0.532 0.247,-0.538 0.276,-0.538C0.314,-0.538 0.347,-0.532 0.374,-0.519C0.402,-0.506 0.424,-0.487 0.442,-0.464C0.459,-0.441 0.472,-0.413 0.481,-0.382C0.489,-0.351 0.494,-0.316 0.494,-0.279L0.494,-0.239L0.099,-0.239L0.099,-0.313L0.403,-0.313L0.403,-0.319C0.402,-0.343 0.397,-0.366 0.389,-0.388C0.381,-0.41 0.368,-0.428 0.35,-0.442C0.332,-0.457 0.307,-0.464 0.276,-0.464C0.256,-0.464 0.237,-0.46 0.22,-0.451C0.202,-0.442 0.188,-0.43 0.175,-0.413C0.163,-0.396 0.153,-0.375 0.146,-0.351C0.14,-0.326 0.136,-0.298 0.136,-0.266L0.136,-0.246C0.136,-0.221 0.14,-0.197 0.147,-0.175C0.154,-0.153 0.164,-0.134 0.177,-0.117C0.191,-0.101 0.207,-0.088 0.227,-0.078C0.246,-0.069 0.268,-0.064 0.293,-0.064C0.325,-0.064 0.352,-0.07 0.374,-0.083C0.396,-0.097 0.416,-0.114 0.432,-0.136L0.487,-0.092C0.475,-0.075 0.461,-0.059 0.443,-0.043C0.426,-0.027 0.404,-0.015 0.379,-0.005C0.353,0.005 0.323,0.01 0.288,0.01Z" style="fill-rule:nonzero;"/>
                </g>
                <g transform="matrix(38.1451,-12.0395,12.0395,38.1451,10844.1,6593.9)">
                    <path d="M0.376,-0.14C0.376,-0.153 0.374,-0.165 0.368,-0.177C0.362,-0.188 0.351,-0.198 0.333,-0.207C0.316,-0.217 0.29,-0.225 0.255,-0.231C0.226,-0.238 0.199,-0.245 0.176,-0.253C0.152,-0.262 0.132,-0.272 0.115,-0.284C0.099,-0.296 0.086,-0.31 0.078,-0.327C0.069,-0.343 0.064,-0.362 0.064,-0.384C0.064,-0.405 0.069,-0.424 0.078,-0.443C0.088,-0.461 0.101,-0.478 0.118,-0.492C0.135,-0.507 0.156,-0.518 0.18,-0.526C0.204,-0.534 0.231,-0.538 0.26,-0.538C0.303,-0.538 0.339,-0.531 0.369,-0.516C0.399,-0.501 0.422,-0.481 0.438,-0.456C0.453,-0.431 0.461,-0.403 0.461,-0.373L0.371,-0.373C0.371,-0.388 0.367,-0.402 0.358,-0.416C0.35,-0.43 0.337,-0.441 0.321,-0.45C0.304,-0.459 0.284,-0.464 0.26,-0.464C0.235,-0.464 0.215,-0.46 0.199,-0.452C0.184,-0.445 0.173,-0.435 0.166,-0.423C0.159,-0.412 0.155,-0.399 0.155,-0.386C0.155,-0.376 0.157,-0.368 0.16,-0.36C0.164,-0.352 0.17,-0.345 0.179,-0.339C0.188,-0.333 0.2,-0.327 0.216,-0.321C0.232,-0.316 0.252,-0.31 0.277,-0.305C0.32,-0.295 0.356,-0.283 0.384,-0.27C0.412,-0.256 0.433,-0.239 0.446,-0.219C0.46,-0.199 0.467,-0.175 0.467,-0.147C0.467,-0.124 0.462,-0.103 0.452,-0.083C0.443,-0.064 0.429,-0.048 0.411,-0.034C0.393,-0.02 0.371,-0.009 0.346,-0.002C0.322,0.006 0.294,0.01 0.263,0.01C0.216,0.01 0.177,0.001 0.145,-0.015C0.112,-0.032 0.088,-0.053 0.071,-0.08C0.055,-0.106 0.046,-0.134 0.046,-0.163L0.137,-0.163C0.139,-0.138 0.146,-0.119 0.159,-0.104C0.172,-0.09 0.188,-0.08 0.207,-0.073C0.225,-0.067 0.244,-0.064 0.263,-0.064C0.287,-0.064 0.308,-0.068 0.325,-0.074C0.342,-0.081 0.354,-0.09 0.363,-0.101C0.372,-0.112 0.376,-0.125 0.376,-0.14Z" style="fill-rule:nonzero;"/>
                </g>
                <g transform="matrix(37.8455,-12.9505,12.9505,37.8455,10862.3,6588.2)">
                    <path d="M0.159,-0.427L0.159,0.203L0.068,0.203L0.068,-0.528L0.151,-0.528L0.159,-0.427ZM0.515,-0.269L0.515,-0.258C0.515,-0.22 0.511,-0.184 0.501,-0.152C0.492,-0.119 0.479,-0.09 0.462,-0.066C0.444,-0.042 0.423,-0.024 0.397,-0.01C0.372,0.003 0.343,0.01 0.31,0.01C0.277,0.01 0.247,0.004 0.221,-0.007C0.195,-0.018 0.174,-0.034 0.156,-0.055C0.138,-0.076 0.124,-0.102 0.113,-0.131C0.102,-0.161 0.095,-0.194 0.091,-0.231L0.091,-0.286C0.095,-0.325 0.103,-0.36 0.113,-0.391C0.124,-0.422 0.138,-0.448 0.156,-0.47C0.174,-0.492 0.195,-0.509 0.221,-0.521C0.246,-0.532 0.275,-0.538 0.309,-0.538C0.342,-0.538 0.371,-0.532 0.397,-0.519C0.423,-0.506 0.444,-0.488 0.462,-0.464C0.479,-0.44 0.493,-0.412 0.502,-0.379C0.511,-0.346 0.515,-0.309 0.515,-0.269ZM0.424,-0.258L0.424,-0.269C0.424,-0.295 0.422,-0.32 0.416,-0.343C0.41,-0.366 0.402,-0.387 0.39,-0.405C0.379,-0.422 0.364,-0.436 0.346,-0.447C0.328,-0.457 0.307,-0.462 0.282,-0.462C0.259,-0.462 0.24,-0.458 0.223,-0.45C0.206,-0.442 0.192,-0.432 0.18,-0.419C0.168,-0.406 0.159,-0.391 0.152,-0.374C0.144,-0.357 0.139,-0.34 0.135,-0.322L0.135,-0.195C0.142,-0.173 0.151,-0.151 0.163,-0.131C0.174,-0.111 0.19,-0.095 0.209,-0.083C0.229,-0.071 0.254,-0.064 0.283,-0.064C0.308,-0.064 0.329,-0.07 0.346,-0.08C0.364,-0.09 0.379,-0.104 0.39,-0.122C0.402,-0.14 0.41,-0.161 0.416,-0.184C0.422,-0.207 0.424,-0.232 0.424,-0.258Z" style="fill-rule:nonzero;"/>
                </g>
                <g transform="matrix(37.4753,-13.9858,13.9858,37.4753,10882,6581.46)">
                    <path d="M0.288,0.01C0.251,0.01 0.218,0.003 0.188,-0.009C0.158,-0.022 0.133,-0.039 0.112,-0.062C0.09,-0.085 0.074,-0.112 0.063,-0.143C0.051,-0.174 0.045,-0.208 0.045,-0.246L0.045,-0.266C0.045,-0.309 0.052,-0.347 0.064,-0.381C0.077,-0.415 0.094,-0.443 0.116,-0.467C0.138,-0.49 0.163,-0.508 0.19,-0.52C0.218,-0.532 0.247,-0.538 0.276,-0.538C0.314,-0.538 0.347,-0.532 0.374,-0.519C0.402,-0.506 0.424,-0.487 0.442,-0.464C0.459,-0.441 0.472,-0.413 0.481,-0.382C0.489,-0.351 0.494,-0.316 0.494,-0.279L0.494,-0.239L0.099,-0.239L0.099,-0.313L0.403,-0.313L0.403,-0.319C0.402,-0.343 0.397,-0.366 0.389,-0.388C0.381,-0.41 0.368,-0.428 0.35,-0.442C0.332,-0.457 0.307,-0.464 0.276,-0.464C0.256,-0.464 0.237,-0.46 0.22,-0.451C0.202,-0.442 0.188,-0.43 0.175,-0.413C0.163,-0.396 0.153,-0.375 0.146,-0.351C0.14,-0.326 0.136,-0.298 0.136,-0.266L0.136,-0.246C0.136,-0.221 0.14,-0.197 0.147,-0.175C0.154,-0.153 0.164,-0.134 0.177,-0.117C0.191,-0.101 0.207,-0.088 0.227,-0.078C0.246,-0.069 0.268,-0.064 0.293,-0.064C0.325,-0.064 0.352,-0.07 0.374,-0.083C0.396,-0.097 0.416,-0.114 0.432,-0.136L0.487,-0.092C0.475,-0.075 0.461,-0.059 0.443,-0.043C0.426,-0.027 0.404,-0.015 0.379,-0.005C0.353,0.005 0.323,0.01 0.288,0.01Z" style="fill-rule:nonzero;"/>
                </g>
                <g transform="matrix(37.0103,-15.1736,15.1736,37.0103,10900.4,6574.65)">
                    <path d="M0.28,-0.064C0.302,-0.064 0.322,-0.069 0.34,-0.078C0.358,-0.086 0.373,-0.099 0.385,-0.114C0.396,-0.129 0.403,-0.147 0.405,-0.167L0.491,-0.167C0.489,-0.136 0.479,-0.107 0.459,-0.08C0.44,-0.053 0.415,-0.031 0.383,-0.015C0.352,0.002 0.318,0.01 0.28,0.01C0.241,0.01 0.206,0.003 0.177,-0.011C0.147,-0.025 0.123,-0.044 0.103,-0.069C0.084,-0.093 0.069,-0.121 0.06,-0.153C0.05,-0.185 0.045,-0.218 0.045,-0.254L0.045,-0.274C0.045,-0.31 0.05,-0.344 0.06,-0.375C0.069,-0.407 0.084,-0.435 0.103,-0.459C0.123,-0.484 0.147,-0.503 0.177,-0.517C0.206,-0.531 0.241,-0.538 0.28,-0.538C0.322,-0.538 0.358,-0.53 0.389,-0.513C0.42,-0.496 0.444,-0.473 0.462,-0.445C0.479,-0.416 0.489,-0.383 0.491,-0.347L0.405,-0.347C0.403,-0.368 0.397,-0.388 0.386,-0.406C0.376,-0.423 0.362,-0.437 0.344,-0.448C0.325,-0.459 0.304,-0.464 0.28,-0.464C0.253,-0.464 0.229,-0.458 0.211,-0.448C0.192,-0.437 0.177,-0.422 0.166,-0.404C0.155,-0.385 0.148,-0.365 0.143,-0.343C0.138,-0.32 0.136,-0.298 0.136,-0.274L0.136,-0.254C0.136,-0.231 0.138,-0.208 0.143,-0.186C0.147,-0.163 0.155,-0.143 0.166,-0.125C0.177,-0.106 0.191,-0.092 0.21,-0.081C0.229,-0.07 0.252,-0.064 0.28,-0.064Z" style="fill-rule:nonzero;"/>
                </g>
                <g transform="matrix(36.57,-16.206,16.206,36.57,10918.3,6567.28)">
                    <path d="M0.29,-0.528L0.29,-0.459L0.004,-0.459L0.004,-0.528L0.29,-0.528ZM0.101,-0.657L0.191,-0.657L0.191,-0.131C0.191,-0.113 0.194,-0.099 0.2,-0.09C0.205,-0.081 0.212,-0.075 0.221,-0.072C0.23,-0.069 0.239,-0.068 0.25,-0.068C0.257,-0.068 0.265,-0.069 0.273,-0.07C0.281,-0.072 0.288,-0.073 0.292,-0.074L0.292,-0C0.285,0.002 0.276,0.004 0.264,0.007C0.253,0.009 0.239,0.01 0.223,0.01C0.201,0.01 0.18,0.005 0.162,-0.003C0.143,-0.012 0.128,-0.027 0.117,-0.048C0.107,-0.068 0.101,-0.096 0.101,-0.131L0.101,-0.657Z" style="fill-rule:nonzero;"/>
                </g>
                <g transform="matrix(34.5103,-20.2248,20.2248,34.5103,10951.3,6551.71)">
                    <path d="M0.068,-0.75L0.159,-0.75L0.159,-0.103L0.151,-0L0.068,-0L0.068,-0.75ZM0.516,-0.269L0.516,-0.258C0.516,-0.22 0.512,-0.184 0.502,-0.152C0.493,-0.119 0.48,-0.09 0.462,-0.066C0.445,-0.042 0.423,-0.024 0.398,-0.01C0.373,0.003 0.343,0.01 0.311,0.01C0.277,0.01 0.248,0.004 0.222,-0.008C0.197,-0.019 0.176,-0.036 0.159,-0.058C0.141,-0.079 0.128,-0.106 0.117,-0.137C0.107,-0.168 0.1,-0.202 0.096,-0.241L0.096,-0.286C0.1,-0.325 0.107,-0.36 0.117,-0.391C0.128,-0.422 0.141,-0.448 0.159,-0.47C0.176,-0.492 0.197,-0.509 0.222,-0.521C0.247,-0.532 0.276,-0.538 0.31,-0.538C0.343,-0.538 0.372,-0.532 0.398,-0.519C0.424,-0.506 0.445,-0.488 0.463,-0.464C0.48,-0.44 0.493,-0.412 0.502,-0.379C0.512,-0.346 0.516,-0.309 0.516,-0.269ZM0.425,-0.258L0.425,-0.269C0.425,-0.295 0.423,-0.32 0.418,-0.343C0.413,-0.366 0.405,-0.387 0.395,-0.405C0.384,-0.422 0.37,-0.436 0.352,-0.447C0.334,-0.457 0.313,-0.462 0.287,-0.462C0.264,-0.462 0.245,-0.458 0.228,-0.45C0.211,-0.442 0.197,-0.432 0.185,-0.419C0.173,-0.406 0.164,-0.391 0.156,-0.374C0.149,-0.357 0.144,-0.34 0.14,-0.322L0.14,-0.204C0.145,-0.181 0.154,-0.159 0.166,-0.138C0.178,-0.117 0.194,-0.1 0.214,-0.087C0.234,-0.074 0.258,-0.067 0.288,-0.067C0.313,-0.067 0.333,-0.072 0.351,-0.082C0.368,-0.092 0.382,-0.105 0.393,-0.123C0.404,-0.141 0.412,-0.161 0.417,-0.184C0.423,-0.207 0.425,-0.232 0.425,-0.258Z" style="fill-rule:nonzero;"/>
                </g>
                <g transform="matrix(32.7211,-23.0071,23.0071,32.7211,10969.3,6541.3)">
                    <path d="M0.045,-0.258L0.045,-0.27C0.045,-0.308 0.05,-0.343 0.062,-0.376C0.073,-0.408 0.089,-0.437 0.109,-0.461C0.13,-0.485 0.155,-0.504 0.185,-0.518C0.215,-0.531 0.248,-0.538 0.285,-0.538C0.322,-0.538 0.355,-0.531 0.385,-0.518C0.415,-0.504 0.44,-0.485 0.461,-0.461C0.482,-0.437 0.498,-0.408 0.509,-0.376C0.52,-0.343 0.526,-0.308 0.526,-0.27L0.526,-0.258C0.526,-0.22 0.52,-0.185 0.509,-0.152C0.498,-0.12 0.482,-0.091 0.461,-0.067C0.44,-0.043 0.415,-0.024 0.385,-0.01C0.356,0.003 0.323,0.01 0.286,0.01C0.249,0.01 0.215,0.003 0.186,-0.01C0.156,-0.024 0.131,-0.043 0.11,-0.067C0.089,-0.091 0.073,-0.12 0.062,-0.152C0.05,-0.185 0.045,-0.22 0.045,-0.258ZM0.135,-0.27L0.135,-0.258C0.135,-0.232 0.138,-0.207 0.145,-0.184C0.151,-0.161 0.16,-0.14 0.173,-0.122C0.185,-0.104 0.201,-0.09 0.22,-0.08C0.239,-0.07 0.261,-0.064 0.286,-0.064C0.31,-0.064 0.332,-0.07 0.351,-0.08C0.37,-0.09 0.385,-0.104 0.397,-0.122C0.41,-0.14 0.419,-0.161 0.426,-0.184C0.432,-0.207 0.435,-0.232 0.435,-0.258L0.435,-0.27C0.435,-0.296 0.432,-0.32 0.426,-0.344C0.419,-0.367 0.41,-0.387 0.397,-0.406C0.385,-0.424 0.369,-0.438 0.35,-0.448C0.332,-0.459 0.31,-0.464 0.285,-0.464C0.26,-0.464 0.238,-0.459 0.219,-0.448C0.201,-0.438 0.185,-0.424 0.173,-0.406C0.16,-0.387 0.151,-0.367 0.145,-0.344C0.138,-0.32 0.135,-0.296 0.135,-0.27Z" style="fill-rule:nonzero;"/>
                </g>
                <g transform="matrix(29.8073,-26.6744,26.6744,29.8073,10986.8,6529.19)">
                    <path d="M0.159,-0.416L0.159,-0L0.069,-0L0.069,-0.528L0.154,-0.528L0.159,-0.416ZM0.138,-0.284L0.1,-0.286C0.1,-0.322 0.106,-0.355 0.116,-0.386C0.127,-0.417 0.141,-0.444 0.16,-0.466C0.179,-0.489 0.202,-0.507 0.228,-0.519C0.254,-0.532 0.283,-0.538 0.315,-0.538C0.341,-0.538 0.364,-0.535 0.385,-0.528C0.406,-0.521 0.424,-0.509 0.439,-0.494C0.454,-0.479 0.465,-0.459 0.473,-0.435C0.48,-0.411 0.484,-0.381 0.484,-0.346L0.484,-0L0.394,-0L0.394,-0.347C0.394,-0.375 0.389,-0.397 0.381,-0.414C0.373,-0.431 0.361,-0.443 0.346,-0.45C0.33,-0.458 0.311,-0.462 0.288,-0.462C0.266,-0.462 0.245,-0.457 0.227,-0.448C0.208,-0.438 0.193,-0.425 0.179,-0.409C0.166,-0.392 0.156,-0.373 0.149,-0.352C0.141,-0.33 0.138,-0.308 0.138,-0.284Z" style="fill-rule:nonzero;"/>
                </g>
                <g transform="matrix(25.0511,-31.184,31.184,25.0511,11002.3,6515.62)">
                    <path d="M0.402,-0.103L0.402,-0.75L0.493,-0.75L0.493,-0L0.41,-0L0.402,-0.103ZM0.046,-0.258L0.046,-0.269C0.046,-0.309 0.051,-0.346 0.061,-0.379C0.071,-0.412 0.085,-0.44 0.104,-0.464C0.122,-0.488 0.144,-0.506 0.17,-0.519C0.195,-0.532 0.224,-0.538 0.255,-0.538C0.289,-0.538 0.318,-0.532 0.343,-0.521C0.367,-0.509 0.389,-0.492 0.406,-0.47C0.423,-0.448 0.437,-0.422 0.447,-0.391C0.457,-0.36 0.464,-0.325 0.468,-0.286L0.468,-0.241C0.465,-0.202 0.458,-0.168 0.448,-0.137C0.437,-0.106 0.423,-0.079 0.406,-0.058C0.389,-0.036 0.367,-0.019 0.342,-0.008C0.317,0.004 0.288,0.01 0.254,0.01C0.223,0.01 0.195,0.003 0.17,-0.01C0.144,-0.024 0.122,-0.042 0.104,-0.066C0.085,-0.09 0.071,-0.119 0.061,-0.152C0.051,-0.184 0.046,-0.22 0.046,-0.258ZM0.137,-0.269L0.137,-0.258C0.137,-0.232 0.14,-0.207 0.145,-0.184C0.151,-0.161 0.159,-0.141 0.17,-0.123C0.182,-0.105 0.196,-0.092 0.214,-0.082C0.231,-0.072 0.252,-0.067 0.277,-0.067C0.307,-0.067 0.331,-0.073 0.351,-0.086C0.37,-0.099 0.386,-0.115 0.397,-0.136C0.409,-0.157 0.418,-0.18 0.425,-0.204L0.425,-0.322C0.421,-0.34 0.415,-0.357 0.408,-0.374C0.401,-0.391 0.391,-0.406 0.38,-0.419C0.368,-0.432 0.354,-0.442 0.337,-0.45C0.32,-0.458 0.301,-0.462 0.278,-0.462C0.253,-0.462 0.232,-0.457 0.214,-0.447C0.196,-0.436 0.182,-0.422 0.17,-0.405C0.159,-0.387 0.151,-0.366 0.145,-0.343C0.14,-0.32 0.137,-0.295 0.137,-0.269Z" style="fill-rule:nonzero;"/>
                </g>
            </g>
        </g>
    </g>
</svg>
