<svg xmlns="http://www.w3.org/2000/svg" xmlns:xlink="http://www.w3.org/1999/xlink" width="306" zoomAndPan="magnify" viewBox="0 0 229.5 203.249992" height="271" preserveAspectRatio="xMidYMid meet" version="1.0"><defs><g/><clipPath id="97aea632db"><path d="M 0.429688 0.738281 L 131.46875 0.738281 L 131.46875 69 L 0.429688 69 Z M 0.429688 0.738281 " clip-rule="nonzero"/></clipPath><clipPath id="96d6b6f50d"><path d="M 131 54 L 131.46875 54 L 131.46875 55 L 131 55 Z M 131 54 " clip-rule="nonzero"/></clipPath><clipPath id="4977bcf50f"><rect x="0" width="132" y="0" height="69"/></clipPath><clipPath id="4c27189669"><path d="M 7 44 L 126 44 L 126 157.359375 L 7 157.359375 Z M 7 44 " clip-rule="nonzero"/></clipPath><clipPath id="43d7d3f5e5"><rect x="0" width="119" y="0" height="114"/></clipPath><clipPath id="9e06472939"><rect x="0" width="132" y="0" height="158"/></clipPath></defs><g transform="matrix(1, 0, 0, 1, 49, 16)"><g clip-path="url(#9e06472939)"><g clip-path="url(#97aea632db)"><g transform="matrix(1, 0, 0, 1, -0.000000000000014211, -0.000000000000003553)"><g clip-path="url(#4977bcf50f)"><g fill="#000000" fill-opacity="1"><g transform="translate(1.326746, 54.56112)"><g><path d="M 28.0625 -27.3125 C 28.0625 -27.3125 27.734375 -27.5 27.078125 -27.875 C 26.429688 -28.257812 25.570312 -28.691406 24.5 -29.171875 C 23.4375 -29.648438 22.273438 -30.078125 21.015625 -30.453125 C 19.765625 -30.835938 18.53125 -31.03125 17.3125 -31.03125 C 16.363281 -31.03125 15.582031 -30.875 14.96875 -30.5625 C 14.363281 -30.257812 14.0625 -29.75 14.0625 -29.03125 C 14.0625 -28.34375 14.363281 -27.785156 14.96875 -27.359375 C 15.582031 -26.941406 16.445312 -26.5625 17.5625 -26.21875 C 18.6875 -25.882812 20.03125 -25.46875 21.59375 -24.96875 C 24.113281 -24.207031 26.285156 -23.332031 28.109375 -22.34375 C 29.941406 -21.351562 31.351562 -20.085938 32.34375 -18.546875 C 33.332031 -17.003906 33.828125 -14.957031 33.828125 -12.40625 C 33.828125 -9.96875 33.390625 -7.914062 32.515625 -6.25 C 31.640625 -4.59375 30.457031 -3.269531 28.96875 -2.28125 C 27.476562 -1.289062 25.816406 -0.578125 23.984375 -0.140625 C 22.160156 0.296875 20.300781 0.515625 18.40625 0.515625 C 16.457031 0.515625 14.425781 0.316406 12.3125 -0.078125 C 10.195312 -0.484375 8.148438 -1.035156 6.171875 -1.734375 C 4.191406 -2.441406 2.382812 -3.273438 0.75 -4.234375 L 5.546875 -14 C 5.546875 -14 5.925781 -13.769531 6.6875 -13.3125 C 7.445312 -12.851562 8.453125 -12.335938 9.703125 -11.765625 C 10.960938 -11.191406 12.363281 -10.675781 13.90625 -10.21875 C 15.457031 -9.769531 17.015625 -9.546875 18.578125 -9.546875 C 19.796875 -9.546875 20.640625 -9.707031 21.109375 -10.03125 C 21.585938 -10.351562 21.828125 -10.78125 21.828125 -11.3125 C 21.828125 -12.113281 21.40625 -12.734375 20.5625 -13.171875 C 19.726562 -13.609375 18.632812 -14.023438 17.28125 -14.421875 C 15.925781 -14.828125 14.429688 -15.296875 12.796875 -15.828125 C 10.429688 -16.628906 8.488281 -17.535156 6.96875 -18.546875 C 5.445312 -19.554688 4.320312 -20.753906 3.59375 -22.140625 C 2.875 -23.535156 2.515625 -25.222656 2.515625 -27.203125 C 2.515625 -30.210938 3.21875 -32.722656 4.625 -34.734375 C 6.039062 -36.753906 7.898438 -38.285156 10.203125 -39.328125 C 12.503906 -40.378906 14.988281 -40.90625 17.65625 -40.90625 C 19.632812 -40.90625 21.546875 -40.664062 23.390625 -40.1875 C 25.242188 -39.71875 26.976562 -39.140625 28.59375 -38.453125 C 30.21875 -37.765625 31.640625 -37.117188 32.859375 -36.515625 Z M 28.0625 -27.3125 "/></g></g></g><g fill="#000000" fill-opacity="1"><g transform="translate(35.72542, 54.56112)"><g><path d="M 23.828125 -1.65625 C 22.835938 -1.238281 21.78125 -0.847656 20.65625 -0.484375 C 19.53125 -0.117188 18.382812 0.15625 17.21875 0.34375 C 16.0625 0.53125 14.929688 0.625 13.828125 0.625 C 12.191406 0.625 10.6875 0.347656 9.3125 -0.203125 C 7.9375 -0.753906 6.835938 -1.664062 6.015625 -2.9375 C 5.203125 -4.21875 4.796875 -5.941406 4.796875 -8.109375 L 4.796875 -21.890625 L 1.078125 -21.890625 L 1.078125 -30.0625 L 4.796875 -30.0625 L 4.796875 -39.484375 L 15.65625 -39.484375 L 15.65625 -30.0625 L 21.546875 -30.0625 L 21.546875 -21.890625 L 15.65625 -21.890625 L 15.65625 -11.9375 C 15.65625 -10.945312 15.863281 -10.25 16.28125 -9.84375 C 16.695312 -9.445312 17.269531 -9.25 18 -9.25 C 18.53125 -9.25 19.140625 -9.34375 19.828125 -9.53125 C 20.515625 -9.726562 21.203125 -9.960938 21.890625 -10.234375 Z M 23.828125 -1.65625 "/></g></g></g><g fill="#000000" fill-opacity="1"><g transform="translate(59.55308, 54.56112)"><g><path d="M 17.546875 0.578125 C 14.910156 0.578125 12.5625 0.164062 10.5 -0.65625 C 8.445312 -1.476562 6.722656 -2.59375 5.328125 -4 C 3.941406 -5.40625 2.882812 -7.019531 2.15625 -8.84375 C 1.4375 -10.675781 1.078125 -12.601562 1.078125 -14.625 C 1.078125 -17.519531 1.707031 -20.175781 2.96875 -22.59375 C 4.226562 -25.019531 6.078125 -26.960938 8.515625 -28.421875 C 10.953125 -29.890625 13.960938 -30.625 17.546875 -30.625 C 21.117188 -30.625 24.125 -29.898438 26.5625 -28.453125 C 29.007812 -27.003906 30.859375 -25.097656 32.109375 -22.734375 C 33.367188 -20.378906 34 -17.8125 34 -15.03125 C 34 -14.457031 33.96875 -13.875 33.90625 -13.28125 C 33.851562 -12.695312 33.789062 -12.175781 33.71875 -11.71875 L 12.625 -11.71875 C 12.707031 -10.644531 13.003906 -9.773438 13.515625 -9.109375 C 14.023438 -8.441406 14.671875 -7.957031 15.453125 -7.65625 C 16.234375 -7.351562 17.046875 -7.203125 17.890625 -7.203125 C 19.066406 -7.203125 20.175781 -7.46875 21.21875 -8 C 22.269531 -8.53125 22.96875 -9.273438 23.3125 -10.234375 L 32.515625 -7.59375 C 31.710938 -6 30.597656 -4.59375 29.171875 -3.375 C 27.742188 -2.15625 26.054688 -1.191406 24.109375 -0.484375 C 22.171875 0.222656 19.984375 0.578125 17.546875 0.578125 Z M 12.40625 -18.234375 L 22.34375 -18.234375 C 22.226562 -19.222656 21.953125 -20.054688 21.515625 -20.734375 C 21.078125 -21.421875 20.503906 -21.953125 19.796875 -22.328125 C 19.085938 -22.710938 18.28125 -22.90625 17.375 -22.90625 C 16.457031 -22.90625 15.644531 -22.710938 14.9375 -22.328125 C 14.238281 -21.953125 13.671875 -21.421875 13.234375 -20.734375 C 12.796875 -20.054688 12.519531 -19.222656 12.40625 -18.234375 Z M 12.40625 -18.234375 "/></g></g></g><g fill="#000000" fill-opacity="1"><g transform="translate(94.351749, 54.56112)"><g><path d="M 22.96875 0.578125 C 20.800781 0.578125 18.914062 0.148438 17.3125 -0.703125 C 15.707031 -1.566406 14.46875 -2.816406 13.59375 -4.453125 L 13.59375 12.171875 L 2.75 12.171875 L 2.75 -30.0625 L 12.171875 -30.0625 L 12.171875 -25.546875 C 13.234375 -27.179688 14.554688 -28.4375 16.140625 -29.3125 C 17.722656 -30.1875 19.640625 -30.625 21.890625 -30.625 C 23.898438 -30.625 25.742188 -30.242188 27.421875 -29.484375 C 29.097656 -28.722656 30.566406 -27.632812 31.828125 -26.21875 C 33.085938 -24.8125 34.054688 -23.175781 34.734375 -21.3125 C 35.421875 -19.445312 35.765625 -17.390625 35.765625 -15.140625 C 35.765625 -12.128906 35.210938 -9.441406 34.109375 -7.078125 C 33.003906 -4.722656 31.488281 -2.859375 29.5625 -1.484375 C 27.644531 -0.109375 25.445312 0.578125 22.96875 0.578125 Z M 19.203125 -8.578125 C 20.003906 -8.578125 20.738281 -8.742188 21.40625 -9.078125 C 22.070312 -9.421875 22.648438 -9.894531 23.140625 -10.5 C 23.640625 -11.113281 24.019531 -11.820312 24.28125 -12.625 C 24.550781 -13.425781 24.6875 -14.285156 24.6875 -15.203125 C 24.6875 -16.148438 24.539062 -17.003906 24.25 -17.765625 C 23.96875 -18.523438 23.5625 -19.179688 23.03125 -19.734375 C 22.5 -20.296875 21.867188 -20.726562 21.140625 -21.03125 C 20.421875 -21.332031 19.617188 -21.484375 18.734375 -21.484375 C 18.242188 -21.484375 17.757812 -21.414062 17.28125 -21.28125 C 16.8125 -21.144531 16.363281 -20.953125 15.9375 -20.703125 C 15.519531 -20.460938 15.109375 -20.148438 14.703125 -19.765625 C 14.304688 -19.390625 13.9375 -18.9375 13.59375 -18.40625 L 13.59375 -13.203125 C 13.9375 -12.328125 14.40625 -11.535156 15 -10.828125 C 15.59375 -10.117188 16.25 -9.566406 16.96875 -9.171875 C 17.695312 -8.773438 18.441406 -8.578125 19.203125 -8.578125 Z M 19.203125 -8.578125 "/></g></g></g><g clip-path="url(#96d6b6f50d)"><g fill="#000000" fill-opacity="1"><g transform="translate(131.323596, 54.56112)"><g/></g></g></g></g></g></g><g clip-path="url(#4c27189669)"><g transform="matrix(1, 0, 0, 1, 7, 44)"><g clip-path="url(#43d7d3f5e5)"><g fill="#000000" fill-opacity="1"><g transform="translate(0.860458, 90.796059)"><g><path d="M 54.390625 -27.859375 C 54.390625 -22.273438 53.28125 -17.3125 51.0625 -12.96875 C 48.84375 -8.632812 45.847656 -5.226562 42.078125 -2.75 C 38.304688 -0.28125 34.007812 0.953125 29.1875 0.953125 C 24.4375 0.953125 20.160156 -0.28125 16.359375 -2.75 C 12.554688 -5.226562 9.546875 -8.632812 7.328125 -12.96875 C 5.109375 -17.3125 4 -22.273438 4 -27.859375 C 4 -33.429688 5.109375 -38.390625 7.328125 -42.734375 C 9.546875 -47.078125 12.554688 -50.5 16.359375 -53 C 20.160156 -55.507812 24.46875 -56.765625 29.28125 -56.765625 C 34.039062 -56.765625 38.304688 -55.507812 42.078125 -53 C 45.847656 -50.5 48.84375 -47.078125 51.0625 -42.734375 C 53.28125 -38.390625 54.390625 -33.429688 54.390625 -27.859375 Z M 36.125 -27.859375 C 36.125 -30.328125 35.820312 -32.476562 35.21875 -34.3125 C 34.625 -36.15625 33.800781 -37.597656 32.75 -38.640625 C 31.707031 -39.691406 30.519531 -40.21875 29.1875 -40.21875 C 27.789062 -40.21875 26.550781 -39.691406 25.46875 -38.640625 C 24.394531 -37.597656 23.554688 -36.15625 22.953125 -34.3125 C 22.359375 -32.476562 22.0625 -30.328125 22.0625 -27.859375 C 22.0625 -25.390625 22.359375 -23.234375 22.953125 -21.390625 C 23.554688 -19.554688 24.394531 -18.128906 25.46875 -17.109375 C 26.550781 -16.097656 27.789062 -15.59375 29.1875 -15.59375 C 30.519531 -15.59375 31.707031 -16.097656 32.75 -17.109375 C 33.800781 -18.128906 34.625 -19.554688 35.21875 -21.390625 C 35.820312 -23.234375 36.125 -25.390625 36.125 -27.859375 Z M 36.125 -27.859375 "/></g></g></g><g fill="#000000" fill-opacity="1"><g transform="translate(59.229283, 90.796059)"><g><path d="M 28.625 -39.078125 L 2.859375 -39.078125 L 2.859375 -55.53125 L 57.046875 -55.53125 L 24.0625 11.984375 L 3.609375 11.984375 Z M 28.625 -39.078125 "/></g></g></g><g fill="#000000" fill-opacity="1"><g transform="translate(115.608891, 90.796059)"><g/></g></g></g></g></g></g></g></svg>