<?xml version="1.0" encoding="UTF-8" standalone="no"?>
<!DOCTYPE svg PUBLIC "-//W3C//DTD SVG 1.1//EN" "http://www.w3.org/Graphics/SVG/1.1/DTD/svg11.dtd">
<svg width="100%" height="100%" viewBox="0 0 653 311" version="1.1" xmlns="http://www.w3.org/2000/svg" xmlns:xlink="http://www.w3.org/1999/xlink" xml:space="preserve" xmlns:serif="http://www.serif.com/" style="fill-rule:evenodd;clip-rule:evenodd;stroke-linecap:square;stroke-linejoin:round;stroke-miterlimit:1.5;">
    <g transform="matrix(1,0,0,1,-19734.1,-6647.05)">
        <g id="tag_suggest" transform="matrix(1,0,0,1,15054.6,1589.13)">
            <rect x="4679.54" y="5057.92" width="652.76" height="310.86" style="fill:none;"/>
            <g transform="matrix(1.20754,0,0,0.911256,3406.98,3996.61)">
                <path d="M1594.41,1397.07C1594.41,1437.18 1569.84,1469.75 1539.57,1469.75L1237.4,1469.75C1207.13,1469.75 1182.56,1437.18 1182.56,1397.07C1182.56,1356.96 1207.13,1324.4 1237.4,1324.4L1539.57,1324.4C1569.84,1324.4 1594.41,1356.96 1594.41,1397.07Z"/>
            </g>
            <g transform="matrix(1.08658,0,0,0.67769,-195.961,4374.87)">
                <g transform="matrix(60,0,0,60,4744.84,1342.5)">
                    <path d="M0.077,-0.503L0.077,-0.75L0.63,-0.75L0.63,-0.828L0.89,-0.828L0.89,-0.75L0.97,-0.75L0.97,-0.503L0.89,-0.503L0.89,-0.172C0.89,-0.133 0.889,-0.102 0.886,-0.079C0.882,-0.055 0.875,-0.033 0.864,-0.013C0.853,0.007 0.839,0.022 0.823,0.032C0.806,0.042 0.777,0.051 0.735,0.06C0.692,0.069 0.61,0.073 0.488,0.073L0.449,-0.152C0.366,-0.07 0.27,0 0.161,0.058L0.019,-0.213C0.113,-0.248 0.19,-0.288 0.251,-0.335C0.311,-0.381 0.359,-0.437 0.395,-0.503L0.077,-0.503ZM0.481,-0.185C0.512,-0.18 0.541,-0.178 0.566,-0.178C0.591,-0.178 0.608,-0.184 0.617,-0.197C0.626,-0.21 0.63,-0.237 0.63,-0.279L0.63,-0.395C0.591,-0.32 0.541,-0.25 0.481,-0.185Z" style="fill:rgb(69,139,232);fill-rule:nonzero;"/>
                </g>
                <g transform="matrix(60,0,0,60,4802.44,1342.5)">
                    <path d="M0.092,-0.575L0.092,-0.828L0.874,-0.828C0.874,-0.647 0.834,-0.492 0.754,-0.363C0.815,-0.285 0.893,-0.171 0.987,-0.021L0.703,0.09C0.66,0.013 0.611,-0.065 0.557,-0.142C0.461,-0.061 0.336,0.017 0.182,0.093L0.013,-0.195C0.158,-0.24 0.271,-0.291 0.353,-0.349C0.434,-0.406 0.5,-0.482 0.55,-0.575L0.092,-0.575Z" style="fill:rgb(69,139,232);fill-rule:nonzero;"/>
                </g>
                <g transform="matrix(60,0,0,60,4858.24,1342.5)">
                    <path d="M0.092,-0.575L0.092,-0.828L0.874,-0.828C0.874,-0.647 0.834,-0.492 0.754,-0.363C0.815,-0.285 0.893,-0.171 0.987,-0.021L0.703,0.09C0.66,0.013 0.611,-0.065 0.557,-0.142C0.461,-0.061 0.336,0.017 0.182,0.093L0.013,-0.195C0.158,-0.24 0.271,-0.291 0.353,-0.349C0.434,-0.406 0.5,-0.482 0.55,-0.575L0.092,-0.575Z" style="fill:rgb(69,139,232);fill-rule:nonzero;"/>
                </g>
                <g transform="matrix(60,0,0,60,4912.24,1342.5)">
                    <path d="M0.208,0.071L0.056,-0.199C0.23,-0.233 0.358,-0.281 0.44,-0.344C0.367,-0.4 0.273,-0.466 0.159,-0.542L0.335,-0.742C0.436,-0.682 0.525,-0.625 0.601,-0.572C0.626,-0.639 0.646,-0.724 0.661,-0.829L0.941,-0.799C0.922,-0.632 0.885,-0.494 0.829,-0.387C0.886,-0.332 0.941,-0.273 0.993,-0.209L0.793,-0.004C0.745,-0.063 0.697,-0.116 0.649,-0.164C0.546,-0.077 0.399,0.002 0.208,0.071Z" style="fill:rgb(69,139,232);fill-rule:nonzero;"/>
                </g>
            </g>
            <g id="レイヤー29" transform="matrix(1,0,0,1,133.838,3963.77)">
                <g transform="matrix(2.12458,-0.56928,0.56928,2.12458,-25765.3,603.635)">
                    <path d="M13303.4,3810.96C13304.4,3853.9 13304.9,3864.06 13336,3835.83C13314.1,3866.27 13311,3863.34 13361.1,3868.66C13311,3873.98 13314.1,3871.05 13336,3901.48C13304.9,3873.25 13304.4,3883.41 13303.4,3926.36C13302.3,3883.41 13301.8,3873.25 13270.7,3901.48C13292.7,3871.05 13295.7,3873.98 13245.7,3868.66C13295.7,3863.34 13292.7,3866.27 13270.7,3835.83C13301.8,3864.06 13302.3,3853.9 13303.4,3810.96Z" style="fill:rgb(175,0,241);"/>
                </g>
                <g transform="matrix(0.600603,-0.160931,0.160931,0.600603,-3875.05,993.408)">
                    <path d="M13131.2,3967.78C13156.6,3962.62 13174.5,3951.49 13163.6,3917.12C13190.4,3926.33 13206.7,3919.66 13216.1,3902.53C13225.6,3919.66 13241.9,3926.33 13268.6,3917.12C13257.7,3951.49 13275.7,3962.62 13301.1,3967.78C13275.7,3972.93 13257.7,3984.06 13268.6,4018.43C13241.9,4009.22 13225.6,4015.89 13216.1,4033.02C13206.7,4015.89 13190.4,4009.22 13163.6,4018.43C13174.5,3984.06 13156.6,3972.93 13131.2,3967.78Z" style="fill:none;stroke:black;stroke-width:4.82px;"/>
                </g>
                <g transform="matrix(2.40755,-0.645101,0.645101,2.40755,4701.13,1249.58)">
                    <g transform="matrix(1,0,0,1,-12,-12)">
                        <g transform="matrix(0.025,0,0,0.025,0,24)">
                            <path d="M480,-89C458.333,-89 439.917,-96.583 424.75,-111.75C409.583,-126.917 402,-145.333 402,-167L558,-167C558,-145.333 550.417,-126.917 535.25,-111.75C520.083,-96.583 501.667,-89 480,-89ZM324,-209L324,-284L636,-284L636,-209L324,-209ZM333,-326C288.333,-352.667 253,-388.167 227,-432.5C201,-476.833 188,-525.29 188,-577.87C188,-659.017 216.377,-727.993 273.13,-784.8C329.883,-841.6 398.8,-870 479.88,-870C560.96,-870 629.917,-841.6 686.75,-784.8C743.583,-727.993 772,-659.017 772,-577.87C772,-525.29 759,-476.833 733,-432.5C707,-388.167 671.667,-352.667 627,-326L333,-326ZM355.82,-401L604,-401C633.667,-421.667 656.583,-447.437 672.75,-478.31C688.917,-509.19 697,-542.367 697,-577.84C697,-638.28 675.957,-689.583 633.87,-731.75C591.79,-773.917 540.5,-795 480,-795C419.5,-795 368.21,-773.94 326.13,-731.82C284.043,-689.7 263,-638.363 263,-577.81C263,-542.27 271.083,-509.083 287.25,-478.25C303.417,-447.417 326.273,-421.667 355.82,-401Z" style="fill-rule:nonzero;"/>
                        </g>
                    </g>
                </g>
            </g>
        </g>
    </g>
</svg>
