<?xml version="1.0" encoding="UTF-8" standalone="no"?>
<!DOCTYPE svg PUBLIC "-//W3C//DTD SVG 1.1//EN" "http://www.w3.org/Graphics/SVG/1.1/DTD/svg11.dtd">
<svg width="100%" height="100%" viewBox="0 0 115 115" version="1.1" xmlns="http://www.w3.org/2000/svg" xmlns:xlink="http://www.w3.org/1999/xlink" xml:space="preserve" xmlns:serif="http://www.serif.com/" style="fill-rule:evenodd;clip-rule:evenodd;stroke-linejoin:round;stroke-miterlimit:2;">
    <g transform="matrix(1,0,0,1,-11391.5,-3876.22)">
        <g id="button_fullscreen" transform="matrix(1,0,0,1,6316.31,-1011.6)">
            <rect x="5075.19" y="4887.82" width="114.596" height="114.596" style="fill:none;"/>
            <g transform="matrix(1.30769,0,0,1.30769,2138.49,2692.43)">
                <circle cx="2292.07" cy="1725.19" r="41.271"/>
            </g>
            <g transform="matrix(1.30769,0,0,1.30769,2131.83,2685.77)">
                <circle cx="2292.07" cy="1725.19" r="41.271" style="fill:rgb(27,208,69);"/>
            </g>
            <g transform="matrix(2.4455,0,0,2.4455,5129.16,4941.79)">
                <g transform="matrix(1,0,0,1,-12,-12)">
                    <g transform="matrix(0.025,0,0,0.025,0,24)">
                        <path d="M120,-120L120,-320L200,-320L200,-200L320,-200L320,-120L120,-120ZM640,-120L640,-200L760,-200L760,-320L840,-320L840,-120L640,-120ZM120,-640L120,-840L320,-840L320,-760L200,-760L200,-640L120,-640ZM760,-640L760,-760L640,-760L640,-840L840,-840L840,-640L760,-640Z" style="fill-rule:nonzero;"/>
                    </g>
                </g>
            </g>
        </g>
    </g>
</svg>
