<?xml version="1.0" encoding="UTF-8" standalone="no"?>
<!DOCTYPE svg PUBLIC "-//W3C//DTD SVG 1.1//EN" "http://www.w3.org/Graphics/SVG/1.1/DTD/svg11.dtd">
<svg width="100%" height="100%" viewBox="0 0 587 190" version="1.1" xmlns="http://www.w3.org/2000/svg" xmlns:xlink="http://www.w3.org/1999/xlink" xml:space="preserve" xmlns:serif="http://www.serif.com/" style="fill-rule:evenodd;clip-rule:evenodd;stroke-linecap:round;stroke-linejoin:round;stroke-miterlimit:1.5;">
    <g transform="matrix(1,0,0,1,-11381.1,-7102.89)">
        <g id="tag_score" transform="matrix(1,0,0,1,6635.71,1471.15)">
            <rect x="4745.37" y="5631.74" width="586.931" height="189.131" style="fill:none;"/>
            <g transform="matrix(1.20754,0,0,0.911256,3406.98,4481.55)">
                <path d="M1594.41,1397.07C1594.41,1437.18 1569.84,1469.75 1539.57,1469.75L1237.4,1469.75C1207.13,1469.75 1182.56,1437.18 1182.56,1397.07C1182.56,1356.96 1207.13,1324.4 1237.4,1324.4L1539.57,1324.4C1569.84,1324.4 1594.41,1356.96 1594.41,1397.07Z"/>
            </g>
            <g transform="matrix(1.08658,0,0,0.67769,-260.537,4860.8)">
                <g transform="matrix(60,0,0,60,4744.84,1342.5)">
                    <path d="M0.676,-0.879L0.809,-0.879L0.829,-0.696L0.696,-0.696L0.676,-0.879ZM0.846,-0.879L0.979,-0.879L0.999,-0.696L0.866,-0.696L0.846,-0.879ZM0.22,-0.845L0.494,-0.845C0.487,-0.803 0.479,-0.766 0.472,-0.733L0.672,-0.733L0.678,-0.678L0.979,-0.678L0.979,-0.48L0.886,-0.48C0.874,-0.303 0.821,-0.168 0.728,-0.077C0.634,0.015 0.492,0.072 0.302,0.094L0.155,-0.177C0.288,-0.176 0.393,-0.201 0.47,-0.253C0.546,-0.304 0.59,-0.38 0.603,-0.48L0.374,-0.48C0.335,-0.419 0.271,-0.35 0.182,-0.273L0.016,-0.505C0.083,-0.549 0.13,-0.594 0.157,-0.64C0.184,-0.685 0.205,-0.754 0.22,-0.845Z" style="fill:rgb(255,212,52);fill-rule:nonzero;"/>
                </g>
                <g transform="matrix(60,0,0,60,4802.44,1342.5)">
                    <rect x="0.086" y="-0.524" width="0.828" height="0.28" style="fill:rgb(255,212,52);fill-rule:nonzero;"/>
                </g>
                <g transform="matrix(60,0,0,60,4860.04,1342.5)">
                    <path d="M0.563,-0.474L0.813,-0.551C0.882,-0.374 0.941,-0.19 0.99,-0L0.734,0.092C0.729,0.066 0.723,0.041 0.717,0.017C0.606,0.036 0.504,0.05 0.41,0.057C0.315,0.064 0.197,0.068 0.056,0.068L0.029,-0.2C0.09,-0.324 0.143,-0.444 0.19,-0.561C0.236,-0.677 0.268,-0.77 0.285,-0.841L0.56,-0.794C0.546,-0.737 0.517,-0.651 0.473,-0.535C0.428,-0.418 0.381,-0.305 0.332,-0.196C0.445,-0.201 0.55,-0.214 0.647,-0.237C0.625,-0.307 0.597,-0.386 0.563,-0.474Z" style="fill:rgb(255,212,52);fill-rule:nonzero;"/>
                </g>
                <g transform="matrix(60,0,0,60,4917.64,1342.5)">
                    <path d="M0.092,-0.575L0.092,-0.828L0.874,-0.828C0.874,-0.647 0.834,-0.492 0.754,-0.363C0.815,-0.285 0.893,-0.171 0.987,-0.021L0.703,0.09C0.66,0.013 0.611,-0.065 0.557,-0.142C0.461,-0.061 0.336,0.017 0.182,0.093L0.013,-0.195C0.158,-0.24 0.271,-0.291 0.353,-0.349C0.434,-0.406 0.5,-0.482 0.55,-0.575L0.092,-0.575Z" style="fill:rgb(255,212,52);fill-rule:nonzero;"/>
                </g>
                <g transform="matrix(60,0,0,60,4975.24,1342.5)">
                    <path d="M0.081,-0.533L0.081,-0.798L0.925,-0.798L0.925,0.065L0.637,0.065L0.637,0.04L0.071,0.04L0.071,-0.242L0.64,-0.242L0.64,-0.533L0.081,-0.533Z" style="fill:rgb(255,212,52);fill-rule:nonzero;"/>
                </g>
                <g transform="matrix(60,0,0,60,5032.84,1342.5)">
                    <path d="M0.328,-0.517L0.605,-0.517C0.604,-0.472 0.602,-0.43 0.598,-0.391C0.653,-0.436 0.69,-0.496 0.708,-0.572L0.039,-0.572L0.039,-0.82L0.967,-0.82L0.967,-0.645C0.967,-0.555 0.948,-0.468 0.909,-0.383C0.87,-0.298 0.815,-0.221 0.742,-0.152L0.586,-0.316C0.563,-0.199 0.515,-0.11 0.442,-0.048C0.369,0.015 0.263,0.056 0.125,0.076L0.034,-0.188C0.146,-0.188 0.222,-0.211 0.263,-0.256C0.304,-0.301 0.325,-0.388 0.328,-0.517Z" style="fill:rgb(255,212,52);fill-rule:nonzero;"/>
                </g>
            </g>
            <g id="レイヤー31" transform="matrix(1.09162,0,0,1.09162,-298.603,3815.94)">
                <g transform="matrix(0.398941,-0.0550058,0.0582888,0.422752,3647.35,730.496)">
                    <ellipse cx="2277.79" cy="2625.91" rx="207.832" ry="95.782" style="fill:rgb(255,102,159);"/>
                </g>
                <g transform="matrix(0.35592,-0.0490741,0.0458973,0.332879,3777.88,952.981)">
                    <ellipse cx="2277.79" cy="2625.91" rx="207.832" ry="95.782" style="fill:none;stroke:black;stroke-width:7.9px;"/>
                </g>
                <g transform="matrix(3.08668,-0.544871,0.544871,3.08668,4709.12,1715.31)">
                    <g transform="matrix(1,0,0,1,-12,-12)">
                        <g transform="matrix(0.025,0,0,0.025,0,24)">
                            <path d="M186,-208C155,-208 130.5,-219.417 112.5,-242.25C94.5,-265.083 87.667,-292 92,-323L133,-619C139,-657 156.167,-688.667 184.5,-714C212.833,-739.333 246.333,-752 285,-752L675,-752C713.667,-752 747.167,-739.333 775.5,-714C803.833,-688.667 821,-657 827,-619L868,-323C872.333,-292 865.5,-265.083 847.5,-242.25C829.5,-219.417 805,-208 774,-208C761,-208 748.667,-210.25 737,-214.75C725.333,-219.25 714.667,-226.333 705,-236L615,-326L345,-326L255,-236C245.333,-226.333 234.667,-219.25 223,-214.75C211.333,-210.25 199,-208 186,-208ZM202.5,-289L314.5,-401L645.5,-401L757.5,-289C758.833,-287.667 764.333,-285.667 774,-283C781.333,-283 787,-285.167 791,-289.5C795,-293.833 796.333,-299.667 795,-307L752,-610C749.333,-629.333 740.75,-645.333 726.25,-658C711.75,-670.667 694.667,-677 675,-677L285,-677C265.333,-677 248.167,-670.667 233.5,-658C218.833,-645.333 210.333,-629.333 208,-610L165,-307C163.667,-299.667 165,-293.833 169,-289.5C173,-285.167 178.667,-283 186,-283C187,-283 192.5,-285 202.5,-289ZM677,-441C687.667,-441 696.833,-444.833 704.5,-452.5C712.167,-460.167 716,-469.333 716,-480C716,-490.667 712.167,-499.833 704.5,-507.5C696.833,-515.167 687.667,-519 677,-519C666.333,-519 657.167,-515.167 649.5,-507.5C641.833,-499.833 638,-490.667 638,-480C638,-469.333 641.833,-460.167 649.5,-452.5C657.167,-444.833 666.333,-441 677,-441ZM598,-559C608.667,-559 617.833,-562.833 625.5,-570.5C633.167,-578.167 637,-587.333 637,-598C637,-608.667 633.167,-617.833 625.5,-625.5C617.833,-633.167 608.667,-637 598,-637C587.333,-637 578.167,-633.167 570.5,-625.5C562.833,-617.833 559,-608.667 559,-598C559,-587.333 562.833,-578.167 570.5,-570.5C578.167,-562.833 587.333,-559 598,-559ZM314,-442L371,-442L371,-511L440,-511L440,-567L371,-567L371,-636L314,-636L314,-567L245,-567L245,-511L314,-511L314,-442Z" style="fill-rule:nonzero;"/>
                        </g>
                    </g>
                </g>
            </g>
        </g>
    </g>
</svg>
