<?xml version="1.0" encoding="UTF-8" standalone="no"?>
<!DOCTYPE svg PUBLIC "-//W3C//DTD SVG 1.1//EN" "http://www.w3.org/Graphics/SVG/1.1/DTD/svg11.dtd">
<svg width="100%" height="100%" viewBox="0 0 565 212" version="1.1" xmlns="http://www.w3.org/2000/svg" xmlns:xlink="http://www.w3.org/1999/xlink" xml:space="preserve" xmlns:serif="http://www.serif.com/" style="fill-rule:evenodd;clip-rule:evenodd;stroke-linecap:round;stroke-linejoin:round;stroke-miterlimit:1.5;">
    <g transform="matrix(1,0,0,1,-15604.2,-7360.23)">
        <g id="tag_history" transform="matrix(1,0,0,1,10836.4,1264.15)">
            <rect x="4767.87" y="6096.08" width="564.428" height="211.476" style="fill:none;"/>
            <clipPath id="_clip1">
                <rect x="4767.87" y="6096.08" width="564.428" height="211.476"/>
            </clipPath>
            <g clip-path="url(#_clip1)">
                <g transform="matrix(1.20754,0,0,0.911256,3406.98,4968.23)">
                    <path d="M1594.41,1397.07C1594.41,1437.18 1569.84,1469.75 1539.57,1469.75L1237.4,1469.75C1207.13,1469.75 1182.56,1437.18 1182.56,1397.07C1182.56,1356.96 1207.13,1324.4 1237.4,1324.4L1539.57,1324.4C1569.84,1324.4 1594.41,1356.96 1594.41,1397.07Z"/>
                </g>
                <g transform="matrix(1.08658,0,0,0.67769,-202.253,5346.98)">
                    <g transform="matrix(60,0,0,60,4744.84,1342.5)">
                        <path d="M0.11,0.094C0.071,-0.039 0.034,-0.141 -0.002,-0.211C0.12,-0.24 0.211,-0.286 0.271,-0.351C0.331,-0.415 0.364,-0.5 0.369,-0.607L0.236,-0.607L0.236,-0.854L0.613,-0.854L0.613,-0.852L0.63,-0.852L0.629,-0.639C0.628,-0.522 0.658,-0.43 0.719,-0.361C0.779,-0.292 0.873,-0.242 1.002,-0.211C0.966,-0.141 0.929,-0.039 0.89,0.094C0.805,0.068 0.729,0.024 0.661,-0.039C0.593,-0.102 0.539,-0.177 0.5,-0.266C0.458,-0.173 0.402,-0.096 0.332,-0.035C0.262,0.027 0.188,0.07 0.11,0.094Z" style="fill:rgb(27,208,69);fill-rule:nonzero;"/>
                    </g>
                    <g transform="matrix(60,0,0,60,4805.44,1342.5)">
                        <path d="M0.758,-0.113C0.778,-0.113 0.788,-0.118 0.788,-0.128C0.788,-0.132 0.788,-0.137 0.787,-0.144L0.787,-0.165L0.769,-0.165C0.768,-0.163 0.767,-0.157 0.765,-0.146C0.763,-0.134 0.761,-0.124 0.758,-0.113ZM0.319,-0.332L0.278,-0.332L0.278,-0.425L0.251,-0.425L0.251,-0.279L0.296,-0.294C0.303,-0.304 0.308,-0.313 0.313,-0.32C0.317,-0.327 0.319,-0.331 0.319,-0.332ZM0.522,-0.615L0.522,-0.594L0.737,-0.594L0.737,-0.615L0.522,-0.615ZM0.737,-0.687L0.737,-0.707L0.522,-0.707L0.522,-0.687L0.737,-0.687ZM0.975,-0.332L0.489,-0.332L0.48,-0.311L0.967,-0.311L0.967,-0.142C0.967,-0.063 0.952,-0.006 0.921,0.031C0.89,0.067 0.842,0.085 0.776,0.085C0.772,0.021 0.763,-0.034 0.749,-0.08C0.73,-0.018 0.7,0.039 0.658,0.091C0.586,0.058 0.529,0.041 0.488,0.041C0.486,0.041 0.47,0.042 0.467,0.042C0.544,-0.033 0.595,-0.102 0.619,-0.165L0.594,-0.165C0.547,-0.07 0.473,0.012 0.37,0.081C0.34,0.058 0.313,0.041 0.288,0.03C0.263,0.019 0.232,0.01 0.196,0.003C0.306,-0.052 0.383,-0.108 0.428,-0.165L0.398,-0.165C0.375,-0.136 0.351,-0.111 0.326,-0.09C0.314,-0.135 0.302,-0.17 0.291,-0.194C0.289,-0.148 0.288,-0.103 0.288,-0.06C0.26,-0.046 0.222,-0.031 0.173,-0.014C0.124,0.004 0.079,0.016 0.038,0.025C0.034,-0.05 0.025,-0.133 0.012,-0.224C0.029,-0.225 0.045,-0.228 0.06,-0.231L0.06,-0.425L0.018,-0.425L0.018,-0.65L0.06,-0.65L0.06,-0.819L0.251,-0.819L0.251,-0.65L0.296,-0.65L0.296,-0.462L0.975,-0.462L0.975,-0.332ZM0.315,-0.82L0.943,-0.82L0.943,-0.483L0.315,-0.483L0.315,-0.82Z" style="fill:rgb(27,208,69);fill-rule:nonzero;"/>
                    </g>
                    <g transform="matrix(60,0,0,60,4866.04,1342.5)">
                        <path d="M0.642,-0.114C0.66,-0.105 0.685,-0.093 0.718,-0.08C0.739,-0.089 0.76,-0.101 0.779,-0.114L0.642,-0.114ZM0.436,-0.052C0.468,-0.046 0.501,-0.043 0.535,-0.043L0.553,-0.043L0.527,-0.058L0.603,-0.114L0.583,-0.114C0.55,-0.091 0.516,-0.07 0.483,-0.05C0.476,-0.072 0.461,-0.1 0.436,-0.133L0.436,-0.052ZM0.468,-0.307L0.436,-0.281L0.436,-0.169C0.472,-0.18 0.511,-0.201 0.553,-0.234L0.468,-0.234L0.468,-0.307ZM0.622,-0.308L0.622,-0.292L0.811,-0.292L0.811,-0.308L0.622,-0.308ZM0.811,-0.35L0.811,-0.366L0.622,-0.366L0.622,-0.35L0.811,-0.35ZM0.437,-0.386L0.468,-0.349L0.468,-0.382L0.437,-0.386ZM0.267,-0.317C0.282,-0.325 0.306,-0.341 0.339,-0.364C0.372,-0.387 0.397,-0.403 0.414,-0.414L0.415,-0.413C0.42,-0.421 0.424,-0.429 0.429,-0.437C0.433,-0.444 0.435,-0.449 0.436,-0.45C0.411,-0.433 0.375,-0.411 0.327,-0.385L0.284,-0.36C0.283,-0.365 0.28,-0.376 0.277,-0.395C0.273,-0.414 0.27,-0.427 0.267,-0.436L0.267,-0.317ZM0.458,-0.5C0.462,-0.514 0.467,-0.537 0.474,-0.57L0.44,-0.57L0.458,-0.5ZM0.393,-0.57L0.267,-0.57L0.267,-0.509C0.31,-0.526 0.352,-0.546 0.393,-0.57ZM0.749,-0.68L0.749,-0.701L0.267,-0.701L0.267,-0.68L0.749,-0.68ZM0.277,-0.156C0.272,-0.152 0.268,-0.145 0.266,-0.134C0.263,-0.123 0.26,-0.095 0.256,-0.052C0.252,-0.009 0.246,0.036 0.239,0.082C0.142,0.044 0.063,0.019 0.002,0.006C0.021,-0.054 0.034,-0.122 0.039,-0.197C0.044,-0.272 0.047,-0.413 0.047,-0.62L0.047,-0.814L0.965,-0.812L0.962,-0.701L0.962,-0.57L0.638,-0.57L0.635,-0.552L0.975,-0.552L0.975,-0.449L0.604,-0.449L0.595,-0.43L0.964,-0.43L0.964,-0.234L0.716,-0.234L0.698,-0.214L0.951,-0.214L0.963,-0.12L0.89,-0.056C0.917,-0.057 0.949,-0.06 0.988,-0.067C0.971,-0.023 0.959,0.023 0.951,0.07C0.867,0.06 0.8,0.048 0.749,0.035C0.724,0.045 0.696,0.052 0.666,0.057C0.635,0.062 0.586,0.066 0.517,0.071L0.488,0.073C0.472,0.033 0.455,-0.001 0.436,-0.028L0.436,0.074L0.277,0.074L0.277,-0.156Z" style="fill:rgb(27,208,69);fill-rule:nonzero;"/>
                    </g>
                    <g transform="matrix(60,0,0,60,4926.04,1342.5)">
                        <path d="M0.681,-0.267L0.681,-0.341C0.67,-0.314 0.654,-0.289 0.634,-0.267L0.681,-0.267ZM0.244,-0.107L0.291,-0.107L0.291,-0.234L0.492,-0.234L0.492,-0.107L0.52,-0.107L0.52,-0.267L0.608,-0.267C0.597,-0.3 0.585,-0.331 0.572,-0.359C0.565,-0.338 0.559,-0.308 0.552,-0.269C0.537,-0.28 0.521,-0.295 0.506,-0.312L0.506,-0.251L0.349,-0.251L0.349,-0.325C0.335,-0.287 0.316,-0.26 0.291,-0.245C0.286,-0.304 0.274,-0.352 0.257,-0.387C0.255,-0.262 0.251,-0.168 0.244,-0.107ZM0.681,-0.608L0.681,-0.629L0.506,-0.629L0.506,-0.608L0.582,-0.608L0.582,-0.47L0.512,-0.47C0.541,-0.448 0.572,-0.434 0.605,-0.428L0.597,-0.416C0.63,-0.429 0.655,-0.447 0.67,-0.47L0.599,-0.47L0.599,-0.608L0.681,-0.608ZM0.258,-0.629L0.258,-0.539C0.258,-0.476 0.258,-0.437 0.257,-0.421C0.296,-0.433 0.32,-0.449 0.331,-0.47L0.271,-0.47L0.271,-0.608L0.349,-0.608L0.349,-0.629L0.258,-0.629ZM0,-0.024C0.02,-0.087 0.033,-0.155 0.04,-0.228C0.046,-0.301 0.049,-0.423 0.049,-0.595L0.049,-0.821L0.976,-0.819L0.977,-0.629L0.844,-0.629L0.844,-0.608L0.935,-0.608L0.935,-0.47L0.855,-0.47C0.88,-0.446 0.914,-0.428 0.955,-0.416C0.937,-0.378 0.924,-0.321 0.916,-0.245C0.883,-0.264 0.859,-0.297 0.844,-0.344L0.844,-0.251L0.72,-0.251L0.72,-0.23L0.934,-0.23L0.934,-0.126L0.72,-0.126L0.72,-0.107L0.967,-0.107L0.967,0.065L0.24,0.065L0.24,-0.068C0.234,-0.014 0.225,0.034 0.212,0.075C0.153,0.04 0.11,0.017 0.083,0.004C0.056,-0.009 0.028,-0.018 0,-0.024Z" style="fill:rgb(27,208,69);fill-rule:nonzero;"/>
                    </g>
                </g>
                <g transform="matrix(0.705883,0,0,0.705883,3402.41,4711.2)">
                    <circle cx="2029.46" cy="2056.96" r="95.056" style="fill:rgb(69,139,232);"/>
                </g>
                <g transform="matrix(0.552689,0,0,0.552689,3713.31,5026.31)">
                    <circle cx="2029.46" cy="2056.96" r="95.056" style="fill:none;stroke:black;stroke-width:5.43px;"/>
                </g>
                <g transform="matrix(3.5487,-0.561822,0.561822,3.5487,4834.97,6163.17)">
                    <g transform="matrix(1,0,0,1,-12,-12)">
                        <g transform="matrix(0.025,0,0,0.025,0,24)">
                            <path d="M480,-120C388,-120 307.833,-150.5 239.5,-211.5C171.167,-272.5 132,-348.667 122,-440L204,-440C213.333,-370.667 244.167,-313.333 296.5,-268C348.833,-222.667 410,-200 480,-200C558,-200 624.167,-227.167 678.5,-281.5C732.833,-335.833 760,-402 760,-480C760,-558 732.833,-624.167 678.5,-678.5C624.167,-732.833 558,-760 480,-760C434,-760 391,-749.333 351,-728C311,-706.667 277.333,-677.333 250,-640L360,-640L360,-560L120,-560L120,-800L200,-800L200,-706C234,-748.667 275.5,-781.667 324.5,-805C373.5,-828.333 425.333,-840 480,-840C530,-840 576.833,-830.5 620.5,-811.5C664.167,-792.5 702.167,-766.833 734.5,-734.5C766.833,-702.167 792.5,-664.167 811.5,-620.5C830.5,-576.833 840,-530 840,-480C840,-430 830.5,-383.167 811.5,-339.5C792.5,-295.833 766.833,-257.833 734.5,-225.5C702.167,-193.167 664.167,-167.5 620.5,-148.5C576.833,-129.5 530,-120 480,-120ZM592,-312L440,-464L440,-680L520,-680L520,-496L648,-368L592,-312Z" style="fill-rule:nonzero;"/>
                        </g>
                    </g>
                </g>
            </g>
        </g>
    </g>
</svg>
